<?xml version="1.0" encoding="utf-8"?>
<!-- Generator: Adobe Illustrator 21.0.0, SVG Export Plug-In . SVG Version: 6.00 Build 0)  -->
<svg version="1.1" id="Layer_1" xmlns="http://www.w3.org/2000/svg" xmlns:xlink="http://www.w3.org/1999/xlink" x="0px" y="0px"
	 viewBox="0 0 40 50" style="enable-background:new 0 0 40 50;" xml:space="preserve">
<style type="text/css">
	.st0{fill:#FFC864;}
	.st1{fill:#76C043;}
	.st2{fill:#F68920;}
</style>
<g>
	<g>
		<path class="st0" d="M19,17.3c-1.1,1.4-2.2,2.9-3.3,4.3c-1.7,2.1-2.5,4.3-1.1,6.9c1,2.6,3.3,3.9,5.7,5c1.6,0.7,3.3,1.7,5.3,1
			c2.3,0,4.2-0.6,5.2-2.8c-0.2-0.8-1-1.1-1.7-1.4c-1.7-0.9-3.3-1.9-4.8-3.2c-0.6-0.5-1.5-1.1-1.1-1.8c0.4-0.8,1.6-0.5,2.3-0.3
			c2,0.4,3.7,1.5,5.5,2.3c0.6,0.3,1.1,0.8,1.8,0.6c1.5-2.8,2.4-5.7,3.4-8.7c-0.9-1-2.2-1.4-3.3-2.1c-1.6-0.9-3.2-1.9-4.4-3.3
			c-0.4-0.4-1-0.8-0.6-1.5c0.4-0.6,1.1-0.4,1.7-0.3c2.9,0.7,5.4,2,7.8,3.6C38.7,11,40.1,6.4,40,1.6c0-1.6-0.6-1.9-2.2-1.2
			c-2.5,1.1-4.5,2.9-6.5,4.7c-3.3,2.9-6.7,5.8-9.4,9.2c0,1.1,1.1,1.3,1.8,1.7c1.9,1,3.8,2.2,5.3,3.7c0.4,0.4,0.9,0.8,0.6,1.3
			c-0.3,0.7-1.1,0.5-1.6,0.4c-2.5-0.4-4.5-1.7-6.7-2.7C20.5,18.2,19.8,17.7,19,17.3z"/>
		<path class="st1" d="M25.6,34.4c-4.6-0.4-8.2-2.6-11-6c-3.3,1-6.7,1.8-9.7,3.7c-2.1,1.3-4.1,2.6-4.8,5.2c-0.7,2.6,0.8,4.4,3.7,3.9
			c2.1-0.4,4.2-1,6.2-1.8c0.3-0.1,0.5-0.2,0.9-0.3c-0.1,1.3-1,2.1-1.6,3c-1,1.5-1.1,3.1-1,4.8c0.1,1.3,0.7,1.6,1.9,1.1
			c1.4-0.5,2.5-1.4,3.5-2.3c1-0.8,1.9-1.8,2.9-2.7c0.3-0.3,0.6-0.8,1.2-0.6c0.7,0.2,0.4,0.8,0.4,1.2c0.2,1.6-0.1,3.2,0.3,4.8
			c0.5,1.8,1.9,2.2,3.4,1c2.6-2,3.1-4.8,3.6-7.6C26.1,39.3,26.1,36.9,25.6,34.4z"/>
		<path class="st2" d="M19,17.3c0,0.4,0.2,0.6,0.6,0.8c2.1,1.2,4.4,2.3,6.6,3.3c0.8,0.4,1.7,0.6,2.7,0.5c0.6-0.1,1.3,0.1,1.5-0.6
			c0.2-0.6-0.1-1.1-0.6-1.5c-1.6-1.7-3.5-3-5.6-4.1c-0.8-0.4-1.6-0.8-2.2-1.4C20.6,14.9,20,16.3,19,17.3z"/>
		<path class="st2" d="M37.4,15.6c-0.1-0.3-0.1-0.7-0.5-0.9c-2.3-1.4-4.7-2.6-7.4-3.2c-0.8-0.2-1.8-0.4-2.3,0.5
			c-0.5,0.9,0.4,1.5,0.9,2c2.3,2.3,5.1,3.8,8.1,5C36.7,17.9,37.1,16.8,37.4,15.6z"/>
		<path class="st2" d="M32.9,27.7c-2.1-1.2-4.3-2.4-6.6-3.2c-1.3-0.4-3-0.9-3.7,0.2c-0.6,1,0.9,2,1.8,2.8c1.9,1.7,4.2,2.7,6.4,4
			C31.9,30.5,32.5,29.2,32.9,27.7z"/>
	</g>
</g>
</svg>
