<?xml version="1.0" encoding="UTF-8" standalone="no"?>
<svg
   xmlns:dc="http://purl.org/dc/elements/1.1/"
   xmlns:cc="http://creativecommons.org/ns#"
   xmlns:rdf="http://www.w3.org/1999/02/22-rdf-syntax-ns#"
   xmlns:svg="http://www.w3.org/2000/svg"
   xmlns="http://www.w3.org/2000/svg"
   xmlns:sodipodi="http://sodipodi.sourceforge.net/DTD/sodipodi-0.dtd"
   xmlns:inkscape="http://www.inkscape.org/namespaces/inkscape"
   version="1.1"
   id="svg8"
   inkscape:version="1.0.1 (3bc2e813f5, 2020-09-07)"
   sodipodi:docname="header.svg"
   x="0px"
   y="0px"
   viewBox="0 0 2287.7167 279.68504"
   xml:space="preserve"
   width="2287.7166"
   height="279.68503"><metadata
   id="metadata113"><rdf:RDF><cc:Work
       rdf:about=""><dc:format>image/svg+xml</dc:format><dc:type
         rdf:resource="http://purl.org/dc/dcmitype/StillImage" /></cc:Work></rdf:RDF></metadata><defs
   id="defs111">
		
		
		
		
		
		
		
		
		
		
		
		
		
		
		
		
		
	
			
			
		
			
			
		
			
			
		
			
			
		
			
			
		
			
			
		
			
			
		
			
			
		
			
			
		
			
			
		
			
			
		
			
			
		
			
			
		
			
			
		
			
			
		
			
			
		
			
			
		</defs>
<style
   type="text/css"
   id="style2">
	.st0{fill:#008081;}
	.st1{fill:#F26722;}
</style>
<sodipodi:namedview
   bordercolor="#666666"
   borderopacity="1.0"
   id="base"
   inkscape:current-layer="g961"
   inkscape:cx="1172.7989"
   inkscape:cy="353.19487"
   inkscape:document-rotation="0"
   inkscape:document-units="mm"
   inkscape:pageopacity="0.0"
   inkscape:pageshadow="2"
   inkscape:window-height="1008"
   inkscape:window-maximized="0"
   inkscape:window-width="1443"
   inkscape:window-x="461"
   inkscape:window-y="0"
   inkscape:zoom="0.35"
   pagecolor="#ffffff"
   showgrid="false">
	</sodipodi:namedview>
<g
   id="layer1"
   transform="translate(77.00038,-482.0457)"
   inkscape:groupmode="layer"
   inkscape:label="Capa 1">
	
	<g
   id="g1260"><g
     id="g1263"
     style="opacity:1" /><g
     id="g1151"
     transform="translate(-59.000381,456.0457)"><g
       id="g1044"><g
         id="text835"
         transform="matrix(3.2070663,0,0,3.2073974,39.727194,-57.392332)">
		<g
   id="g925">
			<path
   id="path927"
   class="st0"
   d="m 2.9,88.7 c -0.6,3 -0.8,5.6 -0.8,7.7 0,2.2 0.4,3.8 1.2,4.9 -3.3,0 -5.7,-0.3 -7.1,-1 -2.9,-1.4 -4.3,-4.1 -4.3,-8 0,-5.9 2.5,-14.1 7.4,-24.7 1.5,-3.3 3.3,-6.6 5.1,-9.8 -2.7,0.2 -4.8,0.6 -6.6,1.2 -1.7,0.6 -2.8,1.7 -3.4,3.2 0.2,0 0.5,0.3 0.7,0.9 0.2,0.6 0.4,1.2 0.4,2.1 0,0.8 -0.5,1.5 -1.4,2.2 -0.9,0.6 -1.9,0.9 -2.9,0.9 -1.9,0 -3.3,-0.4 -4.3,-1.3 -1,-0.9 -1.5,-2.1 -1.5,-3.6 0,-2.9 1.6,-5.4 4.9,-7.5 3.3,-2 7.5,-3.1 12.4,-3.1 1.1,0 2.6,0.1 4.4,0.2 4.6,-7.2 9.5,-13.2 14.6,-17.9 5.2,-4.8 10.2,-7.1 14.9,-7.1 2.9,0 5.1,0.4 6.7,1.2 L 30.2,91.6 H 17.9 L 24.4,60.8 C 20.6,59.1 16.8,58.1 13,57.7 8,69 4.6,79.3 2.9,88.7 Z M 14.9,54 c 4,0.8 7.4,1.8 10.4,2.9 l 4.9,-23.1 c -4.9,2.7 -10,9.5 -15.3,20.2 z" />
			<path
   id="path929"
   class="st0"
   d="m 36.8,27.5 c -4.9,0 -10,2.4 -15.2,7.2 -5.1,4.7 -10,10.7 -14.5,17.8 -1.7,-0.2 -3.2,-0.2 -4.3,-0.2 -5,0 -9.2,1 -12.6,3.1 v 0 c -3.4,2.1 -5.1,4.7 -5.1,7.8 0,1.6 0.5,2.9 1.6,3.8 v 0 0 c 1.1,0.9 2.6,1.4 4.5,1.4 1.1,0 2.1,-0.3 3.1,-0.9 1,-0.7 1.6,-1.5 1.6,-2.5 0,-0.9 -0.1,-1.6 -0.4,-2.2 v 0 c -0.1,-0.3 -0.3,-0.6 -0.4,-0.7 0,0 -0.1,0 -0.1,0 0.6,-1.2 1.5,-2.2 3,-2.7 1.5,-0.6 3.5,-0.9 5.7,-1.1 -1.7,3 -3.3,6.1 -4.8,9.2 v 0 c -5,10.5 -7.4,18.8 -7.4,24.8 0,4 1.5,6.8 4.5,8.3 1.5,0.7 3.9,1.1 7.2,1.1 h 0.7 l -0.4,-0.6 c -0.7,-1 -1.1,-2.5 -1.1,-4.6 0,-2.1 0.3,-4.7 0.8,-7.7 v 0 c 1.7,-9.3 5.1,-19.5 10.1,-30.6 3.6,0.3 7.2,1.3 10.7,2.9 L 17.5,92 h 13 L 43.9,28.9 43.6,28.8 C 42,27.9 39.7,27.5 36.8,27.5 Z m 0,0.7 c 2.7,0 4.8,0.4 6.3,1.1 L 29.9,91.2 H 18.4 L 24.9,60.5 24.6,60.4 C 20.8,58.7 17,57.6 13.1,57.3 h -0.3 l -0.1,0.2 C 7.6,68.8 4.2,79.2 2.5,88.6 c -0.6,3 -0.8,5.6 -0.8,7.8 0,1.9 0.4,3.3 1.1,4.4 -3,0 -5.3,-0.3 -6.4,-0.9 -2.8,-1.4 -4.1,-3.9 -4.1,-7.6 0,-5.8 2.4,-14 7.4,-24.6 1.5,-3.3 3.2,-6.6 5.1,-9.8 L 5,57.3 H 4.3 c -2.7,0.2 -4.9,0.6 -6.7,1.3 -1.8,0.7 -3,1.8 -3.6,3.4 l -0.2,0.5 h 0.6 c 0,0 0,0 0.1,0.1 0.1,0.1 0.2,0.3 0.3,0.6 v 0 c 0.2,0.5 0.3,1.1 0.3,1.9 0,0.7 -0.4,1.3 -1.2,1.8 -0.9,0.5 -1.7,0.8 -2.7,0.8 -1.8,0 -3.1,-0.4 -4,-1.2 v 0 c -0.9,-0.8 -1.3,-1.9 -1.3,-3.3 0,-2.8 1.5,-5.1 4.8,-7.1 3.3,-2 7.3,-3 12.2,-3 1.1,0 2.6,0.1 4.4,0.2 H 7.5 L 7.6,53.1 C 12.1,45.9 17,40 22.1,35.3 c 5.1,-4.7 10,-7.1 14.7,-7.1 z m -6.1,5 -0.7,0.3 C 25,36.2 19.9,43 14.5,53.8 l -0.2,0.4 0.5,0.1 c 3.9,0.8 7.4,1.8 10.3,2.9 l 0.4,0.2 z M 29.6,35 25,56.5 c -2.8,-1.1 -5.9,-2 -9.5,-2.7 4.9,-9.9 9.6,-16 14.1,-18.8 z" />
		</g>
		<g
   id="g931">
			<path
   id="path933"
   class="st0"
   d="M 67.7,76.4 C 64.1,86.9 58,92.1 49.4,92.1 c -2.2,0 -4.2,-0.8 -6,-2.4 -1.7,-1.6 -2.6,-4.2 -2.6,-7.8 0,-1.6 0.2,-3.5 0.7,-5.6 L 50.6,33.7 63.2,32 53.4,78 c -0.2,1 -0.3,2 -0.3,3 0,1.9 1.1,2.9 3.4,2.9 1.7,0 3.2,-0.7 4.6,-2.2 1.4,-1.4 2.5,-3.2 3.1,-5.4 z" />
			<path
   id="path935"
   class="st0"
   d="m 63.6,31.7 -13.4,1.8 -9.1,42.8 c -0.4,2.1 -0.7,4 -0.7,5.6 0,3.6 0.9,6.3 2.7,8 1.8,1.7 3.9,2.5 6.3,2.5 4.4,0 8.1,-1.3 11.2,-4 3.1,-2.7 5.6,-6.7 7.4,-12 l 0.2,-0.5 h -0.5 -3.9 l -0.1,0.3 c -0.6,2.1 -1.6,3.8 -3,5.2 v 0 0 c -1.4,1.4 -2.8,2 -4.3,2 -1.1,0 -1.9,-0.2 -2.3,-0.6 -0.5,-0.4 -0.7,-1 -0.7,-1.9 0,-1 0.1,-1.9 0.3,-2.9 v 0 z M 62.7,32.5 53,77.9 c -0.2,1 -0.3,2.1 -0.3,3.1 0,1 0.3,1.9 1,2.4 0.7,0.6 1.6,0.8 2.8,0.8 1.8,0 3.4,-0.8 4.9,-2.3 v 0 c 1.4,-1.4 2.4,-3.2 3,-5.2 h 2.8 c -1.8,4.9 -4.1,8.7 -7,11.1 -3,2.6 -6.5,3.8 -10.7,3.8 -2.1,0 -4.1,-0.8 -5.8,-2.3 -1.6,-1.5 -2.5,-4 -2.5,-7.5 0,-1.6 0.2,-3.4 0.7,-5.5 l 9,-42.3 z" />
		</g>
		<g
   id="g937">
			<path
   id="path939"
   class="st0"
   d="M 99.7,76.4 C 93.3,86.9 85.5,92.1 76.3,92.1 72.3,92.1 69,91.1 66.6,89 64.2,86.9 63,83.4 63,78.6 c 0,-6.5 1.6,-12.7 4.9,-18.8 2.5,-4.6 5.9,-7.9 10.3,-9.9 2.2,-1.1 4.6,-1.6 7,-1.6 3.9,0 6.6,0.7 8,2.2 1.4,1.5 2.1,3.4 2.1,5.9 0,4.8 -2,9 -5.9,12.4 -3.9,3.4 -8.5,5.2 -13.7,5.6 -0.1,1.6 -0.2,2.7 -0.2,3.4 0,2.9 0.5,4.8 1.5,5.8 1,0.9 2.5,1.4 4.3,1.4 3.3,0 6,-0.7 8.2,-2.2 2.2,-1.5 4.6,-3.6 7.1,-6.4 z M 88.8,55.9 c 0,-2 -0.7,-3.1 -2.1,-3.1 -2.1,0.1 -4.1,1.9 -6,5.5 -1.9,3.6 -3.3,7.6 -4.2,12 3.3,-0.2 6.1,-1.7 8.6,-4.6 2.5,-2.7 3.7,-6 3.7,-9.8 z" />
			<path
   id="path941"
   class="st0"
   d="m 85.3,48 c -2.5,0 -4.8,0.5 -7.1,1.6 -4.4,2 -7.9,5.4 -10.5,10 -3.3,6.1 -5,12.4 -5,19 0,4.9 1.2,8.5 3.7,10.7 v 0 c 2.5,2.1 5.8,3.2 9.9,3.2 9.4,0 17.3,-5.4 23.7,-15.9 l 0.3,-0.6 h -0.7 -3.1 l -0.1,0.1 c -2.5,2.8 -4.8,4.9 -7,6.4 -2.1,1.4 -4.8,2.1 -8,2.1 -1.8,0 -3.1,-0.4 -4.1,-1.3 -0.9,-0.8 -1.4,-2.6 -1.4,-5.5 0,-0.6 0.1,-1.7 0.2,-3.1 5.2,-0.4 9.7,-2.2 13.6,-5.6 4,-3.5 6,-7.7 6,-12.7 0,-2.5 -0.7,-4.6 -2.2,-6.2 C 92,48.7 89.2,48 85.3,48 Z m 0,0.7 c 3.9,0 6.4,0.8 7.7,2.1 v 0 c 1.3,1.4 2,3.2 2,5.6 0,4.7 -1.9,8.7 -5.7,12.1 -3.8,3.3 -8.3,5.1 -13.5,5.5 h -0.3 v 0.3 c -0.1,1.6 -0.2,2.7 -0.2,3.4 0,2.9 0.5,5 1.7,6 v 0 c 1.1,1 2.6,1.5 4.6,1.5 3.3,0 6.1,-0.7 8.4,-2.2 v 0 c 2.2,-1.5 4.6,-3.6 7,-6.4 h 2 c -6.2,10 -13.7,15 -22.6,15 -4,0 -7.1,-1 -9.4,-3 -2.3,-2 -3.5,-5.3 -3.5,-10.1 0,-6.4 1.6,-12.6 4.9,-18.6 2.5,-4.6 5.9,-7.8 10.1,-9.7 v 0 c 2.1,-0.9 4.4,-1.5 6.8,-1.5 z m 1.4,3.8 c -1.1,0 -2.3,0.6 -3.3,1.5 -1,1 -2.1,2.4 -3,4.2 -2,3.6 -3.4,7.7 -4.2,12.1 L 76,70.8 h 0.5 c 3.4,-0.2 6.3,-1.8 8.8,-4.7 2.5,-2.9 3.8,-6.3 3.8,-10.1 0,-1.1 -0.2,-1.9 -0.6,-2.5 -0.3,-0.7 -1,-1 -1.8,-1 z m 0,0.7 c 0.6,0 1,0.2 1.3,0.6 0.3,0.4 0.5,1.1 0.5,2.1 0,3.7 -1.2,6.9 -3.6,9.6 v 0 0 c -2.2,2.6 -4.8,3.9 -7.7,4.3 0.9,-4.1 2.1,-7.9 3.9,-11.3 v 0 c 1,-1.8 1.9,-3.1 2.9,-4 0.9,-0.8 1.8,-1.3 2.7,-1.3 z" />
		</g>
		<g
   id="g943">
			<path
   id="path945"
   class="st0"
   d="m 123.1,76.4 c -3.7,10.5 -9.8,15.7 -18.3,15.7 -2.2,0 -4.2,-0.8 -6,-2.4 -1.7,-1.6 -2.6,-4.2 -2.6,-7.8 0,-1.6 0.2,-3.5 0.7,-5.6 L 106,33.7 118.6,32 108.7,78 c -0.2,1 -0.3,2 -0.3,3 0,1.9 1.1,2.9 3.4,2.9 1.7,0 3.2,-0.7 4.6,-2.2 1.4,-1.4 2.5,-3.2 3.1,-5.4 h 3.6 z" />
			<path
   id="path947"
   class="st0"
   d="m 118.9,31.7 -13.4,1.8 -9.1,42.8 c -0.4,2.1 -0.7,4 -0.7,5.6 0,3.6 0.9,6.3 2.7,8 1.8,1.7 3.9,2.5 6.3,2.5 4.4,0 8.1,-1.3 11.2,-4 3.1,-2.7 5.6,-6.7 7.4,-12 l 0.2,-0.5 h -0.5 -3.9 l -0.1,0.3 c -0.6,2.1 -1.6,3.8 -3,5.2 v 0 c -1.4,1.4 -2.8,2 -4.3,2 -1.1,0 -1.9,-0.2 -2.3,-0.6 -0.5,-0.4 -0.7,-1 -0.7,-1.9 0,-1 0.1,-1.9 0.3,-2.9 v 0 z m -0.9,0.8 -9.6,45.4 c -0.2,1 -0.3,2.1 -0.3,3.1 0,1 0.3,1.9 1,2.4 0.7,0.6 1.6,0.8 2.8,0.8 1.8,0 3.4,-0.8 4.9,-2.3 v 0 c 1.4,-1.4 2.4,-3.2 3,-5.2 h 2.8 c -1.8,4.9 -4.1,8.7 -7,11.1 -3,2.6 -6.5,3.8 -10.7,3.8 -2.1,0 -4.1,-0.8 -5.8,-2.3 -1.6,-1.5 -2.5,-4 -2.5,-7.5 0,-1.6 0.2,-3.4 0.7,-5.5 l 9,-42.3 z" />
		</g>
		<g
   id="g949">
			<path
   id="path951"
   class="st0"
   d="m 130.9,77 c 0,4.7 1.8,7.1 5.4,7.1 1.6,0 3.3,-0.5 5.1,-1.4 1.9,-0.9 3.5,-2 4.8,-3.2 -1.5,8.4 -6.4,12.6 -14.7,12.6 -4,0 -7.2,-1 -9.6,-3.1 -2.4,-2.1 -3.6,-5.6 -3.6,-10.4 0,-6.5 1.6,-12.7 4.9,-18.8 2.5,-4.6 5.9,-7.9 10.3,-9.9 2.2,-1.1 4.6,-1.6 7,-1.6 3.9,0 6.6,0.7 8,2.2 1.4,1.5 2.1,3.4 2.1,5.9 0,4.9 -2,9 -5.9,12.4 -3.9,3.4 -8.4,5.2 -13.7,5.6 -0.1,0.8 -0.1,1.7 -0.1,2.6 z m 13.2,-21.1 c 0,-2 -0.7,-3.1 -2.1,-3.1 -2.7,0.1 -5.3,3.2 -7.8,9.4 -1.1,2.6 -1.9,5.3 -2.5,8.1 3.3,-0.1 6.1,-1.6 8.6,-4.4 2.5,-2.8 3.8,-6.1 3.8,-10 z" />
			<path
   id="path953"
   class="st0"
   d="m 140.5,48 c -2.5,0 -4.8,0.5 -7.1,1.6 -4.4,2 -7.9,5.4 -10.5,10 -3.3,6.1 -5,12.4 -5,19 0,4.9 1.2,8.5 3.7,10.7 v 0 c 2.5,2.1 5.8,3.2 9.8,3.2 4.2,0 7.6,-1.1 10.1,-3.2 2.5,-2.2 4.2,-5.4 4.9,-9.6 l 0.2,-1.1 -0.8,0.7 c -1.3,1.2 -2.9,2.2 -4.7,3.1 v 0 c -1.8,0.9 -3.4,1.3 -4.9,1.3 -1.7,0 -2.9,-0.5 -3.7,-1.6 -0.8,-1.1 -1.3,-2.8 -1.3,-5.1 0,-0.8 0.1,-1.6 0.2,-2.3 5.2,-0.4 9.7,-2.2 13.6,-5.6 4,-3.4 6,-7.7 6,-12.7 0,-2.5 -0.7,-4.6 -2.2,-6.2 -1.6,-1.5 -4.3,-2.2 -8.3,-2.2 z m 0,0.7 c 3.9,0 6.4,0.8 7.7,2.1 v 0 c 1.3,1.4 2,3.2 2,5.6 0,4.8 -1.9,8.8 -5.7,12.1 -3.8,3.3 -8.3,5.1 -13.5,5.5 h -0.3 v 0.3 c -0.1,0.8 -0.2,1.7 -0.2,2.6 0,2.4 0.5,4.2 1.4,5.5 1,1.3 2.5,1.9 4.3,1.9 1.6,0 3.4,-0.5 5.3,-1.4 1.5,-0.8 2.8,-1.7 4,-2.6 -0.8,3.6 -2.2,6.4 -4.4,8.3 -2.4,2 -5.6,3.1 -9.6,3.1 -3.9,0 -7,-1 -9.3,-3 -2.3,-2 -3.5,-5.3 -3.5,-10.1 0,-6.4 1.6,-12.6 4.9,-18.6 2.5,-4.6 5.9,-7.8 10.1,-9.7 v 0 c 2.2,-1 4.4,-1.6 6.8,-1.6 z m 1.4,3.8 c -1.5,0.1 -2.9,1 -4.2,2.6 -1.3,1.6 -2.6,4 -3.9,7 -1.1,2.6 -1.9,5.4 -2.6,8.2 l -0.1,0.5 h 0.5 c 3.4,-0.1 6.4,-1.6 8.9,-4.5 2.6,-2.9 3.9,-6.4 3.9,-10.3 0,-1.1 -0.2,-1.9 -0.6,-2.5 -0.4,-0.7 -1.1,-1 -1.9,-1 z m 0.1,0.7 c 0.6,0 1,0.2 1.3,0.6 0.3,0.4 0.5,1.1 0.5,2.1 0,3.8 -1.2,7 -3.7,9.8 -2.3,2.6 -4.9,3.9 -7.8,4.1 0.6,-2.6 1.4,-5.1 2.3,-7.5 1.2,-3 2.5,-5.3 3.7,-6.9 1.2,-1.4 2.5,-2.1 3.7,-2.2 z" />
		</g>
		<g
   id="g955">
			<path
   id="path957"
   class="st0"
   d="m 159.3,43.9 5.2,-16.1 h 8.9 l -7.8,16.1 z" />
			<path
   id="path959"
   class="st0"
   d="m 164.2,27.5 -5.4,16.8 h 0.5 6.6 L 174,27.5 Z m 0.6,0.7 h 8 l -7.4,15.3 h -5.6 z" />
		</g>
		<g
   id="g961">
			<path
   id="path963"
   class="st0"
   d="m 191.96377,46.5 c 0.2,5.3 0.4,9.8 0.7,13.3 l 1,13.5 c 0.1,1.3 0.2,2.8 0.2,4.4 0,1.6 -0.3,3.2 -0.8,4.6 -0.5,1.4 -1.2,2.7 -2.1,3.8 -1.6,2 -3.7,3.6 -6.3,4.5 -2.6,0.9 -5.1,1.4 -7.5,1.4 -4.2,0 -7.4,-1.1 -9.5,-3.2 -2.2,-2.2 -3.2,-4.5 -3.2,-6.9 0,-2.5 0.5,-4.4 1.4,-5.7 0.9,-1.4 2,-2.3 3.1,-2.9 4,-7.1 7.5,-15.5 10.5,-25.2 z m -18.6,38.9 c 5.4,0 8.1,-2.6 8.1,-7.9 0,-1.5 -0.1,-3.2 -0.3,-5.2 l -0.5,-4.9 c -0.3,-3.1 -0.6,-6.5 -0.8,-10.1 -1.4,4.6 -3.7,10 -6.9,16.1 1.3,0.6 2,1.5 2,2.7 0,1.2 -0.3,2.2 -1,3.1 -0.7,0.9 -1.6,1.3 -2.7,1.3 -1.1,0 -1.9,-0.4 -2.2,-1.1 -0.1,4 1.4,6 4.3,6 z" />
			<path
   id="path965"
   class="st0"
   d="m 192.36377,46.1 h -0.4 l -12.8,1.7 -0.1,0.2 c -3,9.6 -6.5,18 -10.4,25.1 0,0 0,0 0,0 -1.1,0.6 -2.2,1.5 -3.1,2.8 -1,1.4 -1.5,3.4 -1.5,5.9 0,2.5 1.1,5 3.3,7.2 2.2,2.2 5.5,3.3 9.8,3.3 2.5,0 5,-0.5 7.6,-1.4 2.6,-1 4.8,-2.5 6.5,-4.6 0.9,-1.1 1.6,-2.4 2.1,-3.9 v 0 c 0.5,-1.5 0.8,-3.1 0.8,-4.8 0,-1.6 -0.1,-3.1 -0.2,-4.5 l -1,-13.5 v 0 c -0.2,-3.6 -0.4,-8 -0.7,-13.3 z m -0.7,0.8 c 0.2,5.1 0.4,9.5 0.6,12.9 l 1,13.5 c 0.1,1.3 0.2,2.8 0.2,4.4 0,1.6 -0.3,3.1 -0.8,4.5 v 0 c -0.5,1.4 -1.2,2.6 -2,3.7 v 0 0 c -1.6,2 -3.6,3.5 -6.1,4.4 -2.5,0.9 -5,1.4 -7.3,1.4 -4.1,0 -7.2,-1.1 -9.3,-3.1 -2.1,-2.1 -3.1,-4.3 -3.1,-6.7 0,-2.4 0.5,-4.2 1.3,-5.5 0.9,-1.3 1.9,-2.2 3,-2.7 l 0.1,-0.1 0.1,-0.1 c 4,-7.1 7.4,-15.5 10.4,-25 z m -12.1,10.4 c -1.4,4.6 -3.7,10 -6.9,16 l -0.2,0.3 0.4,0.2 c 1.2,0.6 1.7,1.3 1.7,2.4 0,1.1 -0.3,2.1 -1,2.9 v 0 c -0.6,0.8 -1.4,1.1 -2.4,1.1 -1.1,0 -1.6,-0.3 -1.9,-0.9 l -0.7,0.2 c 0,0.1 0,0.1 0,0.2 0,0 0,0 0,0 0,1.9 0.4,3.5 1.1,4.5 0.8,1.1 2.1,1.6 3.6,1.6 2.8,0 4.9,-0.7 6.4,-2.1 1.4,-1.4 2.1,-3.5 2.1,-6.2 0,-1.5 -0.1,-3.2 -0.3,-5.2 l -0.5,-4.8 v 0 c -0.3,-3.1 -0.6,-6.5 -0.8,-10.1 z m 0.1,1.6 c 0.2,3 0.4,5.9 0.7,8.6 l 0.5,4.9 v 0 c 0.2,2 0.3,3.7 0.3,5.1 0,2.6 -0.7,4.4 -1.9,5.6 -1.3,1.2 -3.2,1.9 -5.8,1.9 -1.4,0 -2.4,-0.4 -3,-1.3 -0.6,-0.8 -0.8,-2.1 -0.9,-3.6 0.5,0.4 0.9,0.9 1.7,0.9 1.3,0 2.3,-0.5 3,-1.4 0.7,-0.9 1.1,-2.1 1.1,-3.3 0,-1.2 -0.8,-2.1 -1.9,-2.7 2.8,-5.6 4.8,-10.4 6.2,-14.7 z" />
		</g>
		<g
   id="g967"
   transform="translate(3.1181146)">
			<path
   id="path969"
   class="st0"
   d="m 271.2,92.1 c -7.2,0 -10.9,-3.2 -10.9,-9.6 0,-2.3 0.6,-6 1.9,-11.1 1.3,-5.1 1.9,-8.6 1.9,-10.5 0,-2.9 -1,-4.4 -3.1,-4.4 -2.1,0 -3.5,1.8 -5.1,5.1 -0.5,0.9 -0.8,1.8 -1.1,2.9 L 249,92 236.3,91.7 242.5,62.4 c 0.2,-0.7 0.2,-1.4 0.2,-2.1 0,-2.5 -0.8,-3.7 -2.5,-3.7 -1.7,0 -2.94688,1.008781 -4.14688,2.608781 C 234.85312,60.708781 234.5,62.3 233.8,64.5 L 228,92 l -12.8,-0.1 9,-42.5 h 12.2 l -0.9,4.4 c 2.8,-3.2 6.3,-4.8 10.4,-4.8 5,0 7.9,2.4 8.7,7.3 3.1,-4.8 7.1,-7.2 11.8,-7.2 2.7,0 5.45121,0.542528 7.25121,2.042528 1.8,1.5 2.62126,3.857472 2.62126,6.757472 0,2.9 -0.17247,6.1 -1.07247,9.9 l -2.57361,8.419684 c -0.4,1.8 -0.29639,3.20158 -0.29639,4.30158 0,2.4 0.37005,3.778736 2.47005,3.778736 1.9,0 3.4,-0.6 4.4,-1.8 1,-1.2 2,-3.1 3,-5.7 h 3.6 c -2.1,6.3 -4.8,10.6 -8,13.2 -1.8,1.3 -4.1,2.1 -6.6,2.1 z"
   sodipodi:nodetypes="ssssscccccsscccccccscsssccssscccss" />
			<path
   id="path971"
   class="st0"
   d="m 246.2,48.3 c -3.8,0 -7.1,1.6 -9.8,4.3 l 0.8,-3.9 h -13 L 215,92 h 13 l 5.8,-27.5 v 0 c 0.6,-2.1 1.5,-3.9 2.6,-5.4 1.1,-1.5 2.4,-2.2 4,-2.2 0.8,0 1.2,0.2 1.6,0.8 0.4,0.5 0.6,1.4 0.6,2.6 0,0.7 -0.1,1.4 -0.2,2 v 0 L 236,92 h 13 l 5.8,-27.5 v 0 0 c 0.3,-1 0.7,-2 1.1,-2.9 v 0 c 0.8,-1.6 1.6,-2.8 2.5,-3.5 0.9,-0.8 1.7,-1.1 2.7,-1.1 0.9,0 1.6,0.3 2,0.9 0.4,0.6 0.7,1.6 0.7,3.1 0,1.9 -0.6,5.4 -1.9,10.5 -1.3,5.1 -1.9,8.8 -1.9,11.2 0,3.3 0.9,5.8 2.8,7.5 1.9,1.7 4.7,2.5 8.4,2.5 2.5,0 4.9,-0.9 7.2,-2.7 3.3,-2.6 6,-7 8.1,-13.3 l 0.2,-0.5 h -4.3 l -0.1,0.2 c -1,2.6 -2,4.4 -3,5.6 -0.9,1.1 -2.3,1.7 -4.1,1.7 -1,0 -1.6,-0.3 -2,-0.8 -0.4,-0.5 -0.7,-1.3 -0.7,-2.5 0,-1.1 0.2,-2.5 0.7,-4.3 v 0 l 2,-8.3 v 0 c 0.9,-3.8 1.4,-7.1 1.4,-10 0,-3 -0.9,-5.3 -2.8,-6.8 -1.9,-1.6 -4.2,-2.3 -7,-2.3 -4.7,0 -8.6,2.4 -11.7,7 -0.5,-2.2 -1.2,-4 -2.6,-5.1 -1.7,-1.7 -3.8,-2.3 -6.3,-2.3 z m 0,0.8 c 2.4,0 4.22126,1.544834 5.62126,2.644834 1.4,1.1 2.37874,1.955166 2.77874,4.355166 l 0.2,1 0.5,-0.8 c 3.1,-4.7 6.9,-7.1 11.5,-7.1 2.6,0 4.8,0.7 6.5,2.2 1.7,1.4 2.6,3.5 2.6,6.3 0,2.8 -0.5,6.1 -1.4,9.9 l -2,8.3 c -0.4,1.8 -0.7,3.3 -0.7,4.5 0,1.3 0.3,2.3 0.9,3 0.6,0.7 1.5,1 2.6,1 2,0 3.6,-0.7 4.7,-2 1,-1.2 2,-3.1 3,-5.5 h 2.8 c -2.1,5.9 -4.6,10.1 -7.6,12.5 -2.2,1.7 -4.4,2.5 -6.7,2.5 -3.6,0 -6.2,-0.8 -7.9,-2.3 -1.7,-1.5 -2.6,-3.8 -2.6,-6.9 0,-2.3 0.6,-6 1.9,-11 1.3,-5.1 1.9,-8.6 1.9,-10.6 0,-1.5 -0.3,-2.7 -0.8,-3.5 -0.6,-0.8 -1.5,-1.3 -2.6,-1.3 -1.1,0 -2.2,0.5 -3.2,1.3 -1,0.9 -1.8,2.1 -2.7,3.8 -0.5,0.9 -0.9,2 -1.2,3.1 v 0 l -5.8,27.2 -11.4,-0.2 6.1,-28.9 c 0.2,-0.7 0.3,-1.4 0.3,-2.2 0,-1.3 -0.2,-2.3 -0.7,-3 -0.5,-0.7 -1.3,-1.1 -2.2,-1.1 -1.8,0 -3.3,0.9 -4.6,2.5 -1.2,1.6 -2.1,3.5 -2.7,5.7 v 0 l -5.7,27 H 216.1 L 225,49.7 h 11.5 l -1.1,5.3 0.9,-1.1 c 2.5,-3.3 5.9,-4.8 9.9,-4.8 z"
   sodipodi:nodetypes="sccccccssscsscccccssscsssssssccccccssssccsscsccssscccscsccsssccccssscscsccsccccssscscccccccs" />
		</g>
		<g
   id="g973"
   transform="translate(3.1181146)">
			<path
   id="path975"
   class="st0"
   d="m 318.1,76.4 c -6.4,10.5 -14.2,15.7 -23.4,15.7 -4,0 -7.3,-1 -9.7,-3.1 -2.4,-2.1 -3.6,-5.6 -3.6,-10.4 0,-6.5 1.6,-12.7 4.9,-18.8 2.5,-4.6 5.9,-7.9 10.3,-9.9 2.2,-1.1 4.6,-1.6 7,-1.6 3.9,0 6.6,0.7 8,2.2 1.4,1.5 2.1,3.4 2.1,5.9 0,4.8 -2,9 -5.9,12.4 -3.9,3.4 -8.5,5.2 -13.7,5.6 -0.1,1.6 -0.2,2.7 -0.2,3.4 0,2.9 0.5,4.8 1.5,5.8 1,0.9 2.5,1.4 4.3,1.4 3.3,0 6,-0.7 8.2,-2.2 2.2,-1.5 4.6,-3.6 7.1,-6.4 z M 307.3,55.9 c 0,-2 -0.7,-3.1 -2.1,-3.1 -2.1,0.1 -4.1,1.9 -6,5.5 -1.9,3.6 -3.3,7.6 -4.2,12 3.3,-0.2 6.1,-1.7 8.6,-4.6 2.4,-2.7 3.7,-6 3.7,-9.8 z" />
			<path
   id="path977"
   class="st0"
   d="m 303.7,48 c -2.5,0 -4.8,0.5 -7.1,1.6 -4.4,2 -7.9,5.4 -10.5,10 v 0 c -3.3,6.1 -5,12.4 -5,19 0,4.9 1.2,8.5 3.7,10.7 2.5,2.1 5.8,3.2 9.9,3.2 9.4,0 17.3,-5.4 23.7,-15.9 l 0.3,-0.6 h -0.7 -3.1 l -0.1,0.1 c -2.5,2.8 -4.8,4.9 -7,6.4 -2.1,1.4 -4.8,2.1 -8,2.1 -1.8,0 -3.1,-0.4 -4.1,-1.3 -0.9,-0.8 -1.4,-2.6 -1.4,-5.5 0,-0.6 0.1,-1.7 0.2,-3.1 5.2,-0.4 9.7,-2.2 13.6,-5.6 4,-3.5 6,-7.7 6,-12.7 0,-2.5 -0.7,-4.6 -2.2,-6.2 -1.5,-1.5 -4.2,-2.2 -8.2,-2.2 z m 0,0.7 c 3.9,0 6.4,0.8 7.7,2.1 v 0 c 1.3,1.4 2,3.2 2,5.6 0,4.7 -1.9,8.7 -5.7,12.1 -3.8,3.3 -8.3,5.1 -13.5,5.5 h -0.3 v 0.3 c -0.1,1.6 -0.2,2.7 -0.2,3.4 0,2.9 0.5,5 1.7,6 v 0 c 1.1,1 2.6,1.5 4.6,1.5 3.3,0 6.1,-0.7 8.4,-2.2 2.2,-1.5 4.6,-3.6 7,-6.4 h 2 c -6.2,10 -13.7,15 -22.6,15 -4,0 -7.1,-1 -9.4,-3 -2.3,-2 -3.5,-5.3 -3.5,-10.1 0,-6.4 1.6,-12.6 4.9,-18.6 v 0 c 2.5,-4.6 5.9,-7.8 10.1,-9.7 v 0 c 2.2,-0.9 4.4,-1.5 6.8,-1.5 z m 1.4,3.8 c -1.1,0 -2.3,0.6 -3.3,1.5 -1,0.9 -2.1,2.4 -3,4.2 -2,3.6 -3.4,7.7 -4.2,12.1 l -0.1,0.5 h 0.5 c 3.4,-0.2 6.3,-1.8 8.8,-4.7 2.5,-2.9 3.8,-6.3 3.8,-10.1 0,-1.1 -0.2,-1.9 -0.6,-2.5 -0.4,-0.7 -1.1,-1 -1.9,-1 z m 0,0.7 c 0.6,0 1,0.2 1.3,0.6 0.3,0.4 0.5,1.1 0.5,2.1 0,3.7 -1.2,6.9 -3.6,9.6 v 0 c -2.2,2.6 -4.8,3.9 -7.7,4.3 0.9,-4.1 2.1,-7.9 3.9,-11.3 v 0 c 1,-1.8 1.9,-3.1 2.9,-4 0.9,-0.8 1.8,-1.3 2.7,-1.3 z" />
		</g>
		<g
   id="g979"
   transform="translate(3.1181146)">
			<path
   id="path981"
   class="st0"
   d="m 367.8,92.1 c -7.2,0 -10.9,-3.2 -10.9,-9.6 0,-2.3 0.6,-6 1.9,-11.1 1.3,-5.1 1.9,-8.6 1.9,-10.5 0,-2.9 -1,-4.4 -3.1,-4.4 -2,0 -3.9,1.6 -5.5,4.9 -0.5,0.9 -0.9,1.9 -1.2,3 l -5.8,27.3 H 333 l 6.2,-29.3 c 0.2,-0.7 0.2,-1.4 0.2,-2.1 0,-2.5 -0.8,-3.7 -2.5,-3.7 -1.7,0 -3.1,0.8 -4.3,2.4 -1.2,1.5 -2,3.4 -2.7,5.6 l -5.8,27.3 H 312 l 9,-42.5 h 12.2 l -0.9,4.4 c 2.8,-3.2 6.3,-4.8 10.4,-4.8 5,0 7.9,2.4 8.7,7.3 3.1,-4.8 7.1,-7.2 11.8,-7.2 2.7,0 4.9,0.7 6.7,2.2 1.8,1.5 2.7,3.7 2.7,6.6 0,2.9 -0.5,6.2 -1.4,10 l -2,8.3 c -0.4,1.8 -0.7,3.3 -0.7,4.4 0,2.4 1,3.7 3.1,3.7 1.9,0 3.4,-0.6 4.4,-1.8 1,-1.2 2,-3.1 3,-5.7 h 3.6 c -2.1,6.3 -4.8,10.6 -8,13.2 -2.1,1.3 -4.4,2.1 -6.8,2.1 z" />
			<path
   id="path983"
   class="st0"
   d="m 342.7,48.3 c -3.8,0 -7.1,1.6 -9.8,4.3 l 0.8,-3.9 h -13 L 311.5,92 h 13 l 5.8,-27.5 v 0 c 0.6,-2.1 1.5,-3.9 2.6,-5.4 1.1,-1.5 2.4,-2.2 4,-2.2 0.8,0 1.2,0.2 1.6,0.8 0.4,0.5 0.6,1.4 0.6,2.6 0,0.7 -0.1,1.4 -0.2,2 v 0 L 332.5,92 h 13 l 5.8,-27.5 v 0 0 c 0.3,-1 0.7,-2 1.1,-2.9 v 0 c 0.8,-1.6 1.6,-2.8 2.5,-3.5 0.9,-0.8 1.7,-1.1 2.7,-1.1 0.9,0 1.6,0.3 2,0.9 0.4,0.6 0.7,1.6 0.7,3.1 0,1.9 -0.6,5.4 -1.9,10.5 -1.3,5.1 -1.9,8.8 -1.9,11.2 0,3.3 0.9,5.8 2.8,7.5 1.9,1.7 4.7,2.5 8.4,2.5 2.5,0 4.9,-0.9 7.2,-2.7 3.3,-2.6 6,-7 8.1,-13.3 l 0.2,-0.5 h -4.3 l -0.1,0.2 c -1,2.6 -2,4.4 -3,5.6 -0.9,1.1 -2.3,1.7 -4.1,1.7 -1,0 -1.6,-0.3 -2,-0.8 -0.4,-0.5 -0.7,-1.3 -0.7,-2.5 0,-1.1 0.2,-2.5 0.7,-4.3 v 0 l 2,-8.3 v 0 c 0.9,-3.8 1.4,-7.1 1.4,-10 0,-3 -0.9,-5.3 -2.8,-6.8 -1.9,-1.6 -4.2,-2.3 -7,-2.3 -4.7,0 -8.6,2.4 -11.7,7 -0.5,-2.2 -1.2,-4 -2.6,-5.1 -1.7,-1.7 -3.7,-2.3 -6.3,-2.3 z m 0,0.8 c 2.4,0 4.3,0.6 5.7,1.7 1.4,1.1 2.3,2.9 2.7,5.3 l 0.2,1 0.5,-0.8 c 3.1,-4.7 6.9,-7.1 11.5,-7.1 2.6,0 4.8,0.7 6.5,2.2 1.7,1.4 2.6,3.5 2.6,6.3 0,2.8 -0.5,6.1 -1.4,9.9 l -2,8.3 c -0.4,1.8 -0.7,3.3 -0.7,4.5 0,1.3 0.3,2.3 0.9,3 0.6,0.7 1.5,1 2.6,1 2,0 3.6,-0.7 4.7,-2 1,-1.2 2,-3.1 3,-5.5 h 2.8 c -2.1,5.9 -4.6,10.1 -7.6,12.5 -2.2,1.7 -4.4,2.5 -6.7,2.5 -3.6,0 -6.2,-0.8 -7.9,-2.3 -1.7,-1.5 -2.6,-3.8 -2.6,-6.9 0,-2.3 0.6,-6 1.9,-11 1.3,-5.1 1.9,-8.6 1.9,-10.6 0,-1.5 -0.3,-2.7 -0.8,-3.5 -0.6,-0.8 -1.5,-1.3 -2.6,-1.3 -1.1,0 -2.2,0.5 -3.2,1.3 -1,0.9 -1.8,2.1 -2.7,3.8 -0.5,0.9 -0.9,2 -1.2,3.1 v 0 l -5.7,27 h -11.5 l 6.1,-28.9 c 0.2,-0.7 0.3,-1.4 0.3,-2.2 0,-1.3 -0.2,-2.3 -0.7,-3 -0.5,-0.7 -1.3,-1.1 -2.2,-1.1 -1.8,0 -3.3,0.9 -4.6,2.5 -1.2,1.6 -2.1,3.5 -2.7,5.7 v 0 l -5.7,27 h -11.5 l 8.8,-41.8 h 11.5 l -1.1,5.3 0.9,-1.1 c 2.7,-3.3 6,-4.8 10,-4.8 z" />
		</g>
		<g
   id="g985"
   transform="translate(3.1181146)">
			<path
   id="path987"
   class="st0"
   d="m 426.9,59.3 c -3.4,3.6 -8.5,5.9 -15.1,7.1 -0.7,7.7 -2.9,13.9 -6.7,18.6 -3.8,4.6 -8.3,7 -13.6,7 -6.5,0 -10.7,-2.4 -12.6,-7.2 -0.7,-1.7 -1,-3.6 -1,-5.6 0,-2 0.2,-4.1 0.5,-6.2 0.3,-2.1 0.9,-4.3 1.6,-6.6 1.7,-5.1 4.1,-9.2 7.3,-12.3 3.8,-3.8 8.4,-5.6 13.8,-5.6 7.3,0 10.9,4.5 10.9,13.6 V 62 c 0.3,0.1 0.7,0.1 1.4,0.1 1.5,0 3.5,-0.5 5.9,-1.5 2.4,-1 4.7,-2.2 6.8,-3.7 z m -22.1,7.3 c -1.5,-0.4 -2.3,-1.6 -2.3,-3.8 0,-2.2 0.9,-3.6 2.7,-4.4 -0.1,-1.8 -0.4,-3.1 -0.9,-3.8 -0.4,-0.7 -1.3,-1.1 -2.7,-1.1 -2.6,0 -5.1,2.9 -7.5,8.6 -2.4,5.7 -3.6,10.8 -3.6,15.3 0,2.7 0.2,4.5 0.7,5.2 0.5,0.7 1,1.2 1.6,1.4 0.6,0.2 1.3,0.3 2.2,0.3 1.9,0 3.9,-1.7 5.8,-5.1 2,-3.4 3.3,-7.6 4,-12.6 z" />
			<path
   id="path989"
   class="st0"
   d="m 401.2,48 c -5.5,0 -10.2,1.9 -14,5.8 -3.3,3.2 -5.7,7.4 -7.4,12.5 -0.8,2.3 -1.3,4.5 -1.6,6.6 -0.4,2.1 -0.5,4.2 -0.5,6.3 0,2.1 0.3,4 1,5.7 1.9,5 6.3,7.5 13,7.5 5.4,0 10.1,-2.4 13.9,-7.1 3.8,-4.7 6,-10.9 6.7,-18.5 6.5,-1.1 11.6,-3.5 15,-7.1 l 0.1,-0.2 -0.1,-0.2 -0.9,-2.8 -0.4,0.3 c -2.1,1.5 -4.3,2.7 -6.7,3.6 -2.4,1 -4.3,1.4 -5.7,1.4 -0.5,0 -0.8,0 -1.1,-0.1 0,-4.4 -0.9,-7.8 -2.8,-10.1 -1.9,-2.4 -4.8,-3.6 -8.5,-3.6 z m 0,0.7 c 3.6,0 6.2,1.1 7.9,3.3 1.7,2.2 2.6,5.5 2.6,9.9 v 0.4 l 0.3,0.1 c 0.3,0.1 0.8,0.1 1.5,0.1 1.6,0 3.6,-0.5 6,-1.5 v 0 c 2.3,-0.9 4.4,-2.1 6.4,-3.5 l 0.5,1.6 c -3.4,3.4 -8.2,5.7 -14.7,6.8 h -0.3 v 0.3 c -0.7,7.7 -2.9,13.8 -6.6,18.4 -3.7,4.6 -8.1,6.8 -13.3,6.8 -6.4,0 -10.4,-2.3 -12.3,-7 -0.6,-1.6 -1,-3.5 -1,-5.5 0,-2 0.2,-4.1 0.5,-6.2 v 0 c 0.3,-2.1 0.9,-4.3 1.6,-6.5 1.7,-5 4.1,-9.1 7.3,-12.2 3.9,-3.4 8.3,-5.3 13.6,-5.3 z m 0.4,4.4 c -1.4,0 -2.8,0.8 -4.1,2.3 -1.3,1.5 -2.5,3.7 -3.7,6.6 -2.4,5.8 -3.6,10.9 -3.6,15.4 0,2.8 0.2,4.5 0.8,5.4 v 0 c 0.5,0.8 1.1,1.3 1.8,1.5 0.6,0.2 1.4,0.3 2.4,0.3 1.1,0 2.1,-0.5 3.1,-1.4 1,-0.9 2,-2.2 3,-3.9 1.9,-3.5 3.2,-7.7 3.9,-12.7 v -0.3 l -0.3,-0.1 c -0.7,-0.2 -1.2,-0.5 -1.5,-1.1 -0.3,-0.6 -0.5,-1.3 -0.5,-2.3 0,-2 0.8,-3.3 2.4,-4.1 l 0.2,-0.1 v -0.3 c -0.1,-1.8 -0.4,-3.1 -0.9,-4 -0.5,-0.7 -1.6,-1.2 -3,-1.2 z m 0,0.8 c 1.3,0 2,0.3 2.3,0.9 v 0 0 c 0.4,0.6 0.7,1.8 0.8,3.5 -1.7,0.9 -2.6,2.4 -2.6,4.5 0,1.1 0.2,2 0.6,2.7 0.4,0.6 1,0.9 1.6,1.2 -0.7,4.9 -1.9,9 -3.8,12.3 -0.9,1.7 -1.9,2.9 -2.8,3.7 -0.9,0.8 -1.8,1.2 -2.6,1.2 -0.9,0 -1.6,-0.1 -2.1,-0.3 -0.4,-0.2 -0.9,-0.6 -1.4,-1.2 -0.4,-0.6 -0.7,-2.3 -0.7,-5 0,-4.4 1.2,-9.4 3.5,-15.1 v 0 c 1.2,-2.9 2.4,-5 3.6,-6.4 1.3,-1.4 2.5,-2 3.6,-2 z" />
		</g>
		<g
   id="g991"
   transform="translate(3.1181146)">
			<path
   id="path993"
   class="st0"
   d="m 413.2,91.6 9,-42.5 h 12.2 l -1.1,5.3 c 1.4,-1.2 3,-2.4 4.6,-3.6 1.7,-1.1 3.6,-1.7 5.5,-1.7 2,0 3.5,0.7 4.5,2 1,1.3 1.5,2.5 1.5,3.7 0,2 -0.6,3.7 -1.7,5 -1.1,1.3 -2.4,1.9 -3.9,1.9 -1.5,0 -2.6,-0.3 -3.1,-1 -0.5,-0.7 -0.8,-1.4 -0.9,-2.2 -0.1,-0.7 -0.3,-1.3 -0.5,-1.7 -0.2,-0.4 -0.5,-0.7 -1.1,-0.7 -1.2,0 -2.2,0.3 -3.1,0.8 -0.9,0.5 -1.9,1.3 -3,2.4 l -6.8,32.3 z" />
			<path
   id="path995"
   class="st0"
   d="M 421.9,48.7 412.8,92 h 0.5 12.5 l 6.8,-32.5 c 1.1,-1 2.1,-1.8 2.9,-2.3 v 0 c 0.8,-0.5 1.8,-0.8 2.9,-0.8 0.2,0 0.4,0 0.5,0.1 0.1,0.1 0.2,0.2 0.2,0.3 v 0 0 c 0.2,0.4 0.3,0.9 0.4,1.6 0.1,0.8 0.5,1.6 1,2.3 v 0 c 0.6,0.8 1.8,1.2 3.4,1.2 1.6,0 3.1,-0.7 4.2,-2 v 0 c 1.2,-1.3 1.7,-3.1 1.7,-5.2 0,-1.3 -0.5,-2.6 -1.6,-4 -1.1,-1.4 -2.7,-2.1 -4.8,-2.1 -2,0 -4,0.6 -5.7,1.8 -1.4,0.9 -2.7,2 -3.9,3 l 1,-4.7 z m 0.6,0.8 H 434 l -1.2,5.9 0.8,-0.7 c 1.4,-1.2 2.9,-2.4 4.6,-3.5 v 0 c 1.7,-1.1 3.4,-1.6 5.3,-1.6 1.9,0 3.3,0.6 4.2,1.8 1,1.3 1.4,2.4 1.4,3.5 0,2 -0.5,3.5 -1.6,4.7 -1,1.2 -2.2,1.8 -3.7,1.8 -1.5,0 -2.4,-0.3 -2.8,-0.9 v 0 c -0.5,-0.7 -0.7,-1.3 -0.8,-2 v 0 c -0.1,-0.8 -0.3,-1.4 -0.5,-1.8 -0.1,-0.3 -0.3,-0.5 -0.6,-0.7 -0.3,-0.2 -0.6,-0.2 -0.9,-0.2 -1.2,0 -2.3,0.3 -3.3,0.9 -0.9,0.5 -1.9,1.4 -3.1,2.5 l -0.1,0.1 -6.8,32.1 h -11.5 z" />
		</g>
		<g
   id="g997"
   transform="translate(3.1181146)">
			<path
   id="path999"
   class="st0"
   d="m 460.1,80.2 c 0,2.5 0.8,3.7 2.5,3.7 3,0 5.3,-2.5 6.8,-7.5 l 5.8,-27.3 h 12.3 l -10.4,49.3 c -1.1,5.4 -3.3,9.4 -6.6,11.8 -2.4,1.8 -5.2,2.7 -8.3,2.7 -3.1,0 -5.7,-0.9 -7.7,-2.6 -2,-1.7 -3,-3.8 -3,-6.1 0,-2.3 0.4,-4.2 1.1,-5.5 0.8,-1.4 2,-2.6 3.6,-3.7 1.6,-1.2 4.9,-2.5 10,-4 l 0.9,-3.7 c -2.9,3.3 -6.3,4.9 -10.4,4.9 -2.5,0 -4.7,-0.8 -6.5,-2.4 -1.7,-1.6 -2.6,-4.2 -2.6,-7.8 0,-1.6 0.2,-3.5 0.7,-5.6 l 5.8,-27.3 h 12.2 l -6,28.9 c -0.1,0.7 -0.2,1.4 -0.2,2.2 z m 5.7,13.4 c -3,1.1 -5.1,2.1 -6.3,3 -2.1,1.7 -3.2,3.7 -3.2,5.8 0,0.6 0.3,1.3 1,1.9 0.7,0.6 1.5,1 2.4,1 0.9,0 1.9,-0.5 2.8,-1.5 0.9,-1 1.7,-2.7 2.2,-5.2 z" />
			<path
   id="path1001"
   class="st0"
   d="M 453.9,48.7 448,76.3 c -0.4,2.1 -0.7,4 -0.7,5.6 0,3.6 0.9,6.3 2.7,8 v 0 c 1.8,1.7 4.1,2.5 6.7,2.5 3.8,0 7,-1.6 9.8,-4.3 l -0.6,2.5 c -4.9,1.5 -8.2,2.7 -9.8,3.9 -1.7,1.2 -2.9,2.4 -3.7,3.9 v 0 c -0.8,1.4 -1.2,3.3 -1.2,5.7 0,2.4 1.1,4.6 3.1,6.4 v 0 c 2.1,1.8 4.8,2.7 7.9,2.7 3.2,0 6,-0.9 8.5,-2.7 3.4,-2.5 5.6,-6.5 6.7,-12 L 488,48.7 h -13.1 l -5.8,27.5 c -0.8,2.5 -1.7,4.3 -2.8,5.5 -1.1,1.2 -2.3,1.8 -3.7,1.8 -0.8,0 -1.2,-0.2 -1.6,-0.8 -0.4,-0.5 -0.6,-1.4 -0.6,-2.6 0,-0.7 0.1,-1.4 0.2,-2.1 l 6.2,-29.3 z m 0.6,0.8 H 466 l -6,28.4 c -0.2,0.7 -0.3,1.5 -0.3,2.2 v 0.4 h 0.1 c 0,1.1 0.2,2 0.6,2.6 0.5,0.7 1.3,1.1 2.2,1.1 1.6,0 3,-0.7 4.2,-2 1.2,-1.3 2.2,-3.2 2.9,-5.8 v 0 l 5.7,-27 H 487 l -10.3,48.9 c -1.1,5.4 -3.2,9.2 -6.4,11.6 -2.3,1.7 -5,2.6 -8,2.6 -3,0 -5.5,-0.8 -7.4,-2.5 v 0 c -1.9,-1.7 -2.9,-3.6 -2.9,-5.8 0,-2.3 0.4,-4.1 1.1,-5.3 v 0 c 0.7,-1.3 1.9,-2.5 3.5,-3.6 v 0 c 1.5,-1.1 4.8,-2.4 9.8,-3.9 l 0.2,-0.1 0.9,-3.9 -0.6,-0.3 c -2.8,3.2 -6.2,4.8 -10.1,4.8 -2.5,0 -4.5,-0.8 -6.2,-2.3 -1.6,-1.5 -2.5,-4 -2.5,-7.5 0,-1.6 0.2,-3.4 0.7,-5.5 z m 11.8,43.6 -0.6,0.2 c -3.1,1.1 -5.2,2.1 -6.4,3.1 v 0 c -2.2,1.8 -3.3,3.8 -3.3,6.1 0,0.8 0.4,1.5 1.1,2.1 0.8,0.7 1.6,1.1 2.6,1.1 1,0 2.1,-0.6 3.1,-1.6 1.1,-1.1 1.8,-2.8 2.3,-5.4 z m -1.1,1.2 -0.9,4.3 c -0.5,2.5 -1.3,4.1 -2.1,5 -0.9,0.9 -1.8,1.3 -2.6,1.3 -0.8,0 -1.5,-0.3 -2.1,-0.9 -0.6,-0.6 -0.9,-1.1 -0.9,-1.6 0,-2 1,-3.8 3,-5.5 1.1,-0.7 3.1,-1.6 5.6,-2.6 z" />
		</g>
		<g
   id="g1003"
   transform="translate(6.2362291)">
			<path
   id="path1005"
   class="st0"
   d="m 526.4,87.5 c -3,3.1 -6.4,4.6 -10.2,4.6 -5.1,0 -8.6,-2.4 -10.4,-7.3 -0.6,-1.7 -1,-3.7 -1,-5.9 0,-2.2 0.2,-4.5 0.6,-6.7 0.4,-2.2 1,-4.5 1.8,-6.7 1.8,-4.9 4.3,-8.9 7.6,-12.1 3.3,-3.2 7.3,-4.8 11.9,-4.8 2.4,0 4.2,0.4 5.3,1.2 1.1,0.8 1.6,1.8 1.6,3.1 v 0.5 l 0.9,-4.4 h 12.2 l -8.4,39.4 c 2.6,-0.9 4.7,-2.2 6.4,-3.9 1.7,-1.8 3.1,-4.5 4.4,-8.3 h 3.6 c -2.2,7.3 -5.8,12.1 -11,14.4 -1.4,0.6 -2.8,1.1 -4.1,1.5 l -1.3,6.1 c -1.1,5.5 -3.2,9.4 -6.5,11.8 -2.4,1.8 -5.1,2.7 -8.2,2.7 -3.1,0 -5.5,-0.7 -7.4,-2 -1.9,-1.4 -2.8,-3.5 -2.8,-6.5 0,-5.2 4.6,-9.3 13.9,-12.4 z m 6.4,-30.4 c 0,-1.3 -0.6,-2.2 -1.8,-2.8 -0.4,-0.2 -1,-0.4 -1.7,-0.4 -1.8,0 -3.4,0.8 -4.9,2.5 -3.6,4.1 -5.9,9.9 -6.8,17.5 -0.1,1.2 -0.2,2.4 -0.2,3.7 0,2.5 0.5,4.3 1.6,5.3 0.6,0.6 1.4,0.9 2.2,0.9 1.6,0 3,-0.6 4.4,-1.8 1.4,-1.2 2.3,-2.8 2.9,-4.9 z m -8.4,39.1 c -5.5,2 -8.3,4.4 -8.3,7.2 0,1.1 0.5,2 1.6,2.5 0.4,0.2 0.9,0.2 1.6,0.2 0.7,0 1.5,-0.6 2.4,-1.9 0.9,-1.2 1.6,-3.1 2.2,-5.7 z" />
			<path
   id="path1007"
   class="st0"
   d="m 526.7,48.3 c -4.7,0 -8.8,1.6 -12.2,4.9 -3.3,3.2 -5.9,7.3 -7.7,12.2 -0.8,2.2 -1.4,4.5 -1.8,6.7 -0.4,2.2 -0.6,4.5 -0.6,6.7 0,2.2 0.3,4.3 1,6.1 1.8,5 5.5,7.5 10.7,7.5 3.6,0 6.8,-1.5 9.6,-4.1 l -0.8,3.3 c -4.5,1.5 -8,3.3 -10.3,5.4 -2.4,2.1 -3.6,4.6 -3.6,7.3 0,3.1 1,5.4 2.9,6.8 1.9,1.4 4.5,2.1 7.6,2.1 3.1,0 6,-0.9 8.4,-2.7 3.3,-2.5 5.5,-6.5 6.6,-12 l 1.2,-5.9 c 1.3,-0.3 2.5,-0.8 3.9,-1.4 5.3,-2.4 9,-7.3 11.2,-14.7 l 0.1,-0.5 h -4.3 l -0.1,0.3 c -1.2,3.7 -2.6,6.4 -4.3,8.1 -1.4,1.5 -3.4,2.6 -5.5,3.4 l 8.3,-39 h -13 l -0.7,3.4 c -0.2,-0.9 -0.4,-1.8 -1.3,-2.5 0,0 0,0 0,0 -1,-1 -2.8,-1.4 -5.3,-1.4 z m 0,0.8 c 2.4,0 4.1,0.4 5,1.2 v 0 0 c 1,0.7 1.5,1.6 1.5,2.8 v 0.5 l 0.7,0.1 0.9,-4.1 h 11.5 l -8.5,39.6 0.6,-0.2 c 2.6,-0.9 4.8,-2.2 6.5,-4 1.7,-1.8 3.1,-4.5 4.3,-8.1 h 2.8 c -2.2,6.9 -5.6,11.5 -10.5,13.7 -1.4,0.6 -2.7,1.1 -4,1.4 l -0.2,0.1 -1.3,6.4 v 0 c -1.1,5.4 -3.2,9.2 -6.3,11.6 -2.3,1.7 -5,2.6 -8,2.6 -3,0 -5.4,-0.7 -7.2,-2 -1.7,-1.3 -2.6,-3.3 -2.6,-6.2 0,-2.5 1.1,-4.7 3.3,-6.7 2.3,-2 5.7,-3.8 10.3,-5.3 l 0.2,-0.1 1.4,-6 -0.9,1 c -2.9,3 -6.2,4.5 -9.9,4.5 -5,0 -8.3,-2.3 -10,-7 -0.6,-1.7 -0.9,-3.6 -0.9,-5.8 0,-2.2 0.2,-4.4 0.6,-6.6 0.4,-2.2 1,-4.4 1.8,-6.6 1.8,-4.8 4.3,-8.8 7.5,-11.9 3,-3.4 6.8,-4.9 11.4,-4.9 z m 2.6,4.5 c -1.9,0 -3.7,0.9 -5.2,2.7 -3.7,4.1 -5.9,10.1 -6.9,17.7 -0.1,1.2 -0.2,2.4 -0.2,3.7 0,2.6 0.5,4.4 1.7,5.5 0,0 0,0 0,0 0.7,0.7 1.5,1 2.5,1 1.7,0 3.2,-0.6 4.6,-1.9 v 0 c 1.4,-1.3 2.4,-3 3,-5 v 0 l 4.3,-20.2 v 0 c 0,-1.4 -0.7,-2.5 -2,-3.1 -0.4,-0.3 -1.1,-0.4 -1.8,-0.4 z m 0,0.7 c 0.6,0 1.1,0.1 1.5,0.3 v 0 0 c 1.1,0.5 1.6,1.3 1.6,2.4 l -4.3,20 c -0.5,2 -1.5,3.5 -2.7,4.7 0,0 0,0 0,0 0,0 0,0 0,0 -1.3,1.1 -2.7,1.7 -4.1,1.7 -0.8,0 -1.4,-0.3 -2,-0.8 v 0 0 c -0.9,-0.9 -1.5,-2.5 -1.5,-5 0,-1.3 0.1,-2.5 0.2,-3.6 0.9,-7.6 3.1,-13.3 6.7,-17.3 1.4,-1.6 2.9,-2.4 4.6,-2.4 z m -4.4,41.3 -0.6,0.2 c -2.8,1 -4.9,2.1 -6.3,3.4 -1.4,1.3 -2.2,2.7 -2.2,4.2 0,1.3 0.7,2.3 1.8,2.9 v 0 0 c 0.4,0.2 1,0.3 1.7,0.3 0.9,0 1.8,-0.7 2.7,-2 1,-1.3 1.7,-3.2 2.3,-5.8 v 0 z m -1,1.3 -0.3,1.7 c -0.5,2.5 -1.3,4.4 -2.1,5.5 -0.9,1.2 -1.6,1.7 -2.1,1.7 -0.7,0 -1.1,-0.1 -1.4,-0.2 v 0 c -1,-0.5 -1.4,-1.2 -1.4,-2.2 0,-1.3 0.6,-2.5 1.9,-3.6 1.2,-1 3.1,-2 5.4,-2.9 z" />
		</g>
		<g
   id="g1009"
   transform="translate(6.2362291)">
			<path
   id="path1011"
   class="st0"
   d="m 597.3,76.4 c -3.6,10.5 -9.3,15.7 -17.1,15.7 -5,0 -7.8,-2.6 -8.3,-7.8 -3.7,5.2 -8,7.8 -13,7.8 -4.9,0 -8.3,-2.4 -10,-7.3 -0.6,-1.7 -1,-3.7 -1,-5.9 0,-2.2 0.2,-4.5 0.6,-6.7 0.4,-2.2 1,-4.5 1.8,-6.7 1.8,-4.9 4.3,-8.9 7.6,-12.1 3.3,-3.2 7.3,-4.8 11.9,-4.8 2.4,0 4.2,0.4 5.3,1.2 1.1,0.8 1.6,1.8 1.6,3.1 v 0.6 l 0.9,-4.5 h 12.2 l -6.1,29 c -0.2,1 -0.4,1.9 -0.4,2.7 0,2.4 1.2,3.7 3.5,3.7 3,0 5.3,-2.7 6.9,-8 z M 575.9,57.2 c 0,-0.5 -0.2,-1.2 -0.7,-2 -0.5,-0.8 -1.5,-1.2 -3.1,-1.2 -1.6,0 -3.1,0.8 -4.6,2.5 -3.6,4.1 -5.9,9.9 -6.8,17.5 -0.1,1.2 -0.2,2.4 -0.2,3.7 0,2.5 0.5,4.3 1.6,5.3 0.6,0.6 1.4,0.9 2.3,0.9 1.7,0 3.2,-0.7 4.6,-2 1.4,-1.4 2.3,-3.2 2.9,-5.5 z" />
			<path
   id="path1013"
   class="st0"
   d="m 569.8,48.3 c -4.7,0 -8.8,1.6 -12.2,4.9 -3.3,3.2 -5.9,7.3 -7.7,12.2 -0.8,2.2 -1.4,4.5 -1.8,6.7 -0.4,2.2 -0.6,4.5 -0.6,6.7 0,2.2 0.3,4.3 1,6.1 1.8,4.9 5.3,7.5 10.4,7.5 4.9,0 9.2,-2.6 12.9,-7.6 0.4,2.3 1,4.3 2.4,5.5 1.5,1.4 3.5,2.1 6.1,2.1 4,0 7.4,-1.4 10.3,-4 2.9,-2.7 5.3,-6.7 7.1,-12 l 0.2,-0.5 h -0.5 -3.9 l -0.1,0.3 c -0.8,2.6 -1.7,4.6 -2.8,5.9 -1.1,1.3 -2.3,1.9 -3.7,1.9 -1.1,0 -1.9,-0.3 -2.3,-0.8 -0.5,-0.5 -0.8,-1.3 -0.8,-2.5 0,-0.8 0.1,-1.7 0.4,-2.6 v 0 l 6.2,-29.3 h -13 l -0.7,3.4 c -0.2,-0.9 -0.5,-1.9 -1.3,-2.5 0,0 0,0 0,0 -1.3,-1 -3.2,-1.4 -5.6,-1.4 z m 0,0.8 c 2.4,0 4.1,0.4 5,1.2 v 0 c 1,0.7 1.5,1.6 1.5,2.8 v 0.6 l 0.7,0.1 0.9,-4.2 h 11.5 l -6,28.4 c -0.3,1 -0.4,1.9 -0.4,2.8 0,1.3 0.3,2.3 1,3 0.7,0.7 1.7,1 2.9,1 1.6,0 3.1,-0.7 4.3,-2.1 1.1,-1.3 2.1,-3.3 2.8,-5.9 h 2.8 c -1.8,4.9 -4,8.7 -6.6,11.1 -2.8,2.6 -6,3.8 -9.8,3.8 -2.4,0 -4.3,-0.6 -5.6,-1.8 -1.3,-1.2 -2.1,-3.1 -2.4,-5.6 l -0.1,-1 -0.6,0.8 c -3.7,5.1 -7.9,7.6 -12.7,7.6 -4.8,0 -8,-2.3 -9.7,-7 -0.6,-1.7 -0.9,-3.6 -0.9,-5.8 0,-2.2 0.2,-4.4 0.6,-6.6 0.4,-2.2 1,-4.4 1.8,-6.6 1.8,-4.8 4.3,-8.8 7.5,-11.9 3,-3.2 6.9,-4.7 11.5,-4.7 z m 2.3,4.5 c -1.7,0 -3.4,0.9 -4.9,2.7 -3.7,4.1 -5.9,10.1 -6.9,17.7 -0.1,1.2 -0.2,2.4 -0.2,3.7 0,2.6 0.5,4.4 1.7,5.5 0.7,0.7 1.5,1 2.5,1 1.8,0 3.4,-0.7 4.9,-2.1 v 0 c 1.4,-1.4 2.4,-3.3 3,-5.7 v 0 l 4.1,-19.2 v 0 c 0,-0.6 -0.3,-1.4 -0.8,-2.2 -0.6,-1 -1.8,-1.4 -3.4,-1.4 z m 0,0.7 c 1.5,0 2.4,0.4 2.7,1.1 v 0 0 c 0.5,0.8 0.7,1.4 0.7,1.8 l -4.1,19.1 c -0.5,2.3 -1.4,4 -2.8,5.3 0,0 0,0 0,0 0,0 0,0 0,0 -1.3,1.3 -2.8,1.9 -4.3,1.9 -0.8,0 -1.5,-0.3 -2,-0.8 v 0 c -0.9,-0.9 -1.5,-2.5 -1.5,-5 0,-1.3 0.1,-2.5 0.2,-3.6 0.9,-7.6 3.1,-13.3 6.7,-17.3 1.5,-1.7 2.9,-2.5 4.4,-2.5 z" />
		</g>
		<g
   id="g1015"
   transform="translate(6.2362291)">
			<path
   id="path1017"
   class="st0"
   d="m 646.3,92.1 c -7.2,0 -10.9,-3.2 -10.9,-9.6 0,-2.3 0.6,-6 1.9,-11.1 1.3,-5.1 1.9,-8.6 1.9,-10.5 0,-2.9 -1,-4.4 -3.1,-4.4 -2,0 -3.9,1.6 -5.5,4.9 -0.5,0.9 -0.9,1.9 -1.2,3 l -5.8,27.3 h -12.2 l 6.2,-29.3 c 0.2,-0.7 0.2,-1.4 0.2,-2.1 0,-2.5 -0.8,-3.7 -2.5,-3.7 -1.7,0 -3.1,0.8 -4.3,2.4 -1.2,1.5 -2,3.4 -2.7,5.6 L 603,92 l -12.7,-0.1 9,-42.5 h 12.2 l -0.9,4.4 c 2.8,-3.2 6.5784,-5.134049 10.6784,-5.134049 5,0 7.6216,2.734049 8.4216,7.634049 3.1,-4.8 7.1,-7.2 11.8,-7.2 2.7,0 5.28976,0.58865 7.08976,2.08865 1.8,1.5 2.64432,3.755675 2.64432,6.655675 0,2.9 -0.83408,6.255675 -1.73408,10.055675 l -2,8.3 c -0.4,1.8 -0.7,3.3 -0.7,4.4 0,2.4 1.72385,3.087576 3.82385,3.087576 1.9,0 2.39775,-0.321625 3.39775,-1.521625 1,-1.2 2.2784,-2.765951 3.2784,-5.365951 h 3.6 c -2.1,6.3 -4.8,10.6 -8,13.2 -1.9,1.3 -4.2,2.1 -6.6,2.1 z"
   sodipodi:nodetypes="ssssscccccsscccccccscsssccssscccs" />
			<path
   id="path1019"
   class="st0"
   d="m 621.2,48.3 c -3.8,0 -7.1,1.6 -9.8,4.3 l 0.8,-3.9 h -13 L 590,92 h 13 l 5.8,-27.5 v 0 c 0.6,-2.1 1.5,-3.9 2.6,-5.4 1.1,-1.5 2.4,-2.2 4,-2.2 0.8,0 1.2,0.2 1.6,0.8 0.4,0.5 0.6,1.4 0.6,2.6 0,0.7 -0.1,1.4 -0.2,2 v 0 L 611,92 h 13 l 5.8,-27.5 v 0 0 c 0.3,-1 0.7,-2 1.1,-2.9 v 0 c 0.8,-1.6 1.6,-2.8 2.5,-3.5 0.9,-0.8 1.7,-1.1 2.7,-1.1 0.9,0 1.6,0.3 2,0.9 0.4,0.6 0.7,1.6 0.7,3.1 0,1.9 -0.6,5.4 -1.9,10.5 -1.3,5.1 -1.9,8.8 -1.9,11.2 0,3.3 0.9,5.8 2.8,7.5 1.9,1.7 4.7,2.5 8.4,2.5 2.5,0 4.9,-0.9 7.2,-2.7 3.3,-2.6 6,-7 8.1,-13.3 l 0.2,-0.5 h -4.4 l -0.1,0.2 c -1,2.6 -2,4.4 -3,5.6 -0.9,1.1 -2.3,1.7 -4.1,1.7 -1,0 -1.6,-0.3 -2,-0.8 -0.4,-0.5 -0.7,-1.3 -0.7,-2.5 0,-1.1 0.2,-2.5 0.7,-4.3 v 0 l 2,-8.3 v 0 c 0.9,-3.8 1.4,-7.1 1.4,-10 0,-3 -0.9,-5.3 -2.8,-6.8 -1.9,-1.6 -4.2,-2.3 -7,-2.3 -4.7,0 -8.6,2.4 -11.7,7 -0.5,-2.2 -1.2,-4 -2.6,-5.1 -1.6,-1.7 -3.6,-2.3 -6.2,-2.3 z m 0,0.8 c 2.4,0 4.3,0.6 5.7,1.7 1.4,1.1 2.3,2.9 2.7,5.3 l 0.2,1 0.5,-0.8 c 3.1,-4.7 6.9,-7.1 11.5,-7.1 2.6,0 4.8,0.7 6.5,2.2 1.7,1.4 2.6,3.5 2.6,6.3 0,2.8 -0.5,6.1 -1.4,9.9 l -2,8.3 c -0.4,1.8 -0.7,3.3 -0.7,4.5 0,1.3 0.3,2.3 0.9,3 0.6,0.7 1.5,1 2.6,1 2,0 3.6,-0.7 4.7,-2 1,-1.2 2,-3.1 3,-5.5 h 2.8 c -2.1,5.9 -4.6,10.1 -7.6,12.5 -2.2,1.7 -4.4,2.5 -6.7,2.5 -3.6,0 -6.2,-0.8 -7.9,-2.3 -1.7,-1.5 -2.6,-3.8 -2.6,-6.9 0,-2.3 0.6,-6 1.9,-11 1.3,-5.1 1.9,-8.6 1.9,-10.6 0,-1.5 -0.3,-2.7 -0.8,-3.5 -0.6,-0.8 -1.5,-1.3 -2.6,-1.3 -1.1,0 -2.2,0.5 -3.2,1.3 -1,0.9 -1.8,2.1 -2.7,3.8 -0.5,0.9 -0.9,2 -1.2,3.1 v 0 l -5.7,27 h -11.5 l 6.1,-28.9 c 0.2,-0.7 0.3,-1.4 0.3,-2.2 0,-1.3 -0.2,-2.3 -0.7,-3 -0.5,-0.7 -1.3,-1.1 -2.2,-1.1 -1.8,0 -3.3,0.9 -4.6,2.5 v 0 c -1.2,1.6 -2.1,3.5 -2.7,5.7 v 0 l -5.7,27 h -11.5 l 8.8,-41.8 h 11.5 l -1.1,5.3 0.9,-1.1 c 2.7,-3.3 6,-4.8 10,-4.8 z" />
		</g>
		<g
   id="g1021"
   transform="translate(6.2362291)">
			<path
   id="path1023"
   class="st0"
   d="m 669,77 c 0,4.7 1.8,7.1 5.4,7.1 1.6,0 3.3,-0.5 5.1,-1.4 1.9,-0.9 3.5,-2 4.8,-3.2 -1.5,8.4 -6.4,12.6 -14.7,12.6 -4,0 -7.2,-1 -9.6,-3.1 -2.4,-2.1 -3.6,-5.6 -3.6,-10.4 0,-6.5 1.6,-12.7 4.9,-18.8 2.5,-4.6 5.9,-7.9 10.3,-9.9 2.2,-1.1 4.6,-1.6 7,-1.6 3.9,0 6.6,0.7 8,2.2 1.4,1.5 2.1,3.4 2.1,5.9 0,4.9 -2,9 -5.9,12.4 -3.9,3.4 -8.4,5.2 -13.7,5.6 0,0.8 -0.1,1.7 -0.1,2.6 z m 13.2,-21.1 c 0,-2 -0.7,-3.1 -2.1,-3.1 -2.7,0.1 -5.3,3.2 -7.8,9.4 -1.1,2.6 -1.9,5.3 -2.5,8.1 3.3,-0.1 6.1,-1.6 8.6,-4.4 2.5,-2.8 3.8,-6.1 3.8,-10 z" />
			<path
   id="path1025"
   class="st0"
   d="m 678.6,48 c -2.5,0 -4.8,0.5 -7.1,1.6 -4.4,2 -7.9,5.4 -10.5,10 -3.3,6.1 -5,12.4 -5,19 0,4.9 1.2,8.5 3.7,10.7 2.5,2.1 5.8,3.2 9.8,3.2 4.2,0 7.6,-1.1 10.1,-3.2 2.5,-2.2 4.2,-5.4 4.9,-9.6 l 0.2,-1.1 -0.8,0.7 c -1.3,1.2 -2.9,2.2 -4.7,3.1 -1.8,0.9 -3.4,1.3 -4.9,1.3 -1.7,0 -2.9,-0.5 -3.7,-1.6 -0.8,-1.1 -1.3,-2.8 -1.3,-5.1 0,-0.8 0.1,-1.6 0.2,-2.3 5.2,-0.4 9.7,-2.2 13.6,-5.6 4,-3.4 6,-7.7 6,-12.7 0,-2.5 -0.7,-4.6 -2.2,-6.2 -1.5,-1.5 -4.3,-2.2 -8.3,-2.2 z m 0,0.7 c 3.9,0 6.4,0.8 7.7,2.1 v 0 0 c 1.3,1.4 2,3.2 2,5.6 0,4.8 -1.9,8.8 -5.7,12.1 -3.8,3.3 -8.3,5.1 -13.5,5.5 h -0.3 v 0.3 c -0.1,0.8 -0.2,1.7 -0.2,2.6 0,2.4 0.5,4.2 1.4,5.5 1,1.3 2.5,1.9 4.3,1.9 1.6,0 3.4,-0.5 5.3,-1.4 1.5,-0.7 2.8,-1.7 4,-2.6 -0.8,3.6 -2.2,6.4 -4.4,8.3 -2.4,2 -5.6,3.1 -9.6,3.1 -3.9,0 -7,-1 -9.3,-3 -2.3,-2 -3.5,-5.3 -3.5,-10.1 0,-6.4 1.6,-12.6 4.9,-18.6 2.5,-4.6 5.8,-7.8 10.1,-9.7 v 0 c 2.2,-1 4.5,-1.6 6.8,-1.6 z m 1.5,3.8 c -1.5,0.1 -2.9,1 -4.2,2.6 -1.3,1.6 -2.6,4 -3.9,7 -1.1,2.6 -1.9,5.4 -2.6,8.2 l -0.1,0.5 h 0.5 c 3.4,-0.1 6.4,-1.6 8.9,-4.5 2.6,-2.9 3.9,-6.4 3.9,-10.3 0,-1.1 -0.2,-1.9 -0.6,-2.5 -0.4,-0.7 -1.1,-1 -1.9,-1 z m 0,0.7 c 0.6,0 1,0.2 1.3,0.6 0.3,0.4 0.5,1.1 0.5,2.1 0,3.8 -1.2,7 -3.7,9.8 -2.3,2.6 -4.9,3.9 -7.8,4.1 0.6,-2.6 1.4,-5.1 2.3,-7.5 1.2,-3 2.5,-5.3 3.7,-6.9 1.3,-1.4 2.5,-2.1 3.7,-2.2 z" />
		</g>
	</g><path
         id="path1029"
         class="st1"
         d="m 39.406487,222.29272 c -1.924239,9.62219 -2.565653,17.96143 -2.565653,24.69696 0,7.05628 1.282827,12.18811 3.84848,15.71625 -10.583319,0 -18.280278,-0.96222 -22.770171,-3.2074 C 8.6186509,255.00817 4.1287581,246.3482 4.1287581,233.83935 c 0,-18.92364 8.0176659,-45.2243 23.7322909,-79.22271 4.810599,-10.58442 10.583318,-21.16883 16.356038,-31.4325 -8.659079,0.64148 -15.393918,1.92444 -21.166638,3.84888 -5.452012,1.92444 -8.979785,5.45257 -10.904025,10.26367 0.641413,0 1.603533,0.96222 2.244946,2.88666 0.641413,1.92444 1.282827,3.84887 1.282827,6.73553 0,2.56592 -1.603533,4.8111 -4.489893,7.05628 -2.8863597,1.92444 -6.093426,2.88665 -9.3004923,2.88665 -6.093426,0 -10.5833188,-1.28295 -13.7903847,-4.16961 -3.207067,-2.88666 -4.8106,-6.73554 -4.8106,-11.54663 0,-9.30146 5.131306,-17.31995 15.714625,-24.05548 10.5833188,-6.4148 24.052997,-9.94294 39.767622,-9.94294 3.527773,0 8.338372,0.32074 14.111092,0.64148 C 67.628671,84.695373 83.343296,65.450988 99.699334,50.376221 116.37608,34.980713 132.41141,27.603699 147.48462,27.603699 c 9.30049,0 16.35604,1.282959 21.48735,3.848877 L 126.9594,231.59417 H 87.512482 L 108.35841,132.80633 C 96.171561,127.35376 83.984709,124.14636 71.797857,122.8634 55.762525,159.10699 44.8585,192.14319 39.406487,222.29272 Z M 77.891283,110.99603 c 12.828265,2.56592 23.732287,5.77332 33.353487,9.30145 L 126.9594,46.206604 C 111.24477,54.866577 94.888734,76.676879 77.891283,110.99603 Z"
         style="stroke-width:3.20723" /><path
         id="path1031"
         class="st1"
         d="m 148.12603,26 c -15.71462,0 -32.07066,7.697754 -48.747403,23.093262 -16.356038,15.074767 -32.070663,34.319152 -46.823168,57.091678 -5.452013,-0.64148 -10.262612,-0.64148 -13.790385,-0.64148 -16.035331,0 -29.5050099,3.20739 -40.4090353,9.94293 v 0 c -10.9040257,6.73553 -16.3560377,15.07477 -16.3560377,25.0177 0,5.13183 1.603533,9.30145 5.131306,12.18811 v 0 0 c 3.5277726,2.88666 8.3383721,4.49035 14.431798,4.49035 3.527773,0 6.7348393,-0.96222 9.941906,-2.88665 v 0 c 3.207066,-2.24518 5.131306,-4.8111 5.131306,-8.0185 0,-2.88665 -0.320707,-5.13183 -1.282827,-7.05627 v 0 c -0.320707,-0.96222 -0.641413,-1.6037 -1.282826,-2.24518 0,0 -0.320707,0 -0.320707,0 1.92424,-3.84888 4.810599,-7.05627 9.621199,-8.65997 4.810599,-1.92444 11.224732,-2.88666 18.280278,-3.52814 -5.452013,9.62219 -10.583319,19.56512 -15.393918,29.50806 -15.714625,33.99841 -23.7322911,60.61981 -23.7322911,79.86419 0,12.82959 4.8105995,21.8103 14.4317981,26.6214 4.8106,2.24518 12.507559,3.52814 23.090878,3.52814 h 2.244946 l -1.282826,-1.92444 c -2.244947,-3.2074 -3.527773,-8.01849 -3.527773,-14.75403 0,-6.73553 0.962119,-15.07477 2.565653,-24.69696 5.772719,-30.14953 16.676744,-62.86499 32.712076,-98.78784 11.545439,1.28296 23.090877,4.49036 34.315613,9.30145 l -20.845935,99.10858 h 41.691865 l 42.97469,-202.386773 -0.96212,-0.32074 C 164.80278,27.282959 157.42653,26 148.12603,26 Z m 0,2.245179 c 8.65908,0 15.39392,1.282959 20.20452,3.528137 L 125.99728,230.31121 H 89.116015 l 20.845935,-98.4671 -0.96212,-0.32074 C 96.812974,126.0708 84.626122,122.54266 72.118564,121.58044 h -0.96212 l -0.320707,0.64148 c -16.356038,36.24359 -27.260063,69.60053 -32.712076,99.75006 -1.92424,9.62219 -2.565653,17.96143 -2.565653,25.0177 0,6.09406 1.282826,10.58441 3.527773,14.11255 -9.621199,0 -16.997452,-0.96222 -20.525225,-2.88666 -8.9797852,-4.49035 -13.1489714,-12.50885 -13.1489714,-24.37622 0,-18.6029 7.6969594,-44.90356 23.7322904,-78.90197 4.8106,-10.58442 10.262612,-21.16883 16.356038,-31.4325 l 0.641414,-1.92444 H 43.89638 c -8.659079,0.64148 -15.714625,1.92444 -21.487344,4.16962 -5.772719,2.24518 -9.621199,5.77331 -11.545439,10.90515 l -0.641413,1.6037 h 1.603533 c 0,0 0,0 0.320707,0.32074 0.320706,0.32074 0.641413,0.96222 0.96212,1.92444 v 0 c 0.641413,1.6037 0.96212,3.52813 0.96212,6.09405 0,2.24518 -1.282827,4.16962 -3.84848,5.77332 -2.8863596,1.6037 -5.4520127,2.56592 -8.659079,2.56592 -5.7727193,0 -9.9419055,-1.28296 -12.828265,-3.84888 -2.88636,-2.56592 -4.169186,-6.09406 -4.169186,-10.58441 0,-8.98072 4.810599,-16.35773 15.39391788,-23.09326 10.58331912,-6.4148 23.41158412,-9.6222 39.12620912,-9.6222 3.527773,0 8.338372,0.32074 14.111091,0.64148 h 0.641414 l 0.320706,-0.64148 C 68.911497,84.695373 84.305416,65.450988 100.66145,50.376221 117.3382,35.942932 133.05282,28.245179 148.12603,28.245179 Z m -19.5631,16.036987 -2.24495,0.962219 C 110.28265,53.904358 93.926614,75.71466 76.608456,110.35455 l -0.641413,1.28296 1.603533,0.32074 c 12.507559,2.56592 23.732294,5.77332 33.032784,9.30145 l 1.28283,0.64148 z m -3.52777,5.773315 -14.75251,68.959039 C 101.30287,115.48639 91.360961,112.59973 79.815523,110.35455 95.530148,78.601318 110.60336,59.036194 125.03516,50.055481 Z"
         style="stroke-width:3.20723" /><path
         id="path1035"
         class="st1"
         d="m 247.22438,182.84173 c -11.54544,33.67768 -31.10854,50.35614 -58.68931,50.35614 -7.05555,0 -13.46968,-2.56592 -19.2424,-7.69775 -5.45201,-5.13184 -8.33837,-13.47107 -8.33837,-25.0177 0,-5.13184 0.64141,-11.22589 2.24495,-17.96143 l 29.1843,-136.635126 40.40904,-5.452575 -31.42925,147.219541 c -0.64142,3.2074 -0.96212,6.41479 -0.96212,9.62219 0,6.09406 3.52777,9.30145 10.90402,9.30145 5.45201,0 10.26261,-2.24517 14.75251,-7.05627 4.48989,-4.49036 8.01766,-10.26367 9.9419,-17.31995 z"
         style="stroke-width:3.20723" /><path
         id="path1037"
         class="st1"
         d="m 234.07541,39.15033 -42.97469,6.094055 -29.1843,137.276605 v 0 c -1.28283,6.73554 -2.24495,12.82959 -2.24495,17.96143 0,11.54663 2.88636,20.2066 8.65908,25.65918 v 0 c 5.77272,5.45257 12.50756,8.01849 20.20452,8.01849 14.11109,0 25.97724,-4.16961 35.91914,-12.82959 9.94191,-8.65997 17.95957,-21.48956 23.73229,-38.48877 l 0.64142,-1.6037 h -1.60354 -12.50755 l -0.32071,0.96222 c -1.92424,6.73554 -5.13131,12.18811 -9.6212,16.67847 v 0 0 c -4.48989,4.49036 -8.97979,6.4148 -13.79039,6.4148 -3.52777,0 -6.09342,-0.64148 -7.37625,-1.92444 -1.60353,-1.28296 -2.24494,-3.2074 -2.24494,-6.09406 0,-3.2074 0.3207,-6.41479 0.96212,-9.62219 z m -2.88636,2.886657 -31.10854,145.615843 c -0.64141,3.2074 -0.96212,6.73553 -0.96212,9.94293 0,3.2074 0.96212,6.09406 3.20707,7.69776 2.24494,1.92443 5.1313,2.56591 8.97978,2.56591 5.77272,0 10.90403,-2.56591 15.71463,-7.37701 4.48989,-4.49036 7.69696,-10.26367 9.62119,-16.67847 h 8.97979 c -5.77272,15.71625 -13.14897,27.90436 -22.44946,35.60211 -9.6212,8.33924 -20.84593,12.18811 -34.31561,12.18811 -7.05555,0 -13.14897,-2.56591 -18.60099,-7.37701 -5.1313,-4.8111 -8.01766,-12.82959 -8.01766,-24.05548 0,-5.13184 0.64141,-10.90515 2.24494,-17.64069 l 28.8636,-135.672907 z"
         style="stroke-width:3.20723" /><path
         id="path1041"
         class="st1"
         d="m 349.85051,182.84173 c -20.52523,33.67768 -45.54035,50.35614 -75.04536,50.35614 -12.82826,0 -23.41158,-3.20739 -31.10854,-9.94293 -7.69696,-6.73553 -11.54544,-17.96142 -11.54544,-33.35693 0,-20.84809 5.13131,-40.73395 15.71463,-60.29907 8.01766,-14.75403 18.92169,-25.33844 33.03278,-31.753238 7.05555,-3.528137 14.7525,-5.131836 22.44946,-5.131836 12.50756,0 21.16664,2.245179 25.65653,7.056275 4.4899,4.811099 6.73484,10.905149 6.73484,18.923649 0,15.3955 -6.41413,28.86657 -18.92169,39.77172 -12.50756,10.90515 -27.26006,16.67847 -43.93681,17.96143 -0.3207,5.13183 -0.64141,8.65997 -0.64141,10.90515 0,9.30145 1.60353,15.39551 4.8106,18.6029 3.20707,2.88666 8.01767,4.49036 13.79039,4.49036 10.58331,0 19.24239,-2.24518 26.29794,-7.05627 7.05554,-4.8111 14.7525,-11.54663 22.77017,-20.52735 z m -34.95703,-65.75164 c 0,-6.4148 -2.24494,-9.94294 -6.73484,-9.94294 -6.73484,0.32074 -13.14897,6.09406 -19.24239,17.64069 -6.09343,11.54663 -10.58332,24.37622 -13.46968,38.48877 10.58332,-0.64148 19.5631,-5.45258 27.58077,-14.75403 8.01766,-8.65997 11.86614,-19.24438 11.86614,-31.43249 z"
         style="stroke-width:3.20723" /><path
         id="path1043"
         class="st1"
         d="m 303.66875,91.751647 c -8.01767,0 -15.39392,1.603699 -22.77017,5.131836 -14.11109,6.414797 -25.33582,17.319947 -33.6742,32.073977 v 0 c -10.58332,19.56512 -16.03533,39.77172 -16.03533,60.94055 0,15.71624 3.84848,27.26288 11.86615,34.31915 8.01766,6.73553 18.60098,10.26367 31.74995,10.26367 30.14643,0 55.48225,-17.31994 76.00748,-50.99762 l 0.96211,-1.92444 h -2.24494 -9.94191 l -0.3207,0.32074 c -8.01767,8.98072 -15.39392,15.71625 -22.44947,20.52735 -6.73484,4.49035 -15.39392,6.73553 -25.65653,6.73553 -5.77272,0 -9.9419,-1.28296 -13.14897,-4.16961 -2.56565,-2.56592 -4.16919,-8.33924 -4.16919,-17.64069 0,-1.92444 0.32071,-5.45258 0.64142,-9.94293 16.67674,-1.28296 31.10854,-7.05628 43.6161,-17.96143 12.82826,-11.22589 19.2424,-24.69696 19.2424,-40.73394 0,-8.0185 -2.24495,-14.75403 -7.05555,-19.885869 -5.13131,-4.811096 -14.11109,-7.056274 -26.61865,-7.056274 z m 0,2.245178 c 12.50756,0 20.52522,2.565918 24.69441,6.735535 v 0 c 4.16919,4.49036 6.41413,10.26367 6.41413,17.96143 0,15.07476 -6.09342,27.90435 -18.28027,38.8095 -12.18686,10.58442 -26.61865,16.35773 -43.2954,17.64069 h -0.96212 v 0.96222 c -0.32071,5.13183 -0.64141,8.65997 -0.64141,10.90515 0,9.30145 1.60353,16.03699 5.45201,19.24438 v 0 0 c 3.52777,3.2074 8.33837,4.8111 14.75251,4.8111 10.58331,0 19.5631,-2.24518 26.93935,-7.05627 7.05555,-4.8111 14.75251,-11.54663 22.44947,-20.52735 h 6.41413 c -19.88381,32.07398 -43.93681,48.11096 -72.4797,48.11096 -12.82826,0 -22.77017,-3.20739 -30.14642,-9.62219 -7.37626,-6.41479 -11.22473,-16.9992 -11.22473,-32.39471 0,-20.52735 5.1313,-40.41321 15.71462,-59.65759 8.01767,-14.75403 18.60098,-25.0177 32.39137,-31.111759 v 0 c 6.73484,-2.886657 14.11109,-4.811096 21.80805,-4.811096 z m 4.48989,12.188115 c -3.52777,0 -7.37625,1.92443 -10.58332,4.81109 -3.20706,2.88666 -6.73483,7.69776 -9.62119,13.47107 -6.41414,11.54663 -10.90403,24.69696 -13.46968,38.80951 l -0.64142,1.6037 h 1.60354 c 10.90402,-0.64148 20.20451,-5.77332 28.22218,-15.07477 8.01767,-9.30145 12.18685,-20.2066 12.18685,-32.39471 0,-3.52814 -0.64141,-6.09406 -1.92424,-8.0185 -1.28282,-1.92444 -3.20706,-3.20739 -5.77272,-3.20739 z m 0,2.24517 c 1.92424,0 3.20707,0.64148 4.16919,1.92444 0.96212,1.28296 1.60353,3.52814 1.60353,6.73554 0,11.86737 -3.84848,22.13104 -11.54544,30.79101 -7.05554,8.33923 -15.39391,12.50885 -24.69441,13.79181 2.88636,-13.15033 6.73484,-25.33844 12.50756,-36.24359 v 0 c 3.20707,-5.77332 6.09343,-9.94293 9.30049,-12.82959 2.88636,-2.56592 5.77272,-4.16962 8.65908,-4.16962 z"
         style="stroke-width:3.20723" /><path
         id="path1047"
         class="st1"
         d="m 424.89586,182.84173 c -11.86615,33.67768 -31.42925,50.35614 -58.68932,50.35614 -7.05554,0 -13.46968,-2.56592 -19.24239,-7.69775 -5.45202,-5.13184 -8.33838,-13.47107 -8.33838,-25.0177 0,-5.13184 0.64142,-11.22589 2.24495,-17.96143 l 29.1843,-136.635126 40.40904,-5.452575 -31.42925,147.219541 c -0.64141,3.2074 -0.96212,6.41479 -0.96212,9.62219 0,6.09406 3.52777,9.30145 10.90402,9.30145 5.45202,0 10.26262,-2.24517 14.75251,-7.05627 4.48989,-4.49036 8.01766,-10.26367 9.9419,-17.31995 z"
         style="stroke-width:3.20723" /><path
         id="path1049"
         class="st1"
         d="M 411.42618,39.15033 368.7722,45.244385 339.58789,182.52099 c -1.28282,6.73554 -2.24494,12.82959 -2.24494,17.96143 0,11.54663 2.88636,20.2066 8.65908,25.65918 v 0 c 5.77271,5.45257 12.50755,8.01849 20.20451,8.01849 14.1111,0 25.97724,-4.16961 35.91915,-12.82959 9.9419,-8.65997 17.95957,-21.48956 23.73229,-38.48877 l 0.64141,-1.6037 h -1.60353 -12.50756 l -0.32071,0.96222 c -1.92424,6.73554 -5.1313,12.18811 -9.6212,16.67847 v 0 0 c -4.48989,4.49036 -8.97978,6.4148 -13.79038,6.4148 -3.52778,0 -6.09343,-0.64148 -7.37626,-1.92444 -1.60353,-1.28296 -2.24494,-3.2074 -2.24494,-6.09406 0,-3.2074 0.32071,-6.41479 0.96212,-9.62219 z m -2.88636,2.886657 -30.78784,145.615843 c -0.64141,3.2074 -0.96212,6.73553 -0.96212,9.94293 0,3.2074 0.96212,6.09406 3.20707,7.69776 2.24494,1.92443 5.1313,2.56591 8.97978,2.56591 5.77272,0 10.90403,-2.56591 15.71463,-7.37701 v 0 c 4.48989,-4.49036 7.69696,-10.26367 9.6212,-16.67847 h 8.97978 c -5.77272,15.71625 -13.14897,27.90436 -22.44946,35.60211 -9.6212,8.33924 -20.84593,12.18811 -34.31561,12.18811 -6.73484,0 -13.14897,-2.56591 -18.60098,-7.37701 -5.13131,-4.8111 -8.01767,-12.82959 -8.01767,-24.05548 0,-5.13184 0.64141,-10.90515 2.24495,-17.64069 L 371.01714,46.848083 Z"
         style="stroke-width:3.20723" /><path
         id="path1053"
         class="st1"
         d="m 449.91097,184.76617 c 0,15.07477 5.77272,22.77252 17.31816,22.77252 5.13131,0 10.58332,-1.6037 16.35604,-4.49035 6.09343,-2.88666 11.22473,-6.4148 15.39392,-10.26367 -4.8106,26.94213 -20.52523,40.4132 -47.14388,40.4132 -12.82826,0 -23.09087,-3.20739 -30.78783,-9.94293 -7.69696,-6.73553 -11.54544,-17.96142 -11.54544,-33.35693 0,-20.84809 5.1313,-40.73395 15.71462,-60.29907 8.01767,-14.75403 18.92169,-25.33844 33.03279,-31.753238 7.05554,-3.528137 14.7525,-5.131836 22.44946,-5.131836 12.50756,0 21.16664,2.245178 25.65653,7.056275 4.48989,4.811099 6.73484,10.905149 6.73484,18.923649 0,15.71624 -6.41413,28.86657 -18.92169,39.77172 -12.50756,10.90515 -26.93936,16.67847 -43.93681,17.96143 -0.32071,2.56592 -0.32071,5.45257 -0.32071,8.33923 z m 42.33328,-67.67608 c 0,-6.4148 -2.24495,-9.94294 -6.73484,-9.94294 -8.65908,0.32074 -16.99745,10.26368 -25.01512,30.14954 -3.52777,8.33923 -6.09342,16.99921 -8.01766,25.97992 10.58332,-0.32074 19.5631,-5.13184 27.58077,-14.11255 8.01766,-8.98071 12.18685,-19.56512 12.18685,-32.07397 z"
         style="stroke-width:3.20723" /><path
         id="path1055"
         class="st1"
         d="m 480.69881,91.751647 c -8.01767,0 -15.39392,1.603699 -22.77017,5.131836 -14.11109,6.414797 -25.33582,17.319947 -33.6742,32.073977 v 0 c -10.58332,19.56512 -16.03533,39.77172 -16.03533,60.94055 0,15.71624 3.84848,27.26288 11.86615,34.31915 v 0 c 8.01766,6.73553 18.60098,10.26367 31.42925,10.26367 13.46968,0 24.3737,-3.52814 32.39137,-10.26367 8.01766,-7.05627 13.46968,-17.31995 15.71462,-30.79102 l 0.64141,-3.52813 -2.56565,2.24518 c -4.16918,3.84887 -9.30049,7.05627 -15.07321,9.94293 -5.77272,2.88666 -10.90403,4.16961 -15.71462,4.16961 -5.45202,0 -9.3005,-1.60369 -11.86615,-5.13183 -2.56565,-3.52814 -4.16919,-8.98071 -4.16919,-16.35773 0,-2.56592 0.32071,-5.13183 0.64142,-7.37701 16.67674,-1.28296 31.10854,-7.05628 43.6161,-17.96143 12.82826,-10.90515 19.2424,-24.69696 19.2424,-40.73394 0,-8.0185 -2.24495,-14.75403 -7.05555,-19.885869 -5.13131,-4.811096 -13.79038,-7.056274 -26.61865,-7.056274 z m 0,2.245178 c 12.50756,0 20.52522,2.565918 24.69441,6.735535 v 0 c 4.16919,4.49036 6.41413,10.26367 6.41413,17.96143 0,15.3955 -6.09342,28.22509 -18.28027,38.8095 -12.18686,10.58442 -26.61865,16.35773 -43.2954,17.64069 h -0.96212 v 0.96222 c -0.32071,2.56592 -0.64141,5.45257 -0.64141,8.33923 0,7.69776 1.60353,13.47107 4.48989,17.64069 3.20707,4.16961 8.01767,6.09405 13.79039,6.09405 5.1313,0 10.90402,-1.6037 16.99745,-4.49035 4.8106,-2.56592 8.97978,-5.45258 12.82826,-8.33924 -2.56565,11.54663 -7.05554,20.52735 -14.11109,26.6214 -7.69696,6.4148 -17.95957,9.94293 -30.78784,9.94293 -12.50756,0 -22.44946,-3.20739 -29.82571,-9.62219 -7.37626,-6.41479 -11.22474,-16.9992 -11.22474,-32.39471 0,-20.52735 5.13131,-40.41321 15.71463,-59.65759 8.01767,-14.75403 18.92169,-25.0177 32.39137,-31.111759 v 0 c 7.05555,-3.207397 14.11109,-5.131836 21.80805,-5.131836 z m 4.48989,12.188115 c -4.8106,0.32074 -9.30049,3.20739 -13.46968,8.33923 -4.16918,5.13183 -8.33837,12.82959 -12.50755,22.45178 -3.52778,8.33923 -6.09343,17.31995 -8.01767,26.30066 l -0.32071,1.6037 h 1.60354 c 10.90402,-0.32074 20.52522,-5.13184 28.54289,-14.43329 8.33837,-9.30145 12.50756,-20.52734 12.50756,-33.03619 0,-3.52814 -0.64142,-6.09406 -1.92424,-8.0185 -1.60354,-2.24518 -3.84848,-3.20739 -6.41414,-3.20739 z m 0.32071,2.24517 c 1.92424,0 3.20707,0.64148 4.16919,1.92444 0.96212,1.28296 1.60353,3.52814 1.60353,6.73554 0,12.18811 -3.84848,22.45178 -11.86615,31.43249 v 0 c -7.37625,8.33923 -15.71462,12.50885 -25.01511,13.15033 1.92424,-8.33923 4.48989,-16.35773 7.37625,-24.05548 3.84848,-9.62219 8.01766,-16.99921 11.86614,-22.13104 3.84848,-4.49036 8.01767,-6.73554 11.86615,-7.05628 z"
         style="stroke-width:3.20723" /><path
         id="path1059"
         class="st1"
         d="M 540.99166,78.601318 557.6684,26.96222 h 28.54289 l -25.01512,51.639098 z"
         style="stroke-width:3.20723" /><path
         id="path1061"
         class="st1"
         d="m 556.70628,26 -17.31816,53.884277 h 1.60354 21.16663 L 588.13553,26 Z m 1.92424,2.245179 h 25.65653 l -23.73229,49.07318 h -17.95957 z"
         style="stroke-width:3.20723" /><path
         id="path1065"
         class="st1"
         d="m 645.74654,86.940551 c 0.64141,16.999209 1.28282,31.432499 2.24494,42.658389 l 3.20707,43.29986 c 0.32071,4.16962 0.64141,8.98071 0.64141,14.11255 0,5.13184 -0.96212,10.26367 -2.56565,14.75403 -1.60353,4.49035 -3.84848,8.65997 -6.73484,12.18811 -5.13131,6.41479 -11.86615,11.54663 -20.20452,14.43329 -8.33837,2.88665 -16.35604,4.49035 -24.053,4.49035 -13.46967,0 -23.73229,-3.52813 -30.46713,-10.26367 -7.05554,-7.05627 -10.26261,-14.43329 -10.26261,-22.13104 0,-8.01849 1.60354,-14.11255 4.4899,-18.28217 2.88635,-4.16961 6.41413,-7.37701 9.9419,-9.30145 12.82827,-22.77252 24.053,-49.71466 33.6742,-80.826413 z M 586.0951,211.70831 c 17.31816,0 25.97724,-8.33923 25.97724,-25.33844 0,-4.8111 -0.32071,-10.26367 -0.96212,-16.67847 l -1.60353,-15.71624 c -0.96212,-9.94294 -1.92424,-20.84809 -2.56566,-32.39472 -4.48989,14.75403 -11.86614,32.07398 -22.12875,51.6391 4.16918,1.92444 6.41413,4.8111 6.41413,8.65997 0,3.84888 -0.96212,7.05628 -3.20707,9.94294 -2.24494,2.88665 -5.1313,4.16961 -8.65908,4.16961 -3.52777,0 -6.09342,-1.28296 -7.05554,-3.52813 -0.32071,12.82959 4.48989,19.24438 13.79038,19.24438 z"
         style="stroke-width:3.20723" /><path
         id="path1067"
         class="st1"
         d="m 647.02936,85.657592 h -1.28282 l -41.05045,5.452576 -0.32071,0.641479 c -9.6212,30.791013 -20.84593,57.733153 -33.35349,80.505673 0,0 0,0 0,0 -3.52777,1.92444 -7.05554,4.8111 -9.9419,8.98071 -3.20707,4.49036 -4.8106,10.90516 -4.8106,18.92365 0,8.01849 3.52777,16.03699 10.58331,23.09326 7.05555,7.05627 17.63887,10.58441 31.42925,10.58441 8.01767,0 16.03534,-1.6037 24.37371,-4.49035 v 0 c 8.33837,-3.2074 15.39392,-8.0185 20.84593,-14.75403 2.88636,-3.52814 5.13131,-7.69776 6.73484,-12.50885 v 0 c 1.60353,-4.8111 2.56565,-9.94293 2.56565,-15.39551 0,-5.13184 -0.32071,-9.94293 -0.64141,-14.43329 l -3.20707,-43.29986 v 0 c -0.64141,-11.54663 -1.28282,-25.65918 -2.24494,-42.658388 z m -2.24494,2.565918 c 0.64141,16.35773 1.28282,30.47028 1.92424,41.37543 v 0 l 3.20706,43.29986 c 0.32071,4.16962 0.64142,8.98071 0.64142,14.11255 0,5.13184 -0.96212,9.94293 -2.56566,14.43329 v 0 c -1.60353,4.49035 -3.84848,8.33923 -6.41413,11.86737 v 0 c -5.13131,6.41479 -11.54544,11.22589 -19.5631,14.11255 -8.01767,2.88665 -16.03534,4.49035 -23.41159,4.49035 -13.14897,0 -23.09088,-3.52813 -29.82572,-9.94293 -6.73483,-6.73553 -9.9419,-13.79181 -9.9419,-21.48956 0,-7.69775 1.60353,-13.47107 4.16919,-17.64069 2.88635,-4.16961 6.09342,-7.05627 9.62119,-8.65997 l 0.32071,-0.32074 0.32071,-0.32074 c 12.82826,-22.77252 23.73229,-49.71466 33.35349,-80.184934 z m -38.80551,33.35693 c -4.48989,14.75403 -11.86614,31.75324 -22.12875,51.31836 l -0.64142,0.96222 1.28283,0.64148 c 3.84848,1.92444 5.45201,4.16962 5.45201,7.69775 0,3.52814 -0.96212,6.73554 -3.20706,9.30146 -1.92424,2.56591 -4.4899,3.52813 -7.69696,3.52813 -3.52778,0 -5.13131,-0.96222 -6.09343,-2.88665 l -2.24495,0.64148 c 0,0.32073 0,0.32073 0,0.64147 0,0 0,0 0,0 0,6.09406 1.28283,11.2259 3.52778,14.43329 2.56565,3.52814 6.73484,5.13184 11.54544,5.13184 8.97978,0 15.71462,-2.24518 20.52522,-6.73554 4.8106,-4.49035 6.73484,-11.22589 6.73484,-19.88586 0,-4.8111 -0.32071,-10.26367 -0.96212,-16.67847 l -1.60353,-15.3955 v 0 c -0.96212,-9.94294 -1.92424,-20.84809 -2.56566,-32.39472 z m 0.32071,5.13184 c 0.64141,9.62219 1.28283,18.92364 2.24495,27.58362 l 1.60353,15.71624 v 0 c 0.64141,6.4148 0.96212,11.86737 0.96212,16.35773 0,8.33923 -2.24495,14.11255 -6.09343,17.96143 -4.16918,3.84887 -10.26261,6.09405 -18.60098,6.09405 -4.48989,0 -7.69696,-1.28296 -9.6212,-4.16962 -1.92424,-2.56591 -2.56565,-6.73553 -2.88636,-11.54663 1.60353,1.28296 2.88636,2.88666 5.45201,2.88666 4.16919,0 7.37626,-1.6037 9.6212,-4.49036 2.24495,-2.88665 3.52778,-6.73553 3.52778,-10.58441 0,-3.84887 -2.56566,-6.73553 -6.09343,-8.65997 8.97978,-17.96142 15.39392,-33.35693 19.88381,-47.14874 z"
         style="stroke-width:3.20723" /><path
         id="path1071"
         class="st1"
         d="m 909.86238,233.19787 c -23.09088,0 -34.95703,-10.26367 -34.95703,-30.79101 0,-7.37702 1.92424,-19.24439 6.09343,-35.60211 4.16919,-16.35773 6.09342,-27.58362 6.09342,-33.67768 0,-9.30145 -3.20706,-14.11254 -9.9419,-14.11254 -6.73484,0 -12.50756,5.13183 -17.63887,15.71624 -1.60353,2.88666 -1.28282,6.4148 -2.24494,9.94293 l -19.88381,86.27899 -39.44692,0.96222 19.88381,-93.97674 c 0.64142,-2.24518 0.64142,-4.49036 0.64142,-6.73553 0,-8.0185 -2.56566,-11.86738 -8.01767,-11.86738 -5.45201,0 -9.94191,2.56592 -13.79038,7.69776 -3.84848,4.81109 -4.4899,10.58441 -6.73484,17.64068 l -18.60099,88.20343 -41.05045,-0.32074 28.8636,-136.314387 41.69186,-2.245178 -2.56565,12.508855 c 8.97978,-10.263677 17.31816,-11.546635 30.46713,-11.546635 16.03533,0 26.61865,5.773315 29.1843,21.489565 9.94191,-15.39551 21.48735,-21.168826 36.56056,-21.168826 8.65908,0 16.51818,2.155894 22.2909,6.966986 5.77272,4.8111 8.74837,12.13523 8.74837,21.43668 0,9.30146 -0.25144,19.38656 -3.1378,31.57467 l -8.33837,25.97991 c -1.28282,5.77332 -1.2098,11.55204 -1.40495,15.07477 -0.35714,6.44776 2.04637,11.86737 8.7812,11.86737 6.09343,0 10.90403,-1.92444 14.1111,-5.77331 3.20706,-3.84888 6.41413,-9.94293 9.62119,-18.28217 h 11.54544 c -6.73484,20.20661 -15.39391,33.99841 -25.65653,42.33765 -5.77272,4.16961 -13.14897,6.73553 -21.16663,6.73553 z"
         sodipodi:nodetypes="ssssscccccsscccccccscsssccssscccs"
         style="stroke-width:3.20723" /><path
         id="path1073"
         class="st1"
         d="m 829.68572,92.713866 c -12.18685,0 -22.77017,5.131836 -31.42925,13.791814 l 2.56565,-12.508855 H 759.13026 L 729.62525,232.87713 h 41.69186 L 789.9181,144.6737 v 0 c 1.92424,-6.73553 4.8106,-12.50885 8.33837,-17.31994 3.52777,-4.8111 7.69696,-7.05628 12.82826,-7.05628 2.56566,0 3.84848,0.64148 5.13131,2.56592 1.28283,1.6037 1.92424,4.49036 1.92424,8.33924 0,2.24517 -0.32071,4.49035 -0.64141,6.41479 v 0 l -20.52523,95.2597 h 41.69186 l 18.60099,-88.20343 v 0 0 c 0.96212,-3.20739 2.24494,-6.41479 3.52777,-9.30145 v 0 c 2.56565,-5.13183 5.13131,-8.98071 8.01767,-11.22589 2.88636,-2.56592 5.45201,-3.52814 8.65908,-3.52814 2.88636,0 5.1313,0.96222 6.41413,2.88666 1.28283,1.92444 2.24495,5.13184 2.24495,9.94293 0,6.09406 -1.92424,17.31995 -6.09343,33.67768 -4.16919,16.35772 -6.09343,28.22509 -6.09343,35.92285 0,10.58441 2.88636,18.6029 8.97979,24.05548 6.09342,5.45257 15.07321,8.01849 26.93936,8.01849 8.01766,0 15.71462,-2.88666 23.09087,-8.65997 v 0 c 10.58332,-8.33924 19.2424,-22.45178 25.97724,-42.65839 l 0.64141,-1.6037 h -13.79038 l -0.32071,0.64148 c -3.20706,8.33924 -6.41413,14.11255 -9.6212,17.96143 -2.88636,3.52814 -7.37625,5.45257 -13.14897,5.45257 -3.20707,0 -5.13131,-0.96221 -6.73484,-2.56591 -1.28282,-1.6037 -2.24494,-4.16962 -2.24494,-8.0185 0,-3.52813 0.64141,-8.01849 2.24494,-13.79181 v 0 l 6.41413,-26.62139 v 0 c 2.88636,-12.18811 4.4899,-22.77253 4.4899,-32.07398 0,-9.62219 -2.88636,-16.9992 -8.97979,-21.8103 -6.09342,-5.131837 -13.46968,-7.377015 -22.44946,-7.377015 -15.07321,0 -27.58077,7.697755 -37.52268,22.451785 -1.60353,-7.05628 -3.84848,-12.82959 -8.33837,-16.35773 -5.13131,-5.452575 -11.86615,-7.377014 -19.88381,-7.377014 z m 0,2.565918 c 7.69696,0 13.79038,1.924439 18.28028,5.452576 4.48989,3.52814 7.37625,9.30145 8.65908,16.67847 l 0.64141,3.20739 1.60353,-2.56591 c 9.94191,-15.07477 22.12876,-22.451786 36.88126,-22.451786 8.33838,0 15.39392,2.245178 20.84593,7.056276 5.45202,4.49035 8.33838,11.22589 8.33838,20.2066 0,8.98071 -1.60354,19.56513 -4.4899,31.75324 l -6.41413,26.62139 v 0 c -1.28282,5.77332 -2.24494,10.58442 -2.24494,14.43329 0,4.16962 0.96212,7.37702 2.88636,9.6222 1.92423,2.24517 4.81059,3.20739 8.33837,3.20739 6.41413,0 11.54544,-2.24518 15.07321,-6.41479 3.20707,-3.84888 6.41413,-9.94293 9.6212,-17.96143 h 8.97978 c -6.73484,18.92365 -14.7525,32.39472 -24.3737,40.09247 -7.05555,5.45258 -14.11109,8.01849 -21.48734,8.01849 -11.54544,0 -19.88382,-2.56591 -25.33583,-7.37701 -5.45201,-4.8111 -8.33837,-12.18811 -8.33837,-22.13104 0,-7.37702 1.92424,-19.24439 6.09343,-35.28137 4.16918,-16.35773 6.09342,-27.58362 6.09342,-33.99842 0,-4.81109 -0.96212,-8.65997 -2.56565,-11.22589 -1.92424,-2.56592 -4.8106,-4.16961 -8.33837,-4.16961 -3.52778,0 -7.05555,1.60369 -10.26262,4.16961 -3.20706,2.56592 -5.77272,6.73554 -8.65908,12.18811 -1.60353,2.88666 -2.88635,6.4148 -3.84847,9.94293 v 0 l -18.28028,86.59973 h -36.88127 l 19.56311,-92.69378 c 0.64141,-2.24518 0.96212,-4.49036 0.96212,-7.05627 0,-4.16962 -0.64141,-7.37702 -2.24495,-9.6222 -1.60353,-2.24518 -4.16918,-3.52813 -7.05554,-3.52813 -5.77272,0 -10.58332,2.88665 -14.75251,8.01849 -3.84848,5.13184 -6.73484,11.22589 -8.65908,18.28216 v 0 l -18.28028,86.59973 H 733.15302 L 761.69591,97.204223 h 36.88127 l -3.52778,16.999207 2.88636,-3.52814 c 8.01767,-10.58441 18.92169,-15.395506 31.74996,-15.395506 z"
         style="stroke-width:3.20723" /><path
         id="path1077"
         class="st1"
         d="m 1060.2738,182.84173 c -20.5252,33.67768 -45.5404,50.35614 -75.04537,50.35614 -12.82826,0 -23.41158,-3.20739 -31.10854,-9.94293 -7.69696,-6.73553 -11.54544,-17.96142 -11.54544,-33.35693 0,-20.84809 5.13131,-40.73395 15.71463,-60.29907 8.01766,-14.75403 18.92169,-25.33844 33.03278,-31.753238 7.05555,-3.528137 14.75254,-5.131836 22.44944,-5.131836 12.5076,0 21.1667,2.245179 25.6566,7.056275 4.4898,4.811099 6.7348,10.905149 6.7348,18.923649 0,15.3955 -6.4141,28.86657 -18.9217,39.77172 -12.5076,10.90515 -27.26006,16.67847 -43.93681,17.96143 -0.3207,5.13183 -0.64141,8.65997 -0.64141,10.90515 0,9.30145 1.60353,15.39551 4.8106,18.6029 3.20707,2.88666 8.01767,4.49036 13.79042,4.49036 10.5833,0 19.2424,-2.24518 26.2979,-7.05627 7.0556,-4.8111 14.7525,-11.54663 22.7702,-20.52735 z m -34.6363,-65.75164 c 0,-6.4148 -2.245,-9.94294 -6.7349,-9.94294 -6.7348,0.32074 -13.1489,6.09406 -19.24237,17.64069 -6.09342,11.54663 -10.58332,24.37622 -13.46968,38.48877 10.58332,-0.64148 19.56315,-5.45258 27.58075,-14.75403 7.697,-8.65997 11.8662,-19.24438 11.8662,-31.43249 z"
         style="stroke-width:3.20723" /><path
         id="path1079"
         class="st1"
         d="m 1014.092,91.751647 c -8.0176,0 -15.39389,1.603699 -22.77014,5.131836 -14.11109,6.414797 -25.33582,17.319947 -33.6742,32.073977 v 0 c -10.58332,19.56512 -16.03533,39.77172 -16.03533,60.94055 0,15.71624 3.84848,27.26288 11.86615,34.31915 8.01766,6.73553 18.60098,10.26367 31.74995,10.26367 30.14647,0 55.48227,-17.31994 76.00747,-50.99762 l 0.9621,-1.92444 h -2.2449 -9.9419 l -0.3207,0.32074 c -8.0177,8.98072 -15.394,15.71625 -22.4495,20.52735 -6.7348,4.49035 -15.3939,6.73553 -25.6565,6.73553 -5.77275,0 -9.94193,-1.28296 -13.149,-4.16961 -2.88636,-2.56592 -4.48989,-8.33924 -4.48989,-17.64069 0,-1.92444 0.3207,-5.45258 0.64141,-9.94293 16.67678,-1.28296 31.10858,-7.05628 43.61608,-17.96143 12.8283,-11.22589 19.2424,-24.69696 19.2424,-40.73394 0,-8.0185 -2.2449,-14.75403 -7.0555,-19.885869 -4.8106,-4.811096 -13.4697,-7.056274 -26.298,-7.056274 z m 0,2.245178 c 12.5076,0 20.5253,2.565918 24.6944,6.735535 v 0 c 4.1692,4.49036 6.4142,10.26367 6.4142,17.96143 0,15.07476 -6.0935,27.90435 -18.2803,38.8095 -12.1869,10.58442 -26.6186,16.35773 -43.2954,17.64069 h -0.96212 v 0.96222 c -0.32071,5.13183 -0.64141,8.65997 -0.64141,10.90515 0,9.30145 1.60353,16.03699 5.45201,19.24438 v 0 0 c 3.52777,3.2074 8.33837,4.8111 14.75252,4.8111 10.5833,0 19.5631,-2.24518 26.9393,-7.05627 7.0556,-4.8111 14.7525,-11.54663 22.4495,-20.52735 h 6.4141 c -19.8838,32.07398 -44.2575,48.11096 -72.47966,48.11096 -12.82826,0 -22.77017,-3.20739 -30.14642,-9.62219 -7.37626,-6.41479 -11.22473,-16.9992 -11.22473,-32.39471 0,-20.52735 5.1313,-40.41321 15.71462,-59.65759 8.01767,-14.75403 18.60098,-25.0177 32.39137,-31.111759 v 0 c 7.05555,-2.886657 14.11112,-4.811096 21.80802,-4.811096 z m 4.4899,12.188115 c -3.5277,0 -7.3762,1.92443 -10.5833,4.81109 -3.2071,3.2074 -6.7348,7.69776 -9.62119,13.47107 -6.41414,11.54663 -10.90403,24.69696 -13.46968,38.80951 l -0.32071,1.6037 h 1.60353 c 10.90403,-0.64148 20.20455,-5.77332 28.22215,-15.07477 8.0177,-9.30145 12.1869,-20.2066 12.1869,-32.39471 0,-3.52814 -0.6414,-6.09406 -1.9243,-8.0185 -1.2828,-1.92444 -3.5277,-3.20739 -6.0934,-3.20739 z m 0,2.24517 c 1.9243,0 3.2071,0.64148 4.1692,1.92444 0.9621,1.28296 1.6035,3.52814 1.6035,6.73554 0,11.86737 -3.8484,22.13104 -11.5454,30.79101 -7.0555,8.33923 -15.39391,12.50885 -24.69441,13.79181 2.88636,-13.15033 6.73484,-25.33844 12.50761,-36.24359 v 0 c 3.207,-5.77332 6.0934,-9.94293 9.3004,-12.82959 2.8864,-2.56592 5.7728,-4.16962 8.6591,-4.16962 z"
         style="stroke-width:3.20723" /><path
         id="path1083"
         class="st1"
         d="m 1219.665,233.19787 c -23.0909,0 -34.957,-10.26367 -34.957,-30.79101 0,-7.37702 1.9242,-19.24439 6.0934,-35.60211 4.1692,-16.35773 6.0934,-27.58362 6.0934,-33.67768 0,-9.30145 -3.2071,-14.11254 -9.9419,-14.11254 -6.7348,0 -12.5076,5.13183 -17.6389,15.71624 -1.6035,2.88666 -2.8863,6.09406 -3.8484,9.62219 l -18.601,87.56195 h -38.8055 l 19.8838,-93.97674 c 0.6414,-2.24518 0.6414,-4.49036 0.6414,-6.73553 0,-8.0185 -2.5657,-11.86738 -8.0177,-11.86738 -5.452,0 -9.9419,2.56592 -13.7904,7.69776 -3.8484,4.81109 -6.4141,10.90515 -8.659,17.96142 l -18.601,87.56195 h -38.8055 l 28.8636,-136.314387 h 39.1262 l -2.8864,14.112547 c 8.9798,-10.26367 20.2045,-15.395505 33.3535,-15.395505 16.0353,0 25.3358,7.697755 27.9015,23.414005 9.9419,-15.39551 22.7702,-23.093266 37.8434,-23.093266 8.6591,0 15.7146,2.245178 21.4873,7.056276 5.7727,4.81109 8.6591,11.86737 8.6591,21.16882 0,9.30145 -1.6035,19.88587 -4.4899,32.07398 l -6.4141,26.62139 c -1.2829,5.77332 -2.245,10.58442 -2.245,14.11255 0,7.69776 3.2071,11.86737 9.9419,11.86737 6.0935,0 10.9041,-1.92444 14.1111,-5.77331 3.2071,-3.84888 6.4142,-9.94293 9.6212,-18.28217 h 11.5455 c -6.7349,20.20661 -15.394,33.99841 -25.6566,42.33765 -6.7348,4.16961 -14.1111,6.73553 -21.808,6.73553 z"
         style="stroke-width:3.20723" /><path
         id="path1085"
         class="st1"
         d="m 1139.1676,92.713866 c -12.1868,0 -22.7702,5.131836 -31.4292,13.791814 l 2.5656,-12.508855 h -41.6918 l -29.5051,138.880305 h 41.6919 L 1099.4,144.6737 v 0 c 1.9242,-6.73553 4.8106,-12.50885 8.3384,-17.31994 3.5277,-4.8111 7.6969,-7.05628 12.8282,-7.05628 2.5657,0 3.8485,0.64148 5.1313,2.56592 1.2829,1.6037 1.9243,4.49036 1.9243,8.33924 0,2.24517 -0.3207,4.49035 -0.6414,6.41479 v 0 l -20.2046,95.58044 h 41.6919 l 18.601,-88.20343 v 0 0 c 0.9621,-3.20739 2.2449,-6.41479 3.5278,-9.30145 v 0 c 2.5656,-5.13183 5.1313,-8.98071 8.0176,-11.22589 2.8864,-2.56592 5.452,-3.52814 8.6591,-3.52814 2.8864,0 5.1313,0.96222 6.4141,2.88666 1.2829,1.92444 2.245,5.13184 2.245,9.94293 0,6.09406 -1.9243,17.31995 -6.0934,33.67768 -4.1692,16.35772 -6.0935,28.22509 -6.0935,35.92285 0,10.58441 2.8864,18.6029 8.9798,24.05548 6.0934,5.45257 15.0732,8.01849 26.9394,8.01849 8.0176,0 15.7146,-2.88666 23.0909,-8.65997 v 0 c 10.5833,-8.33924 19.2424,-22.45178 25.9772,-42.65839 l 0.6414,-1.6037 h -13.7904 l -0.3207,0.64148 c -3.2071,8.33924 -6.4141,14.11255 -9.6212,17.96143 -2.8863,3.52814 -7.3762,5.45257 -13.149,5.45257 -3.207,0 -5.1313,-0.96222 -6.4141,-2.56591 -1.2828,-1.6037 -2.2449,-4.16962 -2.2449,-8.0185 0,-3.52813 0.6414,-8.01849 2.2449,-13.79181 v 0 l 6.4141,-26.62139 v 0 c 2.8864,-12.18811 4.4899,-22.77253 4.4899,-32.07398 0,-9.62219 -2.8863,-16.9992 -8.9797,-21.8103 -6.0935,-5.131837 -13.4697,-7.377015 -22.4495,-7.377015 -15.0732,0 -27.5808,7.697755 -37.5227,22.451785 -1.6035,-7.05628 -3.8485,-12.82959 -8.3384,-16.35773 -5.7727,-5.773315 -12.1868,-7.697754 -20.5252,-7.697754 z m 0,2.565918 c 7.697,0 13.7904,1.924439 18.2803,5.452576 4.4899,3.52814 7.3762,9.30145 8.6591,16.67847 l 0.6414,3.20739 1.6035,-2.56591 c 9.9419,-15.07477 22.1288,-22.451786 36.8813,-22.451786 8.3384,0 15.3939,2.245178 20.8459,7.056276 5.452,4.49035 8.3384,11.22589 8.3384,20.2066 0,8.98071 -1.6035,19.56513 -4.4899,31.75324 l -6.4141,26.62139 c -1.2829,5.77332 -2.245,10.58442 -2.245,14.43329 0,4.16962 0.9621,7.37702 2.8864,9.6222 1.9242,2.24517 4.8106,3.20739 8.3383,3.20739 6.4142,0 11.5455,-2.24518 15.0733,-6.41479 3.207,-3.84888 6.4141,-9.94293 9.6212,-17.96143 h 8.9797 c -6.7348,18.92365 -14.7525,32.39472 -24.3737,40.09247 -7.0555,5.45258 -14.1111,8.01849 -21.4873,8.01849 -11.5454,0 -19.8838,-2.56591 -25.3358,-7.37701 -5.452,-4.8111 -8.3384,-12.18811 -8.3384,-22.13104 0,-7.37702 1.9242,-19.24439 6.0934,-35.28137 4.1692,-16.35773 6.0934,-27.58362 6.0934,-33.99842 0,-4.81109 -0.9621,-8.65997 -2.5656,-11.22589 -1.9242,-2.56592 -4.8106,-4.16961 -8.3384,-4.16961 -3.5277,0 -7.0555,1.60369 -10.2626,4.16961 -3.2071,2.56592 -5.7727,6.73554 -8.6591,12.18811 -1.6035,2.88666 -2.8863,6.4148 -3.8484,9.94293 v 0 l -18.2803,86.59973 h -36.8813 l 19.5631,-92.69378 c 0.6414,-2.24518 0.9621,-4.49036 0.9621,-7.05627 0,-4.16962 -0.6414,-7.37702 -2.2449,-9.6222 -1.6035,-2.24518 -4.1692,-3.52813 -7.0556,-3.52813 -5.7727,0 -10.5833,2.88665 -14.7525,8.01849 -3.8484,5.13184 -6.7348,11.22589 -8.659,18.28216 v 0 l -18.2803,86.59973 h -36.8813 l 28.5429,-134.069207 h 36.8813 l -3.5278,16.999207 2.8864,-3.52814 c 8.3383,-10.26367 18.9217,-15.074766 31.7499,-15.074766 z"
         style="stroke-width:3.20723" /><path
         id="path1089"
         class="st1"
         d="m 1409.2026,127.99524 c -10.904,11.54663 -27.2601,18.92364 -48.4267,22.77252 -2.2449,24.69696 -9.3005,44.58282 -21.4873,59.65759 -12.1869,14.75403 -26.6187,22.45178 -43.6161,22.45178 -20.846,0 -34.3157,-7.69775 -40.4091,-23.09326 -2.2449,-5.45257 -3.2071,-11.54663 -3.2071,-17.96142 0,-6.4148 0.6415,-13.15033 1.6036,-19.88587 0.9621,-6.73553 2.8863,-13.79181 5.1313,-21.16882 5.452,-16.35773 13.149,-29.50806 23.4116,-39.45099 12.1868,-12.188109 26.9393,-17.961424 44.2575,-17.961424 23.4116,0 34.957,14.433284 34.957,43.620604 v 0.32074 c 0.9621,0.32074 2.245,0.32074 4.4899,0.32074 4.8106,0 11.2247,-1.6037 18.9217,-4.8111 7.697,-3.20739 15.0732,-7.05627 21.808,-11.86737 z m -70.8762,23.414 c -4.8106,-1.28296 -7.3762,-5.13184 -7.3762,-12.18811 0,-6.73554 2.8863,-11.54663 8.6591,-14.11255 -0.3207,-5.77332 -1.2829,-9.94293 -2.8864,-12.18811 -1.2828,-2.24518 -4.1692,-3.52814 -8.6591,-3.52814 -8.3384,0 -16.356,9.30146 -24.053,27.58362 -7.6969,18.28217 -11.5454,34.63989 -11.5454,49.07318 0,8.65997 0.6414,14.43329 2.2449,16.67847 1.6036,2.24518 3.2071,3.84887 5.1313,4.49035 1.9243,0.64148 4.1692,0.96222 7.0556,0.96222 6.0934,0 12.5075,-5.45257 18.601,-16.35772 6.4141,-10.90516 10.5833,-24.37622 12.8282,-40.41321 z"
         style="stroke-width:3.20723" /><path
         id="path1091"
         class="st1"
         d="m 1326.781,91.751647 c -17.6389,0 -32.7121,6.094055 -44.8989,18.602903 -10.5834,10.26367 -18.2803,23.73474 -23.7323,40.09247 -2.5657,7.37701 -4.1692,14.43329 -5.1313,21.16882 v 0 c -1.2829,6.73554 -1.6036,13.47107 -1.6036,20.20661 0,6.73553 0.9622,12.82959 3.2071,18.28216 6.0934,15.71625 20.2045,24.05548 41.6919,24.05548 17.3181,0 32.3913,-7.69775 44.5782,-22.77252 12.1868,-15.07477 19.2424,-34.96063 21.4873,-59.33685 20.846,-3.52814 37.202,-11.22589 48.106,-22.77252 l 0.6414,-0.64148 -0.3207,-0.64148 -2.8863,-8.98072 -1.2829,0.96222 c -6.7348,4.8111 -13.7903,8.65998 -21.4873,11.54663 v 0 c -7.697,3.2074 -13.7904,4.49036 -18.2803,4.49036 -1.6035,0 -2.5656,0 -3.5277,-0.32074 0,-14.11255 -2.8864,-25.0177 -8.9798,-32.39471 -6.4142,-7.697756 -15.7147,-11.546633 -27.5808,-11.546633 z m 0,2.245178 c 11.5454,0 19.8838,3.528137 25.3358,10.263675 5.452,7.05627 8.3384,17.64068 8.3384,31.75323 v 1.28296 l 0.9621,0.32074 c 0.9621,0.32074 2.5657,0.32074 4.8106,0.32074 5.1313,0 11.5454,-1.6037 19.2424,-4.8111 7.3763,-2.88665 14.1111,-6.73553 20.5252,-11.22589 l 1.6036,5.13184 c -10.9041,10.90515 -26.298,18.28216 -47.1439,21.8103 h -0.9621 v 0.96222 c -2.245,24.69696 -9.3005,44.26208 -21.1667,59.01611 -11.8661,14.75403 -25.9772,21.8103 -42.6539,21.8103 -20.5253,0 -33.3535,-7.37701 -39.447,-22.45178 -1.9242,-5.13183 -3.207,-11.22589 -3.207,-17.64068 0,-6.4148 0.6414,-13.15033 1.6035,-19.88587 v 0 c 0.9621,-6.73553 2.8864,-13.79181 5.1313,-20.84808 5.452,-16.03699 13.149,-29.18732 23.4116,-39.13025 12.5076,-10.58441 26.6186,-16.678465 43.6161,-16.678465 z m 1.2828,14.112545 c -4.4899,0 -8.9798,2.56592 -13.149,7.37702 -4.1691,4.81109 -8.0176,11.86737 -11.8661,21.16882 -7.697,18.60291 -11.5454,34.96063 -11.5454,49.39392 0,8.98071 0.6414,14.43329 2.5656,17.31995 v 0 0 c 1.6036,2.56591 3.5278,4.16961 5.7727,4.81109 1.9243,0.64148 4.4899,0.96222 7.697,0.96222 3.5278,0 6.7348,-1.6037 9.9419,-4.49035 3.2071,-2.88666 6.4141,-7.05628 9.6212,-12.50885 6.0934,-11.2259 10.2626,-24.69696 12.5076,-40.73395 v -0.96222 l -0.9622,-0.32074 c -2.2449,-0.64148 -3.8484,-1.6037 -4.8106,-3.52814 -0.9621,-1.6037 -1.6035,-4.16961 -1.6035,-7.37701 0,-6.4148 2.5657,-10.58441 7.697,-13.15033 l 0.6414,-0.32074 v -0.96222 c -0.3207,-5.77331 -1.2828,-9.94293 -2.8864,-12.82959 -1.6035,-2.24518 -5.1313,-3.84888 -9.6212,-3.84888 z m 0,2.56592 c 4.1692,0 6.4142,0.96222 7.3763,2.88666 v 0 0 c 1.2828,1.92444 2.2449,5.77331 2.5656,11.22589 -5.452,2.88666 -8.3383,7.69775 -8.3383,14.43329 0,3.52814 0.6414,6.41479 1.9242,8.65997 1.2828,1.92444 3.2071,2.88666 5.1313,3.84888 -2.2449,15.71625 -6.0934,28.86658 -12.1869,39.45099 -2.8863,5.45257 -6.0934,9.30145 -8.9797,11.86737 -2.8864,2.56591 -5.7728,3.84887 -8.3384,3.84887 -2.8864,0 -5.1313,-0.32074 -6.7348,-0.96222 -1.2829,-0.64147 -2.8864,-1.60369 -4.4899,-3.84887 -1.2829,-1.92444 -2.245,-7.37702 -2.245,-16.03699 0,-14.11255 3.8485,-30.14953 11.2247,-48.4317 3.8485,-9.30145 7.697,-16.03699 11.5455,-20.52734 4.1692,-4.49036 8.0176,-6.4148 11.5454,-6.4148 z"
         style="stroke-width:3.20723" /><path
         id="path1095"
         class="st1"
         d="m 1365.2658,231.59417 28.8636,-136.314386 h 39.1262 l -3.5278,16.999206 c 4.4899,-3.84888 9.6212,-7.69775 14.7525,-11.54663 5.452,-3.528137 11.5455,-5.452576 17.6389,-5.452576 6.4141,0 11.2247,2.245178 14.4318,6.414796 3.2071,4.16962 4.8106,8.01849 4.8106,11.86737 0,6.41479 -1.9242,11.86737 -5.452,16.03699 -3.5278,4.16961 -7.697,6.09405 -12.5076,6.09405 -4.8106,0 -8.3384,-0.96222 -9.9419,-3.2074 -1.6035,-2.24517 -2.5656,-4.49035 -2.8863,-7.05627 -0.3208,-2.24518 -0.9622,-4.16962 -1.6036,-5.45258 -0.6414,-1.28295 -1.6035,-2.24517 -3.5278,-2.24517 -3.8484,0 -7.0555,0.96222 -9.9419,2.56591 -2.8863,1.6037 -6.0934,4.16962 -9.6212,7.69776 l -21.808,103.59893 z"
         style="stroke-width:3.20723" /><path
         id="path1097"
         class="st1"
         d="m 1393.1673,93.996825 -29.505,138.880305 h 1.6035 40.0883 l 21.8081,-104.24041 c 3.5277,-3.2074 6.7348,-5.77332 9.3005,-7.37702 v 0 c 2.5656,-1.6037 5.7727,-2.56591 9.3005,-2.56591 0.6414,0 1.2828,0 1.6035,0.32074 0.3207,0.32073 0.6414,0.64147 0.6414,0.96221 v 0 0 c 0.6414,1.28296 0.9621,2.88666 1.2828,5.13184 0.3207,2.56592 1.6036,5.13184 3.2071,7.37701 v 0 0 c 1.9242,2.56592 5.7727,3.84888 10.904,3.84888 5.452,0 9.9419,-2.24518 13.4697,-6.41479 3.8485,-4.16962 5.452,-9.94294 5.452,-16.67847 0,-4.16962 -1.6035,-8.33923 -5.1313,-12.82959 -3.5278,-4.490356 -8.6591,-6.735534 -15.3939,-6.735534 -6.4141,0 -12.8283,1.924438 -18.2803,5.773315 -4.4899,2.886659 -8.6591,6.094059 -12.5076,9.622189 l 3.2071,-15.074765 z m 1.9242,2.565918 h 36.8813 l -3.8485,18.923647 2.5656,-2.24518 c 4.4899,-3.84888 9.3005,-7.69775 14.7525,-11.22589 5.4521,-3.528138 10.9041,-5.131837 16.9975,-5.131837 6.0934,0 10.5833,1.924438 13.4697,5.773317 3.207,4.16961 4.4899,7.69775 4.4899,11.22589 0,6.41479 -1.6036,11.22589 -5.1313,15.07477 v 0 c -3.2071,3.84887 -7.0556,5.77331 -11.8662,5.77331 -4.8106,0 -7.6969,-0.96222 -8.9798,-2.88666 -1.6035,-2.24517 -2.2449,-4.16961 -2.5656,-6.41479 -0.3207,-2.56592 -0.9621,-4.49036 -1.6036,-5.77332 -0.3207,-0.96221 -0.9621,-1.60369 -1.9242,-2.24517 -0.9621,-0.64148 -1.9242,-0.64148 -2.8864,-0.64148 -3.8484,0 -7.3762,0.96222 -10.5833,2.88665 -2.8863,1.6037 -6.0934,4.49036 -9.9419,8.0185 l -0.3207,0.32074 -21.808,102.95745 h -36.8813 z"
         style="stroke-width:3.20723" /><path
         id="path1101"
         class="st1"
         d="m 1515.6772,195.02984 c 0,8.0185 2.5657,11.86737 8.0177,11.86737 9.6212,0 16.9974,-8.01849 21.808,-24.05548 l 18.601,-87.561946 h 39.4469 l -33.3535,158.124696 c -3.5277,17.31994 -10.5833,30.14953 -21.1666,37.84729 -7.697,5.77331 -16.6768,8.65997 -26.6187,8.65997 -9.9419,0 -18.2802,-2.88666 -24.6944,-8.33923 -6.4141,-5.45258 -9.6212,-12.18811 -9.6212,-19.56513 0,-7.37701 1.2829,-13.47107 3.5278,-17.64068 2.5657,-4.49036 6.4141,-8.33924 11.5454,-11.86738 5.1313,-3.84887 15.7147,-8.01849 32.0707,-12.82958 l 2.8864,-11.86738 c -9.3005,10.58442 -20.2046,15.71625 -33.3535,15.71625 -8.0177,0 -15.0732,-2.56592 -20.846,-7.69775 -5.452,-5.13184 -8.3383,-13.47107 -8.3383,-25.0177 0,-5.13184 0.6414,-11.22589 2.2449,-17.96143 l 18.601,-87.561946 h 39.1262 l -19.5631,92.693786 c 0,2.24518 -0.3207,4.49036 -0.3207,7.05627 z m 18.2803,42.97913 c -9.6212,3.52814 -16.3561,6.73553 -20.2045,9.62219 -6.7349,5.45258 -10.2627,11.86737 -10.2627,18.60291 0,1.92443 0.9622,4.16961 3.2071,6.09405 2.245,1.92444 4.8106,3.2074 7.697,3.2074 2.8863,0 6.0934,-1.6037 8.9798,-4.8111 3.207,-3.2074 5.452,-8.65997 7.0555,-16.67846 z"
         style="stroke-width:3.20723" /><path
         id="path1103"
         class="st1"
         d="m 1495.7934,93.996825 -18.9217,88.524165 c -1.2828,6.73554 -2.2449,12.82959 -2.2449,17.96143 0,11.54663 2.8863,20.2066 8.659,25.65918 v 0 0 c 5.7727,5.45257 13.149,8.01849 21.4874,8.01849 12.1868,0 22.4494,-5.13183 31.4292,-13.79181 l -1.9242,8.0185 c -15.7146,4.81109 -26.298,8.65997 -31.4293,12.50885 -5.452,3.84887 -9.3005,7.69775 -11.8661,12.50885 v 0 c -2.5657,4.49035 -3.8485,10.58441 -3.8485,18.28216 0,7.69776 3.5278,14.75403 9.9419,20.52734 v 0 c 6.7349,5.77332 15.0732,8.65998 25.3358,8.65998 10.2627,0 19.2424,-2.88666 27.2601,-8.65998 10.904,-8.01849 17.9596,-20.84808 21.4873,-38.48876 v 0 l 33.9949,-159.728395 h -42.0125 l -18.601,88.203425 c -2.5657,8.0185 -5.452,13.79181 -8.9798,17.64069 -3.5278,3.84888 -7.3762,5.77331 -11.8661,5.77331 -2.5657,0 -3.8485,-0.64147 -5.1313,-2.56591 -1.2829,-1.6037 -1.9243,-4.49036 -1.9243,-8.33924 0,-2.24517 0.3207,-4.49035 0.6414,-6.73553 v 0 l 19.8838,-93.976745 z m 1.9242,2.565918 h 36.8813 l -19.2424,91.090087 c -0.6414,2.24518 -0.9621,4.8111 -0.9621,7.05627 v 1.28296 h 0.3207 c 0,3.52814 0.6414,6.4148 1.9242,8.33924 1.6036,2.24517 4.1692,3.52813 7.0556,3.52813 5.1313,0 9.6212,-2.24518 13.4696,-6.41479 3.8485,-4.16962 7.0556,-10.26367 9.3005,-18.60291 v 0 l 18.2803,-86.599727 h 37.202 l -33.0328,156.841737 c -3.5278,17.31994 -10.2626,29.50805 -20.5252,37.20581 -7.3763,5.45257 -16.0354,8.33923 -25.6566,8.33923 -9.6212,0 -17.6388,-2.56592 -23.7322,-8.01849 v 0 c -6.0935,-5.45258 -9.3005,-11.54663 -9.3005,-18.60291 0,-7.37701 1.2828,-13.15033 3.5277,-16.99921 v 0 c 2.245,-4.16961 6.0935,-8.01849 11.2248,-11.54663 v 0 0 c 4.8106,-3.52813 15.3939,-7.69775 31.4292,-12.50885 l 0.6414,-0.32074 2.8864,-12.50885 -1.9242,-0.96221 c -8.9798,10.26367 -19.8839,15.3955 -32.3914,15.3955 -8.0177,0 -14.4318,-2.56591 -19.8838,-7.37701 -5.1313,-4.8111 -8.0177,-12.82959 -8.0177,-24.05548 0,-5.13184 0.6414,-10.90515 2.245,-17.64069 z m 37.8434,139.842527 -1.9242,0.64148 c -9.9419,3.52814 -16.6768,6.73553 -20.5253,9.94293 v 0 c -7.0555,5.77332 -10.5833,12.18811 -10.5833,19.56513 0,2.56591 1.2829,4.81109 3.5278,6.73553 2.5657,2.24518 5.1313,3.52814 8.3384,3.52814 3.207,0 6.7348,-1.92444 9.9419,-5.13184 3.5278,-3.52814 5.7727,-8.98071 7.3762,-17.31994 v 0 z m -3.5278,3.84888 -2.8863,13.79181 c -1.6036,8.01849 -4.1692,13.15032 -6.7349,16.03698 -2.8863,2.88666 -5.7727,4.16962 -8.3383,4.16962 -2.5657,0 -4.8106,-0.96222 -6.7349,-2.88666 -1.9242,-1.92444 -2.8863,-3.52814 -2.8863,-5.13183 0,-6.4148 3.207,-12.18811 9.6212,-17.64069 3.5277,-2.24518 9.9419,-5.13184 17.9595,-8.33923 z"
         style="stroke-width:3.20723" /><path
         id="path1107"
         class="st1"
         d="m 1738.3057,218.44384 c -9.6212,9.94294 -20.5252,14.75403 -32.7121,14.75403 -16.356,0 -27.5808,-7.69775 -33.3535,-23.414 -1.9242,-5.45257 -3.207,-11.86737 -3.207,-18.92364 0,-7.05628 0.6414,-14.43329 1.9242,-21.48957 1.2828,-7.05627 3.2071,-14.43328 5.7727,-21.48956 5.7727,-15.71625 13.7904,-28.54584 24.3737,-38.80951 10.5833,-10.263669 23.4116,-15.395504 38.1641,-15.395504 7.697,0 13.4697,1.282958 16.9975,3.848876 3.5277,2.565918 5.1313,5.773318 5.1313,9.942928 v 1.92444 l 2.8863,-14.112546 h 39.1262 l -26.9393,126.371456 c 8.3384,-2.88666 15.0732,-7.05627 20.5252,-12.50885 5.452,-5.77331 9.9419,-14.43329 14.1111,-26.6214 h 11.5454 c -7.0555,23.414 -18.6009,38.80951 -35.2777,46.18653 -4.4899,1.92443 -8.9798,3.52813 -13.149,4.81109 l -4.1691,19.56513 c -3.5278,17.64068 -10.2627,30.14953 -20.846,37.84729 -7.6969,5.77331 -16.356,8.65997 -26.2979,8.65997 -9.9419,0 -17.6389,-2.24518 -23.7323,-6.4148 -6.0934,-4.16961 -8.9798,-11.22589 -8.9798,-20.84808 0,-16.67847 14.7525,-29.8288 44.5782,-39.77173 z m 20.5252,-97.50488 c 0,-4.16961 -1.9242,-7.05627 -5.7727,-8.98071 -1.2828,-0.64148 -3.2071,-1.28296 -5.452,-1.28296 -5.7727,0 -10.904,2.56592 -15.7146,8.0185 -11.5455,13.15032 -18.9217,31.75323 -21.8081,56.12945 -0.3207,3.84888 -0.6414,7.69775 -0.6414,11.86737 0,8.01849 1.6035,13.79181 5.1313,16.99921 1.9242,1.92443 4.4899,2.88665 7.0556,2.88665 5.1313,0 9.6211,-1.92443 14.111,-5.77331 4.4899,-3.84888 7.3763,-8.98071 9.3005,-15.71625 z m -26.9393,125.40924 c -17.6389,6.4148 -26.6187,14.11255 -26.6187,23.09326 0,3.52814 1.6035,6.4148 5.1313,8.0185 1.2828,0.64148 2.8864,0.64148 5.1313,0.64148 2.245,0 4.8106,-1.92444 7.697,-6.09406 2.8863,-3.84888 5.1313,-9.94293 7.0555,-18.28216 z"
         style="stroke-width:3.20723" /><path
         id="path1109"
         class="st1"
         d="m 1739.2678,92.713866 c -15.0732,0 -28.2222,5.131836 -39.1262,15.716244 -10.5833,10.26368 -18.9217,23.414 -24.6944,39.13025 -2.5657,7.05628 -4.4899,14.43329 -5.7727,21.48956 -1.2828,7.05628 -1.9243,14.43329 -1.9243,21.48957 0,7.05627 0.9622,13.79181 3.2071,19.56512 v 0 c 5.7727,16.03699 17.6389,24.05548 34.3156,24.05548 11.5455,0 21.8081,-4.81109 30.7878,-13.15033 l -2.5656,10.90515 c -14.4318,4.8111 -25.6565,10.58441 -33.0328,17.31995 -7.6969,6.73553 -11.5454,14.75403 -11.5454,23.414 0,9.94293 3.207,17.31995 9.3005,21.8103 6.0934,4.49036 14.4318,6.73554 24.3737,6.73554 9.9419,0 19.2424,-2.88666 26.9393,-8.65998 10.5833,-8.01849 17.6389,-20.84808 21.1667,-38.48876 l 3.8484,-18.92365 c 4.1692,-0.96222 8.0177,-2.56592 12.5076,-4.49036 16.9975,-7.69775 28.8636,-23.414 35.9191,-47.14874 l 0.3208,-1.6037 h -13.7904 l -0.3207,0.96222 c -3.8485,11.86737 -8.3384,20.52735 -13.7904,25.97992 -4.4899,4.8111 -10.904,8.33924 -17.6389,10.90515 l 26.6187,-125.088495 h -41.6919 l -2.2449,10.905155 c -0.6415,-2.88666 -1.6036,-5.773319 -4.1692,-8.018498 0,0 0,0 0,0 -3.2071,-3.528137 -8.9798,-4.811096 -16.9975,-4.811096 z m 0,2.565918 c 7.697,0 13.149,1.282959 16.0353,3.848877 v 0 c 3.2071,2.245179 4.8106,5.131839 4.8106,8.980709 v 1.28296 l 2.245,0.32074 2.8864,-13.150327 h 36.8812 l -27.26,127.012937 1.9242,-0.64148 c 8.3384,-2.88666 15.3939,-7.05627 20.8459,-12.82959 5.452,-5.77331 9.9419,-14.43329 13.7904,-25.97992 h 8.9798 c -7.0556,22.13104 -17.9596,36.88507 -33.6742,43.94135 -4.4899,1.92444 -8.6591,3.52813 -12.8283,4.49035 l -0.6414,0.32074 -4.1692,20.52735 c -3.5277,17.31994 -10.2626,29.50805 -20.2045,37.20581 -7.3762,5.45257 -16.0353,8.33923 -25.6565,8.33923 -9.6212,0 -17.3182,-2.24518 -23.0909,-6.4148 -5.452,-4.16961 -8.3384,-10.58441 -8.3384,-19.88586 0,-8.01849 3.5278,-15.07477 10.5834,-21.48956 7.3762,-6.4148 18.2802,-12.18811 33.0327,-16.99921 l 0.6414,-0.32074 4.4899,-19.24438 -2.8863,3.20739 c -9.3005,9.6222 -19.8838,14.43329 -31.75,14.43329 -16.0353,0 -26.6186,-7.37701 -32.0706,-22.45178 -1.9243,-5.45257 -2.8864,-11.54663 -2.8864,-18.6029 0,-7.05628 0.6414,-14.11255 1.9242,-21.16883 1.2829,-7.05627 3.2071,-14.11254 5.7728,-21.16882 v 0 c 5.7727,-15.39551 13.7903,-28.2251 24.053,-38.16803 9.6212,-10.58441 21.808,-15.395506 36.5605,-15.395506 z m 8.3384,14.433286 c -6.0934,0 -11.8662,2.88666 -16.6768,8.65998 -11.8661,13.15032 -18.9216,32.39471 -22.1287,56.77093 -0.3207,3.84888 -0.6414,7.69775 -0.6414,11.86737 0,8.33923 1.6035,14.11255 5.452,17.64069 0,0 0,0 0,0 2.2449,2.24517 4.8106,3.20739 8.0177,3.20739 5.452,0 10.2626,-1.92444 14.7525,-6.09405 v 0 c 4.4898,-4.16962 7.6969,-9.62219 9.6212,-16.03699 v 0 l 13.7903,-64.78943 v 0 c 0,-4.49035 -2.2449,-8.01849 -6.4141,-9.94293 -1.2828,-0.96222 -3.5278,-1.28296 -5.7727,-1.28296 z m 0,2.24518 c 1.9242,0 3.5278,0.32074 4.8106,0.96222 v 0 0 c 3.5278,1.6037 5.1313,4.16962 5.1313,7.69775 l -13.7904,64.14795 c -1.6035,6.4148 -4.8106,11.22589 -8.9798,15.07477 -4.1692,3.52814 -8.6591,5.45258 -13.1489,5.45258 -2.5657,0 -4.4899,-0.96222 -6.4142,-2.56592 v 0 c -2.8863,-2.88666 -4.8106,-8.0185 -4.8106,-16.03699 0,-4.16962 0.3207,-8.01849 0.6414,-11.54663 2.8864,-24.37622 9.9419,-42.65839 21.4874,-55.48798 4.8106,-5.13183 9.6212,-7.69775 15.0732,-7.69775 z m -14.1111,132.46551 -1.9242,0.64148 c -8.9798,3.2074 -15.7147,6.73554 -20.2046,10.90515 -4.4899,4.16962 -7.0555,8.65998 -7.0555,13.47107 0,4.16962 1.9242,7.37702 5.7727,9.30146 v 0 0 c 1.2828,0.64148 3.2071,0.96221 5.452,0.96221 2.8864,0 5.7727,-2.24517 8.6591,-6.41479 3.2071,-4.16962 5.452,-10.26367 7.3763,-18.6029 v 0 z m -3.2071,4.16962 -0.9621,5.45258 c -1.6035,8.01849 -4.1692,14.11254 -6.7348,17.64068 v 0 c -2.8864,3.84888 -5.1313,5.45258 -6.7349,5.45258 -2.2449,0 -3.5277,-0.32074 -4.4899,-0.64148 -3.207,-1.6037 -4.4899,-3.84888 -4.4899,-7.05628 0,-4.16961 1.9243,-8.01849 6.0935,-11.54663 3.8485,-3.20739 9.9419,-6.41479 17.3181,-9.30145 z"
         style="stroke-width:3.20723" /><path
         id="path1113"
         class="st1"
         d="m 1965.6867,182.84173 c -11.5454,33.67768 -29.8257,50.35614 -54.8408,50.35614 -16.0354,0 -25.0152,-8.33923 -26.6187,-25.0177 -11.8661,16.67847 -25.6565,25.0177 -41.6918,25.0177 -15.7147,0 -26.6187,-7.69775 -32.0707,-23.414 -1.9243,-5.45257 -3.2071,-11.86737 -3.2071,-18.92364 0,-7.05628 0.6414,-14.43329 1.9243,-21.48957 1.2828,-7.05627 3.207,-14.43328 5.7727,-21.48956 5.7727,-15.71625 13.7904,-28.54584 24.3737,-38.80951 10.5833,-10.263669 23.4116,-15.395504 38.1641,-15.395504 7.6969,0 13.4697,1.282959 16.9974,3.848876 3.5278,2.565918 5.1313,5.773318 5.1313,9.942928 v 1.92444 l 2.8864,-14.433285 h 39.1262 l -19.5631,92.693785 c -0.6414,3.2074 -1.2828,6.09405 -1.2828,8.65997 0,7.69776 3.8484,11.86737 11.2247,11.86737 9.6212,0 16.9975,-8.65997 22.1288,-25.65918 h 11.5454 z m -68.6312,-61.58203 c 0,-1.6037 -0.6414,-3.84887 -2.245,-6.41479 -1.6035,-2.56592 -4.8106,-3.84888 -9.9419,-3.84888 -5.1313,0 -9.9419,2.56592 -14.7525,8.01849 -11.5454,13.15033 -18.9217,31.75324 -21.808,56.12946 -0.3207,3.84888 -0.6414,7.69775 -0.6414,11.86737 0,8.01849 1.6035,13.79181 5.1313,16.99921 1.9242,1.92443 4.4899,2.88665 7.3762,2.88665 5.452,0 10.2626,-2.24517 14.7525,-6.41479 4.4899,-4.49036 7.3763,-10.26367 9.3005,-17.64069 z"
         style="stroke-width:3.20723" /><path
         id="path1115"
         class="st1"
         d="m 1877.4924,92.713866 c -15.0732,0 -28.2222,5.131836 -39.1262,15.716244 -10.5834,10.26368 -18.9217,23.414 -24.6944,39.13025 -2.5657,7.05628 -4.4899,14.43329 -5.7728,21.48956 -1.2828,7.05628 -1.9242,14.43329 -1.9242,21.48957 0,7.05627 0.9621,13.79181 3.2071,19.56512 5.7727,15.71625 16.9974,24.05548 33.3535,24.05548 15.7146,0 29.505,-8.33923 41.3711,-24.37622 1.2828,7.37702 3.2071,13.79181 7.697,17.64069 4.8106,4.49035 11.2247,6.73553 19.5631,6.73553 12.8282,0 23.7323,-4.49035 33.0328,-12.82959 9.3004,-8.33923 16.9974,-21.48956 22.7701,-38.48877 l 0.6414,-1.6037 h -1.6035 -12.1868 l -0.3208,0.96222 c -2.5656,8.33924 -5.452,14.75403 -8.9797,18.92365 -3.5278,4.16962 -7.3763,6.09405 -11.8662,6.09405 -3.5278,0 -5.7727,-0.96222 -7.3762,-2.56591 -1.6036,-1.6037 -2.5657,-4.16962 -2.5657,-8.0185 0,-2.56592 0.3207,-5.45257 1.2828,-8.33923 v 0 l 19.8838,-93.976745 h -41.6918 l -2.245,10.905155 c -0.6414,-2.88666 -1.6035,-6.094059 -4.1691,-8.018497 0,0 0,0 0,0 -4.4899,-3.207398 -10.5834,-4.490357 -18.2803,-4.490357 z m 0,2.565918 c 7.6969,0 13.1489,1.282959 16.0353,3.848877 v 0 c 3.2071,2.245179 4.8106,5.131839 4.8106,8.980709 v 1.92444 l 2.245,0.32074 2.5656,-13.471067 h 36.8813 l -19.2424,91.090087 c -0.9622,3.2074 -1.2829,6.09405 -1.2829,8.98071 0,4.16962 0.9622,7.37702 3.2071,9.62219 2.245,2.24518 5.452,3.2074 9.3005,3.2074 5.1313,0 9.9419,-2.24518 13.7904,-6.73553 3.5278,-4.16962 6.7348,-10.58441 8.9798,-18.92365 h 8.9798 c -5.7728,15.71625 -12.8283,27.90436 -21.1667,35.60211 -8.9798,8.33924 -19.2424,12.18811 -31.4292,12.18811 -7.697,0 -13.7904,-1.92443 -17.9596,-5.77331 -4.1692,-3.84888 -6.7348,-9.94293 -7.697,-17.96143 l -0.3207,-3.20739 -1.9242,2.56591 c -11.8662,16.35773 -25.3358,24.37622 -40.7297,24.37622 -15.394,0 -25.6566,-7.37701 -31.1086,-22.45178 -1.9242,-5.45257 -2.8864,-11.54663 -2.8864,-18.6029 0,-7.05628 0.6415,-14.11255 1.9243,-21.16883 1.2828,-7.05627 3.2071,-14.11254 5.7727,-21.16882 v 0 c 5.7727,-15.39551 13.7904,-28.2251 24.053,-38.16803 9.9419,-10.26367 22.4495,-15.074766 37.202,-15.074766 z m 7.3762,14.433286 c -5.452,0 -10.904,2.88666 -15.7146,8.65998 -11.8661,13.15032 -18.9217,32.39471 -22.1288,56.77093 -0.3207,3.84888 -0.6414,7.69775 -0.6414,11.86737 0,8.33923 1.6036,14.11255 5.452,17.64069 2.245,2.24517 4.8106,3.20739 8.0177,3.20739 5.7727,0 10.904,-2.24518 15.7146,-6.73553 v 0 c 4.4899,-4.49036 7.697,-10.58441 9.6212,-18.28217 v 0 l 13.149,-61.58203 v 0 c 0,-1.92444 -0.9621,-4.49035 -2.5656,-7.05627 -1.9243,-3.2074 -5.7728,-4.49036 -10.9041,-4.49036 z m 0,2.24518 c 4.8106,0 7.697,1.28296 8.6591,3.52814 v 0 0 c 1.6035,2.56592 2.245,4.49035 2.245,5.77331 l -13.149,61.26129 c -1.6036,7.37702 -4.4899,12.82959 -8.9798,16.99921 0,0 0,0 0,0 0,0 0,0 0,0 -4.1692,4.16962 -8.9798,6.09405 -13.7904,6.09405 -2.5656,0 -4.8106,-0.96221 -6.4141,-2.56591 v 0 0 c -2.8864,-2.88666 -4.8106,-8.0185 -4.8106,-16.03699 0,-4.16962 0.3207,-8.01849 0.6414,-11.54663 2.8863,-24.37622 9.9419,-42.65839 21.4873,-55.48798 4.8106,-5.45257 9.3005,-8.01849 14.1111,-8.01849 z"
         style="stroke-width:3.20723" /><path
         id="path1119"
         class="st1"
         d="m 2122.8329,233.19787 c -23.0908,0 -34.957,-10.26367 -34.957,-30.79101 0,-7.37702 1.9243,-19.24439 6.0934,-35.60211 4.1692,-16.35773 6.0935,-27.58362 6.0935,-33.67768 0,-9.30145 -3.2071,-14.11254 -9.9419,-14.11254 -6.7349,0 -12.5076,5.13183 -17.6389,15.71624 -1.6035,2.88666 -2.8864,6.09406 -3.8485,9.62219 l -18.601,87.56195 h -39.1262 l 19.8838,-93.97674 c 0.6415,-2.24518 0.6415,-4.49036 0.6415,-6.73553 0,-8.0185 -2.5657,-11.86738 -8.0177,-11.86738 -5.452,0 -9.9419,2.56592 -13.7904,7.69776 -3.8485,4.81109 -6.4141,10.90515 -8.6591,17.96142 l -18.601,87.56195 h -39.1262 l 28.8636,-136.314387 h 39.1262 l -2.8863,14.112547 c 8.9798,-10.26367 22.3474,-16.10979 35.4963,-16.10979 16.0354,0 23.193,8.41204 25.7586,24.12829 9.9419,-15.39551 22.7702,-23.093266 37.8434,-23.093266 8.6591,0 17.8575,2.42375 23.6302,7.234846 5.7728,4.8111 7.9448,11.6888 7.9448,20.99025 0,9.30145 -3.0321,19.88587 -5.9184,32.07398 l -6.4142,26.62139 c -1.2828,5.77332 -0.2806,10.22727 -0.2806,13.75541 0,7.69775 2.4928,10.4388 9.2276,10.4388 6.0934,0 9.654,-0.13872 12.8611,-3.9876 3.2071,-3.84888 6.4141,-9.94293 9.6212,-18.28217 h 11.5454 c -6.7348,20.20661 -15.3939,33.99841 -25.6565,42.33765 -6.0934,4.16961 -13.4697,6.73553 -21.1666,6.73553 z"
         sodipodi:nodetypes="ssssscccccsscccccccscsssccssscccss"
         style="stroke-width:3.20723" /><path
         id="path1121"
         class="st1"
         d="m 2042.3356,92.713866 c -12.1869,0 -22.7702,5.131836 -31.4293,13.791814 l 2.5657,-12.508855 h -41.6919 l -29.505,138.880305 h 41.6919 l 18.601,-88.20343 v 0 c 1.9242,-6.73553 4.8106,-12.50885 8.3383,-17.31994 3.5278,-4.8111 7.697,-7.05628 12.8283,-7.05628 2.5656,0 3.8485,0.64148 5.1313,2.56592 1.2828,1.6037 1.9242,4.49036 1.9242,8.33924 0,2.24517 -0.3207,4.49035 -0.6414,6.41479 v 0 l -20.5252,95.2597 h 41.6919 l 18.601,-88.20343 v 0 0 c 0.9621,-3.20739 2.2449,-6.41479 3.5277,-9.30145 v 0 0 c 2.5657,-5.13183 5.1313,-8.98071 8.0177,-11.22589 2.8863,-2.56592 5.452,-3.52814 8.6591,-3.52814 2.8863,0 4.8106,0.96222 6.4141,2.88666 1.2828,1.92444 2.2449,5.13184 2.2449,9.94293 0,6.09406 -1.9242,17.31995 -6.0934,33.67768 -4.1692,16.35772 -6.0934,28.22509 -6.0934,35.92285 0,10.58441 2.8864,18.6029 8.9798,24.05548 6.0934,5.45257 15.0732,8.01849 26.9393,8.01849 8.0177,0 15.7147,-2.88666 23.0909,-8.65997 10.5833,-8.33924 19.2424,-22.45178 25.9773,-42.65839 l 0.6414,-1.6037 h -14.1111 l -0.3207,0.64148 c -3.2071,8.33924 -6.4142,14.11255 -9.6212,17.96143 -2.8864,3.52814 -7.3763,5.45257 -13.149,5.45257 -3.2071,0 -5.1313,-0.96221 -6.4141,-2.56591 -1.2829,-1.6037 -2.245,-4.16962 -2.245,-8.0185 0,-3.52813 0.6414,-8.01849 2.245,-13.79181 v 0 l 6.4141,-26.62139 v 0 c 2.8864,-12.18811 4.4899,-22.77253 4.4899,-32.07398 0,-9.62219 -2.8864,-16.9992 -8.9798,-21.8103 -6.0934,-5.131837 -13.4697,-7.377015 -22.4495,-7.377015 -15.0732,0 -27.5807,7.697755 -37.5226,22.451785 -1.6036,-7.05628 -3.8485,-12.82959 -8.3384,-16.35773 -5.1313,-5.452575 -11.5454,-7.377014 -19.8838,-7.377014 z m 0,2.565918 c 7.6969,0 13.7904,1.924439 18.2803,5.452576 4.4899,3.52814 7.3762,9.30145 8.659,16.67847 l 0.6415,3.20739 1.6035,-2.56591 c 9.9419,-15.07477 22.1287,-22.451786 36.8812,-22.451786 8.3384,0 15.394,2.245178 20.846,7.056276 5.452,4.49035 8.3383,11.22589 8.3383,20.2066 0,8.98071 -1.6035,19.56513 -4.4898,31.75324 l -6.4142,26.62139 c -1.2828,5.77332 -2.2449,10.58442 -2.2449,14.43329 0,4.16962 0.9621,7.37702 2.8863,9.6222 1.9243,2.24517 4.8106,3.20739 8.3384,3.20739 6.4141,0 11.5454,-2.24518 15.0732,-6.41479 3.2071,-3.84888 6.4142,-9.94293 9.6212,-17.96143 h 8.9798 c -6.7348,18.92365 -14.7525,32.39472 -24.3737,40.09247 -7.0555,5.45258 -14.1111,8.01849 -21.4873,8.01849 -11.5455,0 -19.8839,-2.56591 -25.3359,-7.37701 -5.452,-4.8111 -8.3383,-12.18811 -8.3383,-22.13104 0,-7.37702 1.9242,-19.24439 6.0934,-35.28137 4.1692,-16.35773 6.0934,-27.58362 6.0934,-33.99842 0,-4.81109 -0.9621,-8.65997 -2.5656,-11.22589 -1.9243,-2.56592 -4.8106,-4.16961 -8.3384,-4.16961 -3.5278,0 -7.0556,1.60369 -10.2626,4.16961 -3.2071,2.88666 -5.7727,6.73554 -8.6591,12.18811 -1.6035,2.88666 -2.8864,6.4148 -3.8485,9.94293 v 0 l -18.2803,86.59973 h -36.8812 l 19.5631,-92.69378 c 0.6414,-2.24518 0.9621,-4.49036 0.9621,-7.05627 0,-4.16962 -0.6414,-7.37702 -2.2449,-9.6222 -1.6036,-2.24518 -4.1692,-3.52813 -7.0556,-3.52813 -5.7727,0 -10.5833,2.88665 -14.7525,8.01849 -3.8485,5.13184 -6.7348,11.22589 -8.6591,18.28216 v 0 l -18.2803,86.59973 h -36.8812 l 28.2222,-134.069207 h 36.8812 l -3.5277,16.999207 2.8863,-3.52814 c 8.6591,-10.26367 19.2424,-15.074766 32.0707,-15.074766 z"
         style="stroke-width:3.20723" /><path
         id="path1125"
         class="st1"
         d="m 2195.6333,184.76617 c 0,15.07477 5.7728,22.77252 17.3182,22.77252 5.1313,0 10.5833,-1.6037 16.356,-4.49035 6.0935,-2.88666 11.2248,-6.4148 15.394,-10.26367 -4.8106,26.94213 -20.5253,40.4132 -47.1439,40.4132 -12.8283,0 -23.0909,-3.20739 -30.7878,-9.94293 -7.697,-6.73553 -11.5455,-17.96142 -11.5455,-33.35693 0,-20.84809 5.1313,-40.73395 15.7146,-60.29907 8.0177,-14.75403 18.9217,-25.33844 33.0328,-31.753238 7.0556,-3.528137 14.7525,-5.131836 22.4495,-5.131836 12.5075,0 21.1666,2.245178 25.6565,7.056275 4.4899,4.811099 6.7349,10.905149 6.7349,18.923649 0,15.71624 -6.4142,28.86657 -18.9217,39.77172 -12.5076,10.90515 -26.9394,16.67847 -43.9368,17.96143 0,2.56592 -0.3208,5.45257 -0.3208,8.33923 z m 42.3333,-67.67608 c 0,-6.4148 -2.2449,-9.94294 -6.7348,-9.94294 -8.6591,0.32074 -16.9975,10.26368 -25.0151,30.14954 -3.5278,8.33923 -6.0935,16.99921 -8.0177,25.97992 10.5833,-0.32074 19.5631,-5.13184 27.5808,-14.11255 8.0176,-8.98071 12.1868,-19.56512 12.1868,-32.07397 z"
         style="stroke-width:3.20723" /><path
         id="path1127"
         class="st1"
         d="m 2226.4212,91.751647 c -8.0177,0 -15.3939,1.603699 -22.7702,5.131836 -14.1111,6.414797 -25.3358,17.319947 -33.6742,32.073977 v 0 c -10.5833,19.56512 -16.0353,39.77172 -16.0353,60.94055 0,15.71624 3.8485,27.26288 11.8661,34.31915 8.0177,6.73553 18.601,10.26367 31.4293,10.26367 13.4697,0 24.3737,-3.52814 32.3914,-10.26367 8.0176,-7.05627 13.4696,-17.31995 15.7146,-30.79102 l 0.6414,-3.52813 -2.5657,2.24518 c -4.1691,3.84887 -9.3005,7.05627 -15.0732,9.94293 v 0 c -5.7727,2.88666 -10.904,4.16961 -15.7146,4.16961 -5.452,0 -9.3005,-1.60369 -11.8661,-5.13183 -2.5657,-3.52814 -4.1692,-8.98071 -4.1692,-16.35773 0,-2.56592 0.3207,-5.13183 0.6414,-7.37701 16.6767,-1.28296 31.1085,-7.05628 43.6161,-17.96143 12.8282,-10.90515 19.2424,-24.69696 19.2424,-40.73394 0,-8.0185 -2.245,-14.75403 -7.0556,-19.885869 -4.8106,-4.811096 -13.7903,-7.056274 -26.6186,-7.056274 z m 0,2.245178 c 12.5075,0 20.5252,2.565918 24.6944,6.735535 v 0 c 4.1692,4.49036 6.4141,10.26367 6.4141,17.96143 0,15.3955 -6.0934,28.22509 -18.2802,38.8095 -12.1869,10.58442 -26.6187,16.35773 -43.2954,17.64069 h -0.9622 v 0.96222 c -0.3207,2.24518 -0.6414,4.81109 -0.6414,7.37701 v 0 1.28296 c 0,7.69776 1.6036,13.47107 4.4899,17.64069 3.2071,4.16961 8.0177,6.09405 13.7904,6.09405 5.1313,0 10.904,-1.6037 16.9975,-4.49035 4.8106,-2.56592 8.9797,-5.45258 12.8282,-8.33924 -2.5656,11.54663 -7.0555,20.52735 -14.1111,26.6214 -7.6969,6.4148 -17.9595,9.94293 -30.7878,9.94293 -12.5076,0 -22.4495,-3.20739 -29.8257,-9.62219 -7.3763,-6.41479 -11.2248,-16.99921 -11.2248,-32.39471 0,-20.52735 5.1313,-40.41321 15.7147,-59.65759 8.0176,-14.75403 18.9217,-25.0177 32.3913,-31.111759 7.0556,-3.528137 14.4318,-5.452576 21.8081,-5.452576 z m 4.8106,12.188115 c -4.8106,0.32074 -9.3005,3.20739 -13.4697,8.33923 -4.1692,5.13183 -8.3384,12.82959 -12.5076,22.45178 -3.5277,8.33923 -6.0934,17.31995 -8.3383,26.30066 l -0.3207,1.6037 h 1.6035 c 10.904,-0.32074 20.5252,-5.13184 28.5429,-14.43329 8.3384,-9.30145 12.5076,-20.52734 12.5076,-33.03619 0,-3.52814 -0.6415,-6.09406 -1.9243,-8.0185 -1.2828,-2.24518 -3.5278,-3.20739 -6.0934,-3.20739 z m 0,2.24517 c 1.9242,0 3.2071,0.64148 4.1692,1.92444 0.9621,1.28296 1.6035,3.52814 1.6035,6.73554 0,12.18811 -3.8485,22.45178 -11.8661,31.43249 v 0 c -7.3763,8.33923 -15.7147,12.50885 -25.0152,13.15033 1.9243,-8.33923 4.4899,-16.35773 7.3763,-24.05548 3.8485,-9.62219 8.0177,-16.99921 12.1868,-22.13104 3.8485,-4.49036 7.697,-6.73554 11.5455,-7.05628 z"
         style="stroke-width:3.20723" /></g></g></g>
</g>
</svg>
