<?xml version="1.0" encoding="utf-8"?>
<!-- Generator: Adobe Illustrator 21.0.0, SVG Export Plug-In . SVG Version: 6.00 Build 0)  -->
<svg version="1.1"
	 id="svg8" inkscape:version="1.0.1 (3bc2e813f5, 2020-09-07)" sodipodi:docname="header.svg" xmlns:cc="http://creativecommons.org/ns#" xmlns:dc="http://purl.org/dc/elements/1.1/" xmlns:inkscape="http://www.inkscape.org/namespaces/inkscape" xmlns:rdf="http://www.w3.org/1999/02/22-rdf-syntax-ns#" xmlns:sodipodi="http://sodipodi.sourceforge.net/DTD/sodipodi-0.dtd" xmlns:svg="http://www.w3.org/2000/svg"
	 xmlns="http://www.w3.org/2000/svg" xmlns:xlink="http://www.w3.org/1999/xlink" x="0px" y="0px" viewBox="0 0 707.1 87.2"
	 style="enable-background:new 0 0 707.1 87.2;" xml:space="preserve">
<style type="text/css">
	.st0{fill:#008081;}
	.st1{fill:#F26722;}
</style>
<sodipodi:namedview  bordercolor="#666666" borderopacity="1.0" id="base" inkscape:current-layer="layer1" inkscape:cx="481.25699" inkscape:cy="9.384323" inkscape:document-rotation="0" inkscape:document-units="mm" inkscape:pageopacity="0.0" inkscape:pageshadow="2" inkscape:window-height="1008" inkscape:window-maximized="0" inkscape:window-width="958" inkscape:window-x="953" inkscape:window-y="0" inkscape:zoom="0.7" pagecolor="#ffffff" showgrid="false">
	</sodipodi:namedview>
<g id="layer1" transform="translate(17.935547,-25.986328)" inkscape:groupmode="layer" inkscape:label="Capa 1">
	<g id="text835">
		<g id="g925">
			<path id="path927" class="st0" d="M2.9,88.7c-0.6,3-0.8,5.6-0.8,7.7c0,2.2,0.4,3.8,1.2,4.9c-3.3,0-5.7-0.3-7.1-1
				c-2.9-1.4-4.3-4.1-4.3-8c0-5.9,2.5-14.1,7.4-24.7c1.5-3.3,3.3-6.6,5.1-9.8c-2.7,0.2-4.8,0.6-6.6,1.2c-1.7,0.6-2.8,1.7-3.4,3.2
				c0.2,0,0.5,0.3,0.7,0.9c0.2,0.6,0.4,1.2,0.4,2.1c0,0.8-0.5,1.5-1.4,2.2c-0.9,0.6-1.9,0.9-2.9,0.9c-1.9,0-3.3-0.4-4.3-1.3
				c-1-0.9-1.5-2.1-1.5-3.6c0-2.9,1.6-5.4,4.9-7.5c3.3-2,7.5-3.1,12.4-3.1c1.1,0,2.6,0.1,4.4,0.2c4.6-7.2,9.5-13.2,14.6-17.9
				c5.2-4.8,10.2-7.1,14.9-7.1c2.9,0,5.1,0.4,6.7,1.2L30.2,91.6H17.9l6.5-30.8c-3.8-1.7-7.6-2.7-11.4-3.1C8,69,4.6,79.3,2.9,88.7
				L2.9,88.7z M14.9,54c4,0.8,7.4,1.8,10.4,2.9l4.9-23.1C25.3,36.5,20.2,43.3,14.9,54z"/>
			<path id="path929" class="st0" d="M36.8,27.5c-4.9,0-10,2.4-15.2,7.2c-5.1,4.7-10,10.7-14.5,17.8c-1.7-0.2-3.2-0.2-4.3-0.2
				c-5,0-9.2,1-12.6,3.1v0c-3.4,2.1-5.1,4.7-5.1,7.8c0,1.6,0.5,2.9,1.6,3.8l0,0l0,0c1.1,0.9,2.6,1.4,4.5,1.4c1.1,0,2.1-0.3,3.1-0.9
				c1-0.7,1.6-1.5,1.6-2.5c0-0.9-0.1-1.6-0.4-2.2v0c-0.1-0.3-0.3-0.6-0.4-0.7c0,0-0.1,0-0.1,0c0.6-1.2,1.5-2.2,3-2.7
				c1.5-0.6,3.5-0.9,5.7-1.1c-1.7,3-3.3,6.1-4.8,9.2v0C-6.1,78-8.5,86.3-8.5,92.3c0,4,1.5,6.8,4.5,8.3c1.5,0.7,3.9,1.1,7.2,1.1h0.7
				l-0.4-0.6c-0.7-1-1.1-2.5-1.1-4.6c0-2.1,0.3-4.7,0.8-7.7v0c1.7-9.3,5.1-19.5,10.1-30.6c3.6,0.3,7.2,1.3,10.7,2.9L17.5,92h13
				l13.4-63.1l-0.3-0.1C42,27.9,39.7,27.5,36.8,27.5z M36.8,28.2c2.7,0,4.8,0.4,6.3,1.1L29.9,91.2H18.4l6.5-30.7l-0.3-0.1
				c-3.8-1.7-7.6-2.8-11.5-3.1l-0.3,0l-0.1,0.2C7.6,68.8,4.2,79.2,2.5,88.6c-0.6,3-0.8,5.6-0.8,7.8c0,1.9,0.4,3.3,1.1,4.4
				c-3,0-5.3-0.3-6.4-0.9c-2.8-1.4-4.1-3.9-4.1-7.6c0-5.8,2.4-14,7.4-24.6c1.5-3.3,3.2-6.6,5.1-9.8L5,57.3l-0.7,0
				c-2.7,0.2-4.9,0.6-6.7,1.3c-1.8,0.7-3,1.8-3.6,3.4l-0.2,0.5h0.6c0,0,0,0,0.1,0.1c0.1,0.1,0.2,0.3,0.3,0.6v0
				c0.2,0.5,0.3,1.1,0.3,1.9c0,0.7-0.4,1.3-1.2,1.8c-0.9,0.5-1.7,0.8-2.7,0.8c-1.8,0-3.1-0.4-4-1.2h0c-0.9-0.8-1.3-1.9-1.3-3.3
				c0-2.8,1.5-5.1,4.8-7.1c3.3-2,7.3-3,12.2-3c1.1,0,2.6,0.1,4.4,0.2l0.2,0l0.1-0.2C12.1,45.9,17,40,22.1,35.3
				C27.2,30.6,32.1,28.2,36.8,28.2L36.8,28.2z M30.7,33.2L30,33.5c-5,2.7-10.1,9.5-15.5,20.3l-0.2,0.4l0.5,0.1
				c3.9,0.8,7.4,1.8,10.3,2.9l0.4,0.2L30.7,33.2z M29.6,35L25,56.5c-2.8-1.1-5.9-2-9.5-2.7C20.4,43.9,25.1,37.8,29.6,35z"/>
		</g>
		<g id="g931">
			<path id="path933" class="st0" d="M67.7,76.4C64.1,86.9,58,92.1,49.4,92.1c-2.2,0-4.2-0.8-6-2.4c-1.7-1.6-2.6-4.2-2.6-7.8
				c0-1.6,0.2-3.5,0.7-5.6l9.1-42.6l12.6-1.7L53.4,78c-0.2,1-0.3,2-0.3,3c0,1.9,1.1,2.9,3.4,2.9c1.7,0,3.2-0.7,4.6-2.2
				c1.4-1.4,2.5-3.2,3.1-5.4L67.7,76.4z"/>
			<path id="path935" class="st0" d="M63.6,31.7l-13.4,1.8l-9.1,42.8c-0.4,2.1-0.7,4-0.7,5.6c0,3.6,0.9,6.3,2.7,8
				c1.8,1.7,3.9,2.5,6.3,2.5c4.4,0,8.1-1.3,11.2-4c3.1-2.7,5.6-6.7,7.4-12l0.2-0.5h-0.5h-3.9l-0.1,0.3c-0.6,2.1-1.6,3.8-3,5.2h0v0
				c-1.4,1.4-2.8,2-4.3,2c-1.1,0-1.9-0.2-2.3-0.6c-0.5-0.4-0.7-1-0.7-1.9c0-1,0.1-1.9,0.3-2.9v0L63.6,31.7z M62.7,32.5L53,77.9
				c-0.2,1-0.3,2.1-0.3,3.1c0,1,0.3,1.9,1,2.4c0.7,0.6,1.6,0.8,2.8,0.8c1.8,0,3.4-0.8,4.9-2.3l0,0c1.4-1.4,2.4-3.2,3-5.2h2.8
				c-1.8,4.9-4.1,8.7-7,11.1c-3,2.6-6.5,3.8-10.7,3.8c-2.1,0-4.1-0.8-5.8-2.3c-1.6-1.5-2.5-4-2.5-7.5c0-1.6,0.2-3.4,0.7-5.5l9-42.3
				L62.7,32.5z"/>
		</g>
		<g id="g937">
			<path id="path939" class="st0" d="M99.7,76.4c-6.4,10.5-14.2,15.7-23.4,15.7c-4,0-7.3-1-9.7-3.1c-2.4-2.1-3.6-5.6-3.6-10.4
				c0-6.5,1.6-12.7,4.9-18.8c2.5-4.6,5.9-7.9,10.3-9.9c2.2-1.1,4.6-1.6,7-1.6c3.9,0,6.6,0.7,8,2.2c1.4,1.5,2.1,3.4,2.1,5.9
				c0,4.8-2,9-5.9,12.4c-3.9,3.4-8.5,5.2-13.7,5.6c-0.1,1.6-0.2,2.7-0.2,3.4c0,2.9,0.5,4.8,1.5,5.8c1,0.9,2.5,1.4,4.3,1.4
				c3.3,0,6-0.7,8.2-2.2c2.2-1.5,4.6-3.6,7.1-6.4L99.7,76.4z M88.8,55.9c0-2-0.7-3.1-2.1-3.1c-2.1,0.1-4.1,1.9-6,5.5
				c-1.9,3.6-3.3,7.6-4.2,12c3.3-0.2,6.1-1.7,8.6-4.6C87.6,63,88.8,59.7,88.8,55.9L88.8,55.9z"/>
			<path id="path941" class="st0" d="M85.3,48c-2.5,0-4.8,0.5-7.1,1.6c-4.4,2-7.9,5.4-10.5,10c-3.3,6.1-5,12.4-5,19
				c0,4.9,1.2,8.5,3.7,10.7h0c2.5,2.1,5.8,3.2,9.9,3.2c9.4,0,17.3-5.4,23.7-15.9l0.3-0.6h-0.7h-3.1l-0.1,0.1c-2.5,2.8-4.8,4.9-7,6.4
				c-2.1,1.4-4.8,2.1-8,2.1c-1.8,0-3.1-0.4-4.1-1.3c-0.9-0.8-1.4-2.6-1.4-5.5c0-0.6,0.1-1.7,0.2-3.1c5.2-0.4,9.7-2.2,13.6-5.6
				c4-3.5,6-7.7,6-12.7c0-2.5-0.7-4.6-2.2-6.2C92,48.7,89.2,48,85.3,48L85.3,48z M85.3,48.7c3.9,0,6.4,0.8,7.7,2.1v0
				c1.3,1.4,2,3.2,2,5.6c0,4.7-1.9,8.7-5.7,12.1c-3.8,3.3-8.3,5.1-13.5,5.5l-0.3,0l0,0.3c-0.1,1.6-0.2,2.7-0.2,3.4
				c0,2.9,0.5,5,1.7,6l0,0c1.1,1,2.6,1.5,4.6,1.5c3.3,0,6.1-0.7,8.4-2.2h0c2.2-1.5,4.6-3.6,7-6.4h2c-6.2,10-13.7,15-22.6,15
				c-4,0-7.1-1-9.4-3c-2.3-2-3.5-5.3-3.5-10.1c0-6.4,1.6-12.6,4.9-18.6c2.5-4.6,5.9-7.8,10.1-9.7h0C80.6,49.3,82.9,48.7,85.3,48.7
				L85.3,48.7z M86.7,52.5c-1.1,0-2.3,0.6-3.3,1.5c-1,1-2.1,2.4-3,4.2c-2,3.6-3.4,7.7-4.2,12.1L76,70.8l0.5,0
				c3.4-0.2,6.3-1.8,8.8-4.7c2.5-2.9,3.8-6.3,3.8-10.1c0-1.1-0.2-1.9-0.6-2.5C88.2,52.8,87.5,52.5,86.7,52.5L86.7,52.5L86.7,52.5z
				 M86.7,53.2c0.6,0,1,0.2,1.3,0.6c0.3,0.4,0.5,1.1,0.5,2.1c0,3.7-1.2,6.9-3.6,9.6v0h0c-2.2,2.6-4.8,3.9-7.7,4.3
				c0.9-4.1,2.1-7.9,3.9-11.3l0,0c1-1.8,1.9-3.1,2.9-4C84.9,53.7,85.8,53.2,86.7,53.2z"/>
		</g>
		<g id="g943">
			<path id="path945" class="st0" d="M123.1,76.4c-3.7,10.5-9.8,15.7-18.3,15.7c-2.2,0-4.2-0.8-6-2.4c-1.7-1.6-2.6-4.2-2.6-7.8
				c0-1.6,0.2-3.5,0.7-5.6l9.1-42.6l12.6-1.7L108.7,78c-0.2,1-0.3,2-0.3,3c0,1.9,1.1,2.9,3.4,2.9c1.7,0,3.2-0.7,4.6-2.2
				c1.4-1.4,2.5-3.2,3.1-5.4H123.1z"/>
			<path id="path947" class="st0" d="M118.9,31.7l-13.4,1.8l-9.1,42.8c-0.4,2.1-0.7,4-0.7,5.6c0,3.6,0.9,6.3,2.7,8
				c1.8,1.7,3.9,2.5,6.3,2.5c4.4,0,8.1-1.3,11.2-4c3.1-2.7,5.6-6.7,7.4-12l0.2-0.5h-0.5h-3.9l-0.1,0.3c-0.6,2.1-1.6,3.8-3,5.2v0
				c-1.4,1.4-2.8,2-4.3,2c-1.1,0-1.9-0.2-2.3-0.6c-0.5-0.4-0.7-1-0.7-1.9c0-1,0.1-1.9,0.3-2.9v0L118.9,31.7z M118,32.5l-9.6,45.4
				c-0.2,1-0.3,2.1-0.3,3.1c0,1,0.3,1.9,1,2.4c0.7,0.6,1.6,0.8,2.8,0.8c1.8,0,3.4-0.8,4.9-2.3l0,0c1.4-1.4,2.4-3.2,3-5.2h2.8
				c-1.8,4.9-4.1,8.7-7,11.1c-3,2.6-6.5,3.8-10.7,3.8c-2.1,0-4.1-0.8-5.8-2.3c-1.6-1.5-2.5-4-2.5-7.5c0-1.6,0.2-3.4,0.7-5.5l9-42.3
				L118,32.5z"/>
		</g>
		<g id="g949">
			<path id="path951" class="st0" d="M130.9,77c0,4.7,1.8,7.1,5.4,7.1c1.6,0,3.3-0.5,5.1-1.4c1.9-0.9,3.5-2,4.8-3.2
				c-1.5,8.4-6.4,12.6-14.7,12.6c-4,0-7.2-1-9.6-3.1c-2.4-2.1-3.6-5.6-3.6-10.4c0-6.5,1.6-12.7,4.9-18.8c2.5-4.6,5.9-7.9,10.3-9.9
				c2.2-1.1,4.6-1.6,7-1.6c3.9,0,6.6,0.7,8,2.2c1.4,1.5,2.1,3.4,2.1,5.9c0,4.9-2,9-5.9,12.4c-3.9,3.4-8.4,5.2-13.7,5.6
				C130.9,75.2,130.9,76.1,130.9,77L130.9,77z M144.1,55.9c0-2-0.7-3.1-2.1-3.1c-2.7,0.1-5.3,3.2-7.8,9.4c-1.1,2.6-1.9,5.3-2.5,8.1
				c3.3-0.1,6.1-1.6,8.6-4.4C142.8,63.1,144.1,59.8,144.1,55.9L144.1,55.9z"/>
			<path id="path953" class="st0" d="M140.5,48c-2.5,0-4.8,0.5-7.1,1.6c-4.4,2-7.9,5.4-10.5,10c-3.3,6.1-5,12.4-5,19
				c0,4.9,1.2,8.5,3.7,10.7h0c2.5,2.1,5.8,3.2,9.8,3.2c4.2,0,7.6-1.1,10.1-3.2c2.5-2.2,4.2-5.4,4.9-9.6l0.2-1.1l-0.8,0.7
				c-1.3,1.2-2.9,2.2-4.7,3.1h0c-1.8,0.9-3.4,1.3-4.9,1.3c-1.7,0-2.9-0.5-3.7-1.6c-0.8-1.1-1.3-2.8-1.3-5.1c0-0.8,0.1-1.6,0.2-2.3
				c5.2-0.4,9.7-2.2,13.6-5.6c4-3.4,6-7.7,6-12.7c0-2.5-0.7-4.6-2.2-6.2C147.2,48.7,144.5,48,140.5,48L140.5,48z M140.5,48.7
				c3.9,0,6.4,0.8,7.7,2.1v0c1.3,1.4,2,3.2,2,5.6c0,4.8-1.9,8.8-5.7,12.1c-3.8,3.3-8.3,5.1-13.5,5.5l-0.3,0l0,0.3
				c-0.1,0.8-0.2,1.7-0.2,2.6c0,2.4,0.5,4.2,1.4,5.5c1,1.3,2.5,1.9,4.3,1.9c1.6,0,3.4-0.5,5.3-1.4c1.5-0.8,2.8-1.7,4-2.6
				c-0.8,3.6-2.2,6.4-4.4,8.3c-2.4,2-5.6,3.1-9.6,3.1c-3.9,0-7-1-9.3-3c-2.3-2-3.5-5.3-3.5-10.1c0-6.4,1.6-12.6,4.9-18.6
				c2.5-4.6,5.9-7.8,10.1-9.7h0C135.9,49.3,138.1,48.7,140.5,48.7L140.5,48.7z M141.9,52.5c-1.5,0.1-2.9,1-4.2,2.6
				c-1.3,1.6-2.6,4-3.9,7c-1.1,2.6-1.9,5.4-2.6,8.2l-0.1,0.5l0.5,0c3.4-0.1,6.4-1.6,8.9-4.5c2.6-2.9,3.9-6.4,3.9-10.3
				c0-1.1-0.2-1.9-0.6-2.5C143.4,52.8,142.7,52.5,141.9,52.5L141.9,52.5L141.9,52.5z M142,53.2c0.6,0,1,0.2,1.3,0.6
				c0.3,0.4,0.5,1.1,0.5,2.1c0,3.8-1.2,7-3.7,9.8c-2.3,2.6-4.9,3.9-7.8,4.1c0.6-2.6,1.4-5.1,2.3-7.5c1.2-3,2.5-5.3,3.7-6.9
				C139.5,54,140.8,53.3,142,53.2z"/>
		</g>
		<g id="g955">
			<path id="path957" class="st0" d="M159.3,43.9l5.2-16.1h8.9l-7.8,16.1H159.3z"/>
			<path id="path959" class="st0" d="M164.2,27.5l-5.4,16.8h0.5h6.6l8.1-16.8H164.2z M164.8,28.2h8l-7.4,15.3h-5.6L164.8,28.2z"/>
		</g>
		<g id="g961">
			<path id="path963" class="st0" d="M198.2,46.5c0.2,5.3,0.4,9.8,0.7,13.3l1,13.5c0.1,1.3,0.2,2.8,0.2,4.4c0,1.6-0.3,3.2-0.8,4.6
				c-0.5,1.4-1.2,2.7-2.1,3.8c-1.6,2-3.7,3.6-6.3,4.5c-2.6,0.9-5.1,1.4-7.5,1.4c-4.2,0-7.4-1.1-9.5-3.2c-2.2-2.2-3.2-4.5-3.2-6.9
				c0-2.5,0.5-4.4,1.4-5.7c0.9-1.4,2-2.3,3.1-2.9c4-7.1,7.5-15.5,10.5-25.2L198.2,46.5z M179.6,85.4c5.4,0,8.1-2.6,8.1-7.9
				c0-1.5-0.1-3.2-0.3-5.2l-0.5-4.9c-0.3-3.1-0.6-6.5-0.8-10.1c-1.4,4.6-3.7,10-6.9,16.1c1.3,0.6,2,1.5,2,2.7c0,1.2-0.3,2.2-1,3.1
				c-0.7,0.9-1.6,1.3-2.7,1.3c-1.1,0-1.9-0.4-2.2-1.1C175.2,83.4,176.7,85.4,179.6,85.4L179.6,85.4z"/>
			<path id="path965" class="st0" d="M198.6,46.1l-0.4,0l-12.8,1.7l-0.1,0.2c-3,9.6-6.5,18-10.4,25.1c0,0,0,0,0,0
				c-1.1,0.6-2.2,1.5-3.1,2.8c-1,1.4-1.5,3.4-1.5,5.9c0,2.5,1.1,5,3.3,7.2c2.2,2.2,5.5,3.3,9.8,3.3c2.5,0,5-0.5,7.6-1.4
				c2.6-1,4.8-2.5,6.5-4.6c0.9-1.1,1.6-2.4,2.1-3.9v0c0.5-1.5,0.8-3.1,0.8-4.8c0-1.6-0.1-3.1-0.2-4.5l-1-13.5v0
				c-0.2-3.6-0.4-8-0.7-13.3L198.6,46.1z M197.9,46.9c0.2,5.1,0.4,9.5,0.6,12.9l1,13.5c0.1,1.3,0.2,2.8,0.2,4.4
				c0,1.6-0.3,3.1-0.8,4.5v0c-0.5,1.4-1.2,2.6-2,3.7h0v0c-1.6,2-3.6,3.5-6.1,4.4c-2.5,0.9-5,1.4-7.3,1.4c-4.1,0-7.2-1.1-9.3-3.1
				c-2.1-2.1-3.1-4.3-3.1-6.7c0-2.4,0.5-4.2,1.3-5.5c0.9-1.3,1.9-2.2,3-2.7l0.1-0.1l0.1-0.1c4-7.1,7.4-15.5,10.4-25L197.9,46.9z
				 M185.8,57.3c-1.4,4.6-3.7,10-6.9,16l-0.2,0.3l0.4,0.2c1.2,0.6,1.7,1.3,1.7,2.4c0,1.1-0.3,2.1-1,2.9h0c-0.6,0.8-1.4,1.1-2.4,1.1
				c-1.1,0-1.6-0.3-1.9-0.9l-0.7,0.2c0,0.1,0,0.1,0,0.2c0,0,0,0,0,0c0,1.9,0.4,3.5,1.1,4.5c0.8,1.1,2.1,1.6,3.6,1.6
				c2.8,0,4.9-0.7,6.4-2.1c1.4-1.4,2.1-3.5,2.1-6.2c0-1.5-0.1-3.2-0.3-5.2l-0.5-4.8v0c-0.3-3.1-0.6-6.5-0.8-10.1L185.8,57.3z
				 M185.9,58.9c0.2,3,0.4,5.9,0.7,8.6l0.5,4.9l0,0c0.2,2,0.3,3.7,0.3,5.1c0,2.6-0.7,4.4-1.9,5.6c-1.3,1.2-3.2,1.9-5.8,1.9
				c-1.4,0-2.4-0.4-3-1.3c-0.6-0.8-0.8-2.1-0.9-3.6c0.5,0.4,0.9,0.9,1.7,0.9c1.3,0,2.3-0.5,3-1.4c0.7-0.9,1.1-2.1,1.1-3.3
				c0-1.2-0.8-2.1-1.9-2.7C182.5,68,184.5,63.2,185.9,58.9L185.9,58.9z"/>
		</g>
		<g id="g967">
			<path id="path969" class="st0" d="M271.2,92.1c-7.2,0-10.9-3.2-10.9-9.6c0-2.3,0.6-6,1.9-11.1c1.3-5.1,1.9-8.6,1.9-10.5
				c0-2.9-1-4.4-3.1-4.4s-3.9,1.6-5.5,4.9c-0.5,0.9-0.9,1.9-1.2,3l-5.8,27.3h-12.2l6.2-29.3c0.2-0.7,0.2-1.4,0.2-2.1
				c0-2.5-0.8-3.7-2.5-3.7c-1.7,0-3.1,0.8-4.3,2.4c-1.2,1.5-2,3.4-2.7,5.6l-5.8,27.3h-12.2l9-42.5h12.2l-0.9,4.4
				c2.8-3.2,6.3-4.8,10.4-4.8c5,0,7.9,2.4,8.7,7.3c3.1-4.8,7.1-7.2,11.8-7.2c2.7,0,4.9,0.7,6.7,2.2c1.8,1.5,2.7,3.7,2.7,6.6
				c0,2.9-0.5,6.2-1.4,10l-2,8.3c-0.4,1.8-0.7,3.3-0.7,4.4c0,2.4,1,3.7,3.1,3.7c1.9,0,3.4-0.6,4.4-1.8c1-1.2,2-3.1,3-5.7h3.6
				c-2.1,6.3-4.8,10.6-8,13.2C276,91.3,273.7,92.1,271.2,92.1L271.2,92.1z"/>
			<path id="path971" class="st0" d="M246.2,48.3c-3.8,0-7.1,1.6-9.8,4.3l0.8-3.9h-13L215,92h13l5.8-27.5v0c0.6-2.1,1.5-3.9,2.6-5.4
				c1.1-1.5,2.4-2.2,4-2.2c0.8,0,1.2,0.2,1.6,0.8c0.4,0.5,0.6,1.4,0.6,2.6c0,0.7-0.1,1.4-0.2,2v0L236,92h13l5.8-27.5v0l0,0
				c0.3-1,0.7-2,1.1-2.9v0c0.8-1.6,1.6-2.8,2.5-3.5c0.9-0.8,1.7-1.1,2.7-1.1c0.9,0,1.6,0.3,2,0.9s0.7,1.6,0.7,3.1
				c0,1.9-0.6,5.4-1.9,10.5c-1.3,5.1-1.9,8.8-1.9,11.2c0,3.3,0.9,5.8,2.8,7.5c1.9,1.7,4.7,2.5,8.4,2.5c2.5,0,4.9-0.9,7.2-2.7
				c3.3-2.6,6-7,8.1-13.3l0.2-0.5h-4.3l-0.1,0.2c-1,2.6-2,4.4-3,5.6c-0.9,1.1-2.3,1.7-4.1,1.7c-1,0-1.6-0.3-2-0.8
				c-0.4-0.5-0.7-1.3-0.7-2.5c0-1.1,0.2-2.5,0.7-4.3v0l2-8.3v0c0.9-3.8,1.4-7.1,1.4-10c0-3-0.9-5.3-2.8-6.8c-1.9-1.6-4.2-2.3-7-2.3
				c-4.7,0-8.6,2.4-11.7,7c-0.5-2.2-1.2-4-2.6-5.1C250.8,48.9,248.7,48.3,246.2,48.3L246.2,48.3z M246.2,49.1c2.4,0,4.3,0.6,5.7,1.7
				c1.4,1.1,2.3,2.9,2.7,5.3l0.2,1l0.5-0.8c3.1-4.7,6.9-7.1,11.5-7.1c2.6,0,4.8,0.7,6.5,2.2c1.7,1.4,2.6,3.5,2.6,6.3
				c0,2.8-0.5,6.1-1.4,9.9l-2,8.3c-0.4,1.8-0.7,3.3-0.7,4.5c0,1.3,0.3,2.3,0.9,3c0.6,0.7,1.5,1,2.6,1c2,0,3.6-0.7,4.7-2
				c1-1.2,2-3.1,3-5.5h2.8c-2.1,5.9-4.6,10.1-7.6,12.5c-2.2,1.7-4.4,2.5-6.7,2.5c-3.6,0-6.2-0.8-7.9-2.3c-1.7-1.5-2.6-3.8-2.6-6.9
				c0-2.3,0.6-6,1.9-11c1.3-5.1,1.9-8.6,1.9-10.6c0-1.5-0.3-2.7-0.8-3.5c-0.6-0.8-1.5-1.3-2.6-1.3c-1.1,0-2.2,0.5-3.2,1.3
				c-1,0.9-1.8,2.1-2.7,3.8c-0.5,0.9-0.9,2-1.2,3.1v0l-5.7,27h-11.5l6.1-28.9c0.2-0.7,0.3-1.4,0.3-2.2c0-1.3-0.2-2.3-0.7-3
				c-0.5-0.7-1.3-1.1-2.2-1.1c-1.8,0-3.3,0.9-4.6,2.5c-1.2,1.6-2.1,3.5-2.7,5.7v0l-5.7,27h-11.5l8.9-41.8h11.5l-1.1,5.3l0.9-1.1
				C238.8,50.6,242.2,49.1,246.2,49.1L246.2,49.1z"/>
		</g>
		<g id="g973">
			<path id="path975" class="st0" d="M318.1,76.4c-6.4,10.5-14.2,15.7-23.4,15.7c-4,0-7.3-1-9.7-3.1c-2.4-2.1-3.6-5.6-3.6-10.4
				c0-6.5,1.6-12.7,4.9-18.8c2.5-4.6,5.9-7.9,10.3-9.9c2.2-1.1,4.6-1.6,7-1.6c3.9,0,6.6,0.7,8,2.2c1.4,1.5,2.1,3.4,2.1,5.9
				c0,4.8-2,9-5.9,12.4c-3.9,3.4-8.5,5.2-13.7,5.6c-0.1,1.6-0.2,2.7-0.2,3.4c0,2.9,0.5,4.8,1.5,5.8c1,0.9,2.5,1.4,4.3,1.4
				c3.3,0,6-0.7,8.2-2.2c2.2-1.5,4.6-3.6,7.1-6.4L318.1,76.4z M307.3,55.9c0-2-0.7-3.1-2.1-3.1c-2.1,0.1-4.1,1.9-6,5.5
				c-1.9,3.6-3.3,7.6-4.2,12c3.3-0.2,6.1-1.7,8.6-4.6C306,63,307.3,59.7,307.3,55.9L307.3,55.9z"/>
			<path id="path977" class="st0" d="M303.7,48c-2.5,0-4.8,0.5-7.1,1.6c-4.4,2-7.9,5.4-10.5,10h0c-3.3,6.1-5,12.4-5,19
				c0,4.9,1.2,8.5,3.7,10.7c2.5,2.1,5.8,3.2,9.9,3.2c9.4,0,17.3-5.4,23.7-15.9l0.3-0.6h-0.7h-3.1l-0.1,0.1c-2.5,2.8-4.8,4.9-7,6.4
				c-2.1,1.4-4.8,2.1-8,2.1c-1.8,0-3.1-0.4-4.1-1.3c-0.9-0.8-1.4-2.6-1.4-5.5c0-0.6,0.1-1.7,0.2-3.1c5.2-0.4,9.7-2.2,13.6-5.6
				c4-3.5,6-7.7,6-12.7c0-2.5-0.7-4.6-2.2-6.2C310.4,48.7,307.7,48,303.7,48L303.7,48z M303.7,48.7c3.9,0,6.4,0.8,7.7,2.1l0,0
				c1.3,1.4,2,3.2,2,5.6c0,4.7-1.9,8.7-5.7,12.1c-3.8,3.3-8.3,5.1-13.5,5.5l-0.3,0l0,0.3c-0.1,1.6-0.2,2.7-0.2,3.4
				c0,2.9,0.5,5,1.7,6l0,0c1.1,1,2.6,1.5,4.6,1.5c3.3,0,6.1-0.7,8.4-2.2c2.2-1.5,4.6-3.6,7-6.4h2c-6.2,10-13.7,15-22.6,15
				c-4,0-7.1-1-9.4-3c-2.3-2-3.5-5.3-3.5-10.1c0-6.4,1.6-12.6,4.9-18.6h0c2.5-4.6,5.9-7.8,10.1-9.7h0
				C299.1,49.3,301.3,48.7,303.7,48.7L303.7,48.7z M305.1,52.5c-1.1,0-2.3,0.6-3.3,1.5s-2.1,2.4-3,4.2c-2,3.6-3.4,7.7-4.2,12.1
				l-0.1,0.5l0.5,0c3.4-0.2,6.3-1.8,8.8-4.7c2.5-2.9,3.8-6.3,3.8-10.1c0-1.1-0.2-1.9-0.6-2.5C306.6,52.8,305.9,52.5,305.1,52.5
				L305.1,52.5L305.1,52.5z M305.1,53.2c0.6,0,1,0.2,1.3,0.6c0.3,0.4,0.5,1.1,0.5,2.1c0,3.7-1.2,6.9-3.6,9.6v0
				c-2.2,2.6-4.8,3.9-7.7,4.3c0.9-4.1,2.1-7.9,3.9-11.3v0c1-1.8,1.9-3.1,2.9-4C303.3,53.7,304.2,53.2,305.1,53.2z"/>
		</g>
		<g id="g979">
			<path id="path981" class="st0" d="M367.8,92.1c-7.2,0-10.9-3.2-10.9-9.6c0-2.3,0.6-6,1.9-11.1c1.3-5.1,1.9-8.6,1.9-10.5
				c0-2.9-1-4.4-3.1-4.4c-2,0-3.9,1.6-5.5,4.9c-0.5,0.9-0.9,1.9-1.2,3l-5.8,27.3H333l6.2-29.3c0.2-0.7,0.2-1.4,0.2-2.1
				c0-2.5-0.8-3.7-2.5-3.7c-1.7,0-3.1,0.8-4.3,2.4c-1.2,1.5-2,3.4-2.7,5.6l-5.8,27.3H312l9-42.5h12.2l-0.9,4.4
				c2.8-3.2,6.3-4.8,10.4-4.8c5,0,7.9,2.4,8.7,7.3c3.1-4.8,7.1-7.2,11.8-7.2c2.7,0,4.9,0.7,6.7,2.2c1.8,1.5,2.7,3.7,2.7,6.6
				c0,2.9-0.5,6.2-1.4,10l-2,8.3c-0.4,1.8-0.7,3.3-0.7,4.4c0,2.4,1,3.7,3.1,3.7c1.9,0,3.4-0.6,4.4-1.8c1-1.2,2-3.1,3-5.7h3.6
				c-2.1,6.3-4.8,10.6-8,13.2C372.5,91.3,370.2,92.1,367.8,92.1L367.8,92.1z"/>
			<path id="path983" class="st0" d="M342.7,48.3c-3.8,0-7.1,1.6-9.8,4.3l0.8-3.9h-13L311.5,92h13l5.8-27.5v0
				c0.6-2.1,1.5-3.9,2.6-5.4c1.1-1.5,2.4-2.2,4-2.2c0.8,0,1.2,0.2,1.6,0.8c0.4,0.5,0.6,1.4,0.6,2.6c0,0.7-0.1,1.4-0.2,2v0L332.5,92
				h13l5.8-27.5v0l0,0c0.3-1,0.7-2,1.1-2.9v0c0.8-1.6,1.6-2.8,2.5-3.5c0.9-0.8,1.7-1.1,2.7-1.1c0.9,0,1.6,0.3,2,0.9
				c0.4,0.6,0.7,1.6,0.7,3.1c0,1.9-0.6,5.4-1.9,10.5c-1.3,5.1-1.9,8.8-1.9,11.2c0,3.3,0.9,5.8,2.8,7.5c1.9,1.7,4.7,2.5,8.4,2.5
				c2.5,0,4.9-0.9,7.2-2.7c3.3-2.6,6-7,8.1-13.3l0.2-0.5h-4.3l-0.1,0.2c-1,2.6-2,4.4-3,5.6c-0.9,1.1-2.3,1.7-4.1,1.7
				c-1,0-1.6-0.3-2-0.8c-0.4-0.5-0.7-1.3-0.7-2.5c0-1.1,0.2-2.5,0.7-4.3v0l2-8.3v0c0.9-3.8,1.4-7.1,1.4-10c0-3-0.9-5.3-2.8-6.8
				c-1.9-1.6-4.2-2.3-7-2.3c-4.7,0-8.6,2.4-11.7,7c-0.5-2.2-1.2-4-2.6-5.1C347.3,48.9,345.3,48.3,342.7,48.3L342.7,48.3z
				 M342.7,49.1c2.4,0,4.3,0.6,5.7,1.7c1.4,1.1,2.3,2.9,2.7,5.3l0.2,1l0.5-0.8c3.1-4.7,6.9-7.1,11.5-7.1c2.6,0,4.8,0.7,6.5,2.2
				c1.7,1.4,2.6,3.5,2.6,6.3c0,2.8-0.5,6.1-1.4,9.9l-2,8.3c-0.4,1.8-0.7,3.3-0.7,4.5c0,1.3,0.3,2.3,0.9,3c0.6,0.7,1.5,1,2.6,1
				c2,0,3.6-0.7,4.7-2c1-1.2,2-3.1,3-5.5h2.8c-2.1,5.9-4.6,10.1-7.6,12.5c-2.2,1.7-4.4,2.5-6.7,2.5c-3.6,0-6.2-0.8-7.9-2.3
				s-2.6-3.8-2.6-6.9c0-2.3,0.6-6,1.9-11c1.3-5.1,1.9-8.6,1.9-10.6c0-1.5-0.3-2.7-0.8-3.5c-0.6-0.8-1.5-1.3-2.6-1.3
				c-1.1,0-2.2,0.5-3.2,1.3c-1,0.9-1.8,2.1-2.7,3.8c-0.5,0.9-0.9,2-1.2,3.1v0l-5.7,27h-11.5l6.1-28.9c0.2-0.7,0.3-1.4,0.3-2.2
				c0-1.3-0.2-2.3-0.7-3c-0.5-0.7-1.3-1.1-2.2-1.1c-1.8,0-3.3,0.9-4.6,2.5c-1.2,1.6-2.1,3.5-2.7,5.7v0l-5.7,27h-11.5l8.8-41.8h11.5
				l-1.1,5.3l0.9-1.1C335.4,50.6,338.7,49.1,342.7,49.1L342.7,49.1z"/>
		</g>
		<g id="g985">
			<path id="path987" class="st0" d="M426.9,59.3c-3.4,3.6-8.5,5.9-15.1,7.1c-0.7,7.7-2.9,13.9-6.7,18.6c-3.8,4.6-8.3,7-13.6,7
				c-6.5,0-10.7-2.4-12.6-7.2c-0.7-1.7-1-3.6-1-5.6s0.2-4.1,0.5-6.2c0.3-2.1,0.9-4.3,1.6-6.6c1.7-5.1,4.1-9.2,7.3-12.3
				c3.8-3.8,8.4-5.6,13.8-5.6c7.3,0,10.9,4.5,10.9,13.6V62c0.3,0.1,0.7,0.1,1.4,0.1c1.5,0,3.5-0.5,5.9-1.5c2.4-1,4.7-2.2,6.8-3.7
				L426.9,59.3z M404.8,66.6c-1.5-0.4-2.3-1.6-2.3-3.8s0.9-3.6,2.7-4.4c-0.1-1.8-0.4-3.1-0.9-3.8c-0.4-0.7-1.3-1.1-2.7-1.1
				c-2.6,0-5.1,2.9-7.5,8.6c-2.4,5.7-3.6,10.8-3.6,15.3c0,2.7,0.2,4.5,0.7,5.2c0.5,0.7,1,1.2,1.6,1.4s1.3,0.3,2.2,0.3
				c1.9,0,3.9-1.7,5.8-5.1C402.8,75.8,404.1,71.6,404.8,66.6L404.8,66.6z"/>
			<path id="path989" class="st0" d="M401.2,48c-5.5,0-10.2,1.9-14,5.8c-3.3,3.2-5.7,7.4-7.4,12.5c-0.8,2.3-1.3,4.5-1.6,6.6
				c-0.4,2.1-0.5,4.2-0.5,6.3c0,2.1,0.3,4,1,5.7c1.9,5,6.3,7.5,13,7.5c5.4,0,10.1-2.4,13.9-7.1c3.8-4.7,6-10.9,6.7-18.5
				c6.5-1.1,11.6-3.5,15-7.1l0.1-0.2l-0.1-0.2l-0.9-2.8l-0.4,0.3c-2.1,1.5-4.3,2.7-6.7,3.6c-2.4,1-4.3,1.4-5.7,1.4
				c-0.5,0-0.8,0-1.1-0.1c0-4.4-0.9-7.8-2.8-10.1C407.8,49.2,404.9,48,401.2,48L401.2,48z M401.2,48.7c3.6,0,6.2,1.1,7.9,3.3
				c1.7,2.2,2.6,5.5,2.6,9.9v0.4l0.3,0.1c0.3,0.1,0.8,0.1,1.5,0.1c1.6,0,3.6-0.5,6-1.5v0c2.3-0.9,4.4-2.1,6.4-3.5l0.5,1.6
				c-3.4,3.4-8.2,5.7-14.7,6.8l-0.3,0l0,0.3c-0.7,7.7-2.9,13.8-6.6,18.4c-3.7,4.6-8.1,6.8-13.3,6.8c-6.4,0-10.4-2.3-12.3-7
				c-0.6-1.6-1-3.5-1-5.5c0-2,0.2-4.1,0.5-6.2v0c0.3-2.1,0.9-4.3,1.6-6.5c1.7-5,4.1-9.1,7.3-12.2C391.5,50.6,395.9,48.7,401.2,48.7
				L401.2,48.7z M401.6,53.1c-1.4,0-2.8,0.8-4.1,2.3c-1.3,1.5-2.5,3.7-3.7,6.6c-2.4,5.8-3.6,10.9-3.6,15.4c0,2.8,0.2,4.5,0.8,5.4v0
				c0.5,0.8,1.1,1.3,1.8,1.5c0.6,0.2,1.4,0.3,2.4,0.3c1.1,0,2.1-0.5,3.1-1.4c1-0.9,2-2.2,3-3.9c1.9-3.5,3.2-7.7,3.9-12.7l0-0.3
				l-0.3-0.1c-0.7-0.2-1.2-0.5-1.5-1.1s-0.5-1.3-0.5-2.3c0-2,0.8-3.3,2.4-4.1l0.2-0.1l0-0.3c-0.1-1.8-0.4-3.1-0.9-4
				C404.1,53.6,403,53.1,401.6,53.1L401.6,53.1z M401.6,53.9c1.3,0,2,0.3,2.3,0.9v0l0,0c0.4,0.6,0.7,1.8,0.8,3.5
				c-1.7,0.9-2.6,2.4-2.6,4.5c0,1.1,0.2,2,0.6,2.7c0.4,0.6,1,0.9,1.6,1.2c-0.7,4.9-1.9,9-3.8,12.3c-0.9,1.7-1.9,2.9-2.8,3.7
				c-0.9,0.8-1.8,1.2-2.6,1.2c-0.9,0-1.6-0.1-2.1-0.3c-0.4-0.2-0.9-0.6-1.4-1.2c-0.4-0.6-0.7-2.3-0.7-5c0-4.4,1.2-9.4,3.5-15.1v0
				c1.2-2.9,2.4-5,3.6-6.4C399.3,54.5,400.5,53.9,401.6,53.9L401.6,53.9z"/>
		</g>
		<g id="g991">
			<path id="path993" class="st0" d="M413.2,91.6l9-42.5h12.2l-1.1,5.3c1.4-1.2,3-2.4,4.6-3.6c1.7-1.1,3.6-1.7,5.5-1.7
				c2,0,3.5,0.7,4.5,2c1,1.3,1.5,2.5,1.5,3.7c0,2-0.6,3.7-1.7,5c-1.1,1.3-2.4,1.9-3.9,1.9c-1.5,0-2.6-0.3-3.1-1
				c-0.5-0.7-0.8-1.4-0.9-2.2c-0.1-0.7-0.3-1.3-0.5-1.7c-0.2-0.4-0.5-0.7-1.1-0.7c-1.2,0-2.2,0.3-3.1,0.8c-0.9,0.5-1.9,1.3-3,2.4
				l-6.8,32.3L413.2,91.6z"/>
			<path id="path995" class="st0" d="M421.9,48.7L412.8,92h0.5h12.5l6.8-32.5c1.1-1,2.1-1.8,2.9-2.3l0,0c0.8-0.5,1.8-0.8,2.9-0.8
				c0.2,0,0.4,0,0.5,0.1c0.1,0.1,0.2,0.2,0.2,0.3l0,0l0,0c0.2,0.4,0.3,0.9,0.4,1.6c0.1,0.8,0.5,1.6,1,2.3v0c0.6,0.8,1.8,1.2,3.4,1.2
				c1.6,0,3.1-0.7,4.2-2l0,0c1.2-1.3,1.7-3.1,1.7-5.2c0-1.3-0.5-2.6-1.6-4c-1.1-1.4-2.7-2.1-4.8-2.1c-2,0-4,0.6-5.7,1.8
				c-1.4,0.9-2.7,2-3.9,3l1-4.7L421.9,48.7z M422.5,49.5H434l-1.2,5.9l0.8-0.7c1.4-1.2,2.9-2.4,4.6-3.5v0c1.7-1.1,3.4-1.6,5.3-1.6
				c1.9,0,3.3,0.6,4.2,1.8c1,1.3,1.4,2.4,1.4,3.5c0,2-0.5,3.5-1.6,4.7c-1,1.2-2.2,1.8-3.7,1.8c-1.5,0-2.4-0.3-2.8-0.9h0
				c-0.5-0.7-0.7-1.3-0.8-2h0c-0.1-0.8-0.3-1.4-0.5-1.8c-0.1-0.3-0.3-0.5-0.6-0.7c-0.3-0.2-0.6-0.2-0.9-0.2c-1.2,0-2.3,0.3-3.3,0.9
				c-0.9,0.5-1.9,1.4-3.1,2.5l-0.1,0.1l-6.8,32.1h-11.5L422.5,49.5z"/>
		</g>
		<g id="g997">
			<path id="path999" class="st0" d="M460.1,80.2c0,2.5,0.8,3.7,2.5,3.7c3,0,5.3-2.5,6.8-7.5l5.8-27.3h12.3l-10.4,49.3
				c-1.1,5.4-3.3,9.4-6.6,11.8c-2.4,1.8-5.2,2.7-8.3,2.7s-5.7-0.9-7.7-2.6c-2-1.7-3-3.8-3-6.1c0-2.3,0.4-4.2,1.1-5.5
				c0.8-1.4,2-2.6,3.6-3.7c1.6-1.2,4.9-2.5,10-4l0.9-3.7c-2.9,3.3-6.3,4.9-10.4,4.9c-2.5,0-4.7-0.8-6.5-2.4
				c-1.7-1.6-2.6-4.2-2.6-7.8c0-1.6,0.2-3.5,0.7-5.6l5.8-27.3h12.2L460.3,78C460.2,78.7,460.1,79.4,460.1,80.2L460.1,80.2z
				 M465.8,93.6c-3,1.1-5.1,2.1-6.3,3c-2.1,1.7-3.2,3.7-3.2,5.8c0,0.6,0.3,1.3,1,1.9c0.7,0.6,1.5,1,2.4,1c0.9,0,1.9-0.5,2.8-1.5
				s1.7-2.7,2.2-5.2L465.8,93.6z"/>
			<path id="path1001" class="st0" d="M453.9,48.7L448,76.3c-0.4,2.1-0.7,4-0.7,5.6c0,3.6,0.9,6.3,2.7,8h0c1.8,1.7,4.1,2.5,6.7,2.5
				c3.8,0,7-1.6,9.8-4.3l-0.6,2.5c-4.9,1.5-8.2,2.7-9.8,3.9c-1.7,1.2-2.9,2.4-3.7,3.9v0c-0.8,1.4-1.2,3.3-1.2,5.7
				c0,2.4,1.1,4.6,3.1,6.4v0c2.1,1.8,4.8,2.7,7.9,2.7c3.2,0,6-0.9,8.5-2.7c3.4-2.5,5.6-6.5,6.7-12L488,48.7h-13.1l-5.8,27.5
				c-0.8,2.5-1.7,4.3-2.8,5.5c-1.1,1.2-2.3,1.8-3.7,1.8c-0.8,0-1.2-0.2-1.6-0.8c-0.4-0.5-0.6-1.4-0.6-2.6c0-0.7,0.1-1.4,0.2-2.1
				l6.2-29.3L453.9,48.7z M454.5,49.5H466l-6,28.4c-0.2,0.7-0.3,1.5-0.3,2.2v0.4h0.1c0,1.1,0.2,2,0.6,2.6c0.5,0.7,1.3,1.1,2.2,1.1
				c1.6,0,3-0.7,4.2-2c1.2-1.3,2.2-3.2,2.9-5.8l0,0l5.7-27H487l-10.3,48.9c-1.1,5.4-3.2,9.2-6.4,11.6c-2.3,1.7-5,2.6-8,2.6
				c-3,0-5.5-0.8-7.4-2.5l0,0c-1.9-1.7-2.9-3.6-2.9-5.8c0-2.3,0.4-4.1,1.1-5.3v0c0.7-1.3,1.9-2.5,3.5-3.6h0c1.5-1.1,4.8-2.4,9.8-3.9
				l0.2-0.1l0.9-3.9l-0.6-0.3c-2.8,3.2-6.2,4.8-10.1,4.8c-2.5,0-4.5-0.8-6.2-2.3c-1.6-1.5-2.5-4-2.5-7.5c0-1.6,0.2-3.4,0.7-5.5
				L454.5,49.5z M466.3,93.1l-0.6,0.2c-3.1,1.1-5.2,2.1-6.4,3.1v0c-2.2,1.8-3.3,3.8-3.3,6.1c0,0.8,0.4,1.5,1.1,2.1
				c0.8,0.7,1.6,1.1,2.6,1.1c1,0,2.1-0.6,3.1-1.6c1.1-1.1,1.8-2.8,2.3-5.4L466.3,93.1z M465.2,94.3l-0.9,4.3c-0.5,2.5-1.3,4.1-2.1,5
				c-0.9,0.9-1.8,1.3-2.6,1.3c-0.8,0-1.5-0.3-2.1-0.9c-0.6-0.6-0.9-1.1-0.9-1.6c0-2,1-3.8,3-5.5C460.7,96.2,462.7,95.3,465.2,94.3z"
				/>
		</g>
		<g id="g1003">
			<path id="path1005" class="st0" d="M526.4,87.5c-3,3.1-6.4,4.6-10.2,4.6c-5.1,0-8.6-2.4-10.4-7.3c-0.6-1.7-1-3.7-1-5.9
				c0-2.2,0.2-4.5,0.6-6.7c0.4-2.2,1-4.5,1.8-6.7c1.8-4.9,4.3-8.9,7.6-12.1c3.3-3.2,7.3-4.8,11.9-4.8c2.4,0,4.2,0.4,5.3,1.2
				c1.1,0.8,1.6,1.8,1.6,3.1v0.5l0.9-4.4h12.2l-8.4,39.4c2.6-0.9,4.7-2.2,6.4-3.9c1.7-1.8,3.1-4.5,4.4-8.3h3.6
				c-2.2,7.3-5.8,12.1-11,14.4c-1.4,0.6-2.8,1.1-4.1,1.5l-1.3,6.1c-1.1,5.5-3.2,9.4-6.5,11.8c-2.4,1.8-5.1,2.7-8.2,2.7
				s-5.5-0.7-7.4-2c-1.9-1.4-2.8-3.5-2.8-6.5c0-5.2,4.6-9.3,13.9-12.4L526.4,87.5z M532.8,57.1c0-1.3-0.6-2.2-1.8-2.8
				c-0.4-0.2-1-0.4-1.7-0.4c-1.8,0-3.4,0.8-4.9,2.5c-3.6,4.1-5.9,9.9-6.8,17.5c-0.1,1.2-0.2,2.4-0.2,3.7c0,2.5,0.5,4.3,1.6,5.3
				c0.6,0.6,1.4,0.9,2.2,0.9c1.6,0,3-0.6,4.4-1.8c1.4-1.2,2.3-2.8,2.9-4.9L532.8,57.1z M524.4,96.2c-5.5,2-8.3,4.4-8.3,7.2
				c0,1.1,0.5,2,1.6,2.5c0.4,0.2,0.9,0.2,1.6,0.2s1.5-0.6,2.4-1.9c0.9-1.2,1.6-3.1,2.2-5.7L524.4,96.2z"/>
			<path id="path1007" class="st0" d="M526.7,48.3c-4.7,0-8.8,1.6-12.2,4.9c-3.3,3.2-5.9,7.3-7.7,12.2c-0.8,2.2-1.4,4.5-1.8,6.7
				c-0.4,2.2-0.6,4.5-0.6,6.7c0,2.2,0.3,4.3,1,6.1c1.8,5,5.5,7.5,10.7,7.5c3.6,0,6.8-1.5,9.6-4.1l-0.8,3.3c-4.5,1.5-8,3.3-10.3,5.4
				c-2.4,2.1-3.6,4.6-3.6,7.3c0,3.1,1,5.4,2.9,6.8c1.9,1.4,4.5,2.1,7.6,2.1c3.1,0,6-0.9,8.4-2.7c3.3-2.5,5.5-6.5,6.6-12l1.2-5.9
				c1.3-0.3,2.5-0.8,3.9-1.4c5.3-2.4,9-7.3,11.2-14.7l0.1-0.5h-4.3l-0.1,0.3c-1.2,3.7-2.6,6.4-4.3,8.1c-1.4,1.5-3.4,2.6-5.5,3.4
				l8.3-39h-13l-0.7,3.4c-0.2-0.9-0.4-1.8-1.3-2.5c0,0,0,0,0,0C531,48.7,529.2,48.3,526.7,48.3L526.7,48.3z M526.7,49.1
				c2.4,0,4.1,0.4,5,1.2v0h0c1,0.7,1.5,1.6,1.5,2.8v0.5l0.7,0.1l0.9-4.1h11.5l-8.5,39.6l0.6-0.2c2.6-0.9,4.8-2.2,6.5-4
				c1.7-1.8,3.1-4.5,4.3-8.1h2.8c-2.2,6.9-5.6,11.5-10.5,13.7c-1.4,0.6-2.7,1.1-4,1.4l-0.2,0.1l-1.3,6.4h0
				c-1.1,5.4-3.2,9.2-6.3,11.6c-2.3,1.7-5,2.6-8,2.6c-3,0-5.4-0.7-7.2-2c-1.7-1.3-2.6-3.3-2.6-6.2c0-2.5,1.1-4.7,3.3-6.7
				c2.3-2,5.7-3.8,10.3-5.3l0.2-0.1l1.4-6l-0.9,1c-2.9,3-6.2,4.5-9.9,4.5c-5,0-8.3-2.3-10-7c-0.6-1.7-0.9-3.6-0.9-5.8
				c0-2.2,0.2-4.4,0.6-6.6c0.4-2.2,1-4.4,1.8-6.6c1.8-4.8,4.3-8.8,7.5-11.9C518.3,50.6,522.1,49.1,526.7,49.1L526.7,49.1z
				 M529.3,53.6c-1.9,0-3.7,0.9-5.2,2.7c-3.7,4.1-5.9,10.1-6.9,17.7c-0.1,1.2-0.2,2.4-0.2,3.7c0,2.6,0.5,4.4,1.7,5.5c0,0,0,0,0,0
				c0.7,0.7,1.5,1,2.5,1c1.7,0,3.2-0.6,4.6-1.9h0c1.4-1.3,2.4-3,3-5v0l4.3-20.2v0c0-1.4-0.7-2.5-2-3.1
				C530.7,53.7,530,53.6,529.3,53.6L529.3,53.6z M529.3,54.3c0.6,0,1.1,0.1,1.5,0.3l0,0l0,0c1.1,0.5,1.6,1.3,1.6,2.4l-4.3,20
				c-0.5,2-1.5,3.5-2.7,4.7c0,0,0,0,0,0c0,0,0,0,0,0c-1.3,1.1-2.7,1.7-4.1,1.7c-0.8,0-1.4-0.3-2-0.8l0,0h0c-0.9-0.9-1.5-2.5-1.5-5
				c0-1.3,0.1-2.5,0.2-3.6c0.9-7.6,3.1-13.3,6.7-17.3C526.1,55.1,527.6,54.3,529.3,54.3L529.3,54.3z M524.9,95.6l-0.6,0.2
				c-2.8,1-4.9,2.1-6.3,3.4c-1.4,1.3-2.2,2.7-2.2,4.2c0,1.3,0.7,2.3,1.8,2.9l0,0h0c0.4,0.2,1,0.3,1.7,0.3c0.9,0,1.8-0.7,2.7-2
				c1-1.3,1.7-3.2,2.3-5.8v0L524.9,95.6z M523.9,96.9l-0.3,1.7c-0.5,2.5-1.3,4.4-2.1,5.5c-0.9,1.2-1.6,1.7-2.1,1.7
				c-0.7,0-1.1-0.1-1.4-0.2h0c-1-0.5-1.4-1.2-1.4-2.2c0-1.3,0.6-2.5,1.9-3.6C519.7,98.8,521.6,97.8,523.9,96.9L523.9,96.9z"/>
		</g>
		<g id="g1009">
			<path id="path1011" class="st0" d="M597.3,76.4c-3.6,10.5-9.3,15.7-17.1,15.7c-5,0-7.8-2.6-8.3-7.8c-3.7,5.2-8,7.8-13,7.8
				c-4.9,0-8.3-2.4-10-7.3c-0.6-1.7-1-3.7-1-5.9c0-2.2,0.2-4.5,0.6-6.7c0.4-2.2,1-4.5,1.8-6.7c1.8-4.9,4.3-8.9,7.6-12.1
				c3.3-3.2,7.3-4.8,11.9-4.8c2.4,0,4.2,0.4,5.3,1.2c1.1,0.8,1.6,1.8,1.6,3.1v0.6l0.9-4.5h12.2L583.7,78c-0.2,1-0.4,1.9-0.4,2.7
				c0,2.4,1.2,3.7,3.5,3.7c3,0,5.3-2.7,6.9-8L597.3,76.4z M575.9,57.2c0-0.5-0.2-1.2-0.7-2c-0.5-0.8-1.5-1.2-3.1-1.2
				s-3.1,0.8-4.6,2.5c-3.6,4.1-5.9,9.9-6.8,17.5c-0.1,1.2-0.2,2.4-0.2,3.7c0,2.5,0.5,4.3,1.6,5.3c0.6,0.6,1.4,0.9,2.3,0.9
				c1.7,0,3.2-0.7,4.6-2c1.4-1.4,2.3-3.2,2.9-5.5L575.9,57.2z"/>
			<path id="path1013" class="st0" d="M569.8,48.3c-4.7,0-8.8,1.6-12.2,4.9c-3.3,3.2-5.9,7.3-7.7,12.2c-0.8,2.2-1.4,4.5-1.8,6.7
				c-0.4,2.2-0.6,4.5-0.6,6.7c0,2.2,0.3,4.3,1,6.1c1.8,4.9,5.3,7.5,10.4,7.5c4.9,0,9.2-2.6,12.9-7.6c0.4,2.3,1,4.3,2.4,5.5
				c1.5,1.4,3.5,2.1,6.1,2.1c4,0,7.4-1.4,10.3-4c2.9-2.7,5.3-6.7,7.1-12l0.2-0.5h-0.5h-3.9l-0.1,0.3c-0.8,2.6-1.7,4.6-2.8,5.9
				s-2.3,1.9-3.7,1.9c-1.1,0-1.9-0.3-2.3-0.8c-0.5-0.5-0.8-1.3-0.8-2.5c0-0.8,0.1-1.7,0.4-2.6v0l6.2-29.3h-13l-0.7,3.4
				c-0.2-0.9-0.5-1.9-1.3-2.5c0,0,0,0,0,0C574.1,48.7,572.2,48.3,569.8,48.3L569.8,48.3z M569.8,49.1c2.4,0,4.1,0.4,5,1.2l0,0
				c1,0.7,1.5,1.6,1.5,2.8v0.6l0.7,0.1l0.9-4.2h11.5l-6,28.4c-0.3,1-0.4,1.9-0.4,2.8c0,1.3,0.3,2.3,1,3c0.7,0.7,1.7,1,2.9,1
				c1.6,0,3.1-0.7,4.3-2.1c1.1-1.3,2.1-3.3,2.8-5.9h2.8c-1.8,4.9-4,8.7-6.6,11.1c-2.8,2.6-6,3.8-9.8,3.8c-2.4,0-4.3-0.6-5.6-1.8
				s-2.1-3.1-2.4-5.6l-0.1-1l-0.6,0.8c-3.7,5.1-7.9,7.6-12.7,7.6c-4.8,0-8-2.3-9.7-7c-0.6-1.7-0.9-3.6-0.9-5.8
				c0-2.2,0.2-4.4,0.6-6.6c0.4-2.2,1-4.4,1.8-6.6c1.8-4.8,4.3-8.8,7.5-11.9C561.3,50.6,565.2,49.1,569.8,49.1L569.8,49.1z
				 M572.1,53.6c-1.7,0-3.4,0.9-4.9,2.7c-3.7,4.1-5.9,10.1-6.9,17.7c-0.1,1.2-0.2,2.4-0.2,3.7c0,2.6,0.5,4.4,1.7,5.5
				c0.7,0.7,1.5,1,2.5,1c1.8,0,3.4-0.7,4.9-2.1v0c1.4-1.4,2.4-3.3,3-5.7v0l4.1-19.2v0c0-0.6-0.3-1.4-0.8-2.2
				C574.9,54,573.7,53.6,572.1,53.6L572.1,53.6z M572.1,54.3c1.5,0,2.4,0.4,2.7,1.1v0l0,0c0.5,0.8,0.7,1.4,0.7,1.8l-4.1,19.1
				c-0.5,2.3-1.4,4-2.8,5.3c0,0,0,0,0,0c0,0,0,0,0,0c-1.3,1.3-2.8,1.9-4.3,1.9c-0.8,0-1.5-0.3-2-0.8l0,0c-0.9-0.9-1.5-2.5-1.5-5
				c0-1.3,0.1-2.5,0.2-3.6c0.9-7.6,3.1-13.3,6.7-17.3C569.2,55.1,570.6,54.3,572.1,54.3L572.1,54.3z"/>
		</g>
		<g id="g1015">
			<path id="path1017" class="st0" d="M646.3,92.1c-7.2,0-10.9-3.2-10.9-9.6c0-2.3,0.6-6,1.9-11.1c1.3-5.1,1.9-8.6,1.9-10.5
				c0-2.9-1-4.4-3.1-4.4c-2,0-3.9,1.6-5.5,4.9c-0.5,0.9-0.9,1.9-1.2,3l-5.8,27.3h-12.2l6.2-29.3c0.2-0.7,0.2-1.4,0.2-2.1
				c0-2.5-0.8-3.7-2.5-3.7c-1.7,0-3.1,0.8-4.3,2.4c-1.2,1.5-2,3.4-2.7,5.6l-5.8,27.3h-12.2l9-42.5h12.2l-0.9,4.4
				c2.8-3.2,6.3-4.8,10.4-4.8c5,0,7.9,2.4,8.7,7.3c3.1-4.8,7.1-7.2,11.8-7.2c2.7,0,4.9,0.7,6.7,2.2c1.8,1.5,2.7,3.7,2.7,6.6
				c0,2.9-0.5,6.2-1.4,10l-2,8.3c-0.4,1.8-0.7,3.3-0.7,4.4c0,2.4,1,3.7,3.1,3.7c1.9,0,3.4-0.6,4.4-1.8s2-3.1,3-5.7h3.6
				c-2.1,6.3-4.8,10.6-8,13.2C651,91.3,648.7,92.1,646.3,92.1L646.3,92.1z"/>
			<path id="path1019" class="st0" d="M621.2,48.3c-3.8,0-7.1,1.6-9.8,4.3l0.8-3.9h-13L590,92h13l5.8-27.5v0
				c0.6-2.1,1.5-3.9,2.6-5.4c1.1-1.5,2.4-2.2,4-2.2c0.8,0,1.2,0.2,1.6,0.8c0.4,0.5,0.6,1.4,0.6,2.6c0,0.7-0.1,1.4-0.2,2v0L611,92h13
				l5.8-27.5v0l0,0c0.3-1,0.7-2,1.1-2.9l0,0c0.8-1.6,1.6-2.8,2.5-3.5c0.9-0.8,1.7-1.1,2.7-1.1c0.9,0,1.6,0.3,2,0.9
				c0.4,0.6,0.7,1.6,0.7,3.1c0,1.9-0.6,5.4-1.9,10.5c-1.3,5.1-1.9,8.8-1.9,11.2c0,3.3,0.9,5.8,2.8,7.5c1.9,1.7,4.7,2.5,8.4,2.5
				c2.5,0,4.9-0.9,7.2-2.7c3.3-2.6,6-7,8.1-13.3l0.2-0.5h-4.4l-0.1,0.2c-1,2.6-2,4.4-3,5.6c-0.9,1.1-2.3,1.7-4.1,1.7
				c-1,0-1.6-0.3-2-0.8c-0.4-0.5-0.7-1.3-0.7-2.5c0-1.1,0.2-2.5,0.7-4.3v0l2-8.3v0c0.9-3.8,1.4-7.1,1.4-10c0-3-0.9-5.3-2.8-6.8
				c-1.9-1.6-4.2-2.3-7-2.3c-4.7,0-8.6,2.4-11.7,7c-0.5-2.2-1.2-4-2.6-5.1C625.8,48.9,623.8,48.3,621.2,48.3L621.2,48.3z
				 M621.2,49.1c2.4,0,4.3,0.6,5.7,1.7c1.4,1.1,2.3,2.9,2.7,5.3l0.2,1l0.5-0.8c3.1-4.7,6.9-7.1,11.5-7.1c2.6,0,4.8,0.7,6.5,2.2
				c1.7,1.4,2.6,3.5,2.6,6.3c0,2.8-0.5,6.1-1.4,9.9l-2,8.3c-0.4,1.8-0.7,3.3-0.7,4.5c0,1.3,0.3,2.3,0.9,3c0.6,0.7,1.5,1,2.6,1
				c2,0,3.6-0.7,4.7-2c1-1.2,2-3.1,3-5.5h2.8c-2.1,5.9-4.6,10.1-7.6,12.5c-2.2,1.7-4.4,2.5-6.7,2.5c-3.6,0-6.2-0.8-7.9-2.3
				s-2.6-3.8-2.6-6.9c0-2.3,0.6-6,1.9-11c1.3-5.1,1.9-8.6,1.9-10.6c0-1.5-0.3-2.7-0.8-3.5c-0.6-0.8-1.5-1.3-2.6-1.3
				c-1.1,0-2.2,0.5-3.2,1.3c-1,0.9-1.8,2.1-2.7,3.8c-0.5,0.9-0.9,2-1.2,3.1l0,0l-5.7,27h-11.5l6.1-28.9c0.2-0.7,0.3-1.4,0.3-2.2
				c0-1.3-0.2-2.3-0.7-3c-0.5-0.7-1.3-1.1-2.2-1.1c-1.8,0-3.3,0.9-4.6,2.5h0c-1.2,1.6-2.1,3.5-2.7,5.7l0,0l-5.7,27h-11.5l8.8-41.8
				h11.5l-1.1,5.3l0.9-1.1C613.9,50.6,617.2,49.1,621.2,49.1L621.2,49.1z"/>
		</g>
		<g id="g1021">
			<path id="path1023" class="st0" d="M669,77c0,4.7,1.8,7.1,5.4,7.1c1.6,0,3.3-0.5,5.1-1.4c1.9-0.9,3.5-2,4.8-3.2
				c-1.5,8.4-6.4,12.6-14.7,12.6c-4,0-7.2-1-9.6-3.1c-2.4-2.1-3.6-5.6-3.6-10.4c0-6.5,1.6-12.7,4.9-18.8c2.5-4.6,5.9-7.9,10.3-9.9
				c2.2-1.1,4.6-1.6,7-1.6c3.9,0,6.6,0.7,8,2.2c1.4,1.5,2.1,3.4,2.1,5.9c0,4.9-2,9-5.9,12.4c-3.9,3.4-8.4,5.2-13.7,5.6
				C669.1,75.2,669,76.1,669,77z M682.2,55.9c0-2-0.7-3.1-2.1-3.1c-2.7,0.1-5.3,3.2-7.8,9.4c-1.1,2.6-1.9,5.3-2.5,8.1
				c3.3-0.1,6.1-1.6,8.6-4.4C680.9,63.1,682.2,59.8,682.2,55.9L682.2,55.9z"/>
			<path id="path1025" class="st0" d="M678.6,48c-2.5,0-4.8,0.5-7.1,1.6c-4.4,2-7.9,5.4-10.5,10c-3.3,6.1-5,12.4-5,19
				c0,4.9,1.2,8.5,3.7,10.7c2.5,2.1,5.8,3.2,9.8,3.2c4.2,0,7.6-1.1,10.1-3.2c2.5-2.2,4.2-5.4,4.9-9.6l0.2-1.1l-0.8,0.7
				c-1.3,1.2-2.9,2.2-4.7,3.1c-1.8,0.9-3.4,1.3-4.9,1.3c-1.7,0-2.9-0.5-3.7-1.6c-0.8-1.1-1.3-2.8-1.3-5.1c0-0.8,0.1-1.6,0.2-2.3
				c5.2-0.4,9.7-2.2,13.6-5.6c4-3.4,6-7.7,6-12.7c0-2.5-0.7-4.6-2.2-6.2C685.4,48.7,682.6,48,678.6,48z M678.6,48.7
				c3.9,0,6.4,0.8,7.7,2.1h0v0c1.3,1.4,2,3.2,2,5.6c0,4.8-1.9,8.8-5.7,12.1c-3.8,3.3-8.3,5.1-13.5,5.5l-0.3,0l0,0.3
				c-0.1,0.8-0.2,1.7-0.2,2.6c0,2.4,0.5,4.2,1.4,5.5c1,1.3,2.5,1.9,4.3,1.9c1.6,0,3.4-0.5,5.3-1.4c1.5-0.7,2.8-1.7,4-2.6
				c-0.8,3.6-2.2,6.4-4.4,8.3c-2.4,2-5.6,3.1-9.6,3.1c-3.9,0-7-1-9.3-3c-2.3-2-3.5-5.3-3.5-10.1c0-6.4,1.6-12.6,4.9-18.6
				c2.5-4.6,5.8-7.8,10.1-9.7h0C674,49.3,676.3,48.7,678.6,48.7L678.6,48.7z M680.1,52.5c-1.5,0.1-2.9,1-4.2,2.6
				c-1.3,1.6-2.6,4-3.9,7c-1.1,2.6-1.9,5.4-2.6,8.2l-0.1,0.5l0.5,0c3.4-0.1,6.4-1.6,8.9-4.5c2.6-2.9,3.9-6.4,3.9-10.3
				c0-1.1-0.2-1.9-0.6-2.5C681.6,52.8,680.9,52.5,680.1,52.5L680.1,52.5L680.1,52.5z M680.1,53.2c0.6,0,1,0.2,1.3,0.6
				c0.3,0.4,0.5,1.1,0.5,2.1c0,3.8-1.2,7-3.7,9.8c-2.3,2.6-4.9,3.9-7.8,4.1c0.6-2.6,1.4-5.1,2.3-7.5c1.2-3,2.5-5.3,3.7-6.9
				C677.7,54,678.9,53.3,680.1,53.2z"/>
		</g>
	</g>
	<g id="text835-2">
		<g id="g1027">
			<path id="path1029" class="st1" d="M-0.1,87.2c-0.6,3-0.8,5.6-0.8,7.7c0,2.2,0.4,3.8,1.2,4.9c-3.3,0-5.7-0.3-7.1-1
				c-2.9-1.4-4.3-4.1-4.3-8c0-5.9,2.5-14.1,7.4-24.7c1.5-3.3,3.3-6.6,5.1-9.8c-2.7,0.2-4.8,0.6-6.6,1.2c-1.7,0.6-2.8,1.7-3.4,3.2
				c0.2,0,0.5,0.3,0.7,0.9c0.2,0.6,0.4,1.2,0.4,2.1c0,0.8-0.5,1.5-1.4,2.2c-0.9,0.6-1.9,0.9-2.9,0.9c-1.9,0-3.3-0.4-4.3-1.3
				c-1-0.9-1.5-2.1-1.5-3.6c0-2.9,1.6-5.4,4.9-7.5c3.3-2,7.5-3.1,12.4-3.1c1.1,0,2.6,0.1,4.4,0.2c4.6-7.2,9.5-13.2,14.6-17.9
				c5.2-4.8,10.2-7.1,14.9-7.1c2.9,0,5.1,0.4,6.7,1.2L27.2,90.1H14.9l6.5-30.8c-3.8-1.7-7.6-2.7-11.4-3.1C5,67.5,1.6,77.8-0.1,87.2
				L-0.1,87.2z M11.9,52.5c4,0.8,7.4,1.8,10.4,2.9l4.9-23.1C22.3,35,17.2,41.8,11.9,52.5z"/>
			<path id="path1031" class="st1" d="M33.8,26c-4.9,0-10,2.4-15.2,7.2C13.5,37.9,8.6,43.9,4,51c-1.7-0.2-3.2-0.2-4.3-0.2
				c-5,0-9.2,1-12.6,3.1v0c-3.4,2.1-5.1,4.7-5.1,7.8c0,1.6,0.5,2.9,1.6,3.8l0,0l0,0c1.1,0.9,2.6,1.4,4.5,1.4c1.1,0,2.1-0.3,3.1-0.9
				h0c1-0.7,1.6-1.5,1.6-2.5c0-0.9-0.1-1.6-0.4-2.2v0C-7.7,61-7.8,60.8-8,60.6c0,0-0.1,0-0.1,0c0.6-1.2,1.5-2.2,3-2.7
				c1.5-0.6,3.5-0.9,5.7-1.1c-1.7,3-3.3,6.1-4.8,9.2c-4.9,10.6-7.4,18.9-7.4,24.9c0,4,1.5,6.8,4.5,8.3c1.5,0.7,3.9,1.1,7.2,1.1h0.7
				l-0.4-0.6c-0.7-1-1.1-2.5-1.1-4.6c0-2.1,0.3-4.7,0.8-7.7C1.9,78,5.3,67.8,10.3,56.6C13.9,57,17.5,58,21,59.5l-6.5,30.9h13
				l13.4-63.1l-0.3-0.1C39,26.4,36.7,26,33.8,26L33.8,26z M33.8,26.7c2.7,0,4.8,0.4,6.3,1.1L26.9,89.7H15.4l6.5-30.7l-0.3-0.1
				c-3.8-1.7-7.6-2.8-11.5-3.1l-0.3,0L9.7,56C4.6,67.3,1.2,77.7-0.5,87.1c-0.6,3-0.8,5.6-0.8,7.8c0,1.9,0.4,3.3,1.1,4.4
				c-3,0-5.3-0.3-6.4-0.9c-2.8-1.4-4.1-3.9-4.1-7.6c0-5.8,2.4-14,7.4-24.6c1.5-3.3,3.2-6.6,5.1-9.8L2,55.8l-0.7,0
				c-2.7,0.2-4.9,0.6-6.7,1.3c-1.8,0.7-3,1.8-3.6,3.4L-9.2,61h0.5c0,0,0,0,0.1,0.1c0.1,0.1,0.2,0.3,0.3,0.6v0
				c0.2,0.5,0.3,1.1,0.3,1.9c0,0.7-0.4,1.3-1.2,1.8c-0.9,0.5-1.7,0.8-2.7,0.8c-1.8,0-3.1-0.4-4-1.2c-0.9-0.8-1.3-1.9-1.3-3.3
				c0-2.8,1.5-5.1,4.8-7.2c3.3-2,7.3-3,12.2-3c1.1,0,2.6,0.1,4.4,0.2l0.2,0l0.1-0.2c4.6-7.2,9.4-13.2,14.5-17.9
				C24.2,29.1,29.1,26.7,33.8,26.7z M27.7,31.7L27,32c-5,2.7-10.1,9.5-15.5,20.3l-0.2,0.4l0.5,0.1c3.9,0.8,7.4,1.8,10.3,2.9l0.4,0.2
				L27.7,31.7z M26.6,33.5L22,55c-2.8-1.1-5.9-2-9.5-2.7C17.4,42.4,22.1,36.3,26.6,33.5z"/>
		</g>
		<g id="g1033">
			<path id="path1035" class="st1" d="M64.7,74.9C61.1,85.4,55,90.6,46.4,90.6c-2.2,0-4.2-0.8-6-2.4c-1.7-1.6-2.6-4.2-2.6-7.8
				c0-1.6,0.2-3.5,0.7-5.6l9.1-42.6l12.6-1.7l-9.8,45.9c-0.2,1-0.3,2-0.3,3c0,1.9,1.1,2.9,3.4,2.9c1.7,0,3.2-0.7,4.6-2.2
				c1.4-1.4,2.5-3.2,3.1-5.4L64.7,74.9z"/>
			<path id="path1037" class="st1" d="M60.6,30.1L47.2,32l-9.1,42.8h0c-0.4,2.1-0.7,4-0.7,5.6c0,3.6,0.9,6.3,2.7,8l0,0
				c1.8,1.7,3.9,2.5,6.3,2.5c4.4,0,8.1-1.3,11.2-4c3.1-2.7,5.6-6.7,7.4-12l0.2-0.5h-0.5h-3.9l-0.1,0.3c-0.6,2.1-1.6,3.8-3,5.2h0v0
				c-1.4,1.4-2.8,2-4.3,2c-1.1,0-1.9-0.2-2.3-0.6c-0.5-0.4-0.7-1-0.7-1.9c0-1,0.1-2,0.3-3L60.6,30.1z M59.7,31L50,76.4
				c-0.2,1-0.3,2.1-0.3,3.1c0,1,0.3,1.9,1,2.4c0.7,0.6,1.6,0.8,2.8,0.8c1.8,0,3.4-0.8,4.9-2.3c1.4-1.4,2.4-3.2,3-5.2h2.8
				c-1.8,4.9-4.1,8.7-7,11.1c-3,2.6-6.5,3.8-10.7,3.8c-2.2,0-4.1-0.8-5.8-2.3c-1.6-1.5-2.5-4-2.5-7.5c0-1.6,0.2-3.4,0.7-5.5l9-42.3
				L59.7,31z"/>
		</g>
		<g id="g1039">
			<path id="path1041" class="st1" d="M96.7,74.9c-6.4,10.5-14.2,15.7-23.4,15.7c-4,0-7.3-1-9.7-3.1c-2.4-2.1-3.6-5.6-3.6-10.4
				c0-6.5,1.6-12.7,4.9-18.8c2.5-4.6,5.9-7.9,10.3-9.9c2.2-1.1,4.6-1.6,7-1.6c3.9,0,6.6,0.7,8,2.2c1.4,1.5,2.1,3.4,2.1,5.9
				c0,4.8-2,9-5.9,12.4c-3.9,3.4-8.5,5.2-13.7,5.6c-0.1,1.6-0.2,2.7-0.2,3.4c0,2.9,0.5,4.8,1.5,5.8c1,0.9,2.5,1.4,4.3,1.4
				c3.3,0,6-0.7,8.2-2.2c2.2-1.5,4.6-3.6,7.1-6.4H96.7z M85.8,54.4c0-2-0.7-3.1-2.1-3.1c-2.1,0.1-4.1,1.9-6,5.5
				c-1.9,3.6-3.3,7.6-4.2,12c3.3-0.2,6.1-1.7,8.6-4.6C84.6,61.5,85.8,58.2,85.8,54.4L85.8,54.4z"/>
			<path id="path1043" class="st1" d="M82.3,46.5c-2.5,0-4.8,0.5-7.1,1.6c-4.4,2-7.9,5.4-10.5,10v0c-3.3,6.1-5,12.4-5,19
				c0,4.9,1.2,8.5,3.7,10.7c2.5,2.1,5.8,3.2,9.9,3.2c9.4,0,17.3-5.4,23.7-15.9l0.3-0.6h-0.7h-3.1l-0.1,0.1c-2.5,2.8-4.8,4.9-7,6.4
				c-2.1,1.4-4.8,2.1-8,2.1c-1.8,0-3.1-0.4-4.1-1.3C73.5,81,73,79.2,73,76.3c0-0.6,0.1-1.7,0.2-3.1c5.2-0.4,9.7-2.2,13.6-5.6
				c4-3.5,6-7.7,6-12.7c0-2.5-0.7-4.6-2.2-6.2C89,47.2,86.2,46.5,82.3,46.5L82.3,46.5z M82.3,47.2c3.9,0,6.4,0.8,7.7,2.1l0,0
				c1.3,1.4,2,3.2,2,5.6c0,4.7-1.9,8.7-5.7,12.1c-3.8,3.3-8.3,5.1-13.5,5.5l-0.3,0l0,0.3c-0.1,1.6-0.2,2.7-0.2,3.4
				c0,2.9,0.5,5,1.7,6v0h0c1.1,1,2.6,1.5,4.6,1.5c3.3,0,6.1-0.7,8.4-2.2c2.2-1.5,4.6-3.6,7-6.4h2c-6.2,10-13.7,15-22.6,15
				c-4,0-7.1-1-9.4-3c-2.3-2-3.5-5.3-3.5-10.1c0-6.4,1.6-12.6,4.9-18.6c2.5-4.6,5.8-7.8,10.1-9.7h0C77.6,47.8,79.9,47.2,82.3,47.2
				L82.3,47.2z M83.7,51c-1.1,0-2.3,0.6-3.3,1.5s-2.1,2.4-3,4.2c-2,3.6-3.4,7.7-4.2,12.1L73,69.3l0.5,0c3.4-0.2,6.3-1.8,8.8-4.7
				c2.5-2.9,3.8-6.3,3.8-10.1c0-1.1-0.2-1.9-0.6-2.5S84.5,51,83.7,51L83.7,51L83.7,51z M83.7,51.7c0.6,0,1,0.2,1.3,0.6
				c0.3,0.4,0.5,1.1,0.5,2.1c0,3.7-1.2,6.9-3.6,9.6c-2.2,2.6-4.8,3.9-7.7,4.3c0.9-4.1,2.1-7.9,3.9-11.3v0c1-1.8,1.9-3.1,2.9-4
				C81.9,52.2,82.8,51.7,83.7,51.7L83.7,51.7z"/>
		</g>
		<g id="g1045">
			<path id="path1047" class="st1" d="M120.1,74.9c-3.7,10.5-9.8,15.7-18.3,15.7c-2.2,0-4.2-0.8-6-2.4c-1.7-1.6-2.6-4.2-2.6-7.8
				c0-1.6,0.2-3.5,0.7-5.6l9.1-42.6l12.6-1.7l-9.8,45.9c-0.2,1-0.3,2-0.3,3c0,1.9,1.1,2.9,3.4,2.9c1.7,0,3.2-0.7,4.6-2.2
				c1.4-1.4,2.5-3.2,3.1-5.4L120.1,74.9z"/>
			<path id="path1049" class="st1" d="M115.9,30.1L102.6,32l-9.1,42.8c-0.4,2.1-0.7,4-0.7,5.6c0,3.6,0.9,6.3,2.7,8v0
				c1.8,1.7,3.9,2.5,6.3,2.5c4.4,0,8.1-1.3,11.2-4c3.1-2.7,5.6-6.7,7.4-12l0.2-0.5h-0.5h-3.9l-0.1,0.3c-0.6,2.1-1.6,3.8-3,5.2h0v0
				c-1.4,1.4-2.8,2-4.3,2c-1.1,0-1.9-0.2-2.3-0.6c-0.5-0.4-0.7-1-0.7-1.9c0-1,0.1-2,0.3-3L115.9,30.1z M115,31l-9.6,45.4
				c-0.2,1-0.3,2.1-0.3,3.1c0,1,0.3,1.9,1,2.4c0.7,0.6,1.6,0.8,2.8,0.8c1.8,0,3.4-0.8,4.9-2.3l0,0c1.4-1.4,2.4-3.2,3-5.2h2.8
				c-1.8,4.9-4.1,8.7-7,11.1c-3,2.6-6.5,3.8-10.7,3.8c-2.1,0-4.1-0.8-5.8-2.3c-1.6-1.5-2.5-4-2.5-7.5c0-1.6,0.2-3.4,0.7-5.5l9-42.3
				L115,31z"/>
		</g>
		<g id="g1051">
			<path id="path1053" class="st1" d="M127.9,75.5c0,4.7,1.8,7.1,5.4,7.1c1.6,0,3.3-0.5,5.1-1.4c1.9-0.9,3.5-2,4.8-3.2
				c-1.5,8.4-6.4,12.6-14.7,12.6c-4,0-7.2-1-9.6-3.1c-2.4-2.1-3.6-5.6-3.6-10.4c0-6.5,1.6-12.7,4.9-18.8c2.5-4.6,5.9-7.9,10.3-9.9
				c2.2-1.1,4.6-1.6,7-1.6c3.9,0,6.6,0.7,8,2.2c1.4,1.5,2.1,3.4,2.1,5.9c0,4.9-2,9-5.9,12.4c-3.9,3.4-8.4,5.2-13.7,5.6
				C127.9,73.7,127.9,74.6,127.9,75.5L127.9,75.5z M141.1,54.4c0-2-0.7-3.1-2.1-3.1c-2.7,0.1-5.3,3.2-7.8,9.4
				c-1.1,2.6-1.9,5.3-2.5,8.1c3.3-0.1,6.1-1.6,8.6-4.4C139.8,61.6,141.1,58.3,141.1,54.4L141.1,54.4z"/>
			<path id="path1055" class="st1" d="M137.5,46.5c-2.5,0-4.8,0.5-7.1,1.6c-4.4,2-7.9,5.4-10.5,10v0c-3.3,6.1-5,12.4-5,19
				c0,4.9,1.2,8.5,3.7,10.7h0c2.5,2.1,5.8,3.2,9.8,3.2c4.2,0,7.6-1.1,10.1-3.2c2.5-2.2,4.2-5.4,4.9-9.6l0.2-1.1l-0.8,0.7
				c-1.3,1.2-2.9,2.2-4.7,3.1c-1.8,0.9-3.4,1.3-4.9,1.3c-1.7,0-2.9-0.5-3.7-1.6c-0.8-1.1-1.3-2.8-1.3-5.1c0-0.8,0.1-1.6,0.2-2.3
				c5.2-0.4,9.7-2.2,13.6-5.6c4-3.4,6-7.7,6-12.7c0-2.5-0.7-4.6-2.2-6.2C144.2,47.2,141.5,46.5,137.5,46.5L137.5,46.5z M137.5,47.2
				c3.9,0,6.4,0.8,7.7,2.1v0c1.3,1.4,2,3.2,2,5.6c0,4.8-1.9,8.8-5.7,12.1c-3.8,3.3-8.3,5.1-13.5,5.5l-0.3,0l0,0.3
				c-0.1,0.8-0.2,1.7-0.2,2.6c0,2.4,0.5,4.2,1.4,5.5c1,1.3,2.5,1.9,4.3,1.9c1.6,0,3.4-0.5,5.3-1.4c1.5-0.8,2.8-1.7,4-2.6
				c-0.8,3.6-2.2,6.4-4.4,8.3c-2.4,2-5.6,3.1-9.6,3.1c-3.9,0-7-1-9.3-3c-2.3-2-3.5-5.3-3.5-10.1c0-6.4,1.6-12.6,4.9-18.6
				c2.5-4.6,5.9-7.8,10.1-9.7h0C132.9,47.8,135.1,47.2,137.5,47.2L137.5,47.2z M138.9,51c-1.5,0.1-2.9,1-4.2,2.6
				c-1.3,1.6-2.6,4-3.9,7c-1.1,2.6-1.9,5.4-2.5,8.2l-0.1,0.5l0.5,0c3.4-0.1,6.4-1.6,8.9-4.5c2.6-2.9,3.9-6.4,3.9-10.3
				c0-1.1-0.2-1.9-0.6-2.5C140.4,51.3,139.7,51,138.9,51L138.9,51L138.9,51z M139,51.7c0.6,0,1,0.2,1.3,0.6c0.3,0.4,0.5,1.1,0.5,2.1
				c0,3.8-1.2,7-3.7,9.8v0c-2.3,2.6-4.9,3.9-7.8,4.1c0.6-2.6,1.4-5.1,2.3-7.5c1.2-3,2.5-5.3,3.7-6.9C136.5,52.5,137.8,51.8,139,51.7
				L139,51.7z"/>
		</g>
		<g id="g1057">
			<path id="path1059" class="st1" d="M156.3,42.4l5.2-16.1h8.9l-7.8,16.1H156.3z"/>
			<path id="path1061" class="st1" d="M161.2,26l-5.4,16.8h0.5h6.6L171,26H161.2z M161.8,26.7h8L162.4,42h-5.6L161.8,26.7z"/>
		</g>
		<g id="g1063">
			<path id="path1065" class="st1" d="M195.2,45c0.2,5.3,0.4,9.8,0.7,13.3l1,13.5c0.1,1.3,0.2,2.8,0.2,4.4c0,1.6-0.3,3.2-0.8,4.6
				c-0.5,1.4-1.2,2.7-2.1,3.8c-1.6,2-3.7,3.6-6.3,4.5c-2.6,0.9-5.1,1.4-7.5,1.4c-4.2,0-7.4-1.1-9.5-3.2c-2.2-2.2-3.2-4.5-3.2-6.9
				c0-2.5,0.5-4.4,1.4-5.7s2-2.3,3.1-2.9c4-7.1,7.5-15.5,10.5-25.2L195.2,45z M176.6,83.9c5.4,0,8.1-2.6,8.1-7.9
				c0-1.5-0.1-3.2-0.3-5.2l-0.5-4.9c-0.3-3.1-0.6-6.5-0.8-10.1c-1.4,4.6-3.7,10-6.9,16.1c1.3,0.6,2,1.5,2,2.7c0,1.2-0.3,2.2-1,3.1
				c-0.7,0.9-1.6,1.3-2.7,1.3c-1.1,0-1.9-0.4-2.2-1.1C172.2,81.9,173.7,83.9,176.6,83.9z"/>
			<path id="path1067" class="st1" d="M195.6,44.6l-0.4,0l-12.8,1.7l-0.1,0.2c-3,9.6-6.5,18-10.4,25.1c0,0,0,0,0,0
				c-1.1,0.6-2.2,1.5-3.1,2.8c-1,1.4-1.5,3.4-1.5,5.9c0,2.5,1.1,5,3.3,7.2c2.2,2.2,5.5,3.3,9.8,3.3c2.5,0,5-0.5,7.6-1.4h0
				c2.6-1,4.8-2.5,6.5-4.6c0.9-1.1,1.6-2.4,2.1-3.9v0c0.5-1.5,0.8-3.1,0.8-4.8c0-1.6-0.1-3.1-0.2-4.5l-1-13.5v0
				c-0.2-3.6-0.4-8-0.7-13.3L195.6,44.6z M194.9,45.4c0.2,5.1,0.4,9.5,0.6,12.9v0l1,13.5c0.1,1.3,0.2,2.8,0.2,4.4
				c0,1.6-0.3,3.1-0.8,4.5v0c-0.5,1.4-1.2,2.6-2,3.7l0,0c-1.6,2-3.6,3.5-6.1,4.4c-2.5,0.9-5,1.4-7.3,1.4c-4.1,0-7.2-1.1-9.3-3.1
				c-2.1-2.1-3.1-4.3-3.1-6.7c0-2.4,0.5-4.2,1.3-5.5c0.9-1.3,1.9-2.2,3-2.7l0.1-0.1l0.1-0.1c4-7.1,7.4-15.5,10.4-25L194.9,45.4z
				 M182.8,55.8c-1.4,4.6-3.7,9.9-6.9,16l-0.2,0.3l0.4,0.2c1.2,0.6,1.7,1.3,1.7,2.4c0,1.1-0.3,2.1-1,2.9c-0.6,0.8-1.4,1.1-2.4,1.1
				c-1.1,0-1.6-0.3-1.9-0.9l-0.7,0.2c0,0.1,0,0.1,0,0.2c0,0,0,0,0,0c0,1.9,0.4,3.5,1.1,4.5c0.8,1.1,2.1,1.6,3.6,1.6
				c2.8,0,4.9-0.7,6.4-2.1s2.1-3.5,2.1-6.2c0-1.5-0.1-3.2-0.3-5.2l-0.5-4.8v0c-0.3-3.1-0.6-6.5-0.8-10.1L182.8,55.8z M182.9,57.4
				c0.2,3,0.4,5.9,0.7,8.6l0.5,4.9v0c0.2,2,0.3,3.7,0.3,5.1c0,2.6-0.7,4.4-1.9,5.6c-1.3,1.2-3.2,1.9-5.8,1.9c-1.4,0-2.4-0.4-3-1.3
				c-0.6-0.8-0.8-2.1-0.9-3.6c0.5,0.4,0.9,0.9,1.7,0.9c1.3,0,2.3-0.5,3-1.4c0.7-0.9,1.1-2.1,1.1-3.3c0-1.2-0.8-2.1-1.9-2.7
				C179.5,66.5,181.5,61.7,182.9,57.4L182.9,57.4z"/>
		</g>
		<g id="g1069">
			<path id="path1071" class="st1" d="M268.2,90.6c-7.2,0-10.9-3.2-10.9-9.6c0-2.3,0.6-6,1.9-11.1s1.9-8.6,1.9-10.5
				c0-2.9-1-4.4-3.1-4.4s-3.9,1.6-5.5,4.9c-0.5,0.9-0.9,1.9-1.2,3l-5.8,27.3h-12.2l6.2-29.3c0.2-0.7,0.2-1.4,0.2-2.1
				c0-2.5-0.8-3.7-2.5-3.7c-1.7,0-3.1,0.8-4.3,2.4c-1.2,1.5-2,3.4-2.7,5.6l-5.8,27.3h-12.2l9-42.5h12.2l-0.9,4.4
				c2.8-3.2,6.3-4.8,10.4-4.8c5,0,7.9,2.4,8.7,7.3c3.1-4.8,7.1-7.2,11.8-7.2c2.7,0,4.9,0.7,6.7,2.2c1.8,1.5,2.7,3.7,2.7,6.6
				c0,2.9-0.5,6.2-1.4,10l-2,8.3c-0.4,1.8-0.7,3.3-0.7,4.4c0,2.4,1,3.7,3.1,3.7c1.9,0,3.4-0.6,4.4-1.8s2-3.1,3-5.7h3.6
				c-2.1,6.3-4.8,10.6-8,13.2C273,89.8,270.7,90.6,268.2,90.6L268.2,90.6z"/>
			<path id="path1073" class="st1" d="M243.2,46.8c-3.8,0-7.1,1.6-9.8,4.3l0.8-3.9h-13L212,90.5h13l5.8-27.5v0
				c0.6-2.1,1.5-3.9,2.6-5.4c1.1-1.5,2.4-2.2,4-2.2c0.8,0,1.2,0.2,1.6,0.8c0.4,0.5,0.6,1.4,0.6,2.6c0,0.7-0.1,1.4-0.2,2v0L233,90.5
				h13l5.8-27.5v0l0,0c0.3-1,0.7-2,1.1-2.9v0c0.8-1.6,1.6-2.8,2.5-3.5c0.9-0.8,1.7-1.1,2.7-1.1c0.9,0,1.6,0.3,2,0.9
				c0.4,0.6,0.7,1.6,0.7,3.1c0,1.9-0.6,5.4-1.9,10.5c-1.3,5.1-1.9,8.8-1.9,11.2c0,3.3,0.9,5.8,2.8,7.5c1.9,1.7,4.7,2.5,8.4,2.5
				c2.5,0,4.9-0.9,7.2-2.7h0c3.3-2.6,6-7,8.1-13.3l0.2-0.5h-4.3l-0.1,0.2c-1,2.6-2,4.4-3,5.6c-0.9,1.1-2.3,1.7-4.1,1.7
				c-1,0-1.6-0.3-2.1-0.8c-0.4-0.5-0.7-1.3-0.7-2.5c0-1.1,0.2-2.5,0.7-4.3v0l2-8.3v0c0.9-3.8,1.4-7.1,1.4-10c0-3-0.9-5.3-2.8-6.8
				c-1.9-1.6-4.2-2.3-7-2.3c-4.7,0-8.6,2.4-11.7,7c-0.5-2.2-1.2-4-2.6-5.1C247.8,47.4,245.7,46.8,243.2,46.8L243.2,46.8z
				 M243.2,47.6c2.4,0,4.3,0.6,5.7,1.7s2.3,2.9,2.7,5.2l0.2,1l0.5-0.8c3.1-4.7,6.9-7,11.5-7c2.6,0,4.8,0.7,6.5,2.2
				c1.7,1.4,2.6,3.5,2.6,6.3c0,2.8-0.5,6.1-1.4,9.9l-2,8.3l0,0c-0.4,1.8-0.7,3.3-0.7,4.5c0,1.3,0.3,2.3,0.9,3c0.6,0.7,1.5,1,2.6,1
				c2,0,3.6-0.7,4.7-2c1-1.2,2-3.1,3-5.6h2.8c-2.1,5.9-4.6,10.1-7.6,12.5c-2.2,1.7-4.4,2.5-6.7,2.5c-3.6,0-6.2-0.8-7.9-2.3
				c-1.7-1.5-2.6-3.8-2.6-6.9c0-2.3,0.6-6,1.9-11c1.3-5.1,1.9-8.6,1.9-10.6c0-1.5-0.3-2.7-0.8-3.5c-0.6-0.8-1.5-1.3-2.6-1.3
				c-1.1,0-2.2,0.5-3.2,1.3s-1.8,2.1-2.7,3.8c-0.5,0.9-0.9,2-1.2,3.1l0,0l-5.7,27h-11.5l6.1-28.9c0.2-0.7,0.3-1.4,0.3-2.2
				c0-1.3-0.2-2.3-0.7-3c-0.5-0.7-1.3-1.1-2.2-1.1c-1.8,0-3.3,0.9-4.6,2.5c-1.2,1.6-2.1,3.5-2.7,5.7v0l-5.7,27h-11.5l8.9-41.7h11.5
				l-1.1,5.3l0.9-1.1C235.8,49.1,239.2,47.6,243.2,47.6z"/>
		</g>
		<g id="g1075">
			<path id="path1077" class="st1" d="M315.1,74.9c-6.4,10.5-14.2,15.7-23.4,15.7c-4,0-7.3-1-9.7-3.1c-2.4-2.1-3.6-5.6-3.6-10.4
				c0-6.5,1.6-12.7,4.9-18.8c2.5-4.6,5.9-7.9,10.3-9.9c2.2-1.1,4.6-1.6,7-1.6c3.9,0,6.6,0.7,8,2.2c1.4,1.5,2.1,3.4,2.1,5.9
				c0,4.8-2,9-5.9,12.4c-3.9,3.4-8.5,5.2-13.7,5.6c-0.1,1.6-0.2,2.7-0.2,3.4c0,2.9,0.5,4.8,1.5,5.8c1,0.9,2.5,1.4,4.3,1.4
				c3.3,0,6-0.7,8.2-2.2c2.2-1.5,4.6-3.6,7.1-6.4H315.1z M304.3,54.4c0-2-0.7-3.1-2.1-3.1c-2.1,0.1-4.1,1.9-6,5.5
				c-1.9,3.6-3.3,7.6-4.2,12c3.3-0.2,6.1-1.7,8.6-4.6C303,61.5,304.3,58.2,304.3,54.4L304.3,54.4z"/>
			<path id="path1079" class="st1" d="M300.7,46.5c-2.5,0-4.8,0.5-7.1,1.6c-4.4,2-7.9,5.4-10.5,10v0c-3.3,6.1-5,12.4-5,19
				c0,4.9,1.2,8.5,3.7,10.7c2.5,2.1,5.8,3.2,9.9,3.2c9.4,0,17.3-5.4,23.7-15.9l0.3-0.6h-0.7h-3.1l-0.1,0.1c-2.5,2.8-4.8,4.9-7,6.4
				c-2.1,1.4-4.8,2.1-8,2.1c-1.8,0-3.1-0.4-4.1-1.3c-0.9-0.8-1.4-2.6-1.4-5.5c0-0.6,0.1-1.7,0.2-3.1c5.2-0.4,9.7-2.2,13.6-5.6
				c4-3.5,6-7.7,6-12.7c0-2.5-0.7-4.6-2.2-6.2C307.4,47.2,304.7,46.5,300.7,46.5z M300.7,47.2c3.9,0,6.4,0.8,7.7,2.1l0,0
				c1.3,1.4,2,3.2,2,5.6c0,4.7-1.9,8.7-5.7,12.1c-3.8,3.3-8.3,5.1-13.5,5.5l-0.3,0l0,0.3c-0.1,1.6-0.2,2.7-0.2,3.4
				c0,2.9,0.5,5,1.7,6v0h0c1.1,1,2.6,1.5,4.6,1.5c3.3,0,6.1-0.7,8.4-2.2c2.2-1.5,4.6-3.6,7-6.4h2c-6.2,10-13.8,15-22.6,15
				c-4,0-7.1-1-9.4-3c-2.3-2-3.5-5.3-3.5-10.1c0-6.4,1.6-12.6,4.9-18.6c2.5-4.6,5.8-7.8,10.1-9.7h0
				C296.1,47.8,298.3,47.2,300.7,47.2L300.7,47.2z M302.1,51c-1.1,0-2.3,0.6-3.3,1.5c-1,1-2.1,2.4-3,4.2c-2,3.6-3.4,7.7-4.2,12.1
				l-0.1,0.5l0.5,0c3.4-0.2,6.3-1.8,8.8-4.7c2.5-2.9,3.8-6.3,3.8-10.1c0-1.1-0.2-1.9-0.6-2.5S302.9,51,302.1,51L302.1,51L302.1,51z
				 M302.1,51.7c0.6,0,1,0.2,1.3,0.6c0.3,0.4,0.5,1.1,0.5,2.1c0,3.7-1.2,6.9-3.6,9.6c-2.2,2.6-4.8,3.9-7.7,4.3
				c0.9-4.1,2.1-7.9,3.9-11.3v0c1-1.8,1.9-3.1,2.9-4C300.3,52.2,301.2,51.7,302.1,51.7L302.1,51.7z"/>
		</g>
		<g id="g1081">
			<path id="path1083" class="st1" d="M364.8,90.6c-7.2,0-10.9-3.2-10.9-9.6c0-2.3,0.6-6,1.9-11.1c1.3-5.1,1.9-8.6,1.9-10.5
				c0-2.9-1-4.4-3.1-4.4s-3.9,1.6-5.5,4.9c-0.5,0.9-0.9,1.9-1.2,3l-5.8,27.3H330l6.2-29.3c0.2-0.7,0.2-1.4,0.2-2.1
				c0-2.5-0.8-3.7-2.5-3.7c-1.7,0-3.1,0.8-4.3,2.4c-1.2,1.5-2,3.4-2.7,5.6l-5.8,27.3H309l9-42.5h12.2l-0.9,4.4
				c2.8-3.2,6.3-4.8,10.4-4.8c5,0,7.9,2.4,8.7,7.3c3.1-4.8,7.1-7.2,11.8-7.2c2.7,0,4.9,0.7,6.7,2.2c1.8,1.5,2.7,3.7,2.7,6.6
				c0,2.9-0.5,6.2-1.4,10l-2,8.3c-0.4,1.8-0.7,3.3-0.7,4.4c0,2.4,1,3.7,3.1,3.7c1.9,0,3.4-0.6,4.4-1.8c1-1.2,2-3.1,3-5.7h3.6
				c-2.1,6.3-4.8,10.6-8,13.2C369.5,89.8,367.2,90.6,364.8,90.6L364.8,90.6z"/>
			<path id="path1085" class="st1" d="M339.7,46.8c-3.8,0-7.1,1.6-9.8,4.3l0.8-3.9h-13l-9.2,43.3h13l5.8-27.5v0
				c0.6-2.1,1.5-3.9,2.6-5.4c1.1-1.5,2.4-2.2,4-2.2c0.8,0,1.2,0.2,1.6,0.8c0.4,0.5,0.6,1.4,0.6,2.6c0,0.7-0.1,1.4-0.2,2v0l-6.3,29.8
				h13l5.8-27.5v0l0,0c0.3-1,0.7-2,1.1-2.9v0c0.8-1.6,1.6-2.8,2.5-3.5c0.9-0.8,1.7-1.1,2.7-1.1c0.9,0,1.6,0.3,2,0.9
				c0.4,0.6,0.7,1.6,0.7,3.1c0,1.9-0.6,5.4-1.9,10.5c-1.3,5.1-1.9,8.8-1.9,11.2c0,3.3,0.9,5.8,2.8,7.5c1.9,1.7,4.7,2.5,8.4,2.5
				c2.5,0,4.9-0.9,7.2-2.7h0c3.3-2.6,6-7,8.1-13.3l0.2-0.5h-4.3l-0.1,0.2c-1,2.6-2,4.4-3,5.6c-0.9,1.1-2.3,1.7-4.1,1.7
				c-1,0-1.6-0.3-2-0.8c-0.4-0.5-0.7-1.3-0.7-2.5c0-1.1,0.2-2.5,0.7-4.3v0l2-8.3v0c0.9-3.8,1.4-7.1,1.4-10c0-3-0.9-5.3-2.8-6.8
				c-1.9-1.6-4.2-2.3-7-2.3c-4.7,0-8.6,2.4-11.7,7c-0.5-2.2-1.2-4-2.6-5.1C344.3,47.4,342.3,46.8,339.7,46.8L339.7,46.8z
				 M339.7,47.6c2.4,0,4.3,0.6,5.7,1.7c1.4,1.1,2.3,2.9,2.7,5.2l0.2,1l0.5-0.8c3.1-4.7,6.9-7,11.5-7c2.6,0,4.8,0.7,6.5,2.2
				c1.7,1.4,2.6,3.5,2.6,6.3c0,2.8-0.5,6.1-1.4,9.9l-2,8.3c-0.4,1.8-0.7,3.3-0.7,4.5c0,1.3,0.3,2.3,0.9,3c0.6,0.7,1.5,1,2.6,1
				c2,0,3.6-0.7,4.7-2c1-1.2,2-3.1,3-5.6h2.8c-2.1,5.9-4.6,10.1-7.6,12.5c-2.2,1.7-4.4,2.5-6.7,2.5c-3.6,0-6.2-0.8-7.9-2.3
				c-1.7-1.5-2.6-3.8-2.6-6.9c0-2.3,0.6-6,1.9-11c1.3-5.1,1.9-8.6,1.9-10.6c0-1.5-0.3-2.7-0.8-3.5c-0.6-0.8-1.5-1.3-2.6-1.3
				c-1.1,0-2.2,0.5-3.2,1.3s-1.8,2.1-2.7,3.8c-0.5,0.9-0.9,2-1.2,3.1v0l-5.7,27h-11.5l6.1-28.9c0.2-0.7,0.3-1.4,0.3-2.2
				c0-1.3-0.2-2.3-0.7-3c-0.5-0.7-1.3-1.1-2.2-1.1c-1.8,0-3.3,0.9-4.6,2.5c-1.2,1.6-2.1,3.5-2.7,5.7v0l-5.7,27h-11.5l8.9-41.8h11.5
				l-1.1,5.3l0.9-1.1C332.4,49.1,335.7,47.6,339.7,47.6L339.7,47.6z"/>
		</g>
		<g id="g1087">
			<path id="path1089" class="st1" d="M423.9,57.8c-3.4,3.6-8.5,5.9-15.1,7.1c-0.7,7.7-2.9,13.9-6.7,18.6c-3.8,4.6-8.3,7-13.6,7
				c-6.5,0-10.7-2.4-12.6-7.2c-0.7-1.7-1-3.6-1-5.6c0-2,0.2-4.1,0.5-6.2c0.3-2.1,0.9-4.3,1.6-6.6c1.7-5.1,4.1-9.2,7.3-12.3
				c3.8-3.8,8.4-5.6,13.8-5.6c7.3,0,10.9,4.5,10.9,13.6v0.1c0.3,0.1,0.7,0.1,1.4,0.1c1.5,0,3.5-0.5,5.9-1.5c2.4-1,4.7-2.2,6.8-3.7
				L423.9,57.8z M401.8,65.1c-1.5-0.4-2.3-1.6-2.3-3.8c0-2.1,0.9-3.6,2.7-4.4c-0.1-1.8-0.4-3.1-0.9-3.8c-0.4-0.7-1.3-1.1-2.7-1.1
				c-2.6,0-5.1,2.9-7.5,8.6c-2.4,5.7-3.6,10.8-3.6,15.3c0,2.7,0.2,4.5,0.7,5.2c0.5,0.7,1,1.2,1.6,1.4c0.6,0.2,1.3,0.3,2.2,0.3
				c1.9,0,3.9-1.7,5.8-5.1C399.8,74.3,401.1,70.1,401.8,65.1z"/>
			<path id="path1091" class="st1" d="M398.2,46.5c-5.5,0-10.2,1.9-14,5.8c-3.3,3.2-5.7,7.4-7.4,12.5c-0.8,2.3-1.3,4.5-1.6,6.6l0,0
				c-0.4,2.1-0.5,4.2-0.5,6.3c0,2.1,0.3,4,1,5.7c1.9,4.9,6.3,7.5,13,7.5c5.4,0,10.1-2.4,13.9-7.1c3.8-4.7,6-10.9,6.7-18.5
				c6.5-1.1,11.6-3.5,15-7.1l0.2-0.2l-0.1-0.2l-0.9-2.8l-0.4,0.3c-2.1,1.5-4.3,2.7-6.7,3.6h0c-2.4,1-4.3,1.4-5.7,1.4
				c-0.5,0-0.8,0-1.1-0.1c0-4.4-0.9-7.8-2.8-10.1C404.8,47.7,401.9,46.5,398.2,46.5L398.2,46.5z M398.2,47.2c3.6,0,6.2,1.1,7.9,3.2
				c1.7,2.2,2.6,5.5,2.6,9.9v0.4l0.3,0.1c0.3,0.1,0.8,0.1,1.5,0.1c1.6,0,3.6-0.5,6-1.5c2.3-0.9,4.4-2.1,6.4-3.5l0.5,1.6
				c-3.4,3.4-8.2,5.7-14.7,6.8l-0.3,0l0,0.3c-0.7,7.7-2.9,13.8-6.6,18.4c-3.7,4.6-8.1,6.8-13.3,6.8c-6.4,0-10.4-2.3-12.3-7
				c-0.6-1.6-1-3.5-1-5.5c0-2,0.2-4.1,0.5-6.2v0c0.3-2.1,0.9-4.3,1.6-6.5c1.7-5,4.1-9.1,7.3-12.2C388.5,49.1,392.9,47.2,398.2,47.2
				L398.2,47.2z M398.6,51.6c-1.4,0-2.8,0.8-4.1,2.3c-1.3,1.5-2.5,3.7-3.7,6.6c-2.4,5.8-3.6,10.9-3.6,15.4c0,2.8,0.2,4.5,0.8,5.4v0
				h0c0.5,0.8,1.1,1.3,1.8,1.5c0.6,0.2,1.4,0.3,2.4,0.3c1.1,0,2.1-0.5,3.1-1.4c1-0.9,2-2.2,3-3.9c1.9-3.5,3.2-7.7,3.9-12.7l0-0.3
				l-0.3-0.1c-0.7-0.2-1.2-0.5-1.5-1.1c-0.3-0.5-0.5-1.3-0.5-2.3c0-2,0.8-3.3,2.4-4.1l0.2-0.1l0-0.3c-0.1-1.8-0.4-3.1-0.9-4
				C401.1,52.1,400,51.6,398.6,51.6L398.6,51.6z M398.6,52.4c1.3,0,2,0.3,2.3,0.9v0l0,0c0.4,0.6,0.7,1.8,0.8,3.5
				c-1.7,0.9-2.6,2.4-2.6,4.5c0,1.1,0.2,2,0.6,2.7c0.4,0.6,1,0.9,1.6,1.2c-0.7,4.9-1.9,9-3.8,12.3c-0.9,1.7-1.9,2.9-2.8,3.7
				c-0.9,0.8-1.8,1.2-2.6,1.2c-0.9,0-1.6-0.1-2.1-0.3c-0.4-0.2-0.9-0.5-1.4-1.2c-0.4-0.6-0.7-2.3-0.7-5c0-4.4,1.2-9.4,3.5-15.1
				c1.2-2.9,2.4-5,3.6-6.4C396.3,53,397.5,52.4,398.6,52.4L398.6,52.4z"/>
		</g>
		<g id="g1093">
			<path id="path1095" class="st1" d="M410.2,90.1l9-42.5h12.2l-1.1,5.3c1.4-1.2,3-2.4,4.6-3.6c1.7-1.1,3.6-1.7,5.5-1.7
				c2,0,3.5,0.7,4.5,2c1,1.3,1.5,2.5,1.5,3.7c0,2-0.6,3.7-1.7,5c-1.1,1.3-2.4,1.9-3.9,1.9c-1.5,0-2.6-0.3-3.1-1
				c-0.5-0.7-0.8-1.4-0.9-2.2c-0.1-0.7-0.3-1.3-0.5-1.7c-0.2-0.4-0.5-0.7-1.1-0.7c-1.2,0-2.2,0.3-3.1,0.8c-0.9,0.5-1.9,1.3-3,2.4
				l-6.8,32.3L410.2,90.1z"/>
			<path id="path1097" class="st1" d="M418.9,47.2l-9.2,43.3h0.5h12.5l6.8-32.5c1.1-1,2.1-1.8,2.9-2.3h0c0.8-0.5,1.8-0.8,2.9-0.8
				c0.2,0,0.4,0,0.5,0.1c0.1,0.1,0.2,0.2,0.2,0.3l0,0l0,0c0.2,0.4,0.3,0.9,0.4,1.6c0.1,0.8,0.5,1.6,1,2.3v0h0
				c0.6,0.8,1.8,1.2,3.4,1.2c1.7,0,3.1-0.7,4.2-2c1.2-1.3,1.7-3.1,1.7-5.2c0-1.3-0.5-2.6-1.6-4c-1.1-1.4-2.7-2.1-4.8-2.1
				c-2,0-4,0.6-5.7,1.8c-1.4,0.9-2.7,1.9-3.9,3l1-4.7L418.9,47.2z M419.5,48H431l-1.2,5.9l0.8-0.7c1.4-1.2,2.9-2.4,4.6-3.5
				c1.7-1.1,3.4-1.6,5.3-1.6c1.9,0,3.3,0.6,4.2,1.8c1,1.3,1.4,2.4,1.4,3.5c0,2-0.5,3.5-1.6,4.7v0c-1,1.2-2.2,1.8-3.7,1.8
				c-1.5,0-2.4-0.3-2.8-0.9c-0.5-0.7-0.7-1.3-0.8-2c-0.1-0.8-0.3-1.4-0.5-1.8c-0.1-0.3-0.3-0.5-0.6-0.7c-0.3-0.2-0.6-0.2-0.9-0.2
				c-1.2,0-2.3,0.3-3.3,0.9c-0.9,0.5-1.9,1.4-3.1,2.5l-0.1,0.1l-6.8,32.1h-11.5L419.5,48z"/>
		</g>
		<g id="g1099">
			<path id="path1101" class="st1" d="M457.1,78.7c0,2.5,0.8,3.7,2.5,3.7c3,0,5.3-2.5,6.8-7.5l5.8-27.3h12.3l-10.4,49.3
				c-1.1,5.4-3.3,9.4-6.6,11.8c-2.4,1.8-5.2,2.7-8.3,2.7c-3.1,0-5.7-0.9-7.7-2.6c-2-1.7-3-3.8-3-6.1c0-2.3,0.4-4.2,1.1-5.5
				c0.8-1.4,2-2.6,3.6-3.7c1.6-1.2,4.9-2.5,10-4l0.9-3.7c-2.9,3.3-6.3,4.9-10.4,4.9c-2.5,0-4.7-0.8-6.5-2.4
				c-1.7-1.6-2.6-4.2-2.6-7.8c0-1.6,0.2-3.5,0.7-5.6l5.8-27.3h12.2l-6.1,28.9C457.2,77.2,457.1,77.9,457.1,78.7L457.1,78.7z
				 M462.8,92.1c-3,1.1-5.1,2.1-6.3,3c-2.1,1.7-3.2,3.7-3.2,5.8c0,0.6,0.3,1.3,1,1.9c0.7,0.6,1.5,1,2.4,1c0.9,0,1.9-0.5,2.8-1.5
				c1-1,1.7-2.7,2.2-5.2L462.8,92.1z"/>
			<path id="path1103" class="st1" d="M450.9,47.2L445,74.8c-0.4,2.1-0.7,4-0.7,5.6c0,3.6,0.9,6.3,2.7,8h0v0
				c1.8,1.7,4.1,2.5,6.7,2.5c3.8,0,7-1.6,9.8-4.3l-0.6,2.5c-4.9,1.5-8.2,2.7-9.8,3.9c-1.7,1.2-2.9,2.4-3.7,3.9v0
				c-0.8,1.4-1.2,3.3-1.2,5.7c0,2.4,1.1,4.6,3.1,6.4h0c2.1,1.8,4.7,2.7,7.9,2.7c3.2,0,6-0.9,8.5-2.7c3.4-2.5,5.6-6.5,6.7-12v0
				L485,47.2h-13.1l-5.8,27.5c-0.8,2.5-1.7,4.3-2.8,5.5c-1.1,1.2-2.3,1.8-3.7,1.8c-0.8,0-1.2-0.2-1.6-0.8c-0.4-0.5-0.6-1.4-0.6-2.6
				c0-0.7,0.1-1.4,0.2-2.1l0,0l6.2-29.3H450.9z M451.5,48H463l-6,28.4c-0.2,0.7-0.3,1.5-0.3,2.2V79h0.1c0,1.1,0.2,2,0.6,2.6
				c0.5,0.7,1.3,1.1,2.2,1.1c1.6,0,3-0.7,4.2-2c1.2-1.3,2.2-3.2,2.9-5.8l0,0l5.7-27H484l-10.3,48.9c-1.1,5.4-3.2,9.2-6.4,11.6
				c-2.3,1.7-5,2.6-8,2.6c-3,0-5.5-0.8-7.4-2.5l0,0c-1.9-1.7-2.9-3.6-2.9-5.8c0-2.3,0.4-4.1,1.1-5.3v0c0.7-1.3,1.9-2.5,3.5-3.6v0h0
				c1.5-1.1,4.8-2.4,9.8-3.9l0.2-0.1l0.9-3.9l-0.6-0.3c-2.8,3.2-6.2,4.8-10.1,4.8c-2.5,0-4.5-0.8-6.2-2.3c-1.6-1.5-2.5-4-2.5-7.5
				c0-1.6,0.2-3.4,0.7-5.5L451.5,48z M463.3,91.6l-0.6,0.2c-3.1,1.1-5.2,2.1-6.4,3.1v0c-2.2,1.8-3.3,3.8-3.3,6.1
				c0,0.8,0.4,1.5,1.1,2.1c0.8,0.7,1.6,1.1,2.6,1.1c1,0,2.1-0.6,3.1-1.6c1.1-1.1,1.8-2.8,2.3-5.4v0L463.3,91.6z M462.2,92.8
				l-0.9,4.3c-0.5,2.5-1.3,4.1-2.1,5c-0.9,0.9-1.8,1.3-2.6,1.3c-0.8,0-1.5-0.3-2.1-0.9c-0.6-0.6-0.9-1.1-0.9-1.6c0-2,1-3.8,3-5.5
				C457.7,94.7,459.7,93.8,462.2,92.8z"/>
		</g>
		<g id="g1105">
			<path id="path1107" class="st1" d="M523.4,86c-3,3.1-6.4,4.6-10.2,4.6c-5.1,0-8.6-2.4-10.4-7.3c-0.6-1.7-1-3.7-1-5.9
				c0-2.2,0.2-4.5,0.6-6.7c0.4-2.2,1-4.5,1.8-6.7c1.8-4.9,4.3-8.9,7.6-12.1c3.3-3.2,7.3-4.8,11.9-4.8c2.4,0,4.2,0.4,5.3,1.2
				c1.1,0.8,1.6,1.8,1.6,3.1V52l0.9-4.4h12.2L535.3,87c2.6-0.9,4.7-2.2,6.4-3.9c1.7-1.8,3.1-4.5,4.4-8.3h3.6
				c-2.2,7.3-5.8,12.1-11,14.4c-1.4,0.6-2.8,1.1-4.1,1.5l-1.3,6.1c-1.1,5.5-3.2,9.4-6.5,11.8c-2.4,1.8-5.1,2.7-8.2,2.7
				s-5.5-0.7-7.4-2s-2.8-3.5-2.8-6.5c0-5.2,4.6-9.3,13.9-12.4L523.4,86z M529.8,55.6c0-1.3-0.6-2.2-1.8-2.8c-0.4-0.2-1-0.4-1.7-0.4
				c-1.8,0-3.4,0.8-4.9,2.5c-3.6,4.1-5.9,9.9-6.8,17.5c-0.1,1.2-0.2,2.4-0.2,3.7c0,2.5,0.5,4.3,1.6,5.3c0.6,0.6,1.4,0.9,2.2,0.9
				c1.6,0,3-0.6,4.4-1.8c1.4-1.2,2.3-2.8,2.9-4.9L529.8,55.6z M521.4,94.7c-5.5,2-8.3,4.4-8.3,7.2c0,1.1,0.5,2,1.6,2.5
				c0.4,0.2,0.9,0.2,1.6,0.2c0.7,0,1.5-0.6,2.4-1.9c0.9-1.2,1.6-3.1,2.2-5.7L521.4,94.7z"/>
			<path id="path1109" class="st1" d="M523.7,46.8c-4.7,0-8.8,1.6-12.2,4.9c-3.3,3.2-5.9,7.3-7.7,12.2c-0.8,2.2-1.4,4.5-1.8,6.7
				c-0.4,2.2-0.6,4.5-0.6,6.7c0,2.2,0.3,4.3,1,6.1h0c1.8,5,5.5,7.5,10.7,7.5c3.6,0,6.8-1.5,9.6-4.1l-0.8,3.4
				c-4.5,1.5-8,3.3-10.3,5.4c-2.4,2.1-3.6,4.6-3.6,7.3c0,3.1,1,5.4,2.9,6.8c1.9,1.4,4.5,2.1,7.6,2.1c3.1,0,6-0.9,8.4-2.7
				c3.3-2.5,5.5-6.5,6.6-12l1.2-5.9c1.3-0.3,2.5-0.8,3.9-1.4c5.3-2.4,9-7.3,11.2-14.7l0.1-0.5h-4.3l-0.1,0.3
				c-1.2,3.7-2.6,6.4-4.3,8.1c-1.4,1.5-3.4,2.6-5.5,3.4l8.3-39h-13l-0.7,3.4c-0.2-0.9-0.5-1.8-1.3-2.5c0,0,0,0,0,0
				C528,47.2,526.2,46.8,523.7,46.8L523.7,46.8z M523.7,47.6c2.4,0,4.1,0.4,5,1.2l0,0c1,0.7,1.5,1.6,1.5,2.8V52l0.7,0.1l0.9-4.1
				h11.5l-8.5,39.6l0.6-0.2c2.6-0.9,4.8-2.2,6.5-4c1.7-1.8,3.1-4.5,4.3-8.1h2.8c-2.2,6.9-5.6,11.5-10.5,13.7c-1.4,0.6-2.7,1.1-4,1.4
				l-0.2,0.1l-1.3,6.4c-1.1,5.4-3.2,9.2-6.3,11.6c-2.3,1.7-5,2.6-8,2.6c-3,0-5.4-0.7-7.2-2c-1.7-1.3-2.6-3.3-2.6-6.2
				c0-2.5,1.1-4.7,3.3-6.7c2.3-2,5.7-3.8,10.3-5.3l0.2-0.1l1.4-6l-0.9,1c-2.9,3-6.2,4.5-9.9,4.5c-5,0-8.3-2.3-10-7
				c-0.6-1.7-0.9-3.6-0.9-5.8c0-2.2,0.2-4.4,0.6-6.6c0.4-2.2,1-4.4,1.8-6.6v0c1.8-4.8,4.3-8.8,7.5-11.9
				C515.3,49.1,519.1,47.6,523.7,47.6L523.7,47.6z M526.3,52.1c-1.9,0-3.7,0.9-5.2,2.7c-3.7,4.1-5.9,10.1-6.9,17.7
				c-0.1,1.2-0.2,2.4-0.2,3.7c0,2.6,0.5,4.4,1.7,5.5c0,0,0,0,0,0c0.7,0.7,1.5,1,2.5,1c1.7,0,3.2-0.6,4.6-1.9h0c1.4-1.3,2.4-3,3-5
				l0,0l4.3-20.2v0c0-1.4-0.7-2.5-2-3.1C527.7,52.2,527,52.1,526.3,52.1L526.3,52.1z M526.3,52.8c0.6,0,1.1,0.1,1.5,0.3l0,0l0,0
				c1.1,0.5,1.6,1.3,1.6,2.4l-4.3,20c-0.5,2-1.5,3.5-2.8,4.7c-1.3,1.1-2.7,1.7-4.1,1.7c-0.8,0-1.4-0.3-2-0.8l0,0
				c-0.9-0.9-1.5-2.5-1.5-5c0-1.3,0.1-2.5,0.2-3.6c0.9-7.6,3.1-13.3,6.7-17.3C523.1,53.6,524.6,52.8,526.3,52.8L526.3,52.8z
				 M521.9,94.1l-0.6,0.2c-2.8,1-4.9,2.1-6.3,3.4c-1.4,1.3-2.2,2.7-2.2,4.2c0,1.3,0.6,2.3,1.8,2.9l0,0h0c0.4,0.2,1,0.3,1.7,0.3
				c0.9,0,1.8-0.7,2.7-2c1-1.3,1.7-3.2,2.3-5.8v0L521.9,94.1z M520.9,95.4l-0.3,1.7c-0.5,2.5-1.3,4.4-2.1,5.5v0
				c-0.9,1.2-1.6,1.7-2.1,1.7c-0.7,0-1.1-0.1-1.4-0.2c-1-0.5-1.4-1.2-1.4-2.2c0-1.3,0.6-2.5,1.9-3.6
				C516.7,97.3,518.6,96.3,520.9,95.4L520.9,95.4z"/>
		</g>
		<g id="g1111">
			<path id="path1113" class="st1" d="M594.3,74.9c-3.6,10.5-9.3,15.7-17.1,15.7c-5,0-7.8-2.6-8.3-7.8c-3.7,5.2-8,7.8-13,7.8
				c-4.9,0-8.3-2.4-10-7.3c-0.6-1.7-1-3.7-1-5.9c0-2.2,0.2-4.5,0.6-6.7c0.4-2.2,1-4.5,1.8-6.7c1.8-4.9,4.3-8.9,7.6-12.1
				c3.3-3.2,7.3-4.8,11.9-4.8c2.4,0,4.2,0.4,5.3,1.2c1.1,0.8,1.6,1.8,1.6,3.1v0.6l0.9-4.5h12.2l-6.1,28.9c-0.2,1-0.4,1.9-0.4,2.7
				c0,2.4,1.2,3.7,3.5,3.7c3,0,5.3-2.7,6.9-8H594.3z M572.9,55.7c0-0.5-0.2-1.2-0.7-2c-0.5-0.8-1.5-1.2-3.1-1.2s-3.1,0.8-4.6,2.5
				c-3.6,4.1-5.9,9.9-6.8,17.5c-0.1,1.2-0.2,2.4-0.2,3.7c0,2.5,0.5,4.3,1.6,5.3c0.6,0.6,1.4,0.9,2.3,0.9c1.7,0,3.2-0.7,4.6-2
				c1.4-1.4,2.3-3.2,2.9-5.5L572.9,55.7z"/>
			<path id="path1115" class="st1" d="M566.8,46.8c-4.7,0-8.8,1.6-12.2,4.9c-3.3,3.2-5.9,7.3-7.7,12.2c-0.8,2.2-1.4,4.5-1.8,6.7
				c-0.4,2.2-0.6,4.5-0.6,6.7c0,2.2,0.3,4.3,1,6.1c1.8,4.9,5.3,7.5,10.4,7.5c4.9,0,9.2-2.6,12.9-7.6c0.4,2.3,1,4.3,2.4,5.5
				c1.5,1.4,3.5,2.1,6.1,2.1c4,0,7.4-1.4,10.3-4s5.3-6.7,7.1-12l0.2-0.5h-0.5h-3.8l-0.1,0.3c-0.8,2.6-1.7,4.6-2.8,5.9
				c-1.1,1.3-2.3,1.9-3.7,1.9c-1.1,0-1.8-0.3-2.3-0.8c-0.5-0.5-0.8-1.3-0.8-2.5c0-0.8,0.1-1.7,0.4-2.6l0,0l6.2-29.3h-13l-0.7,3.4
				c-0.2-0.9-0.5-1.9-1.3-2.5c0,0,0,0,0,0C571.1,47.2,569.2,46.8,566.8,46.8L566.8,46.8z M566.8,47.6c2.4,0,4.1,0.4,5,1.2l0,0
				c1,0.7,1.5,1.6,1.5,2.8v0.6l0.7,0.1l0.8-4.2h11.5l-6,28.4c-0.3,1-0.4,1.9-0.4,2.8c0,1.3,0.3,2.3,1,3c0.7,0.7,1.7,1,2.9,1
				c1.6,0,3.1-0.7,4.3-2.1c1.1-1.3,2.1-3.3,2.8-5.9h2.8c-1.8,4.9-4,8.7-6.6,11.1c-2.8,2.6-6,3.8-9.8,3.8c-2.4,0-4.3-0.6-5.6-1.8
				c-1.3-1.2-2.1-3.1-2.4-5.6l-0.1-1l-0.6,0.8c-3.7,5.1-7.9,7.6-12.7,7.6c-4.8,0-8-2.3-9.7-7c-0.6-1.7-0.9-3.6-0.9-5.8
				c0-2.2,0.2-4.4,0.6-6.6c0.4-2.2,1-4.4,1.8-6.6v0c1.8-4.8,4.3-8.8,7.5-11.9C558.3,49.1,562.2,47.6,566.8,47.6z M569.1,52.1
				c-1.7,0-3.4,0.9-4.9,2.7c-3.7,4.1-5.9,10.1-6.9,17.7c-0.1,1.2-0.2,2.4-0.2,3.7c0,2.6,0.5,4.4,1.7,5.5c0.7,0.7,1.5,1,2.5,1
				c1.8,0,3.4-0.7,4.9-2.1v0c1.4-1.4,2.4-3.3,3-5.7v0l4.1-19.2v0c0-0.6-0.3-1.4-0.8-2.2C571.9,52.5,570.7,52.1,569.1,52.1
				L569.1,52.1z M569.1,52.8c1.5,0,2.4,0.4,2.7,1.1l0,0v0c0.5,0.8,0.7,1.4,0.7,1.8l-4.1,19.1c-0.5,2.3-1.4,4-2.8,5.3c0,0,0,0,0,0
				c0,0,0,0,0,0c-1.3,1.3-2.8,1.9-4.3,1.9c-0.8,0-1.5-0.3-2-0.8v0h0c-0.9-0.9-1.5-2.5-1.5-5c0-1.3,0.1-2.5,0.2-3.6
				c0.9-7.6,3.1-13.3,6.7-17.3C566.2,53.6,567.6,52.8,569.1,52.8L569.1,52.8z"/>
		</g>
		<g id="g1117">
			<path id="path1119" class="st1" d="M643.3,90.6c-7.2,0-10.9-3.2-10.9-9.6c0-2.3,0.6-6,1.9-11.1s1.9-8.6,1.9-10.5
				c0-2.9-1-4.4-3.1-4.4s-3.9,1.6-5.5,4.9c-0.5,0.9-0.9,1.9-1.2,3l-5.8,27.3h-12.2l6.2-29.3c0.2-0.7,0.2-1.4,0.2-2.1
				c0-2.5-0.8-3.7-2.5-3.7c-1.7,0-3.1,0.8-4.3,2.4c-1.2,1.5-2,3.4-2.7,5.6l-5.8,27.3h-12.2l9-42.5h12.2l-0.9,4.4
				c2.8-3.2,6.3-4.8,10.4-4.8c5,0,7.9,2.4,8.7,7.3c3.1-4.8,7.1-7.2,11.8-7.2c2.7,0,4.9,0.7,6.7,2.2c1.8,1.5,2.7,3.7,2.7,6.6
				c0,2.9-0.5,6.2-1.4,10l-2,8.3c-0.4,1.8-0.7,3.3-0.7,4.4c0,2.4,1,3.7,3.1,3.7c1.9,0,3.4-0.6,4.4-1.8c1-1.2,2-3.1,3-5.7h3.6
				c-2.1,6.3-4.8,10.6-8,13.2C648,89.8,645.7,90.6,643.3,90.6L643.3,90.6z"/>
			<path id="path1121" class="st1" d="M618.2,46.8c-3.8,0-7.1,1.6-9.8,4.3l0.8-3.9h-13L587,90.5h13l5.8-27.5v0
				c0.6-2.1,1.5-3.9,2.6-5.4c1.1-1.5,2.4-2.2,4-2.2c0.8,0,1.2,0.2,1.6,0.8c0.4,0.5,0.6,1.4,0.6,2.6c0,0.7-0.1,1.4-0.2,2v0L608,90.5
				h13l5.8-27.5v0l0,0c0.3-1,0.7-2,1.1-2.9h0v0c0.8-1.6,1.6-2.8,2.5-3.5c0.9-0.8,1.7-1.1,2.7-1.1c0.9,0,1.5,0.3,2,0.9
				c0.4,0.6,0.7,1.6,0.7,3.1c0,1.9-0.6,5.4-1.9,10.5c-1.3,5.1-1.9,8.8-1.9,11.2c0,3.3,0.9,5.8,2.8,7.5c1.9,1.7,4.7,2.5,8.4,2.5
				c2.5,0,4.9-0.9,7.2-2.7c3.3-2.6,6-7,8.1-13.3l0.2-0.5h-4.4l-0.1,0.2c-1,2.6-2,4.4-3,5.6c-0.9,1.1-2.3,1.7-4.1,1.7
				c-1,0-1.6-0.3-2-0.8c-0.4-0.5-0.7-1.3-0.7-2.5c0-1.1,0.2-2.5,0.7-4.3v0l2-8.3v0c0.9-3.8,1.4-7.1,1.4-10c0-3-0.9-5.3-2.8-6.8
				c-1.9-1.6-4.2-2.3-7-2.3c-4.7,0-8.6,2.4-11.7,7c-0.5-2.2-1.2-4-2.6-5.1C622.8,47.4,620.8,46.8,618.2,46.8L618.2,46.8z
				 M618.2,47.6c2.4,0,4.3,0.6,5.7,1.7s2.3,2.9,2.7,5.2l0.2,1l0.5-0.8c3.1-4.7,6.9-7,11.5-7c2.6,0,4.8,0.7,6.5,2.2
				c1.7,1.4,2.6,3.5,2.6,6.3c0,2.8-0.5,6.1-1.4,9.9l-2,8.3c-0.4,1.8-0.7,3.3-0.7,4.5c0,1.3,0.3,2.3,0.9,3c0.6,0.7,1.5,1,2.6,1
				c2,0,3.6-0.7,4.7-2c1-1.2,2-3.1,3-5.6h2.8c-2.1,5.9-4.6,10.1-7.6,12.5c-2.2,1.7-4.4,2.5-6.7,2.5c-3.6,0-6.2-0.8-7.9-2.3
				c-1.7-1.5-2.6-3.8-2.6-6.9c0-2.3,0.6-6,1.9-11c1.3-5.1,1.9-8.6,1.9-10.6c0-1.5-0.3-2.7-0.8-3.5c-0.6-0.8-1.5-1.3-2.6-1.3
				c-1.1,0-2.2,0.5-3.2,1.3c-1,0.9-1.8,2.1-2.7,3.8c-0.5,0.9-0.9,2-1.2,3.1l0,0l-5.7,27h-11.5l6.1-28.9c0.2-0.7,0.3-1.4,0.3-2.2
				c0-1.3-0.2-2.3-0.7-3c-0.5-0.7-1.3-1.1-2.2-1.1c-1.8,0-3.3,0.9-4.6,2.5c-1.2,1.6-2.1,3.5-2.7,5.7l0,0l-5.7,27h-11.5l8.8-41.8
				h11.5l-1.1,5.3l0.9-1.1C610.9,49.1,614.2,47.6,618.2,47.6L618.2,47.6z"/>
		</g>
		<g id="g1123">
			<path id="path1125" class="st1" d="M666,75.5c0,4.7,1.8,7.1,5.4,7.1c1.6,0,3.3-0.5,5.1-1.4c1.9-0.9,3.5-2,4.8-3.2
				c-1.5,8.4-6.4,12.6-14.7,12.6c-4,0-7.2-1-9.6-3.1c-2.4-2.1-3.6-5.6-3.6-10.4c0-6.5,1.6-12.7,4.9-18.8c2.5-4.6,5.9-7.9,10.3-9.9
				c2.2-1.1,4.6-1.6,7-1.6c3.9,0,6.6,0.7,8,2.2c1.4,1.5,2.1,3.4,2.1,5.9c0,4.9-2,9-5.9,12.4c-3.9,3.4-8.4,5.2-13.7,5.6
				C666.1,73.7,666,74.6,666,75.5L666,75.5z M679.2,54.4c0-2-0.7-3.1-2.1-3.1c-2.7,0.1-5.3,3.2-7.8,9.4c-1.1,2.6-1.9,5.3-2.5,8.1
				c3.3-0.1,6.1-1.6,8.6-4.4C677.9,61.6,679.2,58.3,679.2,54.4z"/>
			<path id="path1127" class="st1" d="M675.6,46.5c-2.5,0-4.8,0.5-7.1,1.6c-4.4,2-7.9,5.4-10.5,10v0c-3.3,6.1-5,12.4-5,19
				c0,4.9,1.2,8.5,3.7,10.7c2.5,2.1,5.8,3.2,9.8,3.2c4.2,0,7.6-1.1,10.1-3.2c2.5-2.2,4.2-5.4,4.9-9.6l0.2-1.1l-0.8,0.7
				c-1.3,1.2-2.9,2.2-4.7,3.1h0c-1.8,0.9-3.4,1.3-4.9,1.3c-1.7,0-2.9-0.5-3.7-1.6c-0.8-1.1-1.3-2.8-1.3-5.1c0-0.8,0.1-1.6,0.2-2.3
				c5.2-0.4,9.7-2.2,13.6-5.6c4-3.4,6-7.7,6-12.7c0-2.5-0.7-4.6-2.2-6.2C682.4,47.2,679.6,46.5,675.6,46.5L675.6,46.5z M675.6,47.2
				c3.9,0,6.4,0.8,7.7,2.1v0c1.3,1.4,2,3.2,2,5.6c0,4.8-1.9,8.8-5.7,12.1c-3.8,3.3-8.3,5.1-13.5,5.5l-0.3,0l0,0.3
				c-0.1,0.7-0.2,1.5-0.2,2.3h0v0.4c0,2.4,0.5,4.2,1.4,5.5c1,1.3,2.5,1.9,4.3,1.9c1.6,0,3.4-0.5,5.3-1.4c1.5-0.8,2.8-1.7,4-2.6
				c-0.8,3.6-2.2,6.4-4.4,8.3c-2.4,2-5.6,3.1-9.6,3.1c-3.9,0-7-1-9.3-3c-2.3-2-3.5-5.3-3.5-10.1c0-6.4,1.6-12.6,4.9-18.6
				c2.5-4.6,5.9-7.8,10.1-9.7C671,47.8,673.3,47.2,675.6,47.2L675.6,47.2z M677.1,51c-1.5,0.1-2.9,1-4.2,2.6c-1.3,1.6-2.6,4-3.9,7
				c-1.1,2.6-1.9,5.4-2.6,8.2l-0.1,0.5l0.5,0c3.4-0.1,6.4-1.6,8.9-4.5c2.6-2.9,3.9-6.4,3.9-10.3c0-1.1-0.2-1.9-0.6-2.5
				C678.6,51.3,677.9,51,677.1,51L677.1,51L677.1,51z M677.1,51.7c0.6,0,1,0.2,1.3,0.6c0.3,0.4,0.5,1.1,0.5,2.1c0,3.8-1.2,7-3.7,9.8
				v0c-2.3,2.6-4.9,3.9-7.8,4.1c0.6-2.6,1.4-5.1,2.3-7.5c1.2-3,2.5-5.3,3.8-6.9C674.7,52.5,675.9,51.8,677.1,51.7L677.1,51.7z"/>
		</g>
	</g>
</g>
</svg>
