<?xml version="1.0" encoding="UTF-8" standalone="no"?>
<svg
   xmlns:dc="http://purl.org/dc/elements/1.1/"
   xmlns:cc="http://creativecommons.org/ns#"
   xmlns:rdf="http://www.w3.org/1999/02/22-rdf-syntax-ns#"
   xmlns:svg="http://www.w3.org/2000/svg"
   xmlns="http://www.w3.org/2000/svg"
   xmlns:sodipodi="http://sodipodi.sourceforge.net/DTD/sodipodi-0.dtd"
   xmlns:inkscape="http://www.inkscape.org/namespaces/inkscape"
   version="1.1"
   id="svg8"
   inkscape:version="1.0.1 (3bc2e813f5, 2020-09-07)"
   sodipodi:docname="header.svg"
   x="0px"
   y="0px"
   viewBox="0 0 2267.7167 279.68504"
   xml:space="preserve"
   width="2267.7166"
   height="279.68503"><metadata
   id="metadata113"><rdf:RDF><cc:Work
       rdf:about=""><dc:format>image/svg+xml</dc:format><dc:type
         rdf:resource="http://purl.org/dc/dcmitype/StillImage" /></cc:Work></rdf:RDF></metadata><defs
   id="defs111" />
<style
   type="text/css"
   id="style2">
	.st0{fill:#008081;}
	.st1{fill:#F26722;}
</style>
<sodipodi:namedview
   bordercolor="#666666"
   borderopacity="1.0"
   id="base"
   inkscape:current-layer="g1015"
   inkscape:cx="1918.0482"
   inkscape:cy="90.96906"
   inkscape:document-rotation="0"
   inkscape:document-units="mm"
   inkscape:pageopacity="0.0"
   inkscape:pageshadow="2"
   inkscape:window-height="1008"
   inkscape:window-maximized="0"
   inkscape:window-width="1443"
   inkscape:window-x="461"
   inkscape:window-y="0"
   inkscape:zoom="1.979899"
   pagecolor="#ffffff"
   showgrid="false">
	</sodipodi:namedview>
<g
   id="layer1"
   transform="translate(77.00038,-482.0457)"
   inkscape:groupmode="layer"
   inkscape:label="Capa 1">
	
	<g
   id="g1260"><g
     id="g1263"
     style="opacity:1" /><g
     id="g1151"
     transform="translate(-59.000381,456.0457)"><g
       id="g1044"><g
         id="text835"
         transform="matrix(3.2070663,0,0,3.2073974,39.727194,-57.392332)">
		<g
   id="g925">
			<path
   id="path927"
   class="st0"
   d="m 2.9,88.7 c -0.6,3 -0.8,5.6 -0.8,7.7 0,2.2 0.4,3.8 1.2,4.9 -3.3,0 -5.7,-0.3 -7.1,-1 -2.9,-1.4 -4.3,-4.1 -4.3,-8 0,-5.9 2.5,-14.1 7.4,-24.7 1.5,-3.3 3.3,-6.6 5.1,-9.8 -2.7,0.2 -4.8,0.6 -6.6,1.2 -1.7,0.6 -2.8,1.7 -3.4,3.2 0.2,0 0.5,0.3 0.7,0.9 0.2,0.6 0.4,1.2 0.4,2.1 0,0.8 -0.5,1.5 -1.4,2.2 -0.9,0.6 -1.9,0.9 -2.9,0.9 -1.9,0 -3.3,-0.4 -4.3,-1.3 -1,-0.9 -1.5,-2.1 -1.5,-3.6 0,-2.9 1.6,-5.4 4.9,-7.5 3.3,-2 7.5,-3.1 12.4,-3.1 1.1,0 2.6,0.1 4.4,0.2 4.6,-7.2 9.5,-13.2 14.6,-17.9 5.2,-4.8 10.2,-7.1 14.9,-7.1 2.9,0 5.1,0.4 6.7,1.2 L 30.2,91.6 H 17.9 L 24.4,60.8 C 20.6,59.1 16.8,58.1 13,57.7 8,69 4.6,79.3 2.9,88.7 Z M 14.9,54 c 4,0.8 7.4,1.8 10.4,2.9 l 4.9,-23.1 c -4.9,2.7 -10,9.5 -15.3,20.2 z" />
			<path
   id="path929"
   class="st0"
   d="m 36.8,27.5 c -4.9,0 -10,2.4 -15.2,7.2 -5.1,4.7 -10,10.7 -14.5,17.8 -1.7,-0.2 -3.2,-0.2 -4.3,-0.2 -5,0 -9.2,1 -12.6,3.1 v 0 c -3.4,2.1 -5.1,4.7 -5.1,7.8 0,1.6 0.5,2.9 1.6,3.8 v 0 0 c 1.1,0.9 2.6,1.4 4.5,1.4 1.1,0 2.1,-0.3 3.1,-0.9 1,-0.7 1.6,-1.5 1.6,-2.5 0,-0.9 -0.1,-1.6 -0.4,-2.2 v 0 c -0.1,-0.3 -0.3,-0.6 -0.4,-0.7 0,0 -0.1,0 -0.1,0 0.6,-1.2 1.5,-2.2 3,-2.7 1.5,-0.6 3.5,-0.9 5.7,-1.1 -1.7,3 -3.3,6.1 -4.8,9.2 v 0 c -5,10.5 -7.4,18.8 -7.4,24.8 0,4 1.5,6.8 4.5,8.3 1.5,0.7 3.9,1.1 7.2,1.1 h 0.7 l -0.4,-0.6 c -0.7,-1 -1.1,-2.5 -1.1,-4.6 0,-2.1 0.3,-4.7 0.8,-7.7 v 0 c 1.7,-9.3 5.1,-19.5 10.1,-30.6 3.6,0.3 7.2,1.3 10.7,2.9 L 17.5,92 h 13 L 43.9,28.9 43.6,28.8 C 42,27.9 39.7,27.5 36.8,27.5 Z m 0,0.7 c 2.7,0 4.8,0.4 6.3,1.1 L 29.9,91.2 H 18.4 L 24.9,60.5 24.6,60.4 C 20.8,58.7 17,57.6 13.1,57.3 h -0.3 l -0.1,0.2 C 7.6,68.8 4.2,79.2 2.5,88.6 c -0.6,3 -0.8,5.6 -0.8,7.8 0,1.9 0.4,3.3 1.1,4.4 -3,0 -5.3,-0.3 -6.4,-0.9 -2.8,-1.4 -4.1,-3.9 -4.1,-7.6 0,-5.8 2.4,-14 7.4,-24.6 1.5,-3.3 3.2,-6.6 5.1,-9.8 L 5,57.3 H 4.3 c -2.7,0.2 -4.9,0.6 -6.7,1.3 -1.8,0.7 -3,1.8 -3.6,3.4 l -0.2,0.5 h 0.6 c 0,0 0,0 0.1,0.1 0.1,0.1 0.2,0.3 0.3,0.6 v 0 c 0.2,0.5 0.3,1.1 0.3,1.9 0,0.7 -0.4,1.3 -1.2,1.8 -0.9,0.5 -1.7,0.8 -2.7,0.8 -1.8,0 -3.1,-0.4 -4,-1.2 v 0 c -0.9,-0.8 -1.3,-1.9 -1.3,-3.3 0,-2.8 1.5,-5.1 4.8,-7.1 3.3,-2 7.3,-3 12.2,-3 1.1,0 2.6,0.1 4.4,0.2 H 7.5 L 7.6,53.1 C 12.1,45.9 17,40 22.1,35.3 c 5.1,-4.7 10,-7.1 14.7,-7.1 z m -6.1,5 -0.7,0.3 C 25,36.2 19.9,43 14.5,53.8 l -0.2,0.4 0.5,0.1 c 3.9,0.8 7.4,1.8 10.3,2.9 l 0.4,0.2 z M 29.6,35 25,56.5 c -2.8,-1.1 -5.9,-2 -9.5,-2.7 4.9,-9.9 9.6,-16 14.1,-18.8 z" />
		</g>
		<g
   id="g931">
			<path
   id="path933"
   class="st0"
   d="M 67.7,76.4 C 64.1,86.9 58,92.1 49.4,92.1 c -2.2,0 -4.2,-0.8 -6,-2.4 -1.7,-1.6 -2.6,-4.2 -2.6,-7.8 0,-1.6 0.2,-3.5 0.7,-5.6 L 50.6,33.7 63.2,32 53.4,78 c -0.2,1 -0.3,2 -0.3,3 0,1.9 1.1,2.9 3.4,2.9 1.7,0 3.2,-0.7 4.6,-2.2 1.4,-1.4 2.5,-3.2 3.1,-5.4 z" />
			<path
   id="path935"
   class="st0"
   d="m 63.6,31.7 -13.4,1.8 -9.1,42.8 c -0.4,2.1 -0.7,4 -0.7,5.6 0,3.6 0.9,6.3 2.7,8 1.8,1.7 3.9,2.5 6.3,2.5 4.4,0 8.1,-1.3 11.2,-4 3.1,-2.7 5.6,-6.7 7.4,-12 l 0.2,-0.5 h -0.5 -3.9 l -0.1,0.3 c -0.6,2.1 -1.6,3.8 -3,5.2 v 0 0 c -1.4,1.4 -2.8,2 -4.3,2 -1.1,0 -1.9,-0.2 -2.3,-0.6 -0.5,-0.4 -0.7,-1 -0.7,-1.9 0,-1 0.1,-1.9 0.3,-2.9 v 0 z M 62.7,32.5 53,77.9 c -0.2,1 -0.3,2.1 -0.3,3.1 0,1 0.3,1.9 1,2.4 0.7,0.6 1.6,0.8 2.8,0.8 1.8,0 3.4,-0.8 4.9,-2.3 v 0 c 1.4,-1.4 2.4,-3.2 3,-5.2 h 2.8 c -1.8,4.9 -4.1,8.7 -7,11.1 -3,2.6 -6.5,3.8 -10.7,3.8 -2.1,0 -4.1,-0.8 -5.8,-2.3 -1.6,-1.5 -2.5,-4 -2.5,-7.5 0,-1.6 0.2,-3.4 0.7,-5.5 l 9,-42.3 z" />
		</g>
		<g
   id="g937">
			<path
   id="path939"
   class="st0"
   d="M 99.7,76.4 C 93.3,86.9 85.5,92.1 76.3,92.1 72.3,92.1 69,91.1 66.6,89 64.2,86.9 63,83.4 63,78.6 c 0,-6.5 1.6,-12.7 4.9,-18.8 2.5,-4.6 5.9,-7.9 10.3,-9.9 2.2,-1.1 4.6,-1.6 7,-1.6 3.9,0 6.6,0.7 8,2.2 1.4,1.5 2.1,3.4 2.1,5.9 0,4.8 -2,9 -5.9,12.4 -3.9,3.4 -8.5,5.2 -13.7,5.6 -0.1,1.6 -0.2,2.7 -0.2,3.4 0,2.9 0.5,4.8 1.5,5.8 1,0.9 2.5,1.4 4.3,1.4 3.3,0 6,-0.7 8.2,-2.2 2.2,-1.5 4.6,-3.6 7.1,-6.4 z M 88.8,55.9 c 0,-2 -0.7,-3.1 -2.1,-3.1 -2.1,0.1 -4.1,1.9 -6,5.5 -1.9,3.6 -3.3,7.6 -4.2,12 3.3,-0.2 6.1,-1.7 8.6,-4.6 2.5,-2.7 3.7,-6 3.7,-9.8 z" />
			<path
   id="path941"
   class="st0"
   d="m 85.3,48 c -2.5,0 -4.8,0.5 -7.1,1.6 -4.4,2 -7.9,5.4 -10.5,10 -3.3,6.1 -5,12.4 -5,19 0,4.9 1.2,8.5 3.7,10.7 v 0 c 2.5,2.1 5.8,3.2 9.9,3.2 9.4,0 17.3,-5.4 23.7,-15.9 l 0.3,-0.6 h -0.7 -3.1 l -0.1,0.1 c -2.5,2.8 -4.8,4.9 -7,6.4 -2.1,1.4 -4.8,2.1 -8,2.1 -1.8,0 -3.1,-0.4 -4.1,-1.3 -0.9,-0.8 -1.4,-2.6 -1.4,-5.5 0,-0.6 0.1,-1.7 0.2,-3.1 5.2,-0.4 9.7,-2.2 13.6,-5.6 4,-3.5 6,-7.7 6,-12.7 0,-2.5 -0.7,-4.6 -2.2,-6.2 C 92,48.7 89.2,48 85.3,48 Z m 0,0.7 c 3.9,0 6.4,0.8 7.7,2.1 v 0 c 1.3,1.4 2,3.2 2,5.6 0,4.7 -1.9,8.7 -5.7,12.1 -3.8,3.3 -8.3,5.1 -13.5,5.5 h -0.3 v 0.3 c -0.1,1.6 -0.2,2.7 -0.2,3.4 0,2.9 0.5,5 1.7,6 v 0 c 1.1,1 2.6,1.5 4.6,1.5 3.3,0 6.1,-0.7 8.4,-2.2 v 0 c 2.2,-1.5 4.6,-3.6 7,-6.4 h 2 c -6.2,10 -13.7,15 -22.6,15 -4,0 -7.1,-1 -9.4,-3 -2.3,-2 -3.5,-5.3 -3.5,-10.1 0,-6.4 1.6,-12.6 4.9,-18.6 2.5,-4.6 5.9,-7.8 10.1,-9.7 v 0 c 2.1,-0.9 4.4,-1.5 6.8,-1.5 z m 1.4,3.8 c -1.1,0 -2.3,0.6 -3.3,1.5 -1,1 -2.1,2.4 -3,4.2 -2,3.6 -3.4,7.7 -4.2,12.1 L 76,70.8 h 0.5 c 3.4,-0.2 6.3,-1.8 8.8,-4.7 2.5,-2.9 3.8,-6.3 3.8,-10.1 0,-1.1 -0.2,-1.9 -0.6,-2.5 -0.3,-0.7 -1,-1 -1.8,-1 z m 0,0.7 c 0.6,0 1,0.2 1.3,0.6 0.3,0.4 0.5,1.1 0.5,2.1 0,3.7 -1.2,6.9 -3.6,9.6 v 0 0 c -2.2,2.6 -4.8,3.9 -7.7,4.3 0.9,-4.1 2.1,-7.9 3.9,-11.3 v 0 c 1,-1.8 1.9,-3.1 2.9,-4 0.9,-0.8 1.8,-1.3 2.7,-1.3 z" />
		</g>
		<g
   id="g943">
			<path
   id="path945"
   class="st0"
   d="m 123.1,76.4 c -3.7,10.5 -9.8,15.7 -18.3,15.7 -2.2,0 -4.2,-0.8 -6,-2.4 -1.7,-1.6 -2.6,-4.2 -2.6,-7.8 0,-1.6 0.2,-3.5 0.7,-5.6 L 106,33.7 118.6,32 108.7,78 c -0.2,1 -0.3,2 -0.3,3 0,1.9 1.1,2.9 3.4,2.9 1.7,0 3.2,-0.7 4.6,-2.2 1.4,-1.4 2.5,-3.2 3.1,-5.4 h 3.6 z" />
			<path
   id="path947"
   class="st0"
   d="m 118.9,31.7 -13.4,1.8 -9.1,42.8 c -0.4,2.1 -0.7,4 -0.7,5.6 0,3.6 0.9,6.3 2.7,8 1.8,1.7 3.9,2.5 6.3,2.5 4.4,0 8.1,-1.3 11.2,-4 3.1,-2.7 5.6,-6.7 7.4,-12 l 0.2,-0.5 h -0.5 -3.9 l -0.1,0.3 c -0.6,2.1 -1.6,3.8 -3,5.2 v 0 c -1.4,1.4 -2.8,2 -4.3,2 -1.1,0 -1.9,-0.2 -2.3,-0.6 -0.5,-0.4 -0.7,-1 -0.7,-1.9 0,-1 0.1,-1.9 0.3,-2.9 v 0 z m -0.9,0.8 -9.6,45.4 c -0.2,1 -0.3,2.1 -0.3,3.1 0,1 0.3,1.9 1,2.4 0.7,0.6 1.6,0.8 2.8,0.8 1.8,0 3.4,-0.8 4.9,-2.3 v 0 c 1.4,-1.4 2.4,-3.2 3,-5.2 h 2.8 c -1.8,4.9 -4.1,8.7 -7,11.1 -3,2.6 -6.5,3.8 -10.7,3.8 -2.1,0 -4.1,-0.8 -5.8,-2.3 -1.6,-1.5 -2.5,-4 -2.5,-7.5 0,-1.6 0.2,-3.4 0.7,-5.5 l 9,-42.3 z" />
		</g>
		<g
   id="g949">
			<path
   id="path951"
   class="st0"
   d="m 130.9,77 c 0,4.7 1.8,7.1 5.4,7.1 1.6,0 3.3,-0.5 5.1,-1.4 1.9,-0.9 3.5,-2 4.8,-3.2 -1.5,8.4 -6.4,12.6 -14.7,12.6 -4,0 -7.2,-1 -9.6,-3.1 -2.4,-2.1 -3.6,-5.6 -3.6,-10.4 0,-6.5 1.6,-12.7 4.9,-18.8 2.5,-4.6 5.9,-7.9 10.3,-9.9 2.2,-1.1 4.6,-1.6 7,-1.6 3.9,0 6.6,0.7 8,2.2 1.4,1.5 2.1,3.4 2.1,5.9 0,4.9 -2,9 -5.9,12.4 -3.9,3.4 -8.4,5.2 -13.7,5.6 -0.1,0.8 -0.1,1.7 -0.1,2.6 z m 13.2,-21.1 c 0,-2 -0.7,-3.1 -2.1,-3.1 -2.7,0.1 -5.3,3.2 -7.8,9.4 -1.1,2.6 -1.9,5.3 -2.5,8.1 3.3,-0.1 6.1,-1.6 8.6,-4.4 2.5,-2.8 3.8,-6.1 3.8,-10 z" />
			<path
   id="path953"
   class="st0"
   d="m 140.5,48 c -2.5,0 -4.8,0.5 -7.1,1.6 -4.4,2 -7.9,5.4 -10.5,10 -3.3,6.1 -5,12.4 -5,19 0,4.9 1.2,8.5 3.7,10.7 v 0 c 2.5,2.1 5.8,3.2 9.8,3.2 4.2,0 7.6,-1.1 10.1,-3.2 2.5,-2.2 4.2,-5.4 4.9,-9.6 l 0.2,-1.1 -0.8,0.7 c -1.3,1.2 -2.9,2.2 -4.7,3.1 v 0 c -1.8,0.9 -3.4,1.3 -4.9,1.3 -1.7,0 -2.9,-0.5 -3.7,-1.6 -0.8,-1.1 -1.3,-2.8 -1.3,-5.1 0,-0.8 0.1,-1.6 0.2,-2.3 5.2,-0.4 9.7,-2.2 13.6,-5.6 4,-3.4 6,-7.7 6,-12.7 0,-2.5 -0.7,-4.6 -2.2,-6.2 -1.6,-1.5 -4.3,-2.2 -8.3,-2.2 z m 0,0.7 c 3.9,0 6.4,0.8 7.7,2.1 v 0 c 1.3,1.4 2,3.2 2,5.6 0,4.8 -1.9,8.8 -5.7,12.1 -3.8,3.3 -8.3,5.1 -13.5,5.5 h -0.3 v 0.3 c -0.1,0.8 -0.2,1.7 -0.2,2.6 0,2.4 0.5,4.2 1.4,5.5 1,1.3 2.5,1.9 4.3,1.9 1.6,0 3.4,-0.5 5.3,-1.4 1.5,-0.8 2.8,-1.7 4,-2.6 -0.8,3.6 -2.2,6.4 -4.4,8.3 -2.4,2 -5.6,3.1 -9.6,3.1 -3.9,0 -7,-1 -9.3,-3 -2.3,-2 -3.5,-5.3 -3.5,-10.1 0,-6.4 1.6,-12.6 4.9,-18.6 2.5,-4.6 5.9,-7.8 10.1,-9.7 v 0 c 2.2,-1 4.4,-1.6 6.8,-1.6 z m 1.4,3.8 c -1.5,0.1 -2.9,1 -4.2,2.6 -1.3,1.6 -2.6,4 -3.9,7 -1.1,2.6 -1.9,5.4 -2.6,8.2 l -0.1,0.5 h 0.5 c 3.4,-0.1 6.4,-1.6 8.9,-4.5 2.6,-2.9 3.9,-6.4 3.9,-10.3 0,-1.1 -0.2,-1.9 -0.6,-2.5 -0.4,-0.7 -1.1,-1 -1.9,-1 z m 0.1,0.7 c 0.6,0 1,0.2 1.3,0.6 0.3,0.4 0.5,1.1 0.5,2.1 0,3.8 -1.2,7 -3.7,9.8 -2.3,2.6 -4.9,3.9 -7.8,4.1 0.6,-2.6 1.4,-5.1 2.3,-7.5 1.2,-3 2.5,-5.3 3.7,-6.9 1.2,-1.4 2.5,-2.1 3.7,-2.2 z" />
		</g>
		<g
   id="g955">
			<path
   id="path957"
   class="st0"
   d="m 159.3,43.9 5.2,-16.1 h 8.9 l -7.8,16.1 z" />
			<path
   id="path959"
   class="st0"
   d="m 164.2,27.5 -5.4,16.8 h 0.5 6.6 L 174,27.5 Z m 0.6,0.7 h 8 l -7.4,15.3 h -5.6 z" />
		</g>
		<g
   id="g961">
			<path
   id="path963"
   class="st0"
   d="m 198.2,46.5 c 0.2,5.3 0.4,9.8 0.7,13.3 l 1,13.5 c 0.1,1.3 0.2,2.8 0.2,4.4 0,1.6 -0.3,3.2 -0.8,4.6 -0.5,1.4 -1.2,2.7 -2.1,3.8 -1.6,2 -3.7,3.6 -6.3,4.5 -2.6,0.9 -5.1,1.4 -7.5,1.4 -4.2,0 -7.4,-1.1 -9.5,-3.2 -2.2,-2.2 -3.2,-4.5 -3.2,-6.9 0,-2.5 0.5,-4.4 1.4,-5.7 0.9,-1.4 2,-2.3 3.1,-2.9 4,-7.1 7.5,-15.5 10.5,-25.2 z m -18.6,38.9 c 5.4,0 8.1,-2.6 8.1,-7.9 0,-1.5 -0.1,-3.2 -0.3,-5.2 l -0.5,-4.9 c -0.3,-3.1 -0.6,-6.5 -0.8,-10.1 -1.4,4.6 -3.7,10 -6.9,16.1 1.3,0.6 2,1.5 2,2.7 0,1.2 -0.3,2.2 -1,3.1 -0.7,0.9 -1.6,1.3 -2.7,1.3 -1.1,0 -1.9,-0.4 -2.2,-1.1 -0.1,4 1.4,6 4.3,6 z" />
			<path
   id="path965"
   class="st0"
   d="m 198.6,46.1 h -0.4 l -12.8,1.7 -0.1,0.2 c -3,9.6 -6.5,18 -10.4,25.1 0,0 0,0 0,0 -1.1,0.6 -2.2,1.5 -3.1,2.8 -1,1.4 -1.5,3.4 -1.5,5.9 0,2.5 1.1,5 3.3,7.2 2.2,2.2 5.5,3.3 9.8,3.3 2.5,0 5,-0.5 7.6,-1.4 2.6,-1 4.8,-2.5 6.5,-4.6 0.9,-1.1 1.6,-2.4 2.1,-3.9 v 0 c 0.5,-1.5 0.8,-3.1 0.8,-4.8 0,-1.6 -0.1,-3.1 -0.2,-4.5 l -1,-13.5 v 0 c -0.2,-3.6 -0.4,-8 -0.7,-13.3 z m -0.7,0.8 c 0.2,5.1 0.4,9.5 0.6,12.9 l 1,13.5 c 0.1,1.3 0.2,2.8 0.2,4.4 0,1.6 -0.3,3.1 -0.8,4.5 v 0 c -0.5,1.4 -1.2,2.6 -2,3.7 v 0 0 c -1.6,2 -3.6,3.5 -6.1,4.4 -2.5,0.9 -5,1.4 -7.3,1.4 -4.1,0 -7.2,-1.1 -9.3,-3.1 -2.1,-2.1 -3.1,-4.3 -3.1,-6.7 0,-2.4 0.5,-4.2 1.3,-5.5 0.9,-1.3 1.9,-2.2 3,-2.7 l 0.1,-0.1 0.1,-0.1 c 4,-7.1 7.4,-15.5 10.4,-25 z m -12.1,10.4 c -1.4,4.6 -3.7,10 -6.9,16 l -0.2,0.3 0.4,0.2 c 1.2,0.6 1.7,1.3 1.7,2.4 0,1.1 -0.3,2.1 -1,2.9 v 0 c -0.6,0.8 -1.4,1.1 -2.4,1.1 -1.1,0 -1.6,-0.3 -1.9,-0.9 l -0.7,0.2 c 0,0.1 0,0.1 0,0.2 0,0 0,0 0,0 0,1.9 0.4,3.5 1.1,4.5 0.8,1.1 2.1,1.6 3.6,1.6 2.8,0 4.9,-0.7 6.4,-2.1 1.4,-1.4 2.1,-3.5 2.1,-6.2 0,-1.5 -0.1,-3.2 -0.3,-5.2 l -0.5,-4.8 v 0 c -0.3,-3.1 -0.6,-6.5 -0.8,-10.1 z m 0.1,1.6 c 0.2,3 0.4,5.9 0.7,8.6 l 0.5,4.9 v 0 c 0.2,2 0.3,3.7 0.3,5.1 0,2.6 -0.7,4.4 -1.9,5.6 -1.3,1.2 -3.2,1.9 -5.8,1.9 -1.4,0 -2.4,-0.4 -3,-1.3 -0.6,-0.8 -0.8,-2.1 -0.9,-3.6 0.5,0.4 0.9,0.9 1.7,0.9 1.3,0 2.3,-0.5 3,-1.4 0.7,-0.9 1.1,-2.1 1.1,-3.3 0,-1.2 -0.8,-2.1 -1.9,-2.7 2.8,-5.6 4.8,-10.4 6.2,-14.7 z" />
		</g>
		<g
   id="g967">
			<path
   id="path969"
   class="st0"
   d="m 271.2,92.1 c -7.2,0 -10.9,-3.2 -10.9,-9.6 0,-2.3 0.6,-6 1.9,-11.1 1.3,-5.1 1.9,-8.6 1.9,-10.5 0,-2.9 -1,-4.4 -3.1,-4.4 -2.1,0 -3.5,1.8 -5.1,5.1 -0.5,0.9 -0.8,1.8 -1.1,2.9 L 249,92 236.3,91.7 242.5,62.4 c 0.2,-0.7 0.2,-1.4 0.2,-2.1 0,-2.5 -0.8,-3.7 -2.5,-3.7 -1.7,0 -2.94688,1.008781 -4.14688,2.608781 C 234.85312,60.708781 234.5,62.3 233.8,64.5 L 228,92 l -12.8,-0.1 9,-42.5 h 12.2 l -0.9,4.4 c 2.8,-3.2 6.3,-4.8 10.4,-4.8 5,0 7.9,2.4 8.7,7.3 3.1,-4.8 7.1,-7.2 11.8,-7.2 2.7,0 5.45121,0.542528 7.25121,2.042528 1.8,1.5 2.62126,3.857472 2.62126,6.757472 0,2.9 -0.17247,6.1 -1.07247,9.9 l -2.57361,8.419684 c -0.4,1.8 -0.29639,3.20158 -0.29639,4.30158 0,2.4 0.37005,3.778736 2.47005,3.778736 1.9,0 3.4,-0.6 4.4,-1.8 1,-1.2 2,-3.1 3,-5.7 h 3.6 c -2.1,6.3 -4.8,10.6 -8,13.2 -1.8,1.3 -4.1,2.1 -6.6,2.1 z"
   sodipodi:nodetypes="ssssscccccsscccccccscsssccssscccss" />
			<path
   id="path971"
   class="st0"
   d="m 246.2,48.3 c -3.8,0 -7.1,1.6 -9.8,4.3 l 0.8,-3.9 h -13 L 215,92 h 13 l 5.8,-27.5 v 0 c 0.6,-2.1 1.5,-3.9 2.6,-5.4 1.1,-1.5 2.4,-2.2 4,-2.2 0.8,0 1.2,0.2 1.6,0.8 0.4,0.5 0.6,1.4 0.6,2.6 0,0.7 -0.1,1.4 -0.2,2 v 0 L 236,92 h 13 l 5.8,-27.5 v 0 0 c 0.3,-1 0.7,-2 1.1,-2.9 v 0 c 0.8,-1.6 1.6,-2.8 2.5,-3.5 0.9,-0.8 1.7,-1.1 2.7,-1.1 0.9,0 1.6,0.3 2,0.9 0.4,0.6 0.7,1.6 0.7,3.1 0,1.9 -0.6,5.4 -1.9,10.5 -1.3,5.1 -1.9,8.8 -1.9,11.2 0,3.3 0.9,5.8 2.8,7.5 1.9,1.7 4.7,2.5 8.4,2.5 2.5,0 4.9,-0.9 7.2,-2.7 3.3,-2.6 6,-7 8.1,-13.3 l 0.2,-0.5 h -4.3 l -0.1,0.2 c -1,2.6 -2,4.4 -3,5.6 -0.9,1.1 -2.3,1.7 -4.1,1.7 -1,0 -1.6,-0.3 -2,-0.8 -0.4,-0.5 -0.7,-1.3 -0.7,-2.5 0,-1.1 0.2,-2.5 0.7,-4.3 v 0 l 2,-8.3 v 0 c 0.9,-3.8 1.4,-7.1 1.4,-10 0,-3 -0.9,-5.3 -2.8,-6.8 -1.9,-1.6 -4.2,-2.3 -7,-2.3 -4.7,0 -8.6,2.4 -11.7,7 -0.5,-2.2 -1.2,-4 -2.6,-5.1 -1.7,-1.7 -3.8,-2.3 -6.3,-2.3 z m 0,0.8 c 2.4,0 4.22126,1.544834 5.62126,2.644834 1.4,1.1 2.37874,1.955166 2.77874,4.355166 l 0.2,1 0.5,-0.8 c 3.1,-4.7 6.9,-7.1 11.5,-7.1 2.6,0 4.8,0.7 6.5,2.2 1.7,1.4 2.6,3.5 2.6,6.3 0,2.8 -0.5,6.1 -1.4,9.9 l -2,8.3 c -0.4,1.8 -0.7,3.3 -0.7,4.5 0,1.3 0.3,2.3 0.9,3 0.6,0.7 1.5,1 2.6,1 2,0 3.6,-0.7 4.7,-2 1,-1.2 2,-3.1 3,-5.5 h 2.8 c -2.1,5.9 -4.6,10.1 -7.6,12.5 -2.2,1.7 -4.4,2.5 -6.7,2.5 -3.6,0 -6.2,-0.8 -7.9,-2.3 -1.7,-1.5 -2.6,-3.8 -2.6,-6.9 0,-2.3 0.6,-6 1.9,-11 1.3,-5.1 1.9,-8.6 1.9,-10.6 0,-1.5 -0.3,-2.7 -0.8,-3.5 -0.6,-0.8 -1.5,-1.3 -2.6,-1.3 -1.1,0 -2.2,0.5 -3.2,1.3 -1,0.9 -1.8,2.1 -2.7,3.8 -0.5,0.9 -0.9,2 -1.2,3.1 v 0 l -5.8,27.2 -11.4,-0.2 6.1,-28.9 c 0.2,-0.7 0.3,-1.4 0.3,-2.2 0,-1.3 -0.2,-2.3 -0.7,-3 -0.5,-0.7 -1.3,-1.1 -2.2,-1.1 -1.8,0 -3.3,0.9 -4.6,2.5 -1.2,1.6 -2.1,3.5 -2.7,5.7 v 0 l -5.7,27 H 216.1 L 225,49.7 h 11.5 l -1.1,5.3 0.9,-1.1 c 2.5,-3.3 5.9,-4.8 9.9,-4.8 z"
   sodipodi:nodetypes="sccccccssscsscccccssscsssssssccccccssssccsscsccssscccscsccsssccccssscscsccsccccssscscccccccs" />
		</g>
		<g
   id="g973">
			<path
   id="path975"
   class="st0"
   d="m 318.1,76.4 c -6.4,10.5 -14.2,15.7 -23.4,15.7 -4,0 -7.3,-1 -9.7,-3.1 -2.4,-2.1 -3.6,-5.6 -3.6,-10.4 0,-6.5 1.6,-12.7 4.9,-18.8 2.5,-4.6 5.9,-7.9 10.3,-9.9 2.2,-1.1 4.6,-1.6 7,-1.6 3.9,0 6.6,0.7 8,2.2 1.4,1.5 2.1,3.4 2.1,5.9 0,4.8 -2,9 -5.9,12.4 -3.9,3.4 -8.5,5.2 -13.7,5.6 -0.1,1.6 -0.2,2.7 -0.2,3.4 0,2.9 0.5,4.8 1.5,5.8 1,0.9 2.5,1.4 4.3,1.4 3.3,0 6,-0.7 8.2,-2.2 2.2,-1.5 4.6,-3.6 7.1,-6.4 z M 307.3,55.9 c 0,-2 -0.7,-3.1 -2.1,-3.1 -2.1,0.1 -4.1,1.9 -6,5.5 -1.9,3.6 -3.3,7.6 -4.2,12 3.3,-0.2 6.1,-1.7 8.6,-4.6 2.4,-2.7 3.7,-6 3.7,-9.8 z" />
			<path
   id="path977"
   class="st0"
   d="m 303.7,48 c -2.5,0 -4.8,0.5 -7.1,1.6 -4.4,2 -7.9,5.4 -10.5,10 v 0 c -3.3,6.1 -5,12.4 -5,19 0,4.9 1.2,8.5 3.7,10.7 2.5,2.1 5.8,3.2 9.9,3.2 9.4,0 17.3,-5.4 23.7,-15.9 l 0.3,-0.6 h -0.7 -3.1 l -0.1,0.1 c -2.5,2.8 -4.8,4.9 -7,6.4 -2.1,1.4 -4.8,2.1 -8,2.1 -1.8,0 -3.1,-0.4 -4.1,-1.3 -0.9,-0.8 -1.4,-2.6 -1.4,-5.5 0,-0.6 0.1,-1.7 0.2,-3.1 5.2,-0.4 9.7,-2.2 13.6,-5.6 4,-3.5 6,-7.7 6,-12.7 0,-2.5 -0.7,-4.6 -2.2,-6.2 -1.5,-1.5 -4.2,-2.2 -8.2,-2.2 z m 0,0.7 c 3.9,0 6.4,0.8 7.7,2.1 v 0 c 1.3,1.4 2,3.2 2,5.6 0,4.7 -1.9,8.7 -5.7,12.1 -3.8,3.3 -8.3,5.1 -13.5,5.5 h -0.3 v 0.3 c -0.1,1.6 -0.2,2.7 -0.2,3.4 0,2.9 0.5,5 1.7,6 v 0 c 1.1,1 2.6,1.5 4.6,1.5 3.3,0 6.1,-0.7 8.4,-2.2 2.2,-1.5 4.6,-3.6 7,-6.4 h 2 c -6.2,10 -13.7,15 -22.6,15 -4,0 -7.1,-1 -9.4,-3 -2.3,-2 -3.5,-5.3 -3.5,-10.1 0,-6.4 1.6,-12.6 4.9,-18.6 v 0 c 2.5,-4.6 5.9,-7.8 10.1,-9.7 v 0 c 2.2,-0.9 4.4,-1.5 6.8,-1.5 z m 1.4,3.8 c -1.1,0 -2.3,0.6 -3.3,1.5 -1,0.9 -2.1,2.4 -3,4.2 -2,3.6 -3.4,7.7 -4.2,12.1 l -0.1,0.5 h 0.5 c 3.4,-0.2 6.3,-1.8 8.8,-4.7 2.5,-2.9 3.8,-6.3 3.8,-10.1 0,-1.1 -0.2,-1.9 -0.6,-2.5 -0.4,-0.7 -1.1,-1 -1.9,-1 z m 0,0.7 c 0.6,0 1,0.2 1.3,0.6 0.3,0.4 0.5,1.1 0.5,2.1 0,3.7 -1.2,6.9 -3.6,9.6 v 0 c -2.2,2.6 -4.8,3.9 -7.7,4.3 0.9,-4.1 2.1,-7.9 3.9,-11.3 v 0 c 1,-1.8 1.9,-3.1 2.9,-4 0.9,-0.8 1.8,-1.3 2.7,-1.3 z" />
		</g>
		<g
   id="g979">
			<path
   id="path981"
   class="st0"
   d="m 367.8,92.1 c -7.2,0 -10.9,-3.2 -10.9,-9.6 0,-2.3 0.6,-6 1.9,-11.1 1.3,-5.1 1.9,-8.6 1.9,-10.5 0,-2.9 -1,-4.4 -3.1,-4.4 -2,0 -3.9,1.6 -5.5,4.9 -0.5,0.9 -0.9,1.9 -1.2,3 l -5.8,27.3 H 333 l 6.2,-29.3 c 0.2,-0.7 0.2,-1.4 0.2,-2.1 0,-2.5 -0.8,-3.7 -2.5,-3.7 -1.7,0 -3.1,0.8 -4.3,2.4 -1.2,1.5 -2,3.4 -2.7,5.6 l -5.8,27.3 H 312 l 9,-42.5 h 12.2 l -0.9,4.4 c 2.8,-3.2 6.3,-4.8 10.4,-4.8 5,0 7.9,2.4 8.7,7.3 3.1,-4.8 7.1,-7.2 11.8,-7.2 2.7,0 4.9,0.7 6.7,2.2 1.8,1.5 2.7,3.7 2.7,6.6 0,2.9 -0.5,6.2 -1.4,10 l -2,8.3 c -0.4,1.8 -0.7,3.3 -0.7,4.4 0,2.4 1,3.7 3.1,3.7 1.9,0 3.4,-0.6 4.4,-1.8 1,-1.2 2,-3.1 3,-5.7 h 3.6 c -2.1,6.3 -4.8,10.6 -8,13.2 -2.1,1.3 -4.4,2.1 -6.8,2.1 z" />
			<path
   id="path983"
   class="st0"
   d="m 342.7,48.3 c -3.8,0 -7.1,1.6 -9.8,4.3 l 0.8,-3.9 h -13 L 311.5,92 h 13 l 5.8,-27.5 v 0 c 0.6,-2.1 1.5,-3.9 2.6,-5.4 1.1,-1.5 2.4,-2.2 4,-2.2 0.8,0 1.2,0.2 1.6,0.8 0.4,0.5 0.6,1.4 0.6,2.6 0,0.7 -0.1,1.4 -0.2,2 v 0 L 332.5,92 h 13 l 5.8,-27.5 v 0 0 c 0.3,-1 0.7,-2 1.1,-2.9 v 0 c 0.8,-1.6 1.6,-2.8 2.5,-3.5 0.9,-0.8 1.7,-1.1 2.7,-1.1 0.9,0 1.6,0.3 2,0.9 0.4,0.6 0.7,1.6 0.7,3.1 0,1.9 -0.6,5.4 -1.9,10.5 -1.3,5.1 -1.9,8.8 -1.9,11.2 0,3.3 0.9,5.8 2.8,7.5 1.9,1.7 4.7,2.5 8.4,2.5 2.5,0 4.9,-0.9 7.2,-2.7 3.3,-2.6 6,-7 8.1,-13.3 l 0.2,-0.5 h -4.3 l -0.1,0.2 c -1,2.6 -2,4.4 -3,5.6 -0.9,1.1 -2.3,1.7 -4.1,1.7 -1,0 -1.6,-0.3 -2,-0.8 -0.4,-0.5 -0.7,-1.3 -0.7,-2.5 0,-1.1 0.2,-2.5 0.7,-4.3 v 0 l 2,-8.3 v 0 c 0.9,-3.8 1.4,-7.1 1.4,-10 0,-3 -0.9,-5.3 -2.8,-6.8 -1.9,-1.6 -4.2,-2.3 -7,-2.3 -4.7,0 -8.6,2.4 -11.7,7 -0.5,-2.2 -1.2,-4 -2.6,-5.1 -1.7,-1.7 -3.7,-2.3 -6.3,-2.3 z m 0,0.8 c 2.4,0 4.3,0.6 5.7,1.7 1.4,1.1 2.3,2.9 2.7,5.3 l 0.2,1 0.5,-0.8 c 3.1,-4.7 6.9,-7.1 11.5,-7.1 2.6,0 4.8,0.7 6.5,2.2 1.7,1.4 2.6,3.5 2.6,6.3 0,2.8 -0.5,6.1 -1.4,9.9 l -2,8.3 c -0.4,1.8 -0.7,3.3 -0.7,4.5 0,1.3 0.3,2.3 0.9,3 0.6,0.7 1.5,1 2.6,1 2,0 3.6,-0.7 4.7,-2 1,-1.2 2,-3.1 3,-5.5 h 2.8 c -2.1,5.9 -4.6,10.1 -7.6,12.5 -2.2,1.7 -4.4,2.5 -6.7,2.5 -3.6,0 -6.2,-0.8 -7.9,-2.3 -1.7,-1.5 -2.6,-3.8 -2.6,-6.9 0,-2.3 0.6,-6 1.9,-11 1.3,-5.1 1.9,-8.6 1.9,-10.6 0,-1.5 -0.3,-2.7 -0.8,-3.5 -0.6,-0.8 -1.5,-1.3 -2.6,-1.3 -1.1,0 -2.2,0.5 -3.2,1.3 -1,0.9 -1.8,2.1 -2.7,3.8 -0.5,0.9 -0.9,2 -1.2,3.1 v 0 l -5.7,27 h -11.5 l 6.1,-28.9 c 0.2,-0.7 0.3,-1.4 0.3,-2.2 0,-1.3 -0.2,-2.3 -0.7,-3 -0.5,-0.7 -1.3,-1.1 -2.2,-1.1 -1.8,0 -3.3,0.9 -4.6,2.5 -1.2,1.6 -2.1,3.5 -2.7,5.7 v 0 l -5.7,27 h -11.5 l 8.8,-41.8 h 11.5 l -1.1,5.3 0.9,-1.1 c 2.7,-3.3 6,-4.8 10,-4.8 z" />
		</g>
		<g
   id="g985">
			<path
   id="path987"
   class="st0"
   d="m 426.9,59.3 c -3.4,3.6 -8.5,5.9 -15.1,7.1 -0.7,7.7 -2.9,13.9 -6.7,18.6 -3.8,4.6 -8.3,7 -13.6,7 -6.5,0 -10.7,-2.4 -12.6,-7.2 -0.7,-1.7 -1,-3.6 -1,-5.6 0,-2 0.2,-4.1 0.5,-6.2 0.3,-2.1 0.9,-4.3 1.6,-6.6 1.7,-5.1 4.1,-9.2 7.3,-12.3 3.8,-3.8 8.4,-5.6 13.8,-5.6 7.3,0 10.9,4.5 10.9,13.6 V 62 c 0.3,0.1 0.7,0.1 1.4,0.1 1.5,0 3.5,-0.5 5.9,-1.5 2.4,-1 4.7,-2.2 6.8,-3.7 z m -22.1,7.3 c -1.5,-0.4 -2.3,-1.6 -2.3,-3.8 0,-2.2 0.9,-3.6 2.7,-4.4 -0.1,-1.8 -0.4,-3.1 -0.9,-3.8 -0.4,-0.7 -1.3,-1.1 -2.7,-1.1 -2.6,0 -5.1,2.9 -7.5,8.6 -2.4,5.7 -3.6,10.8 -3.6,15.3 0,2.7 0.2,4.5 0.7,5.2 0.5,0.7 1,1.2 1.6,1.4 0.6,0.2 1.3,0.3 2.2,0.3 1.9,0 3.9,-1.7 5.8,-5.1 2,-3.4 3.3,-7.6 4,-12.6 z" />
			<path
   id="path989"
   class="st0"
   d="m 401.2,48 c -5.5,0 -10.2,1.9 -14,5.8 -3.3,3.2 -5.7,7.4 -7.4,12.5 -0.8,2.3 -1.3,4.5 -1.6,6.6 -0.4,2.1 -0.5,4.2 -0.5,6.3 0,2.1 0.3,4 1,5.7 1.9,5 6.3,7.5 13,7.5 5.4,0 10.1,-2.4 13.9,-7.1 3.8,-4.7 6,-10.9 6.7,-18.5 6.5,-1.1 11.6,-3.5 15,-7.1 l 0.1,-0.2 -0.1,-0.2 -0.9,-2.8 -0.4,0.3 c -2.1,1.5 -4.3,2.7 -6.7,3.6 -2.4,1 -4.3,1.4 -5.7,1.4 -0.5,0 -0.8,0 -1.1,-0.1 0,-4.4 -0.9,-7.8 -2.8,-10.1 -1.9,-2.4 -4.8,-3.6 -8.5,-3.6 z m 0,0.7 c 3.6,0 6.2,1.1 7.9,3.3 1.7,2.2 2.6,5.5 2.6,9.9 v 0.4 l 0.3,0.1 c 0.3,0.1 0.8,0.1 1.5,0.1 1.6,0 3.6,-0.5 6,-1.5 v 0 c 2.3,-0.9 4.4,-2.1 6.4,-3.5 l 0.5,1.6 c -3.4,3.4 -8.2,5.7 -14.7,6.8 h -0.3 v 0.3 c -0.7,7.7 -2.9,13.8 -6.6,18.4 -3.7,4.6 -8.1,6.8 -13.3,6.8 -6.4,0 -10.4,-2.3 -12.3,-7 -0.6,-1.6 -1,-3.5 -1,-5.5 0,-2 0.2,-4.1 0.5,-6.2 v 0 c 0.3,-2.1 0.9,-4.3 1.6,-6.5 1.7,-5 4.1,-9.1 7.3,-12.2 3.9,-3.4 8.3,-5.3 13.6,-5.3 z m 0.4,4.4 c -1.4,0 -2.8,0.8 -4.1,2.3 -1.3,1.5 -2.5,3.7 -3.7,6.6 -2.4,5.8 -3.6,10.9 -3.6,15.4 0,2.8 0.2,4.5 0.8,5.4 v 0 c 0.5,0.8 1.1,1.3 1.8,1.5 0.6,0.2 1.4,0.3 2.4,0.3 1.1,0 2.1,-0.5 3.1,-1.4 1,-0.9 2,-2.2 3,-3.9 1.9,-3.5 3.2,-7.7 3.9,-12.7 v -0.3 l -0.3,-0.1 c -0.7,-0.2 -1.2,-0.5 -1.5,-1.1 -0.3,-0.6 -0.5,-1.3 -0.5,-2.3 0,-2 0.8,-3.3 2.4,-4.1 l 0.2,-0.1 v -0.3 c -0.1,-1.8 -0.4,-3.1 -0.9,-4 -0.5,-0.7 -1.6,-1.2 -3,-1.2 z m 0,0.8 c 1.3,0 2,0.3 2.3,0.9 v 0 0 c 0.4,0.6 0.7,1.8 0.8,3.5 -1.7,0.9 -2.6,2.4 -2.6,4.5 0,1.1 0.2,2 0.6,2.7 0.4,0.6 1,0.9 1.6,1.2 -0.7,4.9 -1.9,9 -3.8,12.3 -0.9,1.7 -1.9,2.9 -2.8,3.7 -0.9,0.8 -1.8,1.2 -2.6,1.2 -0.9,0 -1.6,-0.1 -2.1,-0.3 -0.4,-0.2 -0.9,-0.6 -1.4,-1.2 -0.4,-0.6 -0.7,-2.3 -0.7,-5 0,-4.4 1.2,-9.4 3.5,-15.1 v 0 c 1.2,-2.9 2.4,-5 3.6,-6.4 1.3,-1.4 2.5,-2 3.6,-2 z" />
		</g>
		<g
   id="g991">
			<path
   id="path993"
   class="st0"
   d="m 413.2,91.6 9,-42.5 h 12.2 l -1.1,5.3 c 1.4,-1.2 3,-2.4 4.6,-3.6 1.7,-1.1 3.6,-1.7 5.5,-1.7 2,0 3.5,0.7 4.5,2 1,1.3 1.5,2.5 1.5,3.7 0,2 -0.6,3.7 -1.7,5 -1.1,1.3 -2.4,1.9 -3.9,1.9 -1.5,0 -2.6,-0.3 -3.1,-1 -0.5,-0.7 -0.8,-1.4 -0.9,-2.2 -0.1,-0.7 -0.3,-1.3 -0.5,-1.7 -0.2,-0.4 -0.5,-0.7 -1.1,-0.7 -1.2,0 -2.2,0.3 -3.1,0.8 -0.9,0.5 -1.9,1.3 -3,2.4 l -6.8,32.3 z" />
			<path
   id="path995"
   class="st0"
   d="M 421.9,48.7 412.8,92 h 0.5 12.5 l 6.8,-32.5 c 1.1,-1 2.1,-1.8 2.9,-2.3 v 0 c 0.8,-0.5 1.8,-0.8 2.9,-0.8 0.2,0 0.4,0 0.5,0.1 0.1,0.1 0.2,0.2 0.2,0.3 v 0 0 c 0.2,0.4 0.3,0.9 0.4,1.6 0.1,0.8 0.5,1.6 1,2.3 v 0 c 0.6,0.8 1.8,1.2 3.4,1.2 1.6,0 3.1,-0.7 4.2,-2 v 0 c 1.2,-1.3 1.7,-3.1 1.7,-5.2 0,-1.3 -0.5,-2.6 -1.6,-4 -1.1,-1.4 -2.7,-2.1 -4.8,-2.1 -2,0 -4,0.6 -5.7,1.8 -1.4,0.9 -2.7,2 -3.9,3 l 1,-4.7 z m 0.6,0.8 H 434 l -1.2,5.9 0.8,-0.7 c 1.4,-1.2 2.9,-2.4 4.6,-3.5 v 0 c 1.7,-1.1 3.4,-1.6 5.3,-1.6 1.9,0 3.3,0.6 4.2,1.8 1,1.3 1.4,2.4 1.4,3.5 0,2 -0.5,3.5 -1.6,4.7 -1,1.2 -2.2,1.8 -3.7,1.8 -1.5,0 -2.4,-0.3 -2.8,-0.9 v 0 c -0.5,-0.7 -0.7,-1.3 -0.8,-2 v 0 c -0.1,-0.8 -0.3,-1.4 -0.5,-1.8 -0.1,-0.3 -0.3,-0.5 -0.6,-0.7 -0.3,-0.2 -0.6,-0.2 -0.9,-0.2 -1.2,0 -2.3,0.3 -3.3,0.9 -0.9,0.5 -1.9,1.4 -3.1,2.5 l -0.1,0.1 -6.8,32.1 h -11.5 z" />
		</g>
		<g
   id="g997">
			<path
   id="path999"
   class="st0"
   d="m 460.1,80.2 c 0,2.5 0.8,3.7 2.5,3.7 3,0 5.3,-2.5 6.8,-7.5 l 5.8,-27.3 h 12.3 l -10.4,49.3 c -1.1,5.4 -3.3,9.4 -6.6,11.8 -2.4,1.8 -5.2,2.7 -8.3,2.7 -3.1,0 -5.7,-0.9 -7.7,-2.6 -2,-1.7 -3,-3.8 -3,-6.1 0,-2.3 0.4,-4.2 1.1,-5.5 0.8,-1.4 2,-2.6 3.6,-3.7 1.6,-1.2 4.9,-2.5 10,-4 l 0.9,-3.7 c -2.9,3.3 -6.3,4.9 -10.4,4.9 -2.5,0 -4.7,-0.8 -6.5,-2.4 -1.7,-1.6 -2.6,-4.2 -2.6,-7.8 0,-1.6 0.2,-3.5 0.7,-5.6 l 5.8,-27.3 h 12.2 l -6,28.9 c -0.1,0.7 -0.2,1.4 -0.2,2.2 z m 5.7,13.4 c -3,1.1 -5.1,2.1 -6.3,3 -2.1,1.7 -3.2,3.7 -3.2,5.8 0,0.6 0.3,1.3 1,1.9 0.7,0.6 1.5,1 2.4,1 0.9,0 1.9,-0.5 2.8,-1.5 0.9,-1 1.7,-2.7 2.2,-5.2 z" />
			<path
   id="path1001"
   class="st0"
   d="M 453.9,48.7 448,76.3 c -0.4,2.1 -0.7,4 -0.7,5.6 0,3.6 0.9,6.3 2.7,8 v 0 c 1.8,1.7 4.1,2.5 6.7,2.5 3.8,0 7,-1.6 9.8,-4.3 l -0.6,2.5 c -4.9,1.5 -8.2,2.7 -9.8,3.9 -1.7,1.2 -2.9,2.4 -3.7,3.9 v 0 c -0.8,1.4 -1.2,3.3 -1.2,5.7 0,2.4 1.1,4.6 3.1,6.4 v 0 c 2.1,1.8 4.8,2.7 7.9,2.7 3.2,0 6,-0.9 8.5,-2.7 3.4,-2.5 5.6,-6.5 6.7,-12 L 488,48.7 h -13.1 l -5.8,27.5 c -0.8,2.5 -1.7,4.3 -2.8,5.5 -1.1,1.2 -2.3,1.8 -3.7,1.8 -0.8,0 -1.2,-0.2 -1.6,-0.8 -0.4,-0.5 -0.6,-1.4 -0.6,-2.6 0,-0.7 0.1,-1.4 0.2,-2.1 l 6.2,-29.3 z m 0.6,0.8 H 466 l -6,28.4 c -0.2,0.7 -0.3,1.5 -0.3,2.2 v 0.4 h 0.1 c 0,1.1 0.2,2 0.6,2.6 0.5,0.7 1.3,1.1 2.2,1.1 1.6,0 3,-0.7 4.2,-2 1.2,-1.3 2.2,-3.2 2.9,-5.8 v 0 l 5.7,-27 H 487 l -10.3,48.9 c -1.1,5.4 -3.2,9.2 -6.4,11.6 -2.3,1.7 -5,2.6 -8,2.6 -3,0 -5.5,-0.8 -7.4,-2.5 v 0 c -1.9,-1.7 -2.9,-3.6 -2.9,-5.8 0,-2.3 0.4,-4.1 1.1,-5.3 v 0 c 0.7,-1.3 1.9,-2.5 3.5,-3.6 v 0 c 1.5,-1.1 4.8,-2.4 9.8,-3.9 l 0.2,-0.1 0.9,-3.9 -0.6,-0.3 c -2.8,3.2 -6.2,4.8 -10.1,4.8 -2.5,0 -4.5,-0.8 -6.2,-2.3 -1.6,-1.5 -2.5,-4 -2.5,-7.5 0,-1.6 0.2,-3.4 0.7,-5.5 z m 11.8,43.6 -0.6,0.2 c -3.1,1.1 -5.2,2.1 -6.4,3.1 v 0 c -2.2,1.8 -3.3,3.8 -3.3,6.1 0,0.8 0.4,1.5 1.1,2.1 0.8,0.7 1.6,1.1 2.6,1.1 1,0 2.1,-0.6 3.1,-1.6 1.1,-1.1 1.8,-2.8 2.3,-5.4 z m -1.1,1.2 -0.9,4.3 c -0.5,2.5 -1.3,4.1 -2.1,5 -0.9,0.9 -1.8,1.3 -2.6,1.3 -0.8,0 -1.5,-0.3 -2.1,-0.9 -0.6,-0.6 -0.9,-1.1 -0.9,-1.6 0,-2 1,-3.8 3,-5.5 1.1,-0.7 3.1,-1.6 5.6,-2.6 z" />
		</g>
		<g
   id="g1003">
			<path
   id="path1005"
   class="st0"
   d="m 526.4,87.5 c -3,3.1 -6.4,4.6 -10.2,4.6 -5.1,0 -8.6,-2.4 -10.4,-7.3 -0.6,-1.7 -1,-3.7 -1,-5.9 0,-2.2 0.2,-4.5 0.6,-6.7 0.4,-2.2 1,-4.5 1.8,-6.7 1.8,-4.9 4.3,-8.9 7.6,-12.1 3.3,-3.2 7.3,-4.8 11.9,-4.8 2.4,0 4.2,0.4 5.3,1.2 1.1,0.8 1.6,1.8 1.6,3.1 v 0.5 l 0.9,-4.4 h 12.2 l -8.4,39.4 c 2.6,-0.9 4.7,-2.2 6.4,-3.9 1.7,-1.8 3.1,-4.5 4.4,-8.3 h 3.6 c -2.2,7.3 -5.8,12.1 -11,14.4 -1.4,0.6 -2.8,1.1 -4.1,1.5 l -1.3,6.1 c -1.1,5.5 -3.2,9.4 -6.5,11.8 -2.4,1.8 -5.1,2.7 -8.2,2.7 -3.1,0 -5.5,-0.7 -7.4,-2 -1.9,-1.4 -2.8,-3.5 -2.8,-6.5 0,-5.2 4.6,-9.3 13.9,-12.4 z m 6.4,-30.4 c 0,-1.3 -0.6,-2.2 -1.8,-2.8 -0.4,-0.2 -1,-0.4 -1.7,-0.4 -1.8,0 -3.4,0.8 -4.9,2.5 -3.6,4.1 -5.9,9.9 -6.8,17.5 -0.1,1.2 -0.2,2.4 -0.2,3.7 0,2.5 0.5,4.3 1.6,5.3 0.6,0.6 1.4,0.9 2.2,0.9 1.6,0 3,-0.6 4.4,-1.8 1.4,-1.2 2.3,-2.8 2.9,-4.9 z m -8.4,39.1 c -5.5,2 -8.3,4.4 -8.3,7.2 0,1.1 0.5,2 1.6,2.5 0.4,0.2 0.9,0.2 1.6,0.2 0.7,0 1.5,-0.6 2.4,-1.9 0.9,-1.2 1.6,-3.1 2.2,-5.7 z" />
			<path
   id="path1007"
   class="st0"
   d="m 526.7,48.3 c -4.7,0 -8.8,1.6 -12.2,4.9 -3.3,3.2 -5.9,7.3 -7.7,12.2 -0.8,2.2 -1.4,4.5 -1.8,6.7 -0.4,2.2 -0.6,4.5 -0.6,6.7 0,2.2 0.3,4.3 1,6.1 1.8,5 5.5,7.5 10.7,7.5 3.6,0 6.8,-1.5 9.6,-4.1 l -0.8,3.3 c -4.5,1.5 -8,3.3 -10.3,5.4 -2.4,2.1 -3.6,4.6 -3.6,7.3 0,3.1 1,5.4 2.9,6.8 1.9,1.4 4.5,2.1 7.6,2.1 3.1,0 6,-0.9 8.4,-2.7 3.3,-2.5 5.5,-6.5 6.6,-12 l 1.2,-5.9 c 1.3,-0.3 2.5,-0.8 3.9,-1.4 5.3,-2.4 9,-7.3 11.2,-14.7 l 0.1,-0.5 h -4.3 l -0.1,0.3 c -1.2,3.7 -2.6,6.4 -4.3,8.1 -1.4,1.5 -3.4,2.6 -5.5,3.4 l 8.3,-39 h -13 l -0.7,3.4 c -0.2,-0.9 -0.4,-1.8 -1.3,-2.5 0,0 0,0 0,0 -1,-1 -2.8,-1.4 -5.3,-1.4 z m 0,0.8 c 2.4,0 4.1,0.4 5,1.2 v 0 0 c 1,0.7 1.5,1.6 1.5,2.8 v 0.5 l 0.7,0.1 0.9,-4.1 h 11.5 l -8.5,39.6 0.6,-0.2 c 2.6,-0.9 4.8,-2.2 6.5,-4 1.7,-1.8 3.1,-4.5 4.3,-8.1 h 2.8 c -2.2,6.9 -5.6,11.5 -10.5,13.7 -1.4,0.6 -2.7,1.1 -4,1.4 l -0.2,0.1 -1.3,6.4 v 0 c -1.1,5.4 -3.2,9.2 -6.3,11.6 -2.3,1.7 -5,2.6 -8,2.6 -3,0 -5.4,-0.7 -7.2,-2 -1.7,-1.3 -2.6,-3.3 -2.6,-6.2 0,-2.5 1.1,-4.7 3.3,-6.7 2.3,-2 5.7,-3.8 10.3,-5.3 l 0.2,-0.1 1.4,-6 -0.9,1 c -2.9,3 -6.2,4.5 -9.9,4.5 -5,0 -8.3,-2.3 -10,-7 -0.6,-1.7 -0.9,-3.6 -0.9,-5.8 0,-2.2 0.2,-4.4 0.6,-6.6 0.4,-2.2 1,-4.4 1.8,-6.6 1.8,-4.8 4.3,-8.8 7.5,-11.9 3,-3.4 6.8,-4.9 11.4,-4.9 z m 2.6,4.5 c -1.9,0 -3.7,0.9 -5.2,2.7 -3.7,4.1 -5.9,10.1 -6.9,17.7 -0.1,1.2 -0.2,2.4 -0.2,3.7 0,2.6 0.5,4.4 1.7,5.5 0,0 0,0 0,0 0.7,0.7 1.5,1 2.5,1 1.7,0 3.2,-0.6 4.6,-1.9 v 0 c 1.4,-1.3 2.4,-3 3,-5 v 0 l 4.3,-20.2 v 0 c 0,-1.4 -0.7,-2.5 -2,-3.1 -0.4,-0.3 -1.1,-0.4 -1.8,-0.4 z m 0,0.7 c 0.6,0 1.1,0.1 1.5,0.3 v 0 0 c 1.1,0.5 1.6,1.3 1.6,2.4 l -4.3,20 c -0.5,2 -1.5,3.5 -2.7,4.7 0,0 0,0 0,0 0,0 0,0 0,0 -1.3,1.1 -2.7,1.7 -4.1,1.7 -0.8,0 -1.4,-0.3 -2,-0.8 v 0 0 c -0.9,-0.9 -1.5,-2.5 -1.5,-5 0,-1.3 0.1,-2.5 0.2,-3.6 0.9,-7.6 3.1,-13.3 6.7,-17.3 1.4,-1.6 2.9,-2.4 4.6,-2.4 z m -4.4,41.3 -0.6,0.2 c -2.8,1 -4.9,2.1 -6.3,3.4 -1.4,1.3 -2.2,2.7 -2.2,4.2 0,1.3 0.7,2.3 1.8,2.9 v 0 0 c 0.4,0.2 1,0.3 1.7,0.3 0.9,0 1.8,-0.7 2.7,-2 1,-1.3 1.7,-3.2 2.3,-5.8 v 0 z m -1,1.3 -0.3,1.7 c -0.5,2.5 -1.3,4.4 -2.1,5.5 -0.9,1.2 -1.6,1.7 -2.1,1.7 -0.7,0 -1.1,-0.1 -1.4,-0.2 v 0 c -1,-0.5 -1.4,-1.2 -1.4,-2.2 0,-1.3 0.6,-2.5 1.9,-3.6 1.2,-1 3.1,-2 5.4,-2.9 z" />
		</g>
		<g
   id="g1009">
			<path
   id="path1011"
   class="st0"
   d="m 597.3,76.4 c -3.6,10.5 -9.3,15.7 -17.1,15.7 -5,0 -7.8,-2.6 -8.3,-7.8 -3.7,5.2 -8,7.8 -13,7.8 -4.9,0 -8.3,-2.4 -10,-7.3 -0.6,-1.7 -1,-3.7 -1,-5.9 0,-2.2 0.2,-4.5 0.6,-6.7 0.4,-2.2 1,-4.5 1.8,-6.7 1.8,-4.9 4.3,-8.9 7.6,-12.1 3.3,-3.2 7.3,-4.8 11.9,-4.8 2.4,0 4.2,0.4 5.3,1.2 1.1,0.8 1.6,1.8 1.6,3.1 v 0.6 l 0.9,-4.5 h 12.2 l -6.1,29 c -0.2,1 -0.4,1.9 -0.4,2.7 0,2.4 1.2,3.7 3.5,3.7 3,0 5.3,-2.7 6.9,-8 z M 575.9,57.2 c 0,-0.5 -0.2,-1.2 -0.7,-2 -0.5,-0.8 -1.5,-1.2 -3.1,-1.2 -1.6,0 -3.1,0.8 -4.6,2.5 -3.6,4.1 -5.9,9.9 -6.8,17.5 -0.1,1.2 -0.2,2.4 -0.2,3.7 0,2.5 0.5,4.3 1.6,5.3 0.6,0.6 1.4,0.9 2.3,0.9 1.7,0 3.2,-0.7 4.6,-2 1.4,-1.4 2.3,-3.2 2.9,-5.5 z" />
			<path
   id="path1013"
   class="st0"
   d="m 569.8,48.3 c -4.7,0 -8.8,1.6 -12.2,4.9 -3.3,3.2 -5.9,7.3 -7.7,12.2 -0.8,2.2 -1.4,4.5 -1.8,6.7 -0.4,2.2 -0.6,4.5 -0.6,6.7 0,2.2 0.3,4.3 1,6.1 1.8,4.9 5.3,7.5 10.4,7.5 4.9,0 9.2,-2.6 12.9,-7.6 0.4,2.3 1,4.3 2.4,5.5 1.5,1.4 3.5,2.1 6.1,2.1 4,0 7.4,-1.4 10.3,-4 2.9,-2.7 5.3,-6.7 7.1,-12 l 0.2,-0.5 h -0.5 -3.9 l -0.1,0.3 c -0.8,2.6 -1.7,4.6 -2.8,5.9 -1.1,1.3 -2.3,1.9 -3.7,1.9 -1.1,0 -1.9,-0.3 -2.3,-0.8 -0.5,-0.5 -0.8,-1.3 -0.8,-2.5 0,-0.8 0.1,-1.7 0.4,-2.6 v 0 l 6.2,-29.3 h -13 l -0.7,3.4 c -0.2,-0.9 -0.5,-1.9 -1.3,-2.5 0,0 0,0 0,0 -1.3,-1 -3.2,-1.4 -5.6,-1.4 z m 0,0.8 c 2.4,0 4.1,0.4 5,1.2 v 0 c 1,0.7 1.5,1.6 1.5,2.8 v 0.6 l 0.7,0.1 0.9,-4.2 h 11.5 l -6,28.4 c -0.3,1 -0.4,1.9 -0.4,2.8 0,1.3 0.3,2.3 1,3 0.7,0.7 1.7,1 2.9,1 1.6,0 3.1,-0.7 4.3,-2.1 1.1,-1.3 2.1,-3.3 2.8,-5.9 h 2.8 c -1.8,4.9 -4,8.7 -6.6,11.1 -2.8,2.6 -6,3.8 -9.8,3.8 -2.4,0 -4.3,-0.6 -5.6,-1.8 -1.3,-1.2 -2.1,-3.1 -2.4,-5.6 l -0.1,-1 -0.6,0.8 c -3.7,5.1 -7.9,7.6 -12.7,7.6 -4.8,0 -8,-2.3 -9.7,-7 -0.6,-1.7 -0.9,-3.6 -0.9,-5.8 0,-2.2 0.2,-4.4 0.6,-6.6 0.4,-2.2 1,-4.4 1.8,-6.6 1.8,-4.8 4.3,-8.8 7.5,-11.9 3,-3.2 6.9,-4.7 11.5,-4.7 z m 2.3,4.5 c -1.7,0 -3.4,0.9 -4.9,2.7 -3.7,4.1 -5.9,10.1 -6.9,17.7 -0.1,1.2 -0.2,2.4 -0.2,3.7 0,2.6 0.5,4.4 1.7,5.5 0.7,0.7 1.5,1 2.5,1 1.8,0 3.4,-0.7 4.9,-2.1 v 0 c 1.4,-1.4 2.4,-3.3 3,-5.7 v 0 l 4.1,-19.2 v 0 c 0,-0.6 -0.3,-1.4 -0.8,-2.2 -0.6,-1 -1.8,-1.4 -3.4,-1.4 z m 0,0.7 c 1.5,0 2.4,0.4 2.7,1.1 v 0 0 c 0.5,0.8 0.7,1.4 0.7,1.8 l -4.1,19.1 c -0.5,2.3 -1.4,4 -2.8,5.3 0,0 0,0 0,0 0,0 0,0 0,0 -1.3,1.3 -2.8,1.9 -4.3,1.9 -0.8,0 -1.5,-0.3 -2,-0.8 v 0 c -0.9,-0.9 -1.5,-2.5 -1.5,-5 0,-1.3 0.1,-2.5 0.2,-3.6 0.9,-7.6 3.1,-13.3 6.7,-17.3 1.5,-1.7 2.9,-2.5 4.4,-2.5 z" />
		</g>
		<g
   id="g1015">
			<path
   id="path1017"
   class="st0"
   d="m 646.3,92.1 c -7.2,0 -10.9,-3.2 -10.9,-9.6 0,-2.3 0.6,-6 1.9,-11.1 1.3,-5.1 1.9,-8.6 1.9,-10.5 0,-2.9 -1,-4.4 -3.1,-4.4 -2,0 -3.9,1.6 -5.5,4.9 -0.5,0.9 -0.9,1.9 -1.2,3 l -5.8,27.3 h -12.2 l 6.2,-29.3 c 0.2,-0.7 0.2,-1.4 0.2,-2.1 0,-2.5 -0.8,-3.7 -2.5,-3.7 -1.7,0 -3.1,0.8 -4.3,2.4 -1.2,1.5 -2,3.4 -2.7,5.6 L 603,92 l -12.7,-0.1 9,-42.5 h 12.2 l -0.9,4.4 c 2.8,-3.2 6.5784,-5.134049 10.6784,-5.134049 5,0 7.6216,2.734049 8.4216,7.634049 3.1,-4.8 7.1,-7.2 11.8,-7.2 2.7,0 5.28976,0.58865 7.08976,2.08865 1.8,1.5 2.64432,3.755675 2.64432,6.655675 0,2.9 -0.83408,6.255675 -1.73408,10.055675 l -2,8.3 c -0.4,1.8 -0.7,3.3 -0.7,4.4 0,2.4 1.72385,3.087576 3.82385,3.087576 1.9,0 2.39775,-0.321625 3.39775,-1.521625 1,-1.2 2.2784,-2.765951 3.2784,-5.365951 h 3.6 c -2.1,6.3 -4.8,10.6 -8,13.2 -1.9,1.3 -4.2,2.1 -6.6,2.1 z"
   sodipodi:nodetypes="ssssscccccsscccccccscsssccssscccs" />
			<path
   id="path1019"
   class="st0"
   d="m 621.2,48.3 c -3.8,0 -7.1,1.6 -9.8,4.3 l 0.8,-3.9 h -13 L 590,92 h 13 l 5.8,-27.5 v 0 c 0.6,-2.1 1.5,-3.9 2.6,-5.4 1.1,-1.5 2.4,-2.2 4,-2.2 0.8,0 1.2,0.2 1.6,0.8 0.4,0.5 0.6,1.4 0.6,2.6 0,0.7 -0.1,1.4 -0.2,2 v 0 L 611,92 h 13 l 5.8,-27.5 v 0 0 c 0.3,-1 0.7,-2 1.1,-2.9 v 0 c 0.8,-1.6 1.6,-2.8 2.5,-3.5 0.9,-0.8 1.7,-1.1 2.7,-1.1 0.9,0 1.6,0.3 2,0.9 0.4,0.6 0.7,1.6 0.7,3.1 0,1.9 -0.6,5.4 -1.9,10.5 -1.3,5.1 -1.9,8.8 -1.9,11.2 0,3.3 0.9,5.8 2.8,7.5 1.9,1.7 4.7,2.5 8.4,2.5 2.5,0 4.9,-0.9 7.2,-2.7 3.3,-2.6 6,-7 8.1,-13.3 l 0.2,-0.5 h -4.4 l -0.1,0.2 c -1,2.6 -2,4.4 -3,5.6 -0.9,1.1 -2.3,1.7 -4.1,1.7 -1,0 -1.6,-0.3 -2,-0.8 -0.4,-0.5 -0.7,-1.3 -0.7,-2.5 0,-1.1 0.2,-2.5 0.7,-4.3 v 0 l 2,-8.3 v 0 c 0.9,-3.8 1.4,-7.1 1.4,-10 0,-3 -0.9,-5.3 -2.8,-6.8 -1.9,-1.6 -4.2,-2.3 -7,-2.3 -4.7,0 -8.6,2.4 -11.7,7 -0.5,-2.2 -1.2,-4 -2.6,-5.1 -1.6,-1.7 -3.6,-2.3 -6.2,-2.3 z m 0,0.8 c 2.4,0 4.3,0.6 5.7,1.7 1.4,1.1 2.3,2.9 2.7,5.3 l 0.2,1 0.5,-0.8 c 3.1,-4.7 6.9,-7.1 11.5,-7.1 2.6,0 4.8,0.7 6.5,2.2 1.7,1.4 2.6,3.5 2.6,6.3 0,2.8 -0.5,6.1 -1.4,9.9 l -2,8.3 c -0.4,1.8 -0.7,3.3 -0.7,4.5 0,1.3 0.3,2.3 0.9,3 0.6,0.7 1.5,1 2.6,1 2,0 3.6,-0.7 4.7,-2 1,-1.2 2,-3.1 3,-5.5 h 2.8 c -2.1,5.9 -4.6,10.1 -7.6,12.5 -2.2,1.7 -4.4,2.5 -6.7,2.5 -3.6,0 -6.2,-0.8 -7.9,-2.3 -1.7,-1.5 -2.6,-3.8 -2.6,-6.9 0,-2.3 0.6,-6 1.9,-11 1.3,-5.1 1.9,-8.6 1.9,-10.6 0,-1.5 -0.3,-2.7 -0.8,-3.5 -0.6,-0.8 -1.5,-1.3 -2.6,-1.3 -1.1,0 -2.2,0.5 -3.2,1.3 -1,0.9 -1.8,2.1 -2.7,3.8 -0.5,0.9 -0.9,2 -1.2,3.1 v 0 l -5.7,27 h -11.5 l 6.1,-28.9 c 0.2,-0.7 0.3,-1.4 0.3,-2.2 0,-1.3 -0.2,-2.3 -0.7,-3 -0.5,-0.7 -1.3,-1.1 -2.2,-1.1 -1.8,0 -3.3,0.9 -4.6,2.5 v 0 c -1.2,1.6 -2.1,3.5 -2.7,5.7 v 0 l -5.7,27 h -11.5 l 8.8,-41.8 h 11.5 l -1.1,5.3 0.9,-1.1 c 2.7,-3.3 6,-4.8 10,-4.8 z" />
		</g>
		<g
   id="g1021">
			<path
   id="path1023"
   class="st0"
   d="m 669,77 c 0,4.7 1.8,7.1 5.4,7.1 1.6,0 3.3,-0.5 5.1,-1.4 1.9,-0.9 3.5,-2 4.8,-3.2 -1.5,8.4 -6.4,12.6 -14.7,12.6 -4,0 -7.2,-1 -9.6,-3.1 -2.4,-2.1 -3.6,-5.6 -3.6,-10.4 0,-6.5 1.6,-12.7 4.9,-18.8 2.5,-4.6 5.9,-7.9 10.3,-9.9 2.2,-1.1 4.6,-1.6 7,-1.6 3.9,0 6.6,0.7 8,2.2 1.4,1.5 2.1,3.4 2.1,5.9 0,4.9 -2,9 -5.9,12.4 -3.9,3.4 -8.4,5.2 -13.7,5.6 0,0.8 -0.1,1.7 -0.1,2.6 z m 13.2,-21.1 c 0,-2 -0.7,-3.1 -2.1,-3.1 -2.7,0.1 -5.3,3.2 -7.8,9.4 -1.1,2.6 -1.9,5.3 -2.5,8.1 3.3,-0.1 6.1,-1.6 8.6,-4.4 2.5,-2.8 3.8,-6.1 3.8,-10 z" />
			<path
   id="path1025"
   class="st0"
   d="m 678.6,48 c -2.5,0 -4.8,0.5 -7.1,1.6 -4.4,2 -7.9,5.4 -10.5,10 -3.3,6.1 -5,12.4 -5,19 0,4.9 1.2,8.5 3.7,10.7 2.5,2.1 5.8,3.2 9.8,3.2 4.2,0 7.6,-1.1 10.1,-3.2 2.5,-2.2 4.2,-5.4 4.9,-9.6 l 0.2,-1.1 -0.8,0.7 c -1.3,1.2 -2.9,2.2 -4.7,3.1 -1.8,0.9 -3.4,1.3 -4.9,1.3 -1.7,0 -2.9,-0.5 -3.7,-1.6 -0.8,-1.1 -1.3,-2.8 -1.3,-5.1 0,-0.8 0.1,-1.6 0.2,-2.3 5.2,-0.4 9.7,-2.2 13.6,-5.6 4,-3.4 6,-7.7 6,-12.7 0,-2.5 -0.7,-4.6 -2.2,-6.2 -1.5,-1.5 -4.3,-2.2 -8.3,-2.2 z m 0,0.7 c 3.9,0 6.4,0.8 7.7,2.1 v 0 0 c 1.3,1.4 2,3.2 2,5.6 0,4.8 -1.9,8.8 -5.7,12.1 -3.8,3.3 -8.3,5.1 -13.5,5.5 h -0.3 v 0.3 c -0.1,0.8 -0.2,1.7 -0.2,2.6 0,2.4 0.5,4.2 1.4,5.5 1,1.3 2.5,1.9 4.3,1.9 1.6,0 3.4,-0.5 5.3,-1.4 1.5,-0.7 2.8,-1.7 4,-2.6 -0.8,3.6 -2.2,6.4 -4.4,8.3 -2.4,2 -5.6,3.1 -9.6,3.1 -3.9,0 -7,-1 -9.3,-3 -2.3,-2 -3.5,-5.3 -3.5,-10.1 0,-6.4 1.6,-12.6 4.9,-18.6 2.5,-4.6 5.8,-7.8 10.1,-9.7 v 0 c 2.2,-1 4.5,-1.6 6.8,-1.6 z m 1.5,3.8 c -1.5,0.1 -2.9,1 -4.2,2.6 -1.3,1.6 -2.6,4 -3.9,7 -1.1,2.6 -1.9,5.4 -2.6,8.2 l -0.1,0.5 h 0.5 c 3.4,-0.1 6.4,-1.6 8.9,-4.5 2.6,-2.9 3.9,-6.4 3.9,-10.3 0,-1.1 -0.2,-1.9 -0.6,-2.5 -0.4,-0.7 -1.1,-1 -1.9,-1 z m 0,0.7 c 0.6,0 1,0.2 1.3,0.6 0.3,0.4 0.5,1.1 0.5,2.1 0,3.8 -1.2,7 -3.7,9.8 -2.3,2.6 -4.9,3.9 -7.8,4.1 0.6,-2.6 1.4,-5.1 2.3,-7.5 1.2,-3 2.5,-5.3 3.7,-6.9 1.3,-1.4 2.5,-2.1 3.7,-2.2 z" />
		</g>
	</g><g
         id="text835-2"
         transform="matrix(3.2070663,0,0,3.2073974,39.727194,-57.392332)">
		<g
   id="g1027">
			<path
   id="path1029"
   class="st1"
   d="m -0.1,87.2 c -0.6,3 -0.8,5.6 -0.8,7.7 0,2.2 0.4,3.8 1.2,4.9 -3.3,0 -5.7,-0.3 -7.1,-1 -2.9,-1.4 -4.3,-4.1 -4.3,-8 0,-5.9 2.5,-14.1 7.4,-24.7 1.5,-3.3 3.3,-6.6 5.1,-9.8 -2.7,0.2 -4.8,0.6 -6.6,1.2 -1.7,0.6 -2.8,1.7 -3.4,3.2 0.2,0 0.5,0.3 0.7,0.9 0.2,0.6 0.4,1.2 0.4,2.1 0,0.8 -0.5,1.5 -1.4,2.2 -0.9,0.6 -1.9,0.9 -2.9,0.9 -1.9,0 -3.3,-0.4 -4.3,-1.3 -1,-0.9 -1.5,-2.1 -1.5,-3.6 0,-2.9 1.6,-5.4 4.9,-7.5 3.3,-2 7.5,-3.1 12.4,-3.1 1.1,0 2.6,0.1 4.4,0.2 4.6,-7.2 9.5,-13.2 14.6,-17.9 5.2,-4.8 10.2,-7.1 14.9,-7.1 2.9,0 5.1,0.4 6.7,1.2 L 27.2,90.1 H 14.9 L 21.4,59.3 C 17.6,57.6 13.8,56.6 10,56.2 5,67.5 1.6,77.8 -0.1,87.2 Z m 12,-34.7 c 4,0.8 7.4,1.8 10.4,2.9 l 4.9,-23.1 c -4.9,2.7 -10,9.5 -15.3,20.2 z" />
			<path
   id="path1031"
   class="st1"
   d="m 33.8,26 c -4.9,0 -10,2.4 -15.2,7.2 C 13.5,37.9 8.6,43.9 4,51 2.3,50.8 0.8,50.8 -0.3,50.8 c -5,0 -9.2,1 -12.6,3.1 v 0 c -3.4,2.1 -5.1,4.7 -5.1,7.8 0,1.6 0.5,2.9 1.6,3.8 v 0 0 c 1.1,0.9 2.6,1.4 4.5,1.4 1.1,0 2.1,-0.3 3.1,-0.9 v 0 c 1,-0.7 1.6,-1.5 1.6,-2.5 0,-0.9 -0.1,-1.6 -0.4,-2.2 v 0 C -7.7,61 -7.8,60.8 -8,60.6 c 0,0 -0.1,0 -0.1,0 0.6,-1.2 1.5,-2.2 3,-2.7 1.5,-0.6 3.5,-0.9 5.7,-1.1 -1.7,3 -3.3,6.1 -4.8,9.2 -4.9,10.6 -7.4,18.9 -7.4,24.9 0,4 1.5,6.8 4.5,8.3 1.5,0.7 3.9,1.1 7.2,1.1 H 0.8 L 0.4,99.7 c -0.7,-1 -1.1,-2.5 -1.1,-4.6 0,-2.1 0.3,-4.7 0.8,-7.7 C 1.9,78 5.3,67.8 10.3,56.6 13.9,57 17.5,58 21,59.5 l -6.5,30.9 h 13 L 40.9,27.3 40.6,27.2 C 39,26.4 36.7,26 33.8,26 Z m 0,0.7 c 2.7,0 4.8,0.4 6.3,1.1 L 26.9,89.7 H 15.4 L 21.9,59 21.6,58.9 C 17.8,57.2 14,56.1 10.1,55.8 H 9.8 L 9.7,56 C 4.6,67.3 1.2,77.7 -0.5,87.1 c -0.6,3 -0.8,5.6 -0.8,7.8 0,1.9 0.4,3.3 1.1,4.4 -3,0 -5.3,-0.3 -6.4,-0.9 -2.8,-1.4 -4.1,-3.9 -4.1,-7.6 0,-5.8 2.4,-14 7.4,-24.6 1.5,-3.3 3.2,-6.6 5.1,-9.8 L 2,55.8 H 1.3 c -2.7,0.2 -4.9,0.6 -6.7,1.3 -1.8,0.7 -3,1.8 -3.6,3.4 L -9.2,61 h 0.5 c 0,0 0,0 0.1,0.1 0.1,0.1 0.2,0.3 0.3,0.6 v 0 c 0.2,0.5 0.3,1.1 0.3,1.9 0,0.7 -0.4,1.3 -1.2,1.8 -0.9,0.5 -1.7,0.8 -2.7,0.8 -1.8,0 -3.1,-0.4 -4,-1.2 -0.9,-0.8 -1.3,-1.9 -1.3,-3.3 0,-2.8 1.5,-5.1 4.8,-7.2 3.3,-2 7.3,-3 12.2,-3 1.1,0 2.6,0.1 4.4,0.2 H 4.4 L 4.5,51.5 C 9.1,44.3 13.9,38.3 19,33.6 24.2,29.1 29.1,26.7 33.8,26.7 Z m -6.1,5 L 27,32 c -5,2.7 -10.1,9.5 -15.5,20.3 l -0.2,0.4 0.5,0.1 c 3.9,0.8 7.4,1.8 10.3,2.9 l 0.4,0.2 z M 26.6,33.5 22,55 c -2.8,-1.1 -5.9,-2 -9.5,-2.7 4.9,-9.9 9.6,-16 14.1,-18.8 z" />
		</g>
		<g
   id="g1033">
			<path
   id="path1035"
   class="st1"
   d="M 64.7,74.9 C 61.1,85.4 55,90.6 46.4,90.6 c -2.2,0 -4.2,-0.8 -6,-2.4 -1.7,-1.6 -2.6,-4.2 -2.6,-7.8 0,-1.6 0.2,-3.5 0.7,-5.6 l 9.1,-42.6 12.6,-1.7 -9.8,45.9 c -0.2,1 -0.3,2 -0.3,3 0,1.9 1.1,2.9 3.4,2.9 1.7,0 3.2,-0.7 4.6,-2.2 1.4,-1.4 2.5,-3.2 3.1,-5.4 z" />
			<path
   id="path1037"
   class="st1"
   d="M 60.6,30.1 47.2,32 38.1,74.8 v 0 c -0.4,2.1 -0.7,4 -0.7,5.6 0,3.6 0.9,6.3 2.7,8 v 0 c 1.8,1.7 3.9,2.5 6.3,2.5 4.4,0 8.1,-1.3 11.2,-4 3.1,-2.7 5.6,-6.7 7.4,-12 l 0.2,-0.5 h -0.5 -3.9 l -0.1,0.3 c -0.6,2.1 -1.6,3.8 -3,5.2 v 0 0 c -1.4,1.4 -2.8,2 -4.3,2 -1.1,0 -1.9,-0.2 -2.3,-0.6 -0.5,-0.4 -0.7,-1 -0.7,-1.9 0,-1 0.1,-2 0.3,-3 z M 59.7,31 50,76.4 c -0.2,1 -0.3,2.1 -0.3,3.1 0,1 0.3,1.9 1,2.4 0.7,0.6 1.6,0.8 2.8,0.8 1.8,0 3.4,-0.8 4.9,-2.3 1.4,-1.4 2.4,-3.2 3,-5.2 h 2.8 c -1.8,4.9 -4.1,8.7 -7,11.1 -3,2.6 -6.5,3.8 -10.7,3.8 -2.2,0 -4.1,-0.8 -5.8,-2.3 -1.6,-1.5 -2.5,-4 -2.5,-7.5 0,-1.6 0.2,-3.4 0.7,-5.5 l 9,-42.3 z" />
		</g>
		<g
   id="g1039">
			<path
   id="path1041"
   class="st1"
   d="m 96.7,74.9 c -6.4,10.5 -14.2,15.7 -23.4,15.7 -4,0 -7.3,-1 -9.7,-3.1 C 61.2,85.4 60,81.9 60,77.1 c 0,-6.5 1.6,-12.7 4.9,-18.8 2.5,-4.6 5.9,-7.9 10.3,-9.9 2.2,-1.1 4.6,-1.6 7,-1.6 3.9,0 6.6,0.7 8,2.2 1.4,1.5 2.1,3.4 2.1,5.9 0,4.8 -2,9 -5.9,12.4 -3.9,3.4 -8.5,5.2 -13.7,5.6 -0.1,1.6 -0.2,2.7 -0.2,3.4 0,2.9 0.5,4.8 1.5,5.8 1,0.9 2.5,1.4 4.3,1.4 3.3,0 6,-0.7 8.2,-2.2 2.2,-1.5 4.6,-3.6 7.1,-6.4 z M 85.8,54.4 c 0,-2 -0.7,-3.1 -2.1,-3.1 -2.1,0.1 -4.1,1.9 -6,5.5 -1.9,3.6 -3.3,7.6 -4.2,12 3.3,-0.2 6.1,-1.7 8.6,-4.6 2.5,-2.7 3.7,-6 3.7,-9.8 z" />
			<path
   id="path1043"
   class="st1"
   d="m 82.3,46.5 c -2.5,0 -4.8,0.5 -7.1,1.6 -4.4,2 -7.9,5.4 -10.5,10 v 0 c -3.3,6.1 -5,12.4 -5,19 0,4.9 1.2,8.5 3.7,10.7 2.5,2.1 5.8,3.2 9.9,3.2 9.4,0 17.3,-5.4 23.7,-15.9 l 0.3,-0.6 h -0.7 -3.1 l -0.1,0.1 c -2.5,2.8 -4.8,4.9 -7,6.4 -2.1,1.4 -4.8,2.1 -8,2.1 -1.8,0 -3.1,-0.4 -4.1,-1.3 C 73.5,81 73,79.2 73,76.3 c 0,-0.6 0.1,-1.7 0.2,-3.1 5.2,-0.4 9.7,-2.2 13.6,-5.6 4,-3.5 6,-7.7 6,-12.7 0,-2.5 -0.7,-4.6 -2.2,-6.2 -1.6,-1.5 -4.4,-2.2 -8.3,-2.2 z m 0,0.7 c 3.9,0 6.4,0.8 7.7,2.1 v 0 c 1.3,1.4 2,3.2 2,5.6 0,4.7 -1.9,8.7 -5.7,12.1 -3.8,3.3 -8.3,5.1 -13.5,5.5 h -0.3 v 0.3 c -0.1,1.6 -0.2,2.7 -0.2,3.4 0,2.9 0.5,5 1.7,6 v 0 0 c 1.1,1 2.6,1.5 4.6,1.5 3.3,0 6.1,-0.7 8.4,-2.2 2.2,-1.5 4.6,-3.6 7,-6.4 h 2 c -6.2,10 -13.7,15 -22.6,15 -4,0 -7.1,-1 -9.4,-3 -2.3,-2 -3.5,-5.3 -3.5,-10.1 0,-6.4 1.6,-12.6 4.9,-18.6 2.5,-4.6 5.8,-7.8 10.1,-9.7 v 0 c 2.1,-0.9 4.4,-1.5 6.8,-1.5 z m 1.4,3.8 c -1.1,0 -2.3,0.6 -3.3,1.5 -1,0.9 -2.1,2.4 -3,4.2 -2,3.6 -3.4,7.7 -4.2,12.1 L 73,69.3 h 0.5 c 3.4,-0.2 6.3,-1.8 8.8,-4.7 2.5,-2.9 3.8,-6.3 3.8,-10.1 0,-1.1 -0.2,-1.9 -0.6,-2.5 -0.4,-0.6 -1,-1 -1.8,-1 z m 0,0.7 c 0.6,0 1,0.2 1.3,0.6 0.3,0.4 0.5,1.1 0.5,2.1 0,3.7 -1.2,6.9 -3.6,9.6 -2.2,2.6 -4.8,3.9 -7.7,4.3 0.9,-4.1 2.1,-7.9 3.9,-11.3 v 0 c 1,-1.8 1.9,-3.1 2.9,-4 0.9,-0.8 1.8,-1.3 2.7,-1.3 z" />
		</g>
		<g
   id="g1045">
			<path
   id="path1047"
   class="st1"
   d="m 120.1,74.9 c -3.7,10.5 -9.8,15.7 -18.3,15.7 -2.2,0 -4.2,-0.8 -6,-2.4 -1.7,-1.6 -2.6,-4.2 -2.6,-7.8 0,-1.6 0.2,-3.5 0.7,-5.6 l 9.1,-42.6 12.6,-1.7 -9.8,45.9 c -0.2,1 -0.3,2 -0.3,3 0,1.9 1.1,2.9 3.4,2.9 1.7,0 3.2,-0.7 4.6,-2.2 1.4,-1.4 2.5,-3.2 3.1,-5.4 z" />
			<path
   id="path1049"
   class="st1"
   d="M 115.9,30.1 102.6,32 93.5,74.8 c -0.4,2.1 -0.7,4 -0.7,5.6 0,3.6 0.9,6.3 2.7,8 v 0 c 1.8,1.7 3.9,2.5 6.3,2.5 4.4,0 8.1,-1.3 11.2,-4 3.1,-2.7 5.6,-6.7 7.4,-12 l 0.2,-0.5 h -0.5 -3.9 l -0.1,0.3 c -0.6,2.1 -1.6,3.8 -3,5.2 v 0 0 c -1.4,1.4 -2.8,2 -4.3,2 -1.1,0 -1.9,-0.2 -2.3,-0.6 -0.5,-0.4 -0.7,-1 -0.7,-1.9 0,-1 0.1,-2 0.3,-3 z M 115,31 105.4,76.4 c -0.2,1 -0.3,2.1 -0.3,3.1 0,1 0.3,1.9 1,2.4 0.7,0.6 1.6,0.8 2.8,0.8 1.8,0 3.4,-0.8 4.9,-2.3 v 0 c 1.4,-1.4 2.4,-3.2 3,-5.2 h 2.8 c -1.8,4.9 -4.1,8.7 -7,11.1 -3,2.6 -6.5,3.8 -10.7,3.8 -2.1,0 -4.1,-0.8 -5.8,-2.3 -1.6,-1.5 -2.5,-4 -2.5,-7.5 0,-1.6 0.2,-3.4 0.7,-5.5 l 9,-42.3 z" />
		</g>
		<g
   id="g1051">
			<path
   id="path1053"
   class="st1"
   d="m 127.9,75.5 c 0,4.7 1.8,7.1 5.4,7.1 1.6,0 3.3,-0.5 5.1,-1.4 1.9,-0.9 3.5,-2 4.8,-3.2 -1.5,8.4 -6.4,12.6 -14.7,12.6 -4,0 -7.2,-1 -9.6,-3.1 -2.4,-2.1 -3.6,-5.6 -3.6,-10.4 0,-6.5 1.6,-12.7 4.9,-18.8 2.5,-4.6 5.9,-7.9 10.3,-9.9 2.2,-1.1 4.6,-1.6 7,-1.6 3.9,0 6.6,0.7 8,2.2 1.4,1.5 2.1,3.4 2.1,5.9 0,4.9 -2,9 -5.9,12.4 -3.9,3.4 -8.4,5.2 -13.7,5.6 -0.1,0.8 -0.1,1.7 -0.1,2.6 z m 13.2,-21.1 c 0,-2 -0.7,-3.1 -2.1,-3.1 -2.7,0.1 -5.3,3.2 -7.8,9.4 -1.1,2.6 -1.9,5.3 -2.5,8.1 3.3,-0.1 6.1,-1.6 8.6,-4.4 2.5,-2.8 3.8,-6.1 3.8,-10 z" />
			<path
   id="path1055"
   class="st1"
   d="m 137.5,46.5 c -2.5,0 -4.8,0.5 -7.1,1.6 -4.4,2 -7.9,5.4 -10.5,10 v 0 c -3.3,6.1 -5,12.4 -5,19 0,4.9 1.2,8.5 3.7,10.7 v 0 c 2.5,2.1 5.8,3.2 9.8,3.2 4.2,0 7.6,-1.1 10.1,-3.2 2.5,-2.2 4.2,-5.4 4.9,-9.6 l 0.2,-1.1 -0.8,0.7 c -1.3,1.2 -2.9,2.2 -4.7,3.1 -1.8,0.9 -3.4,1.3 -4.9,1.3 -1.7,0 -2.9,-0.5 -3.7,-1.6 -0.8,-1.1 -1.3,-2.8 -1.3,-5.1 0,-0.8 0.1,-1.6 0.2,-2.3 5.2,-0.4 9.7,-2.2 13.6,-5.6 4,-3.4 6,-7.7 6,-12.7 0,-2.5 -0.7,-4.6 -2.2,-6.2 -1.6,-1.5 -4.3,-2.2 -8.3,-2.2 z m 0,0.7 c 3.9,0 6.4,0.8 7.7,2.1 v 0 c 1.3,1.4 2,3.2 2,5.6 0,4.8 -1.9,8.8 -5.7,12.1 -3.8,3.3 -8.3,5.1 -13.5,5.5 h -0.3 v 0.3 c -0.1,0.8 -0.2,1.7 -0.2,2.6 0,2.4 0.5,4.2 1.4,5.5 1,1.3 2.5,1.9 4.3,1.9 1.6,0 3.4,-0.5 5.3,-1.4 1.5,-0.8 2.8,-1.7 4,-2.6 -0.8,3.6 -2.2,6.4 -4.4,8.3 -2.4,2 -5.6,3.1 -9.6,3.1 -3.9,0 -7,-1 -9.3,-3 -2.3,-2 -3.5,-5.3 -3.5,-10.1 0,-6.4 1.6,-12.6 4.9,-18.6 2.5,-4.6 5.9,-7.8 10.1,-9.7 v 0 c 2.2,-1 4.4,-1.6 6.8,-1.6 z m 1.4,3.8 c -1.5,0.1 -2.9,1 -4.2,2.6 -1.3,1.6 -2.6,4 -3.9,7 -1.1,2.6 -1.9,5.4 -2.5,8.2 l -0.1,0.5 h 0.5 c 3.4,-0.1 6.4,-1.6 8.9,-4.5 2.6,-2.9 3.9,-6.4 3.9,-10.3 0,-1.1 -0.2,-1.9 -0.6,-2.5 -0.5,-0.7 -1.2,-1 -2,-1 z m 0.1,0.7 c 0.6,0 1,0.2 1.3,0.6 0.3,0.4 0.5,1.1 0.5,2.1 0,3.8 -1.2,7 -3.7,9.8 v 0 c -2.3,2.6 -4.9,3.9 -7.8,4.1 0.6,-2.6 1.4,-5.1 2.3,-7.5 1.2,-3 2.5,-5.3 3.7,-6.9 1.2,-1.4 2.5,-2.1 3.7,-2.2 z" />
		</g>
		<g
   id="g1057">
			<path
   id="path1059"
   class="st1"
   d="m 156.3,42.4 5.2,-16.1 h 8.9 l -7.8,16.1 z" />
			<path
   id="path1061"
   class="st1"
   d="m 161.2,26 -5.4,16.8 h 0.5 6.6 L 171,26 Z m 0.6,0.7 h 8 L 162.4,42 h -5.6 z" />
		</g>
		<g
   id="g1063">
			<path
   id="path1065"
   class="st1"
   d="m 195.2,45 c 0.2,5.3 0.4,9.8 0.7,13.3 l 1,13.5 c 0.1,1.3 0.2,2.8 0.2,4.4 0,1.6 -0.3,3.2 -0.8,4.6 -0.5,1.4 -1.2,2.7 -2.1,3.8 -1.6,2 -3.7,3.6 -6.3,4.5 -2.6,0.9 -5.1,1.4 -7.5,1.4 -4.2,0 -7.4,-1.1 -9.5,-3.2 -2.2,-2.2 -3.2,-4.5 -3.2,-6.9 0,-2.5 0.5,-4.4 1.4,-5.7 0.9,-1.3 2,-2.3 3.1,-2.9 4,-7.1 7.5,-15.5 10.5,-25.2 z m -18.6,38.9 c 5.4,0 8.1,-2.6 8.1,-7.9 0,-1.5 -0.1,-3.2 -0.3,-5.2 l -0.5,-4.9 c -0.3,-3.1 -0.6,-6.5 -0.8,-10.1 -1.4,4.6 -3.7,10 -6.9,16.1 1.3,0.6 2,1.5 2,2.7 0,1.2 -0.3,2.2 -1,3.1 -0.7,0.9 -1.6,1.3 -2.7,1.3 -1.1,0 -1.9,-0.4 -2.2,-1.1 -0.1,4 1.4,6 4.3,6 z" />
			<path
   id="path1067"
   class="st1"
   d="m 195.6,44.6 h -0.4 l -12.8,1.7 -0.1,0.2 c -3,9.6 -6.5,18 -10.4,25.1 0,0 0,0 0,0 -1.1,0.6 -2.2,1.5 -3.1,2.8 -1,1.4 -1.5,3.4 -1.5,5.9 0,2.5 1.1,5 3.3,7.2 2.2,2.2 5.5,3.3 9.8,3.3 2.5,0 5,-0.5 7.6,-1.4 v 0 c 2.6,-1 4.8,-2.5 6.5,-4.6 0.9,-1.1 1.6,-2.4 2.1,-3.9 v 0 c 0.5,-1.5 0.8,-3.1 0.8,-4.8 0,-1.6 -0.1,-3.1 -0.2,-4.5 l -1,-13.5 v 0 c -0.2,-3.6 -0.4,-8 -0.7,-13.3 z m -0.7,0.8 c 0.2,5.1 0.4,9.5 0.6,12.9 v 0 l 1,13.5 c 0.1,1.3 0.2,2.8 0.2,4.4 0,1.6 -0.3,3.1 -0.8,4.5 v 0 c -0.5,1.4 -1.2,2.6 -2,3.7 v 0 c -1.6,2 -3.6,3.5 -6.1,4.4 -2.5,0.9 -5,1.4 -7.3,1.4 -4.1,0 -7.2,-1.1 -9.3,-3.1 -2.1,-2.1 -3.1,-4.3 -3.1,-6.7 0,-2.4 0.5,-4.2 1.3,-5.5 0.9,-1.3 1.9,-2.2 3,-2.7 l 0.1,-0.1 0.1,-0.1 c 4,-7.1 7.4,-15.5 10.4,-25 z m -12.1,10.4 c -1.4,4.6 -3.7,9.9 -6.9,16 l -0.2,0.3 0.4,0.2 c 1.2,0.6 1.7,1.3 1.7,2.4 0,1.1 -0.3,2.1 -1,2.9 -0.6,0.8 -1.4,1.1 -2.4,1.1 -1.1,0 -1.6,-0.3 -1.9,-0.9 l -0.7,0.2 c 0,0.1 0,0.1 0,0.2 0,0 0,0 0,0 0,1.9 0.4,3.5 1.1,4.5 0.8,1.1 2.1,1.6 3.6,1.6 2.8,0 4.9,-0.7 6.4,-2.1 1.5,-1.4 2.1,-3.5 2.1,-6.2 0,-1.5 -0.1,-3.2 -0.3,-5.2 L 184.2,66 v 0 c -0.3,-3.1 -0.6,-6.5 -0.8,-10.1 z m 0.1,1.6 c 0.2,3 0.4,5.9 0.7,8.6 l 0.5,4.9 v 0 c 0.2,2 0.3,3.7 0.3,5.1 0,2.6 -0.7,4.4 -1.9,5.6 -1.3,1.2 -3.2,1.9 -5.8,1.9 -1.4,0 -2.4,-0.4 -3,-1.3 -0.6,-0.8 -0.8,-2.1 -0.9,-3.6 0.5,0.4 0.9,0.9 1.7,0.9 1.3,0 2.3,-0.5 3,-1.4 0.7,-0.9 1.1,-2.1 1.1,-3.3 0,-1.2 -0.8,-2.1 -1.9,-2.7 2.8,-5.6 4.8,-10.4 6.2,-14.7 z" />
		</g>
		<g
   id="g1069">
			<path
   id="path1071"
   class="st1"
   d="m 268.2,90.6 c -7.2,0 -10.9,-3.2 -10.9,-9.6 0,-2.3 0.6,-6 1.9,-11.1 1.3,-5.1 1.9,-8.6 1.9,-10.5 0,-2.9 -1,-4.4 -3.1,-4.4 -2.1,0 -3.9,1.6 -5.5,4.9 -0.5,0.9 -0.4,2 -0.7,3.1 l -6.2,26.9 -12.3,0.3 6.2,-29.3 c 0.2,-0.7 0.2,-1.4 0.2,-2.1 0,-2.5 -0.8,-3.7 -2.5,-3.7 -1.7,0 -3.1,0.8 -4.3,2.4 -1.2,1.5 -1.4,3.3 -2.1,5.5 l -5.8,27.5 -12.8,-0.1 9,-42.5 13,-0.7 -0.8,3.9 c 2.8,-3.2 5.4,-3.6 9.5,-3.6 5,0 8.3,1.8 9.1,6.7 3.1,-4.8 6.7,-6.6 11.4,-6.6 2.7,0 5.15056,0.672163 6.95056,2.172163 1.8,1.5 2.72784,3.783512 2.72784,6.683512 0,2.9 -0.0784,6.044325 -0.9784,9.844325 l -2.6,8.1 c -0.4,1.8 -0.37723,3.601684 -0.43808,4.7 -0.11136,2.010276 0.63808,3.7 2.73808,3.7 1.9,0 3.4,-0.6 4.4,-1.8 1,-1.2 2,-3.1 3,-5.7 h 3.6 c -2.1,6.3 -4.8,10.6 -8,13.2 -1.8,1.3 -4.1,2.1 -6.6,2.1 z"
   sodipodi:nodetypes="ssssscccccsscccccccscsssccssscccs" />
			<path
   id="path1073"
   class="st1"
   d="m 243.2,46.8 c -3.8,0 -7.1,1.6 -9.8,4.3 l 0.8,-3.9 h -13 L 212,90.5 h 13 L 230.8,63 v 0 c 0.6,-2.1 1.5,-3.9 2.6,-5.4 1.1,-1.5 2.4,-2.2 4,-2.2 0.8,0 1.2,0.2 1.6,0.8 0.4,0.5 0.6,1.4 0.6,2.6 0,0.7 -0.1,1.4 -0.2,2 v 0 L 233,90.5 h 13 L 251.8,63 v 0 0 c 0.3,-1 0.7,-2 1.1,-2.9 v 0 c 0.8,-1.6 1.6,-2.8 2.5,-3.5 0.9,-0.8 1.7,-1.1 2.7,-1.1 0.9,0 1.6,0.3 2,0.9 0.4,0.6 0.7,1.6 0.7,3.1 0,1.9 -0.6,5.4 -1.9,10.5 -1.3,5.1 -1.9,8.8 -1.9,11.2 0,3.3 0.9,5.8 2.8,7.5 1.9,1.7 4.7,2.5 8.4,2.5 2.5,0 4.9,-0.9 7.2,-2.7 v 0 c 3.3,-2.6 6,-7 8.1,-13.3 l 0.2,-0.5 h -4.3 l -0.1,0.2 c -1,2.6 -2,4.4 -3,5.6 -0.9,1.1 -2.3,1.7 -4.1,1.7 -1,0 -1.6,-0.3 -2.1,-0.8 -0.4,-0.5 -0.7,-1.3 -0.7,-2.5 0,-1.1 0.2,-2.5 0.7,-4.3 v 0 l 2,-8.3 v 0 c 0.9,-3.8 1.4,-7.1 1.4,-10 0,-3 -0.9,-5.3 -2.8,-6.8 -1.9,-1.6 -4.2,-2.3 -7,-2.3 -4.7,0 -8.6,2.4 -11.7,7 -0.5,-2.2 -1.2,-4 -2.6,-5.1 -1.6,-1.7 -3.7,-2.3 -6.2,-2.3 z m 0,0.8 c 2.4,0 4.3,0.6 5.7,1.7 1.4,1.1 2.3,2.9 2.7,5.2 l 0.2,1 0.5,-0.8 c 3.1,-4.7 6.9,-7 11.5,-7 2.6,0 4.8,0.7 6.5,2.2 1.7,1.4 2.6,3.5 2.6,6.3 0,2.8 -0.5,6.1 -1.4,9.9 l -2,8.3 v 0 c -0.4,1.8 -0.7,3.3 -0.7,4.5 0,1.3 0.3,2.3 0.9,3 0.6,0.7 1.5,1 2.6,1 2,0 3.6,-0.7 4.7,-2 1,-1.2 2,-3.1 3,-5.6 h 2.8 c -2.1,5.9 -4.6,10.1 -7.6,12.5 -2.2,1.7 -4.4,2.5 -6.7,2.5 -3.6,0 -6.2,-0.8 -7.9,-2.3 -1.7,-1.5 -2.6,-3.8 -2.6,-6.9 0,-2.3 0.6,-6 1.9,-11 1.3,-5.1 1.9,-8.6 1.9,-10.6 0,-1.5 -0.3,-2.7 -0.8,-3.5 -0.6,-0.8 -1.5,-1.3 -2.6,-1.3 -1.1,0 -2.2,0.5 -3.2,1.3 -1,0.8 -1.8,2.1 -2.7,3.8 -0.5,0.9 -0.9,2 -1.2,3.1 v 0 l -5.7,27 H 234.1 L 240.2,61 c 0.2,-0.7 0.3,-1.4 0.3,-2.2 0,-1.3 -0.2,-2.3 -0.7,-3 -0.5,-0.7 -1.3,-1.1 -2.2,-1.1 -1.8,0 -3.3,0.9 -4.6,2.5 -1.2,1.6 -2.1,3.5 -2.7,5.7 v 0 l -5.7,27 H 213.1 L 222,48.2 h 11.5 l -1.1,5.3 0.9,-1.1 c 2.5,-3.3 5.9,-4.8 9.9,-4.8 z" />
		</g>
		<g
   id="g1075">
			<path
   id="path1077"
   class="st1"
   d="m 315.1,74.9 c -6.4,10.5 -14.2,15.7 -23.4,15.7 -4,0 -7.3,-1 -9.7,-3.1 -2.4,-2.1 -3.6,-5.6 -3.6,-10.4 0,-6.5 1.6,-12.7 4.9,-18.8 2.5,-4.6 5.9,-7.9 10.3,-9.9 2.2,-1.1 4.6,-1.6 7,-1.6 3.9,0 6.6,0.7 8,2.2 1.4,1.5 2.1,3.4 2.1,5.9 0,4.8 -2,9 -5.9,12.4 -3.9,3.4 -8.5,5.2 -13.7,5.6 -0.1,1.6 -0.2,2.7 -0.2,3.4 0,2.9 0.5,4.8 1.5,5.8 1,0.9 2.5,1.4 4.3,1.4 3.3,0 6,-0.7 8.2,-2.2 2.2,-1.5 4.6,-3.6 7.1,-6.4 z M 304.3,54.4 c 0,-2 -0.7,-3.1 -2.1,-3.1 -2.1,0.1 -4.1,1.9 -6,5.5 -1.9,3.6 -3.3,7.6 -4.2,12 3.3,-0.2 6.1,-1.7 8.6,-4.6 2.4,-2.7 3.7,-6 3.7,-9.8 z" />
			<path
   id="path1079"
   class="st1"
   d="m 300.7,46.5 c -2.5,0 -4.8,0.5 -7.1,1.6 -4.4,2 -7.9,5.4 -10.5,10 v 0 c -3.3,6.1 -5,12.4 -5,19 0,4.9 1.2,8.5 3.7,10.7 2.5,2.1 5.8,3.2 9.9,3.2 9.4,0 17.3,-5.4 23.7,-15.9 l 0.3,-0.6 h -0.7 -3.1 l -0.1,0.1 c -2.5,2.8 -4.8,4.9 -7,6.4 -2.1,1.4 -4.8,2.1 -8,2.1 -1.8,0 -3.1,-0.4 -4.1,-1.3 -0.9,-0.8 -1.4,-2.6 -1.4,-5.5 0,-0.6 0.1,-1.7 0.2,-3.1 5.2,-0.4 9.7,-2.2 13.6,-5.6 4,-3.5 6,-7.7 6,-12.7 0,-2.5 -0.7,-4.6 -2.2,-6.2 -1.5,-1.5 -4.2,-2.2 -8.2,-2.2 z m 0,0.7 c 3.9,0 6.4,0.8 7.7,2.1 v 0 c 1.3,1.4 2,3.2 2,5.6 0,4.7 -1.9,8.7 -5.7,12.1 -3.8,3.3 -8.3,5.1 -13.5,5.5 h -0.3 v 0.3 c -0.1,1.6 -0.2,2.7 -0.2,3.4 0,2.9 0.5,5 1.7,6 v 0 0 c 1.1,1 2.6,1.5 4.6,1.5 3.3,0 6.1,-0.7 8.4,-2.2 2.2,-1.5 4.6,-3.6 7,-6.4 h 2 c -6.2,10 -13.8,15 -22.6,15 -4,0 -7.1,-1 -9.4,-3 -2.3,-2 -3.5,-5.3 -3.5,-10.1 0,-6.4 1.6,-12.6 4.9,-18.6 2.5,-4.6 5.8,-7.8 10.1,-9.7 v 0 c 2.2,-0.9 4.4,-1.5 6.8,-1.5 z m 1.4,3.8 c -1.1,0 -2.3,0.6 -3.3,1.5 -1,1 -2.1,2.4 -3,4.2 -2,3.6 -3.4,7.7 -4.2,12.1 l -0.1,0.5 h 0.5 c 3.4,-0.2 6.3,-1.8 8.8,-4.7 2.5,-2.9 3.8,-6.3 3.8,-10.1 0,-1.1 -0.2,-1.9 -0.6,-2.5 -0.4,-0.6 -1.1,-1 -1.9,-1 z m 0,0.7 c 0.6,0 1,0.2 1.3,0.6 0.3,0.4 0.5,1.1 0.5,2.1 0,3.7 -1.2,6.9 -3.6,9.6 -2.2,2.6 -4.8,3.9 -7.7,4.3 0.9,-4.1 2.1,-7.9 3.9,-11.3 v 0 c 1,-1.8 1.9,-3.1 2.9,-4 0.9,-0.8 1.8,-1.3 2.7,-1.3 z" />
		</g>
		<g
   id="g1081">
			<path
   id="path1083"
   class="st1"
   d="m 364.8,90.6 c -7.2,0 -10.9,-3.2 -10.9,-9.6 0,-2.3 0.6,-6 1.9,-11.1 1.3,-5.1 1.9,-8.6 1.9,-10.5 0,-2.9 -1,-4.4 -3.1,-4.4 -2.1,0 -3.9,1.6 -5.5,4.9 -0.5,0.9 -0.9,1.9 -1.2,3 l -5.8,27.3 H 330 l 6.2,-29.3 c 0.2,-0.7 0.2,-1.4 0.2,-2.1 0,-2.5 -0.8,-3.7 -2.5,-3.7 -1.7,0 -3.1,0.8 -4.3,2.4 -1.2,1.5 -2,3.4 -2.7,5.6 l -5.8,27.3 H 309 l 9,-42.5 h 12.2 l -0.9,4.4 c 2.8,-3.2 6.3,-4.8 10.4,-4.8 5,0 7.9,2.4 8.7,7.3 3.1,-4.8 7.1,-7.2 11.8,-7.2 2.7,0 4.9,0.7 6.7,2.2 1.8,1.5 2.7,3.7 2.7,6.6 0,2.9 -0.5,6.2 -1.4,10 l -2,8.3 c -0.4,1.8 -0.7,3.3 -0.7,4.4 0,2.4 1,3.7 3.1,3.7 1.9,0 3.4,-0.6 4.4,-1.8 1,-1.2 2,-3.1 3,-5.7 h 3.6 c -2.1,6.3 -4.8,10.6 -8,13.2 -2.1,1.3 -4.4,2.1 -6.8,2.1 z" />
			<path
   id="path1085"
   class="st1"
   d="m 339.7,46.8 c -3.8,0 -7.1,1.6 -9.8,4.3 l 0.8,-3.9 h -13 l -9.2,43.3 h 13 L 327.3,63 v 0 c 0.6,-2.1 1.5,-3.9 2.6,-5.4 1.1,-1.5 2.4,-2.2 4,-2.2 0.8,0 1.2,0.2 1.6,0.8 0.4,0.5 0.6,1.4 0.6,2.6 0,0.7 -0.1,1.4 -0.2,2 v 0 l -6.3,29.8 h 13 l 5.8,-27.5 v 0 0 c 0.3,-1 0.7,-2 1.1,-2.9 v 0 c 0.8,-1.6 1.6,-2.8 2.5,-3.5 0.9,-0.8 1.7,-1.1 2.7,-1.1 0.9,0 1.6,0.3 2,0.9 0.4,0.6 0.7,1.6 0.7,3.1 0,1.9 -0.6,5.4 -1.9,10.5 -1.3,5.1 -1.9,8.8 -1.9,11.2 0,3.3 0.9,5.8 2.8,7.5 1.9,1.7 4.7,2.5 8.4,2.5 2.5,0 4.9,-0.9 7.2,-2.7 v 0 c 3.3,-2.6 6,-7 8.1,-13.3 l 0.2,-0.5 H 376 l -0.1,0.2 c -1,2.6 -2,4.4 -3,5.6 -0.9,1.1 -2.3,1.7 -4.1,1.7 -1,0 -1.6,-0.3 -2,-0.8 -0.4,-0.5 -0.7,-1.3 -0.7,-2.5 0,-1.1 0.2,-2.5 0.7,-4.3 v 0 l 2,-8.3 v 0 c 0.9,-3.8 1.4,-7.1 1.4,-10 0,-3 -0.9,-5.3 -2.8,-6.8 -1.9,-1.6 -4.2,-2.3 -7,-2.3 -4.7,0 -8.6,2.4 -11.7,7 -0.5,-2.2 -1.2,-4 -2.6,-5.1 -1.8,-1.8 -3.8,-2.4 -6.4,-2.4 z m 0,0.8 c 2.4,0 4.3,0.6 5.7,1.7 1.4,1.1 2.3,2.9 2.7,5.2 l 0.2,1 0.5,-0.8 c 3.1,-4.7 6.9,-7 11.5,-7 2.6,0 4.8,0.7 6.5,2.2 1.7,1.4 2.6,3.5 2.6,6.3 0,2.8 -0.5,6.1 -1.4,9.9 l -2,8.3 c -0.4,1.8 -0.7,3.3 -0.7,4.5 0,1.3 0.3,2.3 0.9,3 0.6,0.7 1.5,1 2.6,1 2,0 3.6,-0.7 4.7,-2 1,-1.2 2,-3.1 3,-5.6 h 2.8 c -2.1,5.9 -4.6,10.1 -7.6,12.5 -2.2,1.7 -4.4,2.5 -6.7,2.5 -3.6,0 -6.2,-0.8 -7.9,-2.3 -1.7,-1.5 -2.6,-3.8 -2.6,-6.9 0,-2.3 0.6,-6 1.9,-11 1.3,-5.1 1.9,-8.6 1.9,-10.6 0,-1.5 -0.3,-2.7 -0.8,-3.5 -0.6,-0.8 -1.5,-1.3 -2.6,-1.3 -1.1,0 -2.2,0.5 -3.2,1.3 -1,0.8 -1.8,2.1 -2.7,3.8 -0.5,0.9 -0.9,2 -1.2,3.1 v 0 l -5.7,27 H 330.6 L 336.7,61 c 0.2,-0.7 0.3,-1.4 0.3,-2.2 0,-1.3 -0.2,-2.3 -0.7,-3 -0.5,-0.7 -1.3,-1.1 -2.2,-1.1 -1.8,0 -3.3,0.9 -4.6,2.5 -1.2,1.6 -2.1,3.5 -2.7,5.7 v 0 l -5.7,27 h -11.5 l 8.9,-41.8 H 330 l -1.1,5.3 0.9,-1.1 c 2.6,-3.2 5.9,-4.7 9.9,-4.7 z" />
		</g>
		<g
   id="g1087">
			<path
   id="path1089"
   class="st1"
   d="m 423.9,57.8 c -3.4,3.6 -8.5,5.9 -15.1,7.1 -0.7,7.7 -2.9,13.9 -6.7,18.6 -3.8,4.6 -8.3,7 -13.6,7 -6.5,0 -10.7,-2.4 -12.6,-7.2 -0.7,-1.7 -1,-3.6 -1,-5.6 0,-2 0.2,-4.1 0.5,-6.2 0.3,-2.1 0.9,-4.3 1.6,-6.6 1.7,-5.1 4.1,-9.2 7.3,-12.3 3.8,-3.8 8.4,-5.6 13.8,-5.6 7.3,0 10.9,4.5 10.9,13.6 v 0.1 c 0.3,0.1 0.7,0.1 1.4,0.1 1.5,0 3.5,-0.5 5.9,-1.5 2.4,-1 4.7,-2.2 6.8,-3.7 z m -22.1,7.3 c -1.5,-0.4 -2.3,-1.6 -2.3,-3.8 0,-2.1 0.9,-3.6 2.7,-4.4 -0.1,-1.8 -0.4,-3.1 -0.9,-3.8 -0.4,-0.7 -1.3,-1.1 -2.7,-1.1 -2.6,0 -5.1,2.9 -7.5,8.6 -2.4,5.7 -3.6,10.8 -3.6,15.3 0,2.7 0.2,4.5 0.7,5.2 0.5,0.7 1,1.2 1.6,1.4 0.6,0.2 1.3,0.3 2.2,0.3 1.9,0 3.9,-1.7 5.8,-5.1 2,-3.4 3.3,-7.6 4,-12.6 z" />
			<path
   id="path1091"
   class="st1"
   d="m 398.2,46.5 c -5.5,0 -10.2,1.9 -14,5.8 -3.3,3.2 -5.7,7.4 -7.4,12.5 -0.8,2.3 -1.3,4.5 -1.6,6.6 v 0 c -0.4,2.1 -0.5,4.2 -0.5,6.3 0,2.1 0.3,4 1,5.7 1.9,4.9 6.3,7.5 13,7.5 5.4,0 10.1,-2.4 13.9,-7.1 3.8,-4.7 6,-10.9 6.7,-18.5 6.5,-1.1 11.6,-3.5 15,-7.1 l 0.2,-0.2 -0.1,-0.2 -0.9,-2.8 -0.4,0.3 c -2.1,1.5 -4.3,2.7 -6.7,3.6 v 0 c -2.4,1 -4.3,1.4 -5.7,1.4 -0.5,0 -0.8,0 -1.1,-0.1 0,-4.4 -0.9,-7.8 -2.8,-10.1 -2,-2.4 -4.9,-3.6 -8.6,-3.6 z m 0,0.7 c 3.6,0 6.2,1.1 7.9,3.2 1.7,2.2 2.6,5.5 2.6,9.9 v 0.4 l 0.3,0.1 c 0.3,0.1 0.8,0.1 1.5,0.1 1.6,0 3.6,-0.5 6,-1.5 2.3,-0.9 4.4,-2.1 6.4,-3.5 l 0.5,1.6 c -3.4,3.4 -8.2,5.7 -14.7,6.8 h -0.3 v 0.3 c -0.7,7.7 -2.9,13.8 -6.6,18.4 -3.7,4.6 -8.1,6.8 -13.3,6.8 -6.4,0 -10.4,-2.3 -12.3,-7 -0.6,-1.6 -1,-3.5 -1,-5.5 0,-2 0.2,-4.1 0.5,-6.2 v 0 c 0.3,-2.1 0.9,-4.3 1.6,-6.5 1.7,-5 4.1,-9.1 7.3,-12.2 3.9,-3.3 8.3,-5.2 13.6,-5.2 z m 0.4,4.4 c -1.4,0 -2.8,0.8 -4.1,2.3 -1.3,1.5 -2.5,3.7 -3.7,6.6 -2.4,5.8 -3.6,10.9 -3.6,15.4 0,2.8 0.2,4.5 0.8,5.4 v 0 0 c 0.5,0.8 1.1,1.3 1.8,1.5 0.6,0.2 1.4,0.3 2.4,0.3 1.1,0 2.1,-0.5 3.1,-1.4 1,-0.9 2,-2.2 3,-3.9 1.9,-3.5 3.2,-7.7 3.9,-12.7 v -0.3 l -0.3,-0.1 c -0.7,-0.2 -1.2,-0.5 -1.5,-1.1 -0.3,-0.5 -0.5,-1.3 -0.5,-2.3 0,-2 0.8,-3.3 2.4,-4.1 l 0.2,-0.1 v -0.3 c -0.1,-1.8 -0.4,-3.1 -0.9,-4 -0.5,-0.7 -1.6,-1.2 -3,-1.2 z m 0,0.8 c 1.3,0 2,0.3 2.3,0.9 v 0 0 c 0.4,0.6 0.7,1.8 0.8,3.5 -1.7,0.9 -2.6,2.4 -2.6,4.5 0,1.1 0.2,2 0.6,2.7 0.4,0.6 1,0.9 1.6,1.2 -0.7,4.9 -1.9,9 -3.8,12.3 -0.9,1.7 -1.9,2.9 -2.8,3.7 -0.9,0.8 -1.8,1.2 -2.6,1.2 -0.9,0 -1.6,-0.1 -2.1,-0.3 -0.4,-0.2 -0.9,-0.5 -1.4,-1.2 -0.4,-0.6 -0.7,-2.3 -0.7,-5 0,-4.4 1.2,-9.4 3.5,-15.1 1.2,-2.9 2.4,-5 3.6,-6.4 1.3,-1.4 2.5,-2 3.6,-2 z" />
		</g>
		<g
   id="g1093">
			<path
   id="path1095"
   class="st1"
   d="m 410.2,90.1 9,-42.5 h 12.2 l -1.1,5.3 c 1.4,-1.2 3,-2.4 4.6,-3.6 1.7,-1.1 3.6,-1.7 5.5,-1.7 2,0 3.5,0.7 4.5,2 1,1.3 1.5,2.5 1.5,3.7 0,2 -0.6,3.7 -1.7,5 -1.1,1.3 -2.4,1.9 -3.9,1.9 -1.5,0 -2.6,-0.3 -3.1,-1 -0.5,-0.7 -0.8,-1.4 -0.9,-2.2 -0.1,-0.7 -0.3,-1.3 -0.5,-1.7 -0.2,-0.4 -0.5,-0.7 -1.1,-0.7 -1.2,0 -2.2,0.3 -3.1,0.8 -0.9,0.5 -1.9,1.3 -3,2.4 l -6.8,32.3 z" />
			<path
   id="path1097"
   class="st1"
   d="m 418.9,47.2 -9.2,43.3 h 0.5 12.5 L 429.5,58 c 1.1,-1 2.1,-1.8 2.9,-2.3 v 0 c 0.8,-0.5 1.8,-0.8 2.9,-0.8 0.2,0 0.4,0 0.5,0.1 0.1,0.1 0.2,0.2 0.2,0.3 v 0 0 c 0.2,0.4 0.3,0.9 0.4,1.6 0.1,0.8 0.5,1.6 1,2.3 v 0 0 c 0.6,0.8 1.8,1.2 3.4,1.2 1.7,0 3.1,-0.7 4.2,-2 1.2,-1.3 1.7,-3.1 1.7,-5.2 0,-1.3 -0.5,-2.6 -1.6,-4 -1.1,-1.4 -2.7,-2.1 -4.8,-2.1 -2,0 -4,0.6 -5.7,1.8 -1.4,0.9 -2.7,1.9 -3.9,3 l 1,-4.7 z m 0.6,0.8 H 431 l -1.2,5.9 0.8,-0.7 c 1.4,-1.2 2.9,-2.4 4.6,-3.5 1.7,-1.1 3.4,-1.6 5.3,-1.6 1.9,0 3.3,0.6 4.2,1.8 1,1.3 1.4,2.4 1.4,3.5 0,2 -0.5,3.5 -1.6,4.7 v 0 c -1,1.2 -2.2,1.8 -3.7,1.8 -1.5,0 -2.4,-0.3 -2.8,-0.9 -0.5,-0.7 -0.7,-1.3 -0.8,-2 -0.1,-0.8 -0.3,-1.4 -0.5,-1.8 -0.1,-0.3 -0.3,-0.5 -0.6,-0.7 -0.3,-0.2 -0.6,-0.2 -0.9,-0.2 -1.2,0 -2.3,0.3 -3.3,0.9 -0.9,0.5 -1.9,1.4 -3.1,2.5 l -0.1,0.1 -6.8,32.1 h -11.5 z" />
		</g>
		<g
   id="g1099">
			<path
   id="path1101"
   class="st1"
   d="m 457.1,78.7 c 0,2.5 0.8,3.7 2.5,3.7 3,0 5.3,-2.5 6.8,-7.5 l 5.8,-27.3 h 12.3 l -10.4,49.3 c -1.1,5.4 -3.3,9.4 -6.6,11.8 -2.4,1.8 -5.2,2.7 -8.3,2.7 -3.1,0 -5.7,-0.9 -7.7,-2.6 -2,-1.7 -3,-3.8 -3,-6.1 0,-2.3 0.4,-4.2 1.1,-5.5 0.8,-1.4 2,-2.6 3.6,-3.7 1.6,-1.2 4.9,-2.5 10,-4 l 0.9,-3.7 c -2.9,3.3 -6.3,4.9 -10.4,4.9 -2.5,0 -4.7,-0.8 -6.5,-2.4 -1.7,-1.6 -2.6,-4.2 -2.6,-7.8 0,-1.6 0.2,-3.5 0.7,-5.6 l 5.8,-27.3 h 12.2 l -6.1,28.9 c 0,0.7 -0.1,1.4 -0.1,2.2 z m 5.7,13.4 c -3,1.1 -5.1,2.1 -6.3,3 -2.1,1.7 -3.2,3.7 -3.2,5.8 0,0.6 0.3,1.3 1,1.9 0.7,0.6 1.5,1 2.4,1 0.9,0 1.9,-0.5 2.8,-1.5 1,-1 1.7,-2.7 2.2,-5.2 z" />
			<path
   id="path1103"
   class="st1"
   d="M 450.9,47.2 445,74.8 c -0.4,2.1 -0.7,4 -0.7,5.6 0,3.6 0.9,6.3 2.7,8 v 0 0 c 1.8,1.7 4.1,2.5 6.7,2.5 3.8,0 7,-1.6 9.8,-4.3 l -0.6,2.5 c -4.9,1.5 -8.2,2.7 -9.8,3.9 -1.7,1.2 -2.9,2.4 -3.7,3.9 v 0 c -0.8,1.4 -1.2,3.3 -1.2,5.7 0,2.4 1.1,4.6 3.1,6.4 v 0 c 2.1,1.8 4.7,2.7 7.9,2.7 3.2,0 6,-0.9 8.5,-2.7 3.4,-2.5 5.6,-6.5 6.7,-12 v 0 L 485,47.2 h -13.1 l -5.8,27.5 c -0.8,2.5 -1.7,4.3 -2.8,5.5 -1.1,1.2 -2.3,1.8 -3.7,1.8 -0.8,0 -1.2,-0.2 -1.6,-0.8 -0.4,-0.5 -0.6,-1.4 -0.6,-2.6 0,-0.7 0.1,-1.4 0.2,-2.1 v 0 l 6.2,-29.3 z m 0.6,0.8 H 463 l -6,28.4 c -0.2,0.7 -0.3,1.5 -0.3,2.2 V 79 h 0.1 c 0,1.1 0.2,2 0.6,2.6 0.5,0.7 1.3,1.1 2.2,1.1 1.6,0 3,-0.7 4.2,-2 1.2,-1.3 2.2,-3.2 2.9,-5.8 v 0 l 5.7,-27 H 484 l -10.3,48.9 c -1.1,5.4 -3.2,9.2 -6.4,11.6 -2.3,1.7 -5,2.6 -8,2.6 -3,0 -5.5,-0.8 -7.4,-2.5 v 0 c -1.9,-1.7 -2.9,-3.6 -2.9,-5.8 0,-2.3 0.4,-4.1 1.1,-5.3 v 0 c 0.7,-1.3 1.9,-2.5 3.5,-3.6 v 0 0 c 1.5,-1.1 4.8,-2.4 9.8,-3.9 l 0.2,-0.1 0.9,-3.9 -0.6,-0.3 c -2.8,3.2 -6.2,4.8 -10.1,4.8 -2.5,0 -4.5,-0.8 -6.2,-2.3 -1.6,-1.5 -2.5,-4 -2.5,-7.5 0,-1.6 0.2,-3.4 0.7,-5.5 z m 11.8,43.6 -0.6,0.2 c -3.1,1.1 -5.2,2.1 -6.4,3.1 v 0 c -2.2,1.8 -3.3,3.8 -3.3,6.1 0,0.8 0.4,1.5 1.1,2.1 0.8,0.7 1.6,1.1 2.6,1.1 1,0 2.1,-0.6 3.1,-1.6 1.1,-1.1 1.8,-2.8 2.3,-5.4 v 0 z m -1.1,1.2 -0.9,4.3 c -0.5,2.5 -1.3,4.1 -2.1,5 -0.9,0.9 -1.8,1.3 -2.6,1.3 -0.8,0 -1.5,-0.3 -2.1,-0.9 -0.6,-0.6 -0.9,-1.1 -0.9,-1.6 0,-2 1,-3.8 3,-5.5 1.1,-0.7 3.1,-1.6 5.6,-2.6 z" />
		</g>
		<g
   id="g1105">
			<path
   id="path1107"
   class="st1"
   d="m 523.4,86 c -3,3.1 -6.4,4.6 -10.2,4.6 -5.1,0 -8.6,-2.4 -10.4,-7.3 -0.6,-1.7 -1,-3.7 -1,-5.9 0,-2.2 0.2,-4.5 0.6,-6.7 0.4,-2.2 1,-4.5 1.8,-6.7 1.8,-4.9 4.3,-8.9 7.6,-12.1 3.3,-3.2 7.3,-4.8 11.9,-4.8 2.4,0 4.2,0.4 5.3,1.2 1.1,0.8 1.6,1.8 1.6,3.1 V 52 l 0.9,-4.4 h 12.2 L 535.3,87 c 2.6,-0.9 4.7,-2.2 6.4,-3.9 1.7,-1.8 3.1,-4.5 4.4,-8.3 h 3.6 c -2.2,7.3 -5.8,12.1 -11,14.4 -1.4,0.6 -2.8,1.1 -4.1,1.5 l -1.3,6.1 c -1.1,5.5 -3.2,9.4 -6.5,11.8 -2.4,1.8 -5.1,2.7 -8.2,2.7 -3.1,0 -5.5,-0.7 -7.4,-2 -1.9,-1.3 -2.8,-3.5 -2.8,-6.5 0,-5.2 4.6,-9.3 13.9,-12.4 z m 6.4,-30.4 c 0,-1.3 -0.6,-2.2 -1.8,-2.8 -0.4,-0.2 -1,-0.4 -1.7,-0.4 -1.8,0 -3.4,0.8 -4.9,2.5 -3.6,4.1 -5.9,9.9 -6.8,17.5 -0.1,1.2 -0.2,2.4 -0.2,3.7 0,2.5 0.5,4.3 1.6,5.3 0.6,0.6 1.4,0.9 2.2,0.9 1.6,0 3,-0.6 4.4,-1.8 1.4,-1.2 2.3,-2.8 2.9,-4.9 z m -8.4,39.1 c -5.5,2 -8.3,4.4 -8.3,7.2 0,1.1 0.5,2 1.6,2.5 0.4,0.2 0.9,0.2 1.6,0.2 0.7,0 1.5,-0.6 2.4,-1.9 0.9,-1.2 1.6,-3.1 2.2,-5.7 z" />
			<path
   id="path1109"
   class="st1"
   d="m 523.7,46.8 c -4.7,0 -8.8,1.6 -12.2,4.9 -3.3,3.2 -5.9,7.3 -7.7,12.2 -0.8,2.2 -1.4,4.5 -1.8,6.7 -0.4,2.2 -0.6,4.5 -0.6,6.7 0,2.2 0.3,4.3 1,6.1 v 0 c 1.8,5 5.5,7.5 10.7,7.5 3.6,0 6.8,-1.5 9.6,-4.1 l -0.8,3.4 c -4.5,1.5 -8,3.3 -10.3,5.4 -2.4,2.1 -3.6,4.6 -3.6,7.3 0,3.1 1,5.4 2.9,6.8 1.9,1.4 4.5,2.1 7.6,2.1 3.1,0 6,-0.9 8.4,-2.7 3.3,-2.5 5.5,-6.5 6.6,-12 l 1.2,-5.9 c 1.3,-0.3 2.5,-0.8 3.9,-1.4 5.3,-2.4 9,-7.3 11.2,-14.7 l 0.1,-0.5 h -4.3 l -0.1,0.3 c -1.2,3.7 -2.6,6.4 -4.3,8.1 -1.4,1.5 -3.4,2.6 -5.5,3.4 l 8.3,-39 h -13 l -0.7,3.4 c -0.2,-0.9 -0.5,-1.8 -1.3,-2.5 0,0 0,0 0,0 -1,-1.1 -2.8,-1.5 -5.3,-1.5 z m 0,0.8 c 2.4,0 4.1,0.4 5,1.2 v 0 c 1,0.7 1.5,1.6 1.5,2.8 V 52 l 0.7,0.1 0.9,-4.1 h 11.5 l -8.5,39.6 0.6,-0.2 c 2.6,-0.9 4.8,-2.2 6.5,-4 1.7,-1.8 3.1,-4.5 4.3,-8.1 h 2.8 c -2.2,6.9 -5.6,11.5 -10.5,13.7 -1.4,0.6 -2.7,1.1 -4,1.4 l -0.2,0.1 -1.3,6.4 c -1.1,5.4 -3.2,9.2 -6.3,11.6 -2.3,1.7 -5,2.6 -8,2.6 -3,0 -5.4,-0.7 -7.2,-2 -1.7,-1.3 -2.6,-3.3 -2.6,-6.2 0,-2.5 1.1,-4.7 3.3,-6.7 2.3,-2 5.7,-3.8 10.3,-5.3 l 0.2,-0.1 1.4,-6 -0.9,1 c -2.9,3 -6.2,4.5 -9.9,4.5 -5,0 -8.3,-2.3 -10,-7 -0.6,-1.7 -0.9,-3.6 -0.9,-5.8 0,-2.2 0.2,-4.4 0.6,-6.6 0.4,-2.2 1,-4.4 1.8,-6.6 v 0 c 1.8,-4.8 4.3,-8.8 7.5,-11.9 3,-3.3 6.8,-4.8 11.4,-4.8 z m 2.6,4.5 c -1.9,0 -3.7,0.9 -5.2,2.7 -3.7,4.1 -5.9,10.1 -6.9,17.7 -0.1,1.2 -0.2,2.4 -0.2,3.7 0,2.6 0.5,4.4 1.7,5.5 0,0 0,0 0,0 0.7,0.7 1.5,1 2.5,1 1.7,0 3.2,-0.6 4.6,-1.9 v 0 c 1.4,-1.3 2.4,-3 3,-5 v 0 l 4.3,-20.2 v 0 c 0,-1.4 -0.7,-2.5 -2,-3.1 -0.4,-0.3 -1.1,-0.4 -1.8,-0.4 z m 0,0.7 c 0.6,0 1.1,0.1 1.5,0.3 v 0 0 c 1.1,0.5 1.6,1.3 1.6,2.4 l -4.3,20 c -0.5,2 -1.5,3.5 -2.8,4.7 -1.3,1.1 -2.7,1.7 -4.1,1.7 -0.8,0 -1.4,-0.3 -2,-0.8 v 0 c -0.9,-0.9 -1.5,-2.5 -1.5,-5 0,-1.3 0.1,-2.5 0.2,-3.6 0.9,-7.6 3.1,-13.3 6.7,-17.3 1.5,-1.6 3,-2.4 4.7,-2.4 z m -4.4,41.3 -0.6,0.2 c -2.8,1 -4.9,2.1 -6.3,3.4 -1.4,1.3 -2.2,2.7 -2.2,4.2 0,1.3 0.6,2.3 1.8,2.9 v 0 0 c 0.4,0.2 1,0.3 1.7,0.3 0.9,0 1.8,-0.7 2.7,-2 1,-1.3 1.7,-3.2 2.3,-5.8 v 0 z m -1,1.3 -0.3,1.7 c -0.5,2.5 -1.3,4.4 -2.1,5.5 v 0 c -0.9,1.2 -1.6,1.7 -2.1,1.7 -0.7,0 -1.1,-0.1 -1.4,-0.2 -1,-0.5 -1.4,-1.2 -1.4,-2.2 0,-1.3 0.6,-2.5 1.9,-3.6 1.2,-1 3.1,-2 5.4,-2.9 z" />
		</g>
		<g
   id="g1111">
			<path
   id="path1113"
   class="st1"
   d="m 594.3,74.9 c -3.6,10.5 -9.3,15.7 -17.1,15.7 -5,0 -7.8,-2.6 -8.3,-7.8 -3.7,5.2 -8,7.8 -13,7.8 -4.9,0 -8.3,-2.4 -10,-7.3 -0.6,-1.7 -1,-3.7 -1,-5.9 0,-2.2 0.2,-4.5 0.6,-6.7 0.4,-2.2 1,-4.5 1.8,-6.7 1.8,-4.9 4.3,-8.9 7.6,-12.1 3.3,-3.2 7.3,-4.8 11.9,-4.8 2.4,0 4.2,0.4 5.3,1.2 1.1,0.8 1.6,1.8 1.6,3.1 V 52 l 0.9,-4.5 h 12.2 l -6.1,28.9 c -0.2,1 -0.4,1.9 -0.4,2.7 0,2.4 1.2,3.7 3.5,3.7 3,0 5.3,-2.7 6.9,-8 h 3.6 z M 572.9,55.7 c 0,-0.5 -0.2,-1.2 -0.7,-2 -0.5,-0.8 -1.5,-1.2 -3.1,-1.2 -1.6,0 -3.1,0.8 -4.6,2.5 -3.6,4.1 -5.9,9.9 -6.8,17.5 -0.1,1.2 -0.2,2.4 -0.2,3.7 0,2.5 0.5,4.3 1.6,5.3 0.6,0.6 1.4,0.9 2.3,0.9 1.7,0 3.2,-0.7 4.6,-2 1.4,-1.4 2.3,-3.2 2.9,-5.5 z" />
			<path
   id="path1115"
   class="st1"
   d="m 566.8,46.8 c -4.7,0 -8.8,1.6 -12.2,4.9 -3.3,3.2 -5.9,7.3 -7.7,12.2 -0.8,2.2 -1.4,4.5 -1.8,6.7 -0.4,2.2 -0.6,4.5 -0.6,6.7 0,2.2 0.3,4.3 1,6.1 1.8,4.9 5.3,7.5 10.4,7.5 4.9,0 9.2,-2.6 12.9,-7.6 0.4,2.3 1,4.3 2.4,5.5 1.5,1.4 3.5,2.1 6.1,2.1 4,0 7.4,-1.4 10.3,-4 2.9,-2.6 5.3,-6.7 7.1,-12 l 0.2,-0.5 h -0.5 -3.8 l -0.1,0.3 c -0.8,2.6 -1.7,4.6 -2.8,5.9 -1.1,1.3 -2.3,1.9 -3.7,1.9 -1.1,0 -1.8,-0.3 -2.3,-0.8 -0.5,-0.5 -0.8,-1.3 -0.8,-2.5 0,-0.8 0.1,-1.7 0.4,-2.6 v 0 l 6.2,-29.3 h -13 l -0.7,3.4 c -0.2,-0.9 -0.5,-1.9 -1.3,-2.5 0,0 0,0 0,0 -1.4,-1 -3.3,-1.4 -5.7,-1.4 z m 0,0.8 c 2.4,0 4.1,0.4 5,1.2 v 0 c 1,0.7 1.5,1.6 1.5,2.8 v 0.6 l 0.7,0.1 0.8,-4.2 h 11.5 l -6,28.4 c -0.3,1 -0.4,1.9 -0.4,2.8 0,1.3 0.3,2.3 1,3 0.7,0.7 1.7,1 2.9,1 1.6,0 3.1,-0.7 4.3,-2.1 1.1,-1.3 2.1,-3.3 2.8,-5.9 h 2.8 c -1.8,4.9 -4,8.7 -6.6,11.1 -2.8,2.6 -6,3.8 -9.8,3.8 -2.4,0 -4.3,-0.6 -5.6,-1.8 -1.3,-1.2 -2.1,-3.1 -2.4,-5.6 l -0.1,-1 -0.6,0.8 c -3.7,5.1 -7.9,7.6 -12.7,7.6 -4.8,0 -8,-2.3 -9.7,-7 -0.6,-1.7 -0.9,-3.6 -0.9,-5.8 0,-2.2 0.2,-4.4 0.6,-6.6 0.4,-2.2 1,-4.4 1.8,-6.6 v 0 c 1.8,-4.8 4.3,-8.8 7.5,-11.9 3.1,-3.2 7,-4.7 11.6,-4.7 z m 2.3,4.5 c -1.7,0 -3.4,0.9 -4.9,2.7 -3.7,4.1 -5.9,10.1 -6.9,17.7 -0.1,1.2 -0.2,2.4 -0.2,3.7 0,2.6 0.5,4.4 1.7,5.5 0.7,0.7 1.5,1 2.5,1 1.8,0 3.4,-0.7 4.9,-2.1 v 0 c 1.4,-1.4 2.4,-3.3 3,-5.7 v 0 l 4.1,-19.2 v 0 c 0,-0.6 -0.3,-1.4 -0.8,-2.2 -0.6,-1 -1.8,-1.4 -3.4,-1.4 z m 0,0.7 c 1.5,0 2.4,0.4 2.7,1.1 v 0 0 c 0.5,0.8 0.7,1.4 0.7,1.8 l -4.1,19.1 c -0.5,2.3 -1.4,4 -2.8,5.3 0,0 0,0 0,0 0,0 0,0 0,0 -1.3,1.3 -2.8,1.9 -4.3,1.9 -0.8,0 -1.5,-0.3 -2,-0.8 v 0 0 c -0.9,-0.9 -1.5,-2.5 -1.5,-5 0,-1.3 0.1,-2.5 0.2,-3.6 0.9,-7.6 3.1,-13.3 6.7,-17.3 1.5,-1.7 2.9,-2.5 4.4,-2.5 z" />
		</g>
		<g
   id="g1117">
			<path
   id="path1119"
   class="st1"
   d="m 643.3,90.6 c -7.2,0 -10.9,-3.2 -10.9,-9.6 0,-2.3 0.6,-6 1.9,-11.1 1.3,-5.1 1.9,-8.6 1.9,-10.5 0,-2.9 -1,-4.4 -3.1,-4.4 -2.1,0 -3.9,1.6 -5.5,4.9 -0.5,0.9 -0.9,1.9 -1.2,3 l -5.8,27.3 h -12.2 l 6.2,-29.3 c 0.2,-0.7 0.2,-1.4 0.2,-2.1 0,-2.5 -0.8,-3.7 -2.5,-3.7 -1.7,0 -3.1,0.8 -4.3,2.4 -1.2,1.5 -2,3.4 -2.7,5.6 l -5.8,27.3 h -12.2 l 9,-42.5 h 12.2 l -0.9,4.4 c 2.8,-3.2 6.96817,-5.022699 11.06817,-5.022699 5,0 7.23183,2.622699 8.03183,7.522699 3.1,-4.8 7.1,-7.2 11.8,-7.2 2.7,0 5.56817,0.755675 7.36817,2.255675 1.8,1.5 2.47727,3.644325 2.47727,6.544325 0,2.9 -0.94544,6.2 -1.84544,10 l -2,8.3 c -0.4,1.8 -0.0875,3.18865 -0.0875,4.28865 0,2.4 0.77727,3.254601 2.87727,3.254601 1.9,0 3.01024,-0.04325 4.01024,-1.243251 1,-1.2 2,-3.1 3,-5.7 h 3.6 c -2.1,6.3 -4.8,10.6 -8,13.2 -1.9,1.3 -4.2,2.1 -6.6,2.1 z"
   sodipodi:nodetypes="ssssscccccsscccccccscsssccssscccss" />
			<path
   id="path1121"
   class="st1"
   d="m 618.2,46.8 c -3.8,0 -7.1,1.6 -9.8,4.3 l 0.8,-3.9 h -13 L 587,90.5 h 13 L 605.8,63 v 0 c 0.6,-2.1 1.5,-3.9 2.6,-5.4 1.1,-1.5 2.4,-2.2 4,-2.2 0.8,0 1.2,0.2 1.6,0.8 0.4,0.5 0.6,1.4 0.6,2.6 0,0.7 -0.1,1.4 -0.2,2 v 0 L 608,90.5 h 13 L 626.8,63 v 0 0 c 0.3,-1 0.7,-2 1.1,-2.9 v 0 0 c 0.8,-1.6 1.6,-2.8 2.5,-3.5 0.9,-0.8 1.7,-1.1 2.7,-1.1 0.9,0 1.5,0.3 2,0.9 0.4,0.6 0.7,1.6 0.7,3.1 0,1.9 -0.6,5.4 -1.9,10.5 -1.3,5.1 -1.9,8.8 -1.9,11.2 0,3.3 0.9,5.8 2.8,7.5 1.9,1.7 4.7,2.5 8.4,2.5 2.5,0 4.9,-0.9 7.2,-2.7 3.3,-2.6 6,-7 8.1,-13.3 l 0.2,-0.5 h -4.4 l -0.1,0.2 c -1,2.6 -2,4.4 -3,5.6 -0.9,1.1 -2.3,1.7 -4.1,1.7 -1,0 -1.6,-0.3 -2,-0.8 -0.4,-0.5 -0.7,-1.3 -0.7,-2.5 0,-1.1 0.2,-2.5 0.7,-4.3 v 0 l 2,-8.3 v 0 c 0.9,-3.8 1.4,-7.1 1.4,-10 0,-3 -0.9,-5.3 -2.8,-6.8 -1.9,-1.6 -4.2,-2.3 -7,-2.3 -4.7,0 -8.6,2.4 -11.7,7 -0.5,-2.2 -1.2,-4 -2.6,-5.1 -1.6,-1.7 -3.6,-2.3 -6.2,-2.3 z m 0,0.8 c 2.4,0 4.3,0.6 5.7,1.7 1.4,1.1 2.3,2.9 2.7,5.2 l 0.2,1 0.5,-0.8 c 3.1,-4.7 6.9,-7 11.5,-7 2.6,0 4.8,0.7 6.5,2.2 1.7,1.4 2.6,3.5 2.6,6.3 0,2.8 -0.5,6.1 -1.4,9.9 l -2,8.3 c -0.4,1.8 -0.7,3.3 -0.7,4.5 0,1.3 0.3,2.3 0.9,3 0.6,0.7 1.5,1 2.6,1 2,0 3.6,-0.7 4.7,-2 1,-1.2 2,-3.1 3,-5.6 h 2.8 c -2.1,5.9 -4.6,10.1 -7.6,12.5 -2.2,1.7 -4.4,2.5 -6.7,2.5 -3.6,0 -6.2,-0.8 -7.9,-2.3 -1.7,-1.5 -2.6,-3.8 -2.6,-6.9 0,-2.3 0.6,-6 1.9,-11 1.3,-5.1 1.9,-8.6 1.9,-10.6 0,-1.5 -0.3,-2.7 -0.8,-3.5 -0.6,-0.8 -1.5,-1.3 -2.6,-1.3 -1.1,0 -2.2,0.5 -3.2,1.3 -1,0.9 -1.8,2.1 -2.7,3.8 -0.5,0.9 -0.9,2 -1.2,3.1 v 0 l -5.7,27 H 609.1 L 615.2,61 c 0.2,-0.7 0.3,-1.4 0.3,-2.2 0,-1.3 -0.2,-2.3 -0.7,-3 -0.5,-0.7 -1.3,-1.1 -2.2,-1.1 -1.8,0 -3.3,0.9 -4.6,2.5 -1.2,1.6 -2.1,3.5 -2.7,5.7 v 0 l -5.7,27 h -11.5 l 8.8,-41.8 h 11.5 l -1.1,5.3 0.9,-1.1 c 2.7,-3.2 6,-4.7 10,-4.7 z" />
		</g>
		<g
   id="g1123">
			<path
   id="path1125"
   class="st1"
   d="m 666,75.5 c 0,4.7 1.8,7.1 5.4,7.1 1.6,0 3.3,-0.5 5.1,-1.4 1.9,-0.9 3.5,-2 4.8,-3.2 -1.5,8.4 -6.4,12.6 -14.7,12.6 -4,0 -7.2,-1 -9.6,-3.1 -2.4,-2.1 -3.6,-5.6 -3.6,-10.4 0,-6.5 1.6,-12.7 4.9,-18.8 2.5,-4.6 5.9,-7.9 10.3,-9.9 2.2,-1.1 4.6,-1.6 7,-1.6 3.9,0 6.6,0.7 8,2.2 1.4,1.5 2.1,3.4 2.1,5.9 0,4.9 -2,9 -5.9,12.4 -3.9,3.4 -8.4,5.2 -13.7,5.6 0,0.8 -0.1,1.7 -0.1,2.6 z m 13.2,-21.1 c 0,-2 -0.7,-3.1 -2.1,-3.1 -2.7,0.1 -5.3,3.2 -7.8,9.4 -1.1,2.6 -1.9,5.3 -2.5,8.1 3.3,-0.1 6.1,-1.6 8.6,-4.4 2.5,-2.8 3.8,-6.1 3.8,-10 z" />
			<path
   id="path1127"
   class="st1"
   d="m 675.6,46.5 c -2.5,0 -4.8,0.5 -7.1,1.6 -4.4,2 -7.9,5.4 -10.5,10 v 0 c -3.3,6.1 -5,12.4 -5,19 0,4.9 1.2,8.5 3.7,10.7 2.5,2.1 5.8,3.2 9.8,3.2 4.2,0 7.6,-1.1 10.1,-3.2 2.5,-2.2 4.2,-5.4 4.9,-9.6 l 0.2,-1.1 -0.8,0.7 c -1.3,1.2 -2.9,2.2 -4.7,3.1 v 0 c -1.8,0.9 -3.4,1.3 -4.9,1.3 -1.7,0 -2.9,-0.5 -3.7,-1.6 -0.8,-1.1 -1.3,-2.8 -1.3,-5.1 0,-0.8 0.1,-1.6 0.2,-2.3 5.2,-0.4 9.7,-2.2 13.6,-5.6 4,-3.4 6,-7.7 6,-12.7 0,-2.5 -0.7,-4.6 -2.2,-6.2 -1.5,-1.5 -4.3,-2.2 -8.3,-2.2 z m 0,0.7 c 3.9,0 6.4,0.8 7.7,2.1 v 0 c 1.3,1.4 2,3.2 2,5.6 0,4.8 -1.9,8.8 -5.7,12.1 -3.8,3.3 -8.3,5.1 -13.5,5.5 h -0.3 v 0.3 c -0.1,0.7 -0.2,1.5 -0.2,2.3 v 0 0.4 c 0,2.4 0.5,4.2 1.4,5.5 1,1.3 2.5,1.9 4.3,1.9 1.6,0 3.4,-0.5 5.3,-1.4 1.5,-0.8 2.8,-1.7 4,-2.6 -0.8,3.6 -2.2,6.4 -4.4,8.3 -2.4,2 -5.6,3.1 -9.6,3.1 -3.9,0 -7,-1 -9.3,-3 -2.3,-2 -3.5,-5.3 -3.5,-10.1 0,-6.4 1.6,-12.6 4.9,-18.6 2.5,-4.6 5.9,-7.8 10.1,-9.7 2.2,-1.1 4.5,-1.7 6.8,-1.7 z m 1.5,3.8 c -1.5,0.1 -2.9,1 -4.2,2.6 -1.3,1.6 -2.6,4 -3.9,7 -1.1,2.6 -1.9,5.4 -2.6,8.2 l -0.1,0.5 h 0.5 c 3.4,-0.1 6.4,-1.6 8.9,-4.5 2.6,-2.9 3.9,-6.4 3.9,-10.3 0,-1.1 -0.2,-1.9 -0.6,-2.5 -0.4,-0.7 -1.1,-1 -1.9,-1 z m 0,0.7 c 0.6,0 1,0.2 1.3,0.6 0.3,0.4 0.5,1.1 0.5,2.1 0,3.8 -1.2,7 -3.7,9.8 v 0 c -2.3,2.6 -4.9,3.9 -7.8,4.1 0.6,-2.6 1.4,-5.1 2.3,-7.5 1.2,-3 2.5,-5.3 3.8,-6.9 1.2,-1.4 2.4,-2.1 3.6,-2.2 z" />
		</g>
	</g></g></g></g>
</g>
</svg>
