<?xml version="1.0" encoding="utf-8"?>
<!-- Generator: Adobe Illustrator 21.0.0, SVG Export Plug-In . SVG Version: 6.00 Build 0)  -->
<svg version="1.1" id="Layer_1" xmlns="http://www.w3.org/2000/svg" xmlns:xlink="http://www.w3.org/1999/xlink" x="0px" y="0px"
	 viewBox="0 0 40 50" style="enable-background:new 0 0 40 50;" xml:space="preserve">
<style type="text/css">
	.st0{fill:#F89958;}
	.st1{fill:#008182;}
	.st2{fill:#F26722;}
</style>
<g>
	<g>
		<path class="st0" d="M21,17.3c1.1,1.4,2.2,2.9,3.3,4.3c1.7,2.1,2.5,4.3,1.1,6.9c-1,2.6-3.3,3.9-5.7,5c-1.6,0.7-3.3,1.7-5.3,1
			c-2.3,0-4.2-0.6-5.2-2.8c0.2-0.8,1-1.1,1.7-1.4c1.7-0.9,3.3-1.9,4.8-3.2c0.6-0.5,1.5-1.1,1.1-1.8c-0.4-0.8-1.6-0.5-2.3-0.3
			c-2,0.4-3.7,1.5-5.5,2.3c-0.6,0.3-1.1,0.8-1.8,0.6C5.6,25,4.6,22,3.7,19.1c0.9-1,2.2-1.4,3.3-2.1c1.6-0.9,3.2-1.9,4.4-3.3
			c0.4-0.4,1-0.8,0.6-1.5c-0.4-0.6-1.1-0.4-1.7-0.3c-2.9,0.7-5.4,2-7.8,3.6C1.3,11-0.1,6.4,0,1.6c0-1.6,0.6-1.9,2.2-1.2
			C4.7,1.5,6.7,3.2,8.7,5c3.3,2.9,6.7,5.8,9.4,9.2c0,1.1-1.1,1.3-1.8,1.7c-1.9,1-3.8,2.2-5.3,3.7c-0.4,0.4-0.9,0.8-0.6,1.3
			c0.3,0.7,1.1,0.5,1.6,0.4c2.5-0.4,4.5-1.7,6.7-2.7C19.5,18.2,20.2,17.7,21,17.3z"/>
		<path class="st1" d="M14.4,34.4c4.6-0.4,8.2-2.6,11-6c3.3,1,6.7,1.8,9.7,3.7c2.1,1.3,4.1,2.6,4.8,5.2c0.7,2.6-0.8,4.4-3.7,3.9
			c-2.1-0.4-4.2-1-6.2-1.8c-0.3-0.1-0.5-0.2-0.9-0.3c0.1,1.3,1,2.1,1.6,3c1,1.5,1.1,3.1,1,4.8c-0.1,1.3-0.7,1.6-1.9,1.1
			c-1.4-0.5-2.5-1.4-3.5-2.3c-1-0.8-1.9-1.8-2.9-2.7c-0.3-0.3-0.6-0.8-1.2-0.6c-0.7,0.2-0.4,0.8-0.4,1.2c-0.2,1.6,0.1,3.2-0.3,4.8
			c-0.5,1.8-1.9,2.2-3.4,1c-2.6-2-3.1-4.8-3.6-7.6C13.9,39.3,13.9,36.9,14.4,34.4z"/>
		<path class="st2" d="M21,17.3c0,0.4-0.2,0.6-0.6,0.8c-2.1,1.2-4.4,2.3-6.6,3.3c-0.8,0.4-1.7,0.6-2.7,0.5c-0.6-0.1-1.3,0.1-1.5-0.6
			c-0.2-0.6,0.1-1.1,0.6-1.5c1.6-1.7,3.5-3,5.6-4.1c0.8-0.4,1.6-0.8,2.2-1.4C19.4,14.9,20,16.3,21,17.3z"/>
		<path class="st2" d="M2.6,15.6c0.1-0.3,0.1-0.7,0.5-0.9c2.3-1.4,4.7-2.6,7.4-3.2c0.8-0.2,1.8-0.4,2.3,0.5c0.5,0.9-0.4,1.5-0.9,2
			c-2.3,2.3-5.1,3.8-8.1,5C3.3,17.9,2.9,16.8,2.6,15.6z"/>
		<path class="st2" d="M7.1,27.7c2.1-1.2,4.3-2.4,6.6-3.2c1.3-0.4,3-0.9,3.7,0.2c0.6,1-0.9,2-1.8,2.8c-1.9,1.7-4.2,2.7-6.4,4
			C8.1,30.5,7.5,29.2,7.1,27.7z"/>
	</g>
</g>
</svg>
